<?xml version="1.0" standalone="no"?>
<!DOCTYPE svg PUBLIC "-//W3C//DTD SVG 1.1//EN" "http://www.w3.org/Graphics/SVG/1.1/DTD/svg11.dtd" >
<svg xmlns="http://www.w3.org/2000/svg" xmlns:xlink="http://www.w3.org/1999/xlink" version="1.1">
<metadata>
Created by FontForge 20170812 at Fri Dec  3 18:07:51 1999
 By www-data
Copyright (c) Dennis Ludlow, 2001. All rights reserved.
</metadata>
<defs>
<font id="RoyalAcid" horiz-adv-x="556" >
  <font-face 
    font-family="Royal Acid"
    font-weight="400"
    font-style="italic"
    font-stretch="normal"
    units-per-em="1000"
    panose-1="2 0 0 0 0 0 0 0 0 0"
    ascent="800"
    descent="-200"
    x-height="582"
    cap-height="780"
    bbox="-66.3605 -212.411 1270.72 892"
    underline-thickness="73"
    underline-position="-214"
    slope="-12"
    unicode-range="U+0020-F005"
  />
<missing-glyph horiz-adv-x="750" 
d="M125 0h500l88 625h-500zM143 16l84 593h468l-84 -593h-468z" />
    <glyph glyph-name=".notdef" horiz-adv-x="750" 
d="M125 0h500l88 625h-500zM143 16l84 593h468l-84 -593h-468z" />
    <glyph glyph-name=".null" horiz-adv-x="0" 
 />
    <glyph glyph-name="nonmarkingreturn" horiz-adv-x="278" 
 />
    <glyph glyph-name="space" unicode=" " horiz-adv-x="278" 
 />
    <glyph glyph-name="space" unicode="&#xa0;" horiz-adv-x="278" 
 />
    <glyph glyph-name="exclam" unicode="!" horiz-adv-x="267" 
d="M172 736l-9 -27l-20 -394q7 -14 15 -22q-73 -40 -69 -107q18 -55 72 -53q50 -1 81 40q39 85 -33 118l18 18l4 12l94 392q-2 14 -5.5 25.5t-8.5 21.5q-36 31 -84 24q-37 -19 -55 -48z" />
    <glyph glyph-name="quotedbl" unicode="&#x22;" horiz-adv-x="424" 
d="M219 635l69 139q15 34 18 51q3 20 -14 36.5t-51 16.5q-30 0 -53 -16t-26 -39q-3 -20 3 -48l30 -140h24zM367 635l67 140q19 39 20 51q2 17 -14 34.5t-50 17.5q-31 0 -54.5 -16t-26.5 -38q-3 -16 5 -49l29 -140h24z" />
    <glyph glyph-name="numbersign" unicode="#" horiz-adv-x="625" 
d="M147 236l-66 -190h111l65 190h109l-65 -190h109l65 190h141l15 108h-119l51 144h89l15 108h-67l65 190h-114l-63 -190h-108l64 190h-109l-64 -190h-140l-15 -108h118l-51 -144h-88l-15 -108h67zM343 488h108l-49 -144h-108z" />
    <glyph glyph-name="dollar" unicode="$" horiz-adv-x="462" 
d="M290 753q5 33 32 55h58l5 -2q16 -21 13 -53q65 -6 115 -53l3 -15l-15 -106q-5 -11 -16 -21q-30 -12 -59 0q-5 4 -9 15q1 46 -36 78l-18 -130q151 -76 125 -208q-24 -135 -175 -166q-1 -42 -33 -74h-62q-22 25 -12 71q-77 1 -138 56l18 143q30 29 68 15l12 -15l2 -4
q-6 -68 54 -94l23 164q-142 71 -115 207q34 112 160 137zM275 636l-1 6q-20 -26 -5 -53zM328 255q39 43 10 90l-11 -80z" />
    <glyph glyph-name="percent" unicode="%" horiz-adv-x="718" 
d="M494 694q52 11 100 53h63q19 -12 18 -39q-4 -6 -8 -13.5t-10 -15.5l-37 -51q-1 -3 -3.5 -7t-6.5 -9l-7 -11l-12 -16q-2 -2 -5 -8l-46 -64l-15 -22l-8 -12l-16 -25l-7 -8q74 59 167 51q72 -14 81 -90q-3 -165 -160 -265q-128 -62 -189 48v2q-14 50 1 112l-54 -78l-8 -12
l-12 -16l-3 -6q-8 -8 -15 -21q-5 -5 -9.5 -12t-9.5 -15q-2 -2 -6 -9t-15 -17q-17 -6 -40 -4q-54 -11 -54 39q5 12 31 49l3 6l51 70q5 9 10 14l5 10l7 8l7 11l20 28l3 5l12 16q1 1 2.5 3t2.5 5l12 18l9 11q-102 -80 -196 -25q-80 77 -19 201q99 182 274 146q9 -4 20 -13
l21 -18q13 -4 37 -4h14zM361 620q-10 5 -28 18q-84 -66 -99 -172q6 -5 16 -6q97 46 111 160zM478 599l-22 2q-8 -18 -11 -38l-5 -11l1 -6l27 39l8 10zM644 388q-8 10 -23 11q-87 -61 -102 -173l13 -6q106 49 112 168z" />
    <glyph glyph-name="ampersand" unicode="&#x26;" horiz-adv-x="698" 
d="M242 493q-175 -85 -184 -248q22 -125 144 -123q111 -4 197 59q167 -146 307 52q9 31 -9 49q-20 13 -42 12q-80 -82 -140 -2l6 6l2 4l10 10l36 42l3 6l31 45l4 4l10 14q13 20 34 35q41 2 62 33q8 29 -6 55q-6 3 -11 5t-10 3h-158q85 211 -142 201q-187 -67 -144 -262z
M393 569l-8 -7q-22 63 17 95q75 -13 -9 -88zM508 458l-7 -21l-2 -6l-15 -22l-2 -6l-22 -29l-12 23l-4 4l-7 18l-5 10l-16 35l45 27q15 -31 47 -33zM278 382l61 -121q-74 -53 -114 6q-30 76 46 127q2 -2 3.5 -5z" />
    <glyph glyph-name="quotesingle" unicode="'" horiz-adv-x="222" 
d="M217 635l69 139q15 34 18 51q3 20 -14 36.5t-51 16.5q-30 0 -53 -16t-26 -39q-3 -20 3 -48l30 -140h24z" />
    <glyph glyph-name="parenleft" unicode="(" horiz-adv-x="333" 
d="M301 -47q-15 47 -25 82.5t-15 60.5q-15 76 -18 159.5t8 164.5q8 58 22 113t34 107t51 114.5t76 137.5h-94q-38 -47 -71.5 -97t-62.5 -105q-33 -63 -54 -129.5t-32 -137.5q-16 -115 6 -235.5t80 -234.5h95z" />
    <glyph glyph-name="parenright" unicode=")" horiz-adv-x="333" 
d="M55 -47q58 95 80 143q38 76 64.5 159.5t37.5 164.5q8 58 9 113t-4 107q-10 101 -56 252h93q52 -92 79 -202q15 -63 18 -129.5t-8 -137.5q-16 -115 -71.5 -235.5t-147.5 -234.5h-94z" />
    <glyph glyph-name="asterisk" unicode="*" horiz-adv-x="389" 
 />
    <glyph glyph-name="plus" unicode="+" horiz-adv-x="584" 
 />
    <glyph glyph-name="comma" unicode="," horiz-adv-x="278" 
d="M96 -38q87 25 136 79.5t59 124.5q8 57 -17 89t-67 32q-18 0 -34 -6.5t-29 -18t-21.5 -26t-10.5 -30.5q-5 -30 13 -52.5t47 -22.5q21 0 37 8q5 4 9 4t7 -4q1 -3 1 -13q-6 -42 -36.5 -80t-90.5 -63z" />
    <glyph glyph-name="hyphen" unicode="-" horiz-adv-x="401" 
d="M132 349h334l30 104h-334z" />
    <glyph glyph-name="hyphen" unicode="&#xad;" horiz-adv-x="401" 
d="M132 349h334l30 104h-334z" />
    <glyph glyph-name="period" unicode="." horiz-adv-x="311" 
d="M191 291q-17 0 -32.5 -6.5t-28 -17.5t-21 -26t-11.5 -32q-5 -34 16 -57.5t54 -23.5q34 0 61 23.5t32 57.5t-15 58t-55 24z" />
    <glyph glyph-name="slash" unicode="/" horiz-adv-x="278" 
 />
    <glyph glyph-name="zero" unicode="0" horiz-adv-x="479" 
d="M296 761l13 4l85 -2q175 -72 124 -343q-21 -154 -149 -256q-22 -14 -54 -23l-15 -4h-84l-35 11q-115 77 -106 243l9 64q11 130 109 248q14 14 41 33l9 4l5 4l43 17h5zM362 656q-11 16 -33 18q-21 -10 -40 -31q-77 -159 -63 -347q1 -11 8 -33q0 -3 2 -6.5t4 -8.5
q11 -19 36 -20q19 6 37 27q82 165 64 355q-2 21 -14 42z" />
    <glyph glyph-name="one" unicode="1" horiz-adv-x="329" 
d="M252 762l37 11q42 8 52 -31l-71 -508q69 -4 48 -70q-7 -9 -19 -18h-229q-11 8 -14 22q-3 61 69 66q2 7 3.5 15t2.5 17l55 386q-80 -6 -50 71q4 6 14 13l47 12q26 6 43 12z" />
    <glyph glyph-name="two" unicode="2" horiz-adv-x="493" 
d="M108 563q27 163 198 214q154 22 198 -121q17 -159 -148 -295q-9 -11 -28 -26l-59 -54h125q59 69 89 50q30 -12 19 -50l-24 -43l-8 -14q-3 -13 -12 -26q-5 -10 -9.5 -18.5t-9.5 -15.5l-7 -10l-7 -6q-19 -3 -45 -2h-314q-9 5 -14 18l6 42l7 10l101 93l8 8l60 56l11 11
l70 82q3 1 6 8l10 14l18 39l3 10q10 30 3 66q-18 43 -72 40q-62 -14 -90 -88q-8 -11 -22 -18q-40 -8 -63 26z" />
    <glyph glyph-name="three" unicode="3" horiz-adv-x="425" 
d="M109 606q6 -43 52 -39q8 4 13.5 7t10.5 7q77 116 145 49q5 -98 -130 -129q-5 -4 -9.5 -8t-8.5 -8q-12 -36 4 -58l11 -6q103 13 127 -63q8 -67 -44 -107q-21 -10 -44 -10q-167 109 -184 -41q6 -19 19 -32t25 -17l19 -7q141 -20 257 60q82 72 90 162q15 102 -50 155
q100 100 41 205q-66 65 -161 48q-143 -39 -183 -168z" />
    <glyph glyph-name="four" unicode="4" horiz-adv-x="481" 
d="M383 758l13 10h68l11 -10l3 -4q2 -7 2.5 -14t-0.5 -15l-45 -317q50 4 76 -19q1 -14 -3 -30l-8 -58q-32 -30 -83 -24l-14 -97l-3 -12q-13 -22 -38 -22h-80l-13 10q-5 12 -4 26l12 89l-1 8h-183q-15 0 -27 6l-11 16l12 84zM312 521v10l-104 -125l88 -1z" />
    <glyph glyph-name="five" unicode="5" horiz-adv-x="463" 
d="M473 760q6 9 23 19q85 0 34 -82q-14 -41 -55 -72l-156 -2l-11 -6q256 -60 156 -330q-129 -203 -357 -137q-17 11 -32 34q-4 24 2 60q58 92 185 -8q37 6 67 39q94 193 -161 207q-17 7 -27 28q0 15 4 31q6 9 16 25l2 6q5 6 9 13.5t9 16.5l7 9l21 37l5 6q6 10 10.5 18.5
t9.5 16.5l3 6q9 12 18 30l17 25l8 6q24 6 56 4h137z" />
    <glyph glyph-name="six" unicode="6" horiz-adv-x="479" 
d="M134 561q-92 -185 -23 -335q26 -41 65 -65l9 -6l33 -11q190 -24 273 152q85 298 -187 276q88 112 208 127q7 4 12.5 7.5t10.5 8.5q35 84 -68 69q-221 -41 -333 -223zM328 255l-20 -16q-9 -2 -17 -2.5t-15 0.5q-19 12 -31 28q-30 92 1 182q11 7 21 11t20 6q73 -2 74 -76
q0 -75 -33 -133z" />
    <glyph glyph-name="seven" unicode="7" horiz-adv-x="459" 
d="M104 597q76 161 90 172h324q13 -2 24 -12q2 -24 -4 -51l-251 -544q-4 -4 -8.5 -8t-9.5 -8h-80l-10 2l-11 16l-1 4l186 412v5l14 28l3 8l8 14l-126 2l-17 -2l-16 -6q-7 -6 -14.5 -14t-15.5 -18l-2 -4l-9 -11l-9 -8q-13 -4 -32 -4q-21 7 -33 27z" />
    <glyph glyph-name="eight" unicode="8" horiz-adv-x="444" 
d="M126 644q42 106 165 135q149 22 196 -98q21 -118 -99 -200q69 -50 74 -151q-11 -177 -194 -203q-166 -23 -202 135q2 117 109 193q-80 71 -49 189zM360 640q-7 45 -57 43q-42 -11 -49 -57q13 -46 53 -78l9 6q39 32 44 86zM323 300q-21 50 -75 89q-60 -64 -33 -141l16 -19
q85 -22 92 71z" />
    <glyph glyph-name="nine" unicode="9" horiz-adv-x="485" 
d="M480 370q92 179 24 332q-25 41 -65 64l-10 6l-32 12q-191 23 -270 -152q-85 -296 184 -274q-87 -111 -205 -126q-15 -8 -25 -16q-33 -84 69 -68q222 40 330 222zM288 673l19 15q9 2 17 2.5t15 -0.5q20 -10 31 -27q29 -89 0 -181q-22 -13 -42 -17q-74 2 -74 76t34 132z
" />
    <glyph glyph-name="colon" unicode=":" horiz-adv-x="321" 
d="M272 676q-17 0 -32.5 -6.5t-28 -17.5t-21 -26t-11.5 -32q-2 -17 2.5 -31.5t14 -25.5t23 -17.5t30.5 -6.5q34 0 61 24t32 57q5 34 -15.5 58t-54.5 24zM223 370q-17 0 -32.5 -6.5t-28 -17.5t-21 -26t-10.5 -31q-5 -34 15.5 -57.5t53.5 -23.5q34 0 61.5 23.5t32.5 57.5
q5 33 -15.5 57t-55.5 24z" />
    <glyph glyph-name="semicolon" unicode=";" horiz-adv-x="278" 
d="M358 676q-34 0 -64 -24t-41 -58q-9 -33 8 -57t51 -24q17 0 33.5 6.5t31 17.5t24.5 25.5t15 31.5q11 34 -6.5 58t-51.5 24zM113 45q91 26 148 80t77 124q8 28 6.5 51t-11 38.5t-25.5 24t-37 8.5q-18 0 -35 -6.5t-31 -18t-25 -26t-15 -30.5q-9 -31 5.5 -53.5t43.5 -22.5
q20 0 37 9q9 3 11 3q5 0 5 -4q2 -3 -1 -13q-11 -40 -47 -79t-100 -63z" />
    <glyph glyph-name="semicolon" unicode="&#x37e;" horiz-adv-x="278" 
d="M358 676q-34 0 -64 -24t-41 -58q-9 -33 8 -57t51 -24q17 0 33.5 6.5t31 17.5t24.5 25.5t15 31.5q11 34 -6.5 58t-51.5 24zM113 45q91 26 148 80t77 124q8 28 6.5 51t-11 38.5t-25.5 24t-37 8.5q-18 0 -35 -6.5t-31 -18t-25 -26t-15 -30.5q-9 -31 5.5 -53.5t43.5 -22.5
q20 0 37 9q9 3 11 3q5 0 5 -4q2 -3 -1 -13q-11 -40 -47 -79t-100 -63z" />
    <glyph glyph-name="less" unicode="&#x3c;" horiz-adv-x="584" 
 />
    <glyph glyph-name="equal" unicode="=" horiz-adv-x="584" 
 />
    <glyph glyph-name="greater" unicode="&#x3e;" horiz-adv-x="584" 
 />
    <glyph glyph-name="question" unicode="?" horiz-adv-x="402" 
d="M106 624q0 -116 112 -64q59 66 13 124q31 16 58 3q26 -13 28 -44l-1 -13q-3 -21 -9 -35l-17 -45l-16 -33l-8 -15q-80 -111 -75 -188q3 -12 9 -21q-54 -33 -60 -88q6 -52 48 -71q63 -8 103 38q40 79 -21 123l5 7l9 20l1 7l6 14l7 17l16 31l7 8l32 39q149 137 104 277
q-61 103 -194 85q-72 -20 -112 -63.5t-45 -112.5z" />
    <glyph glyph-name="at" unicode="@" horiz-adv-x="786" 
d="M91 372q25 -215 207 -276q198 -57 374 50q18 60 -21 88q130 73 162 202q39 168 -61 270q-122 105 -284 83q-353 -80 -377 -417zM651 626l-8 -1l-52 -3q-136 52 -246 -97q-107 -140 -48 -267q-82 118 -15 254q69 154 219 169q92 -2 150 -55zM629 339l-17 -4q1 3 3 8.5
t5 13.5l3 8l4 9l7 16l3 10l31 75l3 9l4 11l5 11l4 15q10 16 11 29q33 -122 -66 -211zM527 508q-15 -110 -93 -167l-8 9q2 109 95 162zM581 219q-156 -57 -268 19q92 -40 175 20q42 -39 93 -39z" />
    <glyph glyph-name="A" unicode="A" horiz-adv-x="612" 
d="M390 723q9 22 31 34q37 7 59 -20l98 -424q117 -414 290 -426q84 -4 163 60q-57 79 29 121q67 28 97 -38q3 -58 -38 -119q-21 -30 -63 -60l-5 -4l-60 -32l-45 -16q-298 -73 -469 321q-5 7 -51 177l-2 4h-151l-50 -76l-5 -14q74 -6 34 -82q-11 -8 -25 -12h-162
q-27 7 -35 22l6 44q14 24 44 26l11 8l291 494zM388 492l-4 10l-32 -58l-4 -6l-11 -21l-5 -6h71l8 2l-18 57l-4 14z" />
    <glyph glyph-name="B" unicode="B" horiz-adv-x="671" 
d="M92 616q30 142 182 161h240l16 -2h19l74 -20l25 -12q37 -25 58 -74q30 -114 -63 -212q96 -86 30 -237q-42 -103 -179 -116l-6 -2h-340q-8 5 -17 19q-6 79 70 78q8 2 16 8l4 13l61 436l-1 13q-28 4 -61 -13q30 -67 -38 -129q-107 -37 -90 89zM552 570q14 107 -110 93
q-6 -15 -6 -32l-17 -118q103 -23 133 57zM527 285q22 117 -123 107q-4 -10 -5.5 -22t-3.5 -27l-17 -125q113 -26 149 67z" />
    <glyph glyph-name="C" unicode="C" horiz-adv-x="601" 
d="M77 376q17 323 320 398h98l88 -25q39 42 87 19q3 -10 -13 -229q-3 -10 -11 -23q-32 -21 -68 -11q-9 7 -15 21q-18 181 -188 121q-86 -48 -112 -156q-25 -84 -7 -179q66 -160 241 -64q-4 46 43 83q37 14 73 -4q32 -38 8 -96q-139 -160 -343 -127q-193 44 -201 272z" />
    <glyph glyph-name="D" unicode="D" horiz-adv-x="752" 
d="M106 646q51 119 182 133l254 -2l25 -3q11 -3 34 -6l13 -4l14 -4h5l61 -28l30 -22l20 -19l26 -32l1 -4l7 -9q3 -15 13 -30l3 -6q20 -67 14 -139t-39 -150q-72 -145 -228 -199l-21 -4l-23 -7q-8 0 -14 -2l-14 -2h-310q-9 5 -14 13q-15 84 71 86l6 6q2 8 4 19t4 24l52 374
q5 15 3 35l1 6q-22 5 -51 -6l-4 -5q29 -72 -41 -130q-117 -30 -84 117zM644 492q-15 179 -197 174l-65 -445q58 -9 125 17q143 74 137 254z" />
    <glyph glyph-name="E" unicode="E" horiz-adv-x="688" 
d="M100 640q43 145 208 151h397l15 -2q13 -5 19 -17q6 -36 -5 -84l-4 -28l1 -7l-6 -39l-8 -17q-20 -17 -43 -17l-3 -4q1 -18 -5 -50l-22 -157l-5 -22q-7 -12 -22 -24q-27 -8 -57 3q-15 25 -13 62q-2 7 -7 13q-12 4 -40 4h-64l-16 3l-8 -3l-25 -174q27 -7 67 -4
q118 -20 180 99q5 7 16 15q30 7 60 0q8 -8 13 -20l-5 -34l-21 -54l-4 -9l-5 -13l-1 -6q-3 -3 -3 -9l-16 -41l-5 -10l-3 -11l-12 -13l-5 -4q-20 -5 -49 -3h-424q-12 4 -20 18q-9 76 75 84q5 13 21 126t45 328v11q-31 4 -64 -13q30 -74 -45 -133q-106 -24 -82 105zM570 675
h-118q-6 -19 -9 -50l-13 -92l1 -9h67q12 -3 35 2h6q12 0 21 4q10 13 15 33q2 7 5 14.5t7 15.5q21 18 44 19q2 14 -1.5 27.5t-10.5 26.5q-21 9 -49 9z" />
    <glyph glyph-name="F" unicode="F" horiz-adv-x="654" 
d="M108 644q57 126 202 131h398l16 -2q12 -6 21 -23l-20 -159q-1 -2 -2.5 -4t-2.5 -5q-23 -16 -52 -17l-31 -225q-4 -7 -9.5 -13t-11.5 -13q-27 -8 -57 0q-9 9 -12 19q1 22 -5 52l-1 4q-31 7 -75 6h-41l-7 -2l-24 -185q61 -4 67 -40q-3 -66 -64 -60h-228q-12 10 -16 24
q0 74 71 72l9 6l3 13l61 431l-2 13q-28 4 -63 -11q32 -75 -43 -131q-116 -30 -81 119zM583 661h-125q-4 -10 -5.5 -22t-3.5 -27l-13 -91l1 -9h64q16 -2 33 2h12l9 2q19 25 27 62q22 21 54 21q0 31 -13 53q-13 7 -34 7z" />
    <glyph glyph-name="G" unicode="G" horiz-adv-x="669" 
d="M78 330q54 -264 349 -228h8l5 2l10 2l9 2l68 19l16 6q5 3 9.5 5t7.5 4q11 4 19 8t14 8l19 17l9 21l27 196l5 8q71 8 59 82q-5 5 -10 9t-8 6h-230q-18 -9 -27 -21q-25 -80 50 -76l6 -6l-23 -165q-135 -59 -202 50q-37 83 -14 176q18 122 113 190q173 69 205 -111l10 -13
q25 -7 46 -6q9 5 16.5 11t14.5 12l3 13l6 37q-1 13 0.5 23.5t3.5 18.5l1 13q-1 19 3 35l3 31l5 38q-3 16 -13 27q-49 15 -78 -23h-6l-13 4l-21 7q-12 6 -23 7t-20 5h-7q-9 4 -20 2h-86q-328 -82 -319 -446z" />
    <glyph glyph-name="H" unicode="H" horiz-adv-x="759" 
d="M91 613q31 142 183 161h217l13 -2l9 -4q15 -26 6 -60q-23 -37 -66 -35l-10 -6l-24 -166h172l24 166q-17 10 -42 10l-9 5l-11 10q-2 12 -1.5 25.5t3.5 28.5q5 8 12.5 14.5t17.5 13.5h246l10 -4q19 -24 10 -62q-23 -35 -76 -39l-4 -13l-35 -253q-67 -311 176 -483
q19 -9 47 -15q89 -15 183 34q4 58 59 80q128 -9 21 -140q-31 -29 -64 -45l-18 -9l-38 -13h-6l-13 -4l-13 -2l-13 -2q-15 -4 -37 -4h-39q-161 -10 -284 111q-158 175 -122 468q-8 2 -18.5 2.5t-24.5 -0.5h-129q-7 -19 -10 -53l-17 -116l12 -1q29 2 52 -19q7 -24 -4 -58
q-14 -16 -29 -24h-246q-12 8 -21 19q-9 82 71 82l10 6l61 437v13q-30 4 -62 -13q28 -69 -38 -129q-108 -38 -91 88z" />
    <glyph glyph-name="I" unicode="I" horiz-adv-x="444" 
d="M102 619q28 141 185 161h230q14 -8 22 -24q0 -34 -21 -65q-12 -4 -23.5 -6t-24.5 -2q-6 -2 -21 -4l-58 -418q-2 -7 -2.5 -15t-0.5 -18q0 -12 6 -16q85 8 56 -80q-9 -9 -21 -17h-273q-7 6 -17 21q-6 35 24 68q22 8 54 8l10 7q1 8 3 18.5t5 23.5l53 379q1 8 1.5 16t-0.5 18
q-29 2 -58 -13q28 -70 -38 -129q-108 -36 -91 87z" />
    <glyph glyph-name="J" unicode="J" horiz-adv-x="444" 
d="M110 643q57 124 199 128h195l10 -1l12 -2q9 -8 15 -21q0 -72 -69 -72q-7 -2 -15 -8l-50 -343q-1 -8 -2.5 -18t-5.5 -23l-1 -6q-1 -7 -3.5 -15t-5.5 -16l-10 -24q-82 -134 -227 -103l-23 12l-5 4q-21 27 -27 68q5 53 58 84q52 19 87 -22l55 388l-4 14q-28 2 -58 -12
q30 -72 -40 -126q-118 -36 -85 114z" />
    <glyph glyph-name="K" unicode="K" horiz-adv-x="654" 
d="M98 629q38 146 203 155h206q47 -37 4 -92q-9 -3 -21.5 -5.5t-28.5 -4.5h-6l-19 -127l137 127l3 4q-56 2 -36 70q6 10 18 21q24 9 60 7h178l18 -7q20 -28 2 -72q-9 -11 -20 -17l-22 -2l-14 -2q-9 -2 -17 -4.5t-13 -6.5q-148 -142 -156 -148q-9 -241 123 -449l24 -32
l22 -21l4 -4q13 -14 39 -24l19 -8q11 -4 25.5 -5t31.5 0q13 3 21 3l52 19l33 19q-33 113 83 133q57 -14 51 -82q-20 -92 -111 -149q-9 -5 -20.5 -10.5t-25.5 -12.5l-37 -13l-12 -2l-14 -2l-11 -2l-7 -2h-96q-12 4 -30 6l-29 11l-4 2q-8 1 -23 11l-3 2q-5 3 -10.5 6t-13.5 6
q-182 153 -209 479l-41 -44l-19 -130v-10l9 -7q34 5 56 -23q3 -20 -5 -48q-8 -14 -21 -24q-28 -6 -77 -4h-178q-14 5 -24 19q-12 80 68 80l10 7q2 8 3.5 16t3.5 18l53 379q4 15 4 40q-27 7 -62 -10q30 -70 -38 -129q-110 -36 -90 95z" />
    <glyph glyph-name="L" unicode="L" horiz-adv-x="693" 
d="M97 621q31 144 185 163h232q13 -8 23 -24q1 -29 -12 -57q-7 -9 -20 -15q-21 0 -51 -9q-9 -31 -15 -83l-52 -368q19 -5 45 -2h57l12 2h19l25 6h6l22 11q39 32 65 83l17 15q44 15 69 -19l-5 -34q-5 -17 -13 -35q-2 -6 -5 -12.5t-7 -14.5l-1 -7l-5 -9l-9 -23l-4 -11l-18 -47
q-7 -9 -20 -19h-473q-6 7 -16 24q-3 74 73 74l7 9q2 8 4 19t4 24l54 387v13v13q-27 6 -64 -11q30 -71 -38 -130q-108 -39 -91 87z" />
    <glyph glyph-name="M" unicode="M" horiz-adv-x="898" 
d="M102 621q37 142 201 153h119q9 -1 15.5 -3t11.5 -5q6 -13 32.5 -101.5t72.5 -256.5l1 -7l7 -12q2 6 5 12t8 13l196 352q11 7 23 8h164l12 -2q12 -5 17 -13q11 -39 -19 -75q-11 -4 -23.5 -6.5t-28.5 -3.5l-5 -7l-4 -12l-62 -437q45 -3 65 -32q3 -80 -69 -69h-221
q-7 7 -15 23q-5 71 69 71l16 4l30 222q4 15 3 34l-181 -329q-5 -12 -23 -25h-45l-9 6l-8 21l-83 305l-31 -217l-1 -6l1 -9q11 -4 22 -6.5t24 -3.5q8 -5 16 -17q1 -13 0 -26.5t-6 -27.5l-12 -13l-9 -6h-226q-9 6 -15 21q-5 71 68 73q9 2 20 6l62 428l-1 12v10q-28 2 -58 -12
q30 -72 -40 -130q-107 -28 -86 96z" />
    <glyph glyph-name="N" unicode="N" horiz-adv-x="764" 
d="M99 617q38 144 203 152h99l17 -6q14 -15 106 -171q94 -155 97 -160q2 -2 3.5 -5t3.5 -6l33 244q-81 10 -69 54q1 25 52 51l190 -1q14 -5 22 -17q12 -79 -66 -83q-3 -1 -7.5 -2t-10.5 -3l-73 -516q-3 -23 -19 -39q-27 -8 -57 -2q-11 10 -18 27l-7 12q-215 347 -220 358
l-3 5l-43 -299l18 -1q70 1 46 -75q-12 -15 -32 -23h-174q-17 -2 -31 2h-6q-41 38 4 88q11 4 27 6.5t38 3.5l61 440q-24 14 -57 -1q30 -68 -36 -127q-110 -34 -91 94z" />
    <glyph glyph-name="O" unicode="O" horiz-adv-x="659" 
d="M126 583q84 161 262 201q288 29 311 -282q-18 -326 -305 -404h-88q-142 12 -207 158q-47 151 27 327zM526 441q36 210 -106 235q-144 -26 -171 -239q-30 -211 107 -231q146 23 170 235z" />
    <glyph glyph-name="P" unicode="P" horiz-adv-x="647" 
d="M102 621q30 142 183 161h268q124 -5 159 -121l5 -34l2 -4q-23 -260 -310 -254l-20 -142q1 -1 1 -8q61 -7 69 -36q0 -68 -62 -66h-225q-13 8 -17 23q-5 72 66 74q7 3 11 9l62 440q1 9 -6 13q-27 2 -58 -13q29 -71 -38 -129q-105 -36 -90 87zM554 598q-9 78 -101 71
q-4 -10 -5.5 -22t-3.5 -26l-19 -134q33 -4 70 9q58 29 59 102z" />
    <glyph glyph-name="Q" unicode="Q" horiz-adv-x="645" 
d="M74 344q-3 351 313 433q279 25 314 -253q15 -275 -236 -407l23 -21l4 -4l8 -6l4 -4l16 -11l21 -10q7 -3 23 -7q65 64 114 -6q6 -44 -30 -82q-7 -5 -25 -12q-173 -53 -384 159q-141 54 -165 231zM529 444q30 201 -109 226q-153 -27 -175 -259q-21 -203 126 -203
q137 33 158 236z" />
    <glyph glyph-name="R" unicode="R" horiz-adv-x="679" 
d="M105 588q-21 164 169 201h293q19 0 40 -6l12 -2h6q6 -4 19.5 -7t29.5 -13q3 -1 6.5 -3t8.5 -5l26 -20q42 -46 42 -123q-12 -123 -136 -196q2 -199 128 -358q118 -145 311 -29q-19 49 33 86q38 12 62 -19q10 -46 -17 -96q-15 -19 -34 -36t-43 -31l-61 -26l-69 -13h-107
q-7 2 -14.5 3t-15.5 2q-20 5 -35 12q-7 1 -18 6q-5 4 -15 8l-19 10q-195 142 -216 441l-47 -2l-21 -153l10 -8q31 4 54 -21q1 -12 0 -24.5t-5 -26.5q-9 -10 -26 -22l-252 -2q-9 6 -17 12q-27 76 71 90q2 8 3.5 18t3.5 21l59 417l1 14q-38 13 -87 -2l-4 -4q25 -54 -23 -108
q-39 -30 -82 -10q-16 11 -24 25zM588 594q6 94 -101 85q-3 -9 -4.5 -20.5t-3.5 -25.5l-18 -127q100 -12 127 88z" />
    <glyph glyph-name="S" unicode="S" horiz-adv-x="488" 
d="M142 642q-32 -98 6 -168l18 -23q11 -15 22 -23l7 -7q6 -5 11 -8.5t8 -5.5l76 -55l4 -4l12 -11q11 -8 18.5 -16t12.5 -15q13 -31 1 -63q-7 -10 -14 -17.5t-14 -12.5q-128 -32 -152 128q-7 13 -18 19q-41 8 -68 -21l-6 -40v-12q-1 -8 -1.5 -15.5t1.5 -12.5l-1 -8l1 -36
q-1 -12 0 -31v-15v-15q-2 -23 0 -38l11 -16q45 -15 80 21q207 -88 324 103q72 187 -89 279q-152 87 -98 152q117 43 138 -126q6 -5 12.5 -9t11.5 -6q33 -4 59 19q4 10 6.5 20t3.5 20l-1 10q2 11 2.5 19.5t-1.5 16.5q3 16 3 29l2 30l-1 6l2 13l-1 9v14q3 25 2 38q-2 5 -4.5 9
t-5.5 8q-48 21 -79 -21q-67 34 -142 25q-117 -28 -159 -137z" />
    <glyph glyph-name="T" unicode="T" horiz-adv-x="581" 
d="M135 750q7 10 21 18h474q19 2 32 -13l3 -19v-12l-7 -51q-1 -6 -1 -14q0 -7 -1 -15l-10 -69l-6 -17q-6 -5 -12.5 -9t-15.5 -6q-28 -6 -53 13q-5 19 -6 48q0 10 -5 23l-3 9l-8 10q-32 14 -71 6l-61 -429l1 -11q93 -5 63 -77q-8 -14 -24 -23h-268q-12 9 -18 25q-2 34 24 63
q10 4 21 5.5t25 2.5l15 7l4 12l60 425q-89 21 -114 -84q-4 -5 -8.5 -10t-9.5 -10q-26 -11 -54 -5q-10 7 -19 21l17 118q2 8 4 18.5t4 23.5q2 14 7 26z" />
    <glyph glyph-name="U" unicode="U" horiz-adv-x="767" 
d="M100 641q57 127 200 133h207q13 -6 23 -21q9 -76 -70 -78q-7 -2 -12 -8l-50 -353v-34q3 -23 18 -44q93 -67 186 34l6 13l4 14l3 7q2 8 4 18.5t4 23.5l38 274q4 14 1 34l1 6l-5 13q-81 0 -50 82l12 10t14 9h207q12 -4 22 -16l-7 -60q-28 -25 -69 -27l-10 -22l-48 -328
l-3 -7l-2 -15l-6 -14l-4 -17q-5 -12 -9 -21.5t-9 -17.5l-3 -6q-90 -136 -248 -127q-140 -13 -197 127l-7 36v13q1 15 -2 30l2 14l-1 7l47 331l-4 13q-26 1 -58 -13q30 -72 -40 -130q-118 -37 -85 117z" />
    <glyph glyph-name="V" unicode="V" horiz-adv-x="784" 
d="M91 576q12 175 196 198h232q3 -2 8 -5.5t10 -8.5q16 -77 -65 -85q4 -8 14 -44t26 -101q35 -131 38 -135l139 278q-74 9 -41 87q11 9 22 14h189q11 -6 20 -21l-7 -52q-20 -24 -48 -24l-11 -8l-234 -455l-3 -8q-1 -1 -2.5 -3t-2.5 -6l-32 -61l-6 -15l-12 -13
q-12 -3 -25.5 -4t-27.5 0q-14 12 -15 28l-148 522l-6 13q-32 6 -68 -11q20 -44 -7 -96q-89 -98 -133 16z" />
    <glyph glyph-name="W" unicode="W" horiz-adv-x="991" 
d="M100 625q36 146 204 155h176q8 0 26 -5l9 -8q13 12 27 13h205q17 0 32 -7q40 -82 -59 -95l58 -247l106 222l3 13l3 12q-69 7 -40 81q7 9 17 16q16 4 35 5t42 0h98q13 0 27 -9l6 -6q6 -27 -5 -61q-20 -24 -51 -26l-10 -8l-257 -550l-14 -13q-26 -6 -55 3l-7 13l-47 234
l-3 6l-6 30l-3 8l-130 -273l-5 -8q-31 -25 -68 -10q-11 21 -118 558l-4 4q-29 6 -64 -10q29 -66 -33 -125q-114 -45 -95 88zM550 680q-25 0 -48 13q-17 -13 -36 -10l-5 -5l54 -245l63 129l3 11z" />
    <glyph glyph-name="X" unicode="X" horiz-adv-x="771" 
d="M103 635q41 131 183 146l234 -2q14 -4 25 -17q15 -74 -63 -83l51 -103l84 97l6 6q-66 10 -31 83q9 9 23 17h215q10 -8 20 -17q4 -29 -8 -61q-28 -22 -61 -22l-20 -10q-18 -13 -178 -193l121 -237l15 -21q15 -8 39 -10l15 -11q9 -28 -5 -66q-9 -11 -19 -17h-268
q-10 3 -19 13q-16 79 63 85l-24 46l-2 9l-29 59l-7 15l-113 -132q73 0 40 -80q-9 -10 -22 -15h-219q-11 10 -16 32q2 27 17 51q21 12 47 15l3 2q21 16 212 228l-104 205q-7 12 -18 22l-1 6q-27 2 -59 -12q38 -96 -66 -140q-85 7 -61 112z" />
    <glyph glyph-name="Y" unicode="Y" horiz-adv-x="771" 
d="M120 682q58 84 163 97h233l11 -4q42 -76 -48 -95l71 -146l107 148q-67 6 -34 80q5 5 11 9t13 8h199q13 -8 21 -19q3 -31 -13 -63q-9 -7 -20.5 -11t-24.5 -6l-17 -11l-7 -4l-185 -238l-10 -13l-2 -4l-25 -177v-15q18 -9 44 -6l20 -6q20 -30 2 -72q-8 -10 -21 -17h-279
q-12 6 -17 23q-6 38 26 68q18 6 42 4l12 2q7 -1 13 6l25 179l-143 274l-38 -2q-4 -1 -9 -3.5t-12 -6.5q22 -51 -15 -108q-46 -47 -98 -16q-42 61 5 145z" />
    <glyph glyph-name="Z" unicode="Z" horiz-adv-x="598" 
d="M162 749q5 7 10.5 12.5t12.5 10.5h451q16 0 25 -15q5 -23 -2 -48q-7 -10 -15.5 -21t-20.5 -25l-335 -418q-7 -12 -13 -17q11 -4 29 -2h135l30 8l13 7q33 35 53 88l13 12q18 9 43 7q15 -5 28 -21l-42 -183q-6 -13 -18 -25q-16 -4 -35.5 -5t-42.5 0h-406q-17 -2 -27 11
q-7 25 2 57l387 481l-136 -2l-18 -2q-8 -2 -16.5 -6t-16.5 -9q-27 -28 -36 -71l-8 -13q-8 -7 -23 -15q-39 -8 -61 23q0 33 13 72l1 6l8 29q2 9 5 20.5t5 24.5z" />
    <glyph glyph-name="bracketleft" unicode="[" horiz-adv-x="278" 
 />
    <glyph glyph-name="backslash" unicode="\" horiz-adv-x="278" 
 />
    <glyph glyph-name="bracketright" unicode="]" horiz-adv-x="278" 
 />
    <glyph glyph-name="asciicircum" unicode="^" horiz-adv-x="469" 
 />
    <glyph glyph-name="underscore" unicode="_" 
 />
    <glyph glyph-name="grave" unicode="`" horiz-adv-x="333" 
 />
    <glyph glyph-name="a" unicode="a" horiz-adv-x="430" 
d="M103 487q-18 -84 60 -90q-113 -59 -111 -168q45 -148 212 -56q29 -35 70 -31q73 1 114 60q24 86 -49 67l28 199q-3 10 -1 25l-1 10q-5 27 -16 45q-62 62 -165 47q-101 -23 -141 -108zM287 470l-3 -22l-37 -13q-7 -4 -13 -6.5t-12 -3.5q28 34 22 72q6 4 11 5.5t9 2.5
q32 -6 23 -35zM269 343l-9 -67q-48 -34 -58 6q16 49 66 67z" />
    <glyph glyph-name="b" unicode="b" horiz-adv-x="479" 
d="M239 771l-7 -2l-8 -4l-45 -12q-36 -8 -60 -21q-38 -71 34 -76l-52 -373q-9 -43 -7 -76q42 -63 116 -65q221 -17 296 195l12 86q-22 223 -232 157l20 148q5 18 2 29q-20 26 -52 20zM357 312q-34 -103 -118 -62l18 128q5 47 15 77q21 12 39 17q85 -16 46 -160z" />
    <glyph glyph-name="c" unicode="c" horiz-adv-x="425" 
d="M72 305q12 -158 156 -170q144 -2 225 145q11 36 -15 56q-22 10 -43 0q-68 -93 -143 -60q-45 46 -34 109q7 63 55 100q21 10 42 8q4 -71 57 -94q104 5 98 100q-35 107 -180 89q-215 -65 -218 -283z" />
    <glyph glyph-name="d" unicode="d" horiz-adv-x="479" 
d="M441 764q-14 -2 -21 -6l-19 -6h-6l-9 -4q-34 -6 -53 -16q-15 -15 -18 -37q0 -48 50 -43l-9 -64q-135 21 -222 -86q-101 -137 -59 -272q76 -137 225 -78q5 -5 9 -8.5t9 -6.5q10 -1 18 -0.5t16 2.5l8 4l22 5q7 4 12.5 5.5t10.5 2.5l33 12l8 2l33 12l9.5 9.5t8.5 9.5
q20 65 -44 65l67 486q-20 27 -54 21zM336 467v-16l-19 -140q-2 -14 -3.5 -25.5t-5.5 -19.5q-15 -12 -31 -14q-72 10 -66 96q-2 105 74 148q37 0 51 -29z" />
    <glyph glyph-name="e" unicode="e" horiz-adv-x="435" 
d="M73 374q-31 -131 43 -214l13 -10l29 -16q183 -42 285 129q43 61 -15 83q-19 0 -30 -4q-107 -146 -181 -45v13l208 120q53 30 5 102q-47 73 -160 62q-173 -54 -197 -220zM313 465l-102 -60q-18 66 49 90q38 2 53 -30z" />
    <glyph glyph-name="f" unicode="f" horiz-adv-x="373" 
d="M169 585q23 143 169 186h74q87 -18 67 -110q-82 -100 -148 16q-19 -39 -19 -94q87 12 95 -35q-1 -32 -27 -61q-27 -8 -64 -6q-9 2 -21 -2l-31 -222v-12v-8t2 -8l45 -3l11 -6q27 -39 -17 -76h-246q-5 4 -15 17q-3 69 66 67q4 1 8 7l34 244q-39 -3 -60 26l8 55q26 30 69 25
z" />
    <glyph glyph-name="g" unicode="g" horiz-adv-x="459" 
d="M120 472q45 90 150 117h70l11 -2l7 -2l52 -20h70l22 -2l14 -9q18 -94 -58 -98q-4 -148 -166 -191q166 13 168 -123q-22 -106 -140 -151q-133 -58 -260 6q-29 24 -37 59q2 69 67 121q-31 70 50 129q-59 65 -20 166zM311 458q-3 29 -35 37q-34 -28 -28 -80q0 -50 41 -57
q39 25 22 100zM190 134l-10 2q-15 -14 -21 -32q81 -48 189 4l12 14q-29 8 -68 6l-46 2l-21 2h-18z" />
    <glyph glyph-name="h" unicode="h" horiz-adv-x="493" 
d="M227 764q18 4 31 9q37 8 53 -25l-24 -174q249 79 195 -199l-20 -141q25 -5 41 -25l-6 -45l-3 -6q-12 -11 -25 -12h-416q-8 6 -15 18q-3 61 58 70l58 411l3 7q-61 0 -41 65q5 9 15 17l60 18l19 6zM347 459q-9 17 -31 16q-24 -11 -47 -30l-27 -189l-1 -20q30 -19 74 -4
q10 32 14 77l18 142q0 1 -0.5 3t0.5 5z" />
    <glyph glyph-name="i" unicode="i" horiz-adv-x="303" 
d="M205 622q-89 78 29 148q69 12 95 -53q-8 -118 -124 -95zM114 538l152 52q23 0 40 -21q0 -14 -1.5 -33t-6.5 -42l-36 -259q31 -2 52 -22q1 -8 -0.5 -19t-3.5 -25l-1 -5l-8 -8t-9 -8h-229q-30 33 4 75q21 8 46 8l5 4q4 19 9 48l25 178q-65 -8 -56 52q3 5 7 11.5t11 13.5z
" />
    <glyph glyph-name="j" unicode="j" horiz-adv-x="239" 
d="M157 668q24 -66 90 -48q73 32 65 97q-19 67 -93 53q-71 -35 -62 -102zM230 584l-12 -5l-25 -8q-6 -2 -8 -4l-8 -2l-25 -8l-8 -2l-45 -15q-12 -12 -19 -28q-9 -62 57 -53l-50 -353l-10 -39q-67 91 -140 -2q-17 -80 52 -98q136 -25 215 94l2 6q9 17 14.5 32t8.5 26l3 8
l60 430q-11 21 -31 27h-12z" />
    <glyph glyph-name="k" unicode="k" horiz-adv-x="493" 
d="M256 771l7 2q30 6 49 -13l3 -18l-35 -252v-13q12 13 31 25l4 4q-33 40 19 78l180 2l9 -2l8 -2q11 -11 16 -29q-3 -28 -25 -49q-17 -5 -40 -6l-16 -2q-5 -2 -15.5 -7.5t-27.5 -15.5l-10 -8l-4 -4l-16 -10q-5 -6 -15 -12q-5 -5 -11 -10t-15 -11l-14 -12q6 -8 15 -21l4 -4
l10 -20q3 -4 6.5 -8.5t6.5 -10.5l7 -8l12 -21l7.5 -12t5.5 -8l12 -18l8 -11l11 -14q21 -17 58 -25q10 -5 13 -14q8 -39 -24 -65h-434q-14 2 -22 14q-9 67 67 76l59 416q-75 -4 -46 71q5 6 19 15l31 8l9 2l23 6l10 2l22 8q7 1 13.5 3t14.5 4zM258 262l-9 11l-5 -41
q16 -5 32 -2z" />
    <glyph glyph-name="l" unicode="l" horiz-adv-x="293" 
d="M240 762l37 11q42 8 52 -31l-71 -508q69 -4 48 -70l-8.5 -8.5t-10.5 -9.5h-229q-12 8 -14 22q-3 61 69 66q2 7 3.5 15t2.5 17l55 386q-80 -6 -51 71q4 7 15 13l47 12q14 3 24 6t19 6z" />
    <glyph glyph-name="m" unicode="m" horiz-adv-x="713" 
d="M221 585l9 4q37 7 55 -25q109 64 187 -18q55 45 129 43q82 0 105 -84l5 -38v-12l-29 -221q67 -6 40 -74q-7 -7 -21 -14h-174q-8 -1 -17 -0.5t-20 2.5l-11 -2h-202l-9 4q-8 -2 -18 -3.5t-21 -0.5h-155q-21 -1 -36 12q-2 11 -0.5 23.5t3.5 26.5q22 24 57 24q3 15 6 31
l29 206q-65 -4 -44 64q6 8 21 19q31 6 79 24zM346 471q-9 6 -21 6q-25 -5 -53 -26l-30 -219q35 -10 77 2l29 205q1 7 0.5 15t-2.5 17zM566 471q-8 6 -24 6q-26 -6 -51 -28l-28 -198l1 -10l1 -9q31 -10 72 2q2 7 3.5 14.5t2.5 16.5l25 178z" />
    <glyph glyph-name="n" unicode="n" horiz-adv-x="493" 
d="M234 583l8 4q36 8 56 -24q18 15 46 22q190 21 145 -191l-21 -165q27 -3 42 -27l-5 -41l-7 -10q-10 -7 -25 -9h-404q-6 4 -16 17q-6 59 57 70l33 237q-29 -5 -46 19l7 47l11 12l5 4l51 15l8 2l8 2zM353 458q-9 13 -23 14q-23 -8 -47 -30l-30 -213q30 -13 68 0q2 7 3.5 15
t3.5 17l23 164q2 7 3 15t-1 18z" />
    <glyph glyph-name="o" unicode="o" horiz-adv-x="474" 
d="M66 318q22 -208 231 -179q204 59 208 273q-18 201 -233 178q-209 -63 -206 -272zM322 486q41 -53 32 -123q-2 -65 -40 -117q-16 -11 -30 -16q-22 1 -37 12q-31 49 -28 106q-8 73 36 132q15 11 32 16q11 -1 19 -3.5t16 -6.5z" />
    <glyph glyph-name="p" unicode="p" horiz-adv-x="494" 
d="M227 595l-43 -14q-7 -3 -12.5 -5t-10.5 -3l-48 -16l-11 -10q-32 -74 38 -75l-58 -418q-68 -8 -65 -73q8 -15 17 -20h178q59 -12 77 38q6 59 -53 50l-11 9l12 82q107 -24 193 56q103 115 100 250q-35 218 -233 137q-21 26 -54 20q-12 -4 -16 -8zM353 472q62 -94 -14 -215
q-9 -7 -17.5 -12t-17.5 -8q-33 0 -51 22l28 197q17 16 36 23q23 0 36 -7z" />
    <glyph glyph-name="q" unicode="q" horiz-adv-x="488" 
d="M478 468l-59 -415q68 -6 44 -72q-11 -14 -21 -20h-178q-64 -12 -67 38q9 57 67 50l13 8l12 82q-116 -24 -179 55q-70 113 -29 248q94 215 271 136l44 15q63 13 112 -21q50 -33 -30 -104zM263 493q-95 -101 -49 -228q13 -13 31 -21q33 0 62 23l29 209q-17 19 -33 23
q-22 0 -40 -6z" />
    <glyph glyph-name="r" unicode="r" horiz-adv-x="361" 
d="M232 588l6 4q34 6 52 -20q105 58 139 -31l-7 -53q-3 -7 -11 -17l-2 -4q-59 -49 -115 -2q-5 -5 -9.5 -12t-10.5 -15l-25 -176q-1 -6 -1.5 -13t1.5 -15q42 2 60 -27q3 -23 -13 -51l-14 -10h-223l-12 4q-22 35 13 75q4 2 9 3t11 2l22 6l32 229q-62 -6 -45 60q7 12 22 22
q9 2 20 6t25 10l23 5q6 6 16 6l6 4l9 2z" />
    <glyph glyph-name="s" unicode="s" horiz-adv-x="387" 
d="M100 465q23 96 140 125h72l16 -2l27 -10q26 12 55 2l12 -16l-13 -134l-8 -16q-18 -13 -49 -18q119 -72 28 -199q-104 -92 -245 -49q-27 -13 -56 -7q-15 4 -21 21l21 151l3 9q28 20 63 20q-60 40 -45 123zM290 494q-14 6 -33 6q-27 -11 -17 -33l49 -31l16 -10q11 -7 13 -8
q-2 39 -28 76zM189 309l-21 13q5 -119 96 -88l7 18q-3 5 -6 9.5t-8 9.5q-6 5 -22 12l-35 22z" />
    <glyph glyph-name="t" unicode="t" horiz-adv-x="305" 
d="M198 647l-2 -3l-7 -8l-7 -8l-7 -8l-49 -47l-14 -8q-15 -10 -26 -25l-5 -35q13 -25 43 -30l-36 -251l2 -16q4 -11 4 -21q24 -51 73 -55q102 -5 160 82q9 35 -16 53q-38 15 -67 -20h-10v14l30 217q93 -10 92 72q-7 36 -77 31q28 106 -40 102h-4q-13 -8 -21.5 -17t-15.5 -19
z" />
    <glyph glyph-name="u" unicode="u" horiz-adv-x="469" 
d="M86 574q3 4 8 8.5t11 9.5h145l12 -2q8 -11 13 -29l-39 -278q24 -38 71 4l31 215q-63 2 -53 57q6 15 22 31q11 4 29 2h135l8 -4q5 -6 10 -20l-42 -298q60 -2 40 -67q-26 -25 -67 -31l-47 -16l-8 -2l-19 -6l-4 -2h-25q-14 7 -21 24q-149 -78 -203 64q-3 28 3 67l28 197
l-3 10q-54 5 -35 66z" />
    <glyph glyph-name="v" unicode="v" horiz-adv-x="464" 
d="M84 528q-1 37 26 62h194l10 -9l3 -4q12 -50 -39 -73l31 -115l3 -6l64 123q-48 17 -22 71l18 13h147q3 -3 6.5 -7.5t8.5 -9.5l-7 -45q-15 -18 -40 -26l-190 -343q-29 -29 -65 -12q-7 7 -105 350l-7 9q-23 1 -36 22z" />
    <glyph glyph-name="w" unicode="w" horiz-adv-x="646" 
d="M85 530q-1 37 26 62h155q13 2 27 -2l7 -4q15 7 34 6h164l14 -2q41 -60 -42 -86l30 -117l61 113l3 8q-34 12 -27 55q10 19 25 29h133q4 -3 7.5 -7.5t8.5 -9.5l-6 -43q-7 -12 -25 -22l-12 -17q-5 -10 -11.5 -22.5t-15.5 -26.5l-139 -260q-18 -27 -31 -37q-25 -10 -53 4
q-14 21 -45 160l-84 -137q-6 -9 -18 -21l-7 -6q-22 -6 -44 -2q-14 14 -22 33l-4 14l-75 299l-6 13q-14 7 -28 26zM339 448q-16 59 -48 70q-10 -7 -21 -8l-5 -6l28 -109q0 -10 5 -18q7 15 18 32z" />
    <glyph glyph-name="x" unicode="x" horiz-adv-x="500" 
d="M89 523q-3 35 28 59h172q12 1 33 -2l11 2h141q14 -2 23 -14q4 -12 2 -24.5t-7 -26.5q-3 -4 -7.5 -8t-10.5 -8q-16 -1 -40 -9l-13 -10l-17 -22l-11 -13l-5 -4l-26 -33l-10 -10l31 -59q3 -4 5.5 -11t7.5 -12l12 -26q5 -11 14 -25l6 -14q8 -9 10 -13l7 -8q18 -2 36 -16
q8 -25 0 -52q-3 -5 -8.5 -10t-13.5 -10h-193q-40 37 10 82q-7 7 -13 24l-3 3l-6 14l-4 4l-38 -49q39 -37 -13 -78h-148q-5 3 -8.5 8t-8.5 12l6 41l3 5q19 19 43 20q20 17 39 43l47 57l7 7l13 16l7 8l7 8l-11 21q-6 7 -12 24l-21 37l-1 6l-15 27l-7 8l-3 6q-32 -2 -47 25z
" />
    <glyph glyph-name="y" unicode="y" horiz-adv-x="500" 
d="M99 532q-3 34 26 60h201l10 -9l3 -4q16 -57 -47 -73l34 -107l6 -14q4 9 16.5 35t35.5 71l8 17q-40 18 -19 67q8 12 27 17h135q4 -3 7 -7.5t8 -9.5l-7 -47q-16 -14 -38 -24l-260 -472l-9 -8l-4 -6l-14 -12q-91 -64 -166 2q-25 46 14 98q55 43 118 12q15 16 26.5 35.5
t21.5 42.5l2 4q-1 20 -96 304q-23 6 -39 28z" />
    <glyph glyph-name="z" unicode="z" horiz-adv-x="420" 
d="M122 581q5 5 17 12h318q10 -5 18 -16q2 -24 -4 -46l-220 -273l-8 -14h60l14 2l20 6l10 10l2 4q11 66 64 69q19 -3 35 -17q3 -30 -24 -138l-5 -16l-29 -17l-331 -1q-11 1 -21 12q-2 11 -0.5 24t4.5 28q6 10 21 28l3 4l125 157l46 57l5 7l5 4l22 29h-46l-23 -3
q-11 -16 -14 -39l-9 -16q-27 -22 -60 -15q-8 4 -19 16q-3 22 3 52l2 14q3 22 9 50l1 7l6 15z" />
    <glyph glyph-name="braceleft" unicode="{" horiz-adv-x="334" 
 />
    <glyph glyph-name="bar" unicode="|" horiz-adv-x="260" 
 />
    <glyph glyph-name="braceright" unicode="}" horiz-adv-x="334" 
 />
    <glyph glyph-name="asciitilde" unicode="~" horiz-adv-x="584" 
 />
    <glyph glyph-name="exclamdown" unicode="&#xa1;" horiz-adv-x="333" 
 />
    <glyph glyph-name="cent" unicode="&#xa2;" 
 />
    <glyph glyph-name="sterling" unicode="&#xa3;" 
 />
    <glyph glyph-name="yen" unicode="&#xa5;" 
 />
    <glyph glyph-name="brokenbar" unicode="&#xa6;" horiz-adv-x="260" 
 />
    <glyph glyph-name="section" unicode="&#xa7;" 
 />
    <glyph glyph-name="dieresis" unicode="&#xa8;" horiz-adv-x="333" 
 />
    <glyph glyph-name="copyright" unicode="&#xa9;" horiz-adv-x="737" 
 />
    <glyph glyph-name="ordfeminine" unicode="&#xaa;" horiz-adv-x="370" 
 />
    <glyph glyph-name="guillemotleft" unicode="&#xab;" 
 />
    <glyph glyph-name="logicalnot" unicode="&#xac;" horiz-adv-x="584" 
 />
    <glyph glyph-name="registered" unicode="&#xae;" horiz-adv-x="737" 
 />
    <glyph glyph-name="glyph137" unicode="&#xaf;" horiz-adv-x="552" 
 />
    <glyph glyph-name="degree" unicode="&#xb0;" horiz-adv-x="400" 
 />
    <glyph glyph-name="plusminus" unicode="&#xb1;" horiz-adv-x="549" 
 />
    <glyph glyph-name="twosuperior" unicode="&#xb2;" horiz-adv-x="333" 
 />
    <glyph glyph-name="threesuperior" unicode="&#xb3;" horiz-adv-x="333" 
 />
    <glyph glyph-name="acute" unicode="&#xb4;" horiz-adv-x="333" 
 />
    <glyph glyph-name="mu1" unicode="&#xb5;" horiz-adv-x="576" 
 />
    <glyph glyph-name="paragraph" unicode="&#xb6;" horiz-adv-x="537" 
 />
    <glyph glyph-name="glyph145" unicode="&#xb7;" horiz-adv-x="278" 
 />
    <glyph glyph-name="glyph145" unicode="&#x2219;" horiz-adv-x="278" 
 />
    <glyph glyph-name="cedilla" unicode="&#xb8;" horiz-adv-x="333" 
 />
    <glyph glyph-name="onesuperior" unicode="&#xb9;" horiz-adv-x="333" 
 />
    <glyph glyph-name="ordmasculine" unicode="&#xba;" horiz-adv-x="365" 
 />
    <glyph glyph-name="guillemotright" unicode="&#xbb;" 
 />
    <glyph glyph-name="onequarter" unicode="&#xbc;" horiz-adv-x="834" 
 />
    <glyph glyph-name="onehalf" unicode="&#xbd;" horiz-adv-x="834" 
 />
    <glyph glyph-name="threequarters" unicode="&#xbe;" horiz-adv-x="834" 
 />
    <glyph glyph-name="questiondown" unicode="&#xbf;" horiz-adv-x="611" 
 />
    <glyph glyph-name="Agrave" unicode="&#xc0;" horiz-adv-x="667" 
 />
    <glyph glyph-name="Aacute" unicode="&#xc1;" horiz-adv-x="667" 
 />
    <glyph glyph-name="Acircumflex" unicode="&#xc2;" horiz-adv-x="667" 
 />
    <glyph glyph-name="Atilde" unicode="&#xc3;" horiz-adv-x="667" 
 />
    <glyph glyph-name="Adieresis" unicode="&#xc4;" horiz-adv-x="667" 
 />
    <glyph glyph-name="Aring" unicode="&#xc5;" horiz-adv-x="667" 
 />
    <glyph glyph-name="AE" unicode="&#xc6;" horiz-adv-x="1000" 
 />
    <glyph glyph-name="Ccedilla" unicode="&#xc7;" horiz-adv-x="722" 
 />
    <glyph glyph-name="Egrave" unicode="&#xc8;" horiz-adv-x="667" 
 />
    <glyph glyph-name="Eacute" unicode="&#xc9;" horiz-adv-x="667" 
 />
    <glyph glyph-name="Ecircumflex" unicode="&#xca;" horiz-adv-x="667" 
 />
    <glyph glyph-name="Edieresis" unicode="&#xcb;" horiz-adv-x="667" 
 />
    <glyph glyph-name="Igrave" unicode="&#xcc;" horiz-adv-x="278" 
 />
    <glyph glyph-name="Iacute" unicode="&#xcd;" horiz-adv-x="278" 
 />
    <glyph glyph-name="Icircumflex" unicode="&#xce;" horiz-adv-x="278" 
 />
    <glyph glyph-name="Idieresis" unicode="&#xcf;" horiz-adv-x="278" 
 />
    <glyph glyph-name="Eth" unicode="&#xd0;" horiz-adv-x="722" 
 />
    <glyph glyph-name="Ntilde" unicode="&#xd1;" horiz-adv-x="722" 
 />
    <glyph glyph-name="Ograve" unicode="&#xd2;" horiz-adv-x="778" 
 />
    <glyph glyph-name="Oacute" unicode="&#xd3;" horiz-adv-x="778" 
 />
    <glyph glyph-name="Ocircumflex" unicode="&#xd4;" horiz-adv-x="778" 
 />
    <glyph glyph-name="Otilde" unicode="&#xd5;" horiz-adv-x="778" 
 />
    <glyph glyph-name="Odieresis" unicode="&#xd6;" horiz-adv-x="778" 
 />
    <glyph glyph-name="multiply" unicode="&#xd7;" horiz-adv-x="584" 
 />
    <glyph glyph-name="Oslash" unicode="&#xd8;" horiz-adv-x="778" 
 />
    <glyph glyph-name="Ugrave" unicode="&#xd9;" horiz-adv-x="722" 
 />
    <glyph glyph-name="Uacute" unicode="&#xda;" horiz-adv-x="722" 
 />
    <glyph glyph-name="Ucircumflex" unicode="&#xdb;" horiz-adv-x="722" 
 />
    <glyph glyph-name="Udieresis" unicode="&#xdc;" horiz-adv-x="722" 
 />
    <glyph glyph-name="Yacute" unicode="&#xdd;" horiz-adv-x="667" 
 />
    <glyph glyph-name="Thorn" unicode="&#xde;" horiz-adv-x="667" 
 />
    <glyph glyph-name="germandbls" unicode="&#xdf;" horiz-adv-x="611" 
 />
    <glyph glyph-name="agrave" unicode="&#xe0;" 
 />
    <glyph glyph-name="aacute" unicode="&#xe1;" 
 />
    <glyph glyph-name="acircumflex" unicode="&#xe2;" 
 />
    <glyph glyph-name="atilde" unicode="&#xe3;" 
 />
    <glyph glyph-name="adieresis" unicode="&#xe4;" 
 />
    <glyph glyph-name="aring" unicode="&#xe5;" 
 />
    <glyph glyph-name="ae" unicode="&#xe6;" horiz-adv-x="889" 
 />
    <glyph glyph-name="ccedilla" unicode="&#xe7;" horiz-adv-x="500" 
 />
    <glyph glyph-name="egrave" unicode="&#xe8;" 
 />
    <glyph glyph-name="eacute" unicode="&#xe9;" 
 />
    <glyph glyph-name="ecircumflex" unicode="&#xea;" 
 />
    <glyph glyph-name="edieresis" unicode="&#xeb;" 
 />
    <glyph glyph-name="igrave" unicode="&#xec;" horiz-adv-x="278" 
 />
    <glyph glyph-name="iacute" unicode="&#xed;" horiz-adv-x="278" 
 />
    <glyph glyph-name="icircumflex" unicode="&#xee;" horiz-adv-x="278" 
 />
    <glyph glyph-name="idieresis" unicode="&#xef;" horiz-adv-x="278" 
 />
    <glyph glyph-name="eth" unicode="&#xf0;" 
 />
    <glyph glyph-name="ntilde" unicode="&#xf1;" 
 />
    <glyph glyph-name="ograve" unicode="&#xf2;" 
 />
    <glyph glyph-name="oacute" unicode="&#xf3;" 
 />
    <glyph glyph-name="ocircumflex" unicode="&#xf4;" 
 />
    <glyph glyph-name="otilde" unicode="&#xf5;" 
 />
    <glyph glyph-name="odieresis" unicode="&#xf6;" 
 />
    <glyph glyph-name="divide" unicode="&#xf7;" horiz-adv-x="549" 
 />
    <glyph glyph-name="oslash" unicode="&#xf8;" horiz-adv-x="611" 
 />
    <glyph glyph-name="ugrave" unicode="&#xf9;" 
 />
    <glyph glyph-name="uacute" unicode="&#xfa;" 
 />
    <glyph glyph-name="ucircumflex" unicode="&#xfb;" 
 />
    <glyph glyph-name="udieresis" unicode="&#xfc;" 
 />
    <glyph glyph-name="yacute" unicode="&#xfd;" horiz-adv-x="500" 
 />
    <glyph glyph-name="thorn" unicode="&#xfe;" 
 />
    <glyph glyph-name="ydieresis" unicode="&#xff;" horiz-adv-x="500" 
 />
    <glyph glyph-name="Amacron" unicode="&#x100;" horiz-adv-x="667" 
 />
    <glyph glyph-name="amacron" unicode="&#x101;" 
 />
    <glyph glyph-name="Abreve" unicode="&#x102;" horiz-adv-x="667" 
 />
    <glyph glyph-name="abreve" unicode="&#x103;" 
 />
    <glyph glyph-name="Aogonek" unicode="&#x104;" horiz-adv-x="667" 
 />
    <glyph glyph-name="aogonek" unicode="&#x105;" 
 />
    <glyph glyph-name="Cacute" unicode="&#x106;" horiz-adv-x="722" 
 />
    <glyph glyph-name="cacute" unicode="&#x107;" horiz-adv-x="500" 
 />
    <glyph glyph-name="Ccircumflex" unicode="&#x108;" horiz-adv-x="722" 
 />
    <glyph glyph-name="ccircumflex" unicode="&#x109;" horiz-adv-x="500" 
 />
    <glyph glyph-name="Cdot" unicode="&#x10a;" horiz-adv-x="722" 
 />
    <glyph glyph-name="cdot" unicode="&#x10b;" horiz-adv-x="500" 
 />
    <glyph glyph-name="Ccaron" unicode="&#x10c;" horiz-adv-x="722" 
 />
    <glyph glyph-name="ccaron" unicode="&#x10d;" horiz-adv-x="500" 
 />
    <glyph glyph-name="Dcaron" unicode="&#x10e;" horiz-adv-x="722" 
 />
    <glyph glyph-name="dcaron" unicode="&#x10f;" horiz-adv-x="615" 
 />
    <glyph glyph-name="Dslash" unicode="&#x110;" horiz-adv-x="722" 
 />
    <glyph glyph-name="dmacron" unicode="&#x111;" 
 />
    <glyph glyph-name="Emacron" unicode="&#x112;" horiz-adv-x="667" 
 />
    <glyph glyph-name="emacron" unicode="&#x113;" 
 />
    <glyph glyph-name="Ebreve" unicode="&#x114;" horiz-adv-x="667" 
 />
    <glyph glyph-name="ebreve" unicode="&#x115;" 
 />
    <glyph glyph-name="Edot" unicode="&#x116;" horiz-adv-x="667" 
 />
    <glyph glyph-name="edot" unicode="&#x117;" 
 />
    <glyph glyph-name="Eogonek" unicode="&#x118;" horiz-adv-x="667" 
 />
    <glyph glyph-name="eogonek" unicode="&#x119;" 
 />
    <glyph glyph-name="Ecaron" unicode="&#x11a;" horiz-adv-x="667" 
 />
    <glyph glyph-name="ecaron" unicode="&#x11b;" 
 />
    <glyph glyph-name="Gcircumflex" unicode="&#x11c;" horiz-adv-x="778" 
 />
    <glyph glyph-name="gcircumflex" unicode="&#x11d;" 
 />
    <glyph glyph-name="Gbreve" unicode="&#x11e;" horiz-adv-x="778" 
 />
    <glyph glyph-name="gbreve" unicode="&#x11f;" 
 />
    <glyph glyph-name="Gdot" unicode="&#x120;" horiz-adv-x="778" 
 />
    <glyph glyph-name="gdot" unicode="&#x121;" 
 />
    <glyph glyph-name="Gcedilla" unicode="&#x122;" horiz-adv-x="778" 
 />
    <glyph glyph-name="gcedilla" unicode="&#x123;" 
 />
    <glyph glyph-name="Hcircumflex" unicode="&#x124;" horiz-adv-x="722" 
 />
    <glyph glyph-name="hcircumflex" unicode="&#x125;" 
 />
    <glyph glyph-name="Hbar" unicode="&#x126;" horiz-adv-x="722" 
 />
    <glyph glyph-name="hbar" unicode="&#x127;" 
 />
    <glyph glyph-name="Itilde" unicode="&#x128;" horiz-adv-x="278" 
 />
    <glyph glyph-name="itilde" unicode="&#x129;" horiz-adv-x="278" 
 />
    <glyph glyph-name="Imacron" unicode="&#x12a;" horiz-adv-x="278" 
 />
    <glyph glyph-name="imacron" unicode="&#x12b;" horiz-adv-x="278" 
 />
    <glyph glyph-name="Ibreve" unicode="&#x12c;" horiz-adv-x="278" 
 />
    <glyph glyph-name="ibreve" unicode="&#x12d;" horiz-adv-x="278" 
 />
    <glyph glyph-name="Iogonek" unicode="&#x12e;" horiz-adv-x="278" 
 />
    <glyph glyph-name="iogonek" unicode="&#x12f;" horiz-adv-x="222" 
 />
    <glyph glyph-name="Idotaccent" unicode="&#x130;" horiz-adv-x="278" 
 />
    <glyph glyph-name="dotlessi" unicode="&#x131;" horiz-adv-x="278" 
 />
    <glyph glyph-name="IJ" unicode="&#x132;" horiz-adv-x="735" 
 />
    <glyph glyph-name="ij" unicode="&#x133;" horiz-adv-x="444" 
 />
    <glyph glyph-name="Jcircumflex" unicode="&#x134;" horiz-adv-x="500" 
 />
    <glyph glyph-name="jcircumflex" unicode="&#x135;" horiz-adv-x="222" 
 />
    <glyph glyph-name="Kcedilla" unicode="&#x136;" horiz-adv-x="667" 
 />
    <glyph glyph-name="kcedilla" unicode="&#x137;" horiz-adv-x="500" 
 />
    <glyph glyph-name="kgreenlandic" unicode="&#x138;" horiz-adv-x="500" 
 />
    <glyph glyph-name="Lacute" unicode="&#x139;" 
 />
    <glyph glyph-name="lacute" unicode="&#x13a;" horiz-adv-x="222" 
 />
    <glyph glyph-name="Lcedilla" unicode="&#x13b;" 
 />
    <glyph glyph-name="lcedilla" unicode="&#x13c;" horiz-adv-x="222" 
 />
    <glyph glyph-name="Lcaron" unicode="&#x13d;" 
 />
    <glyph glyph-name="lcaron" unicode="&#x13e;" horiz-adv-x="292" 
 />
    <glyph glyph-name="Ldot" unicode="&#x13f;" 
 />
    <glyph glyph-name="ldot" unicode="&#x140;" horiz-adv-x="334" 
 />
    <glyph glyph-name="Lslash" unicode="&#x141;" 
 />
    <glyph glyph-name="lslash" unicode="&#x142;" horiz-adv-x="222" 
 />
    <glyph glyph-name="Nacute" unicode="&#x143;" horiz-adv-x="722" 
 />
    <glyph glyph-name="nacute" unicode="&#x144;" 
 />
    <glyph glyph-name="Ncedilla" unicode="&#x145;" horiz-adv-x="722" 
 />
    <glyph glyph-name="ncedilla" unicode="&#x146;" 
 />
    <glyph glyph-name="Ncaron" unicode="&#x147;" horiz-adv-x="722" 
 />
    <glyph glyph-name="ncaron" unicode="&#x148;" 
 />
    <glyph glyph-name="napostrophe" unicode="&#x149;" horiz-adv-x="604" 
 />
    <glyph glyph-name="Eng" unicode="&#x14a;" horiz-adv-x="723" 
 />
    <glyph glyph-name="eng" unicode="&#x14b;" 
 />
    <glyph glyph-name="Omacron" unicode="&#x14c;" horiz-adv-x="778" 
 />
    <glyph glyph-name="omacron" unicode="&#x14d;" 
 />
    <glyph glyph-name="Obreve" unicode="&#x14e;" horiz-adv-x="778" 
 />
    <glyph glyph-name="obreve" unicode="&#x14f;" 
 />
    <glyph glyph-name="Odblacute" unicode="&#x150;" horiz-adv-x="778" 
 />
    <glyph glyph-name="odblacute" unicode="&#x151;" 
 />
    <glyph glyph-name="OE" unicode="&#x152;" horiz-adv-x="1000" 
 />
    <glyph glyph-name="oe" unicode="&#x153;" horiz-adv-x="944" 
 />
    <glyph glyph-name="Racute" unicode="&#x154;" horiz-adv-x="722" 
 />
    <glyph glyph-name="racute" unicode="&#x155;" horiz-adv-x="333" 
 />
    <glyph glyph-name="Rcedilla" unicode="&#x156;" horiz-adv-x="722" 
 />
    <glyph glyph-name="rcedilla" unicode="&#x157;" horiz-adv-x="333" 
 />
    <glyph glyph-name="Rcaron" unicode="&#x158;" horiz-adv-x="722" 
 />
    <glyph glyph-name="rcaron" unicode="&#x159;" horiz-adv-x="333" 
 />
    <glyph glyph-name="Sacute" unicode="&#x15a;" horiz-adv-x="667" 
 />
    <glyph glyph-name="sacute" unicode="&#x15b;" horiz-adv-x="500" 
 />
    <glyph glyph-name="Scircumflex" unicode="&#x15c;" horiz-adv-x="667" 
 />
    <glyph glyph-name="scircumflex" unicode="&#x15d;" horiz-adv-x="500" 
 />
    <glyph glyph-name="Scedilla" unicode="&#x15e;" horiz-adv-x="667" 
 />
    <glyph glyph-name="scedilla" unicode="&#x15f;" horiz-adv-x="500" 
 />
    <glyph glyph-name="Scaron" unicode="&#x160;" horiz-adv-x="667" 
 />
    <glyph glyph-name="scaron" unicode="&#x161;" horiz-adv-x="500" 
 />
    <glyph glyph-name="Tcedilla" unicode="&#x162;" horiz-adv-x="611" 
 />
    <glyph glyph-name="tcedilla" unicode="&#x163;" horiz-adv-x="278" 
 />
    <glyph glyph-name="Tcaron" unicode="&#x164;" horiz-adv-x="611" 
 />
    <glyph glyph-name="tcaron" unicode="&#x165;" horiz-adv-x="375" 
 />
    <glyph glyph-name="Tbar" unicode="&#x166;" horiz-adv-x="611" 
 />
    <glyph glyph-name="tbar" unicode="&#x167;" horiz-adv-x="278" 
 />
    <glyph glyph-name="Utilde" unicode="&#x168;" horiz-adv-x="722" 
 />
    <glyph glyph-name="utilde" unicode="&#x169;" 
 />
    <glyph glyph-name="Umacron" unicode="&#x16a;" horiz-adv-x="722" 
 />
    <glyph glyph-name="umacron" unicode="&#x16b;" 
 />
    <glyph glyph-name="Ubreve" unicode="&#x16c;" horiz-adv-x="722" 
 />
    <glyph glyph-name="ubreve" unicode="&#x16d;" 
 />
    <glyph glyph-name="Uring" unicode="&#x16e;" horiz-adv-x="722" 
 />
    <glyph glyph-name="uring" unicode="&#x16f;" 
 />
    <glyph glyph-name="Udblacute" unicode="&#x170;" horiz-adv-x="722" 
 />
    <glyph glyph-name="udblacute" unicode="&#x171;" 
 />
    <glyph glyph-name="Uogonek" unicode="&#x172;" horiz-adv-x="722" 
 />
    <glyph glyph-name="uogonek" unicode="&#x173;" 
 />
    <glyph glyph-name="Wcircumflex" unicode="&#x174;" horiz-adv-x="944" 
 />
    <glyph glyph-name="wcircumflex" unicode="&#x175;" horiz-adv-x="722" 
 />
    <glyph glyph-name="Ycircumflex" unicode="&#x176;" horiz-adv-x="667" 
 />
    <glyph glyph-name="ycircumflex" unicode="&#x177;" horiz-adv-x="500" 
 />
    <glyph glyph-name="Ydieresis" unicode="&#x178;" horiz-adv-x="667" 
 />
    <glyph glyph-name="Zacute" unicode="&#x179;" horiz-adv-x="611" 
 />
    <glyph glyph-name="zacute" unicode="&#x17a;" horiz-adv-x="500" 
 />
    <glyph glyph-name="Zdot" unicode="&#x17b;" horiz-adv-x="611" 
 />
    <glyph glyph-name="zdot" unicode="&#x17c;" horiz-adv-x="500" 
 />
    <glyph glyph-name="Zcaron" unicode="&#x17d;" horiz-adv-x="611" 
 />
    <glyph glyph-name="zcaron" unicode="&#x17e;" horiz-adv-x="500" 
 />
    <glyph glyph-name="longs" unicode="&#x17f;" horiz-adv-x="222" 
 />
    <glyph glyph-name="florin" unicode="&#x192;" 
 />
    <glyph glyph-name="Aringacute" unicode="&#x1fa;" horiz-adv-x="667" 
 />
    <glyph glyph-name="aringacute" unicode="&#x1fb;" 
 />
    <glyph glyph-name="AEacute" unicode="&#x1fc;" horiz-adv-x="1000" 
 />
    <glyph glyph-name="aeacute" unicode="&#x1fd;" horiz-adv-x="889" 
 />
    <glyph glyph-name="Oslashacute" unicode="&#x1fe;" horiz-adv-x="778" 
 />
    <glyph glyph-name="oslashacute" unicode="&#x1ff;" horiz-adv-x="611" 
 />
    <glyph glyph-name="circumflex" unicode="&#x2c6;" horiz-adv-x="333" 
 />
    <glyph glyph-name="caron" unicode="&#x2c7;" horiz-adv-x="333" 
 />
    <glyph glyph-name="macron" unicode="&#x2c9;" horiz-adv-x="333" 
 />
    <glyph glyph-name="breve" unicode="&#x2d8;" horiz-adv-x="333" 
 />
    <glyph glyph-name="dotaccent" unicode="&#x2d9;" horiz-adv-x="333" 
 />
    <glyph glyph-name="ring" unicode="&#x2da;" horiz-adv-x="333" 
 />
    <glyph glyph-name="ogonek" unicode="&#x2db;" horiz-adv-x="333" 
 />
    <glyph glyph-name="tilde" unicode="&#x2dc;" horiz-adv-x="333" 
 />
    <glyph glyph-name="hungarumlaut" unicode="&#x2dd;" horiz-adv-x="333" 
 />
    <glyph glyph-name="tonos" unicode="&#x384;" horiz-adv-x="333" 
 />
    <glyph glyph-name="dieresistonos" unicode="&#x385;" horiz-adv-x="333" 
 />
    <glyph glyph-name="Alphatonos" unicode="&#x386;" horiz-adv-x="667" 
 />
    <glyph glyph-name="anoteleia" unicode="&#x387;" horiz-adv-x="278" 
 />
    <glyph glyph-name="Epsilontonos" unicode="&#x388;" horiz-adv-x="784" 
 />
    <glyph glyph-name="Etatonos" unicode="&#x389;" horiz-adv-x="838" 
 />
    <glyph glyph-name="Iotatonos" unicode="&#x38a;" horiz-adv-x="384" 
 />
    <glyph glyph-name="Omicrontonos" unicode="&#x38c;" horiz-adv-x="774" 
 />
    <glyph glyph-name="Upsilontonos" unicode="&#x38e;" horiz-adv-x="855" 
 />
    <glyph glyph-name="Omegatonos" unicode="&#x38f;" horiz-adv-x="752" 
 />
    <glyph glyph-name="iotadieresistonos" unicode="&#x390;" horiz-adv-x="222" 
 />
    <glyph glyph-name="Alpha" unicode="&#x391;" horiz-adv-x="667" 
 />
    <glyph glyph-name="Beta" unicode="&#x392;" horiz-adv-x="667" 
 />
    <glyph glyph-name="Gamma" unicode="&#x393;" horiz-adv-x="551" 
 />
    <glyph glyph-name="uni0394" unicode="&#x394;" horiz-adv-x="668" 
 />
    <glyph glyph-name="Epsilon" unicode="&#x395;" horiz-adv-x="667" 
 />
    <glyph glyph-name="Zeta" unicode="&#x396;" horiz-adv-x="611" 
 />
    <glyph glyph-name="Eta" unicode="&#x397;" horiz-adv-x="722" 
 />
    <glyph glyph-name="Theta" unicode="&#x398;" horiz-adv-x="778" 
 />
    <glyph glyph-name="Iota" unicode="&#x399;" horiz-adv-x="278" 
 />
    <glyph glyph-name="Kappa" unicode="&#x39a;" horiz-adv-x="667" 
 />
    <glyph glyph-name="Lambda" unicode="&#x39b;" horiz-adv-x="668" 
 />
    <glyph glyph-name="Mu" unicode="&#x39c;" horiz-adv-x="833" 
 />
    <glyph glyph-name="Nu" unicode="&#x39d;" horiz-adv-x="722" 
 />
    <glyph glyph-name="Xi" unicode="&#x39e;" horiz-adv-x="650" 
 />
    <glyph glyph-name="Omicron" unicode="&#x39f;" horiz-adv-x="778" 
 />
    <glyph glyph-name="Pi" unicode="&#x3a0;" horiz-adv-x="722" 
 />
    <glyph glyph-name="Rho" unicode="&#x3a1;" horiz-adv-x="667" 
 />
    <glyph glyph-name="Sigma" unicode="&#x3a3;" horiz-adv-x="618" 
 />
    <glyph glyph-name="Tau" unicode="&#x3a4;" horiz-adv-x="611" 
 />
    <glyph glyph-name="Upsilon" unicode="&#x3a5;" horiz-adv-x="667" 
 />
    <glyph glyph-name="Phi" unicode="&#x3a6;" horiz-adv-x="798" 
 />
    <glyph glyph-name="Chi" unicode="&#x3a7;" horiz-adv-x="667" 
 />
    <glyph glyph-name="Psi" unicode="&#x3a8;" horiz-adv-x="835" 
 />
    <glyph glyph-name="Omega" unicode="&#x3a9;" horiz-adv-x="748" 
 />
    <glyph glyph-name="Iotadieresis" unicode="&#x3aa;" horiz-adv-x="278" 
 />
    <glyph glyph-name="Upsilondieresis" unicode="&#x3ab;" horiz-adv-x="667" 
 />
    <glyph glyph-name="alphatonos" unicode="&#x3ac;" horiz-adv-x="578" 
 />
    <glyph glyph-name="epsilontonos" unicode="&#x3ad;" horiz-adv-x="446" 
 />
    <glyph glyph-name="etatonos" unicode="&#x3ae;" 
 />
    <glyph glyph-name="iotatonos" unicode="&#x3af;" horiz-adv-x="222" 
 />
    <glyph glyph-name="upsilondieresistonos" unicode="&#x3b0;" horiz-adv-x="547" 
 />
    <glyph glyph-name="alpha" unicode="&#x3b1;" horiz-adv-x="578" 
 />
    <glyph glyph-name="beta" unicode="&#x3b2;" horiz-adv-x="575" 
 />
    <glyph glyph-name="gamma" unicode="&#x3b3;" horiz-adv-x="500" 
 />
    <glyph glyph-name="delta" unicode="&#x3b4;" horiz-adv-x="557" 
 />
    <glyph glyph-name="epsilon" unicode="&#x3b5;" horiz-adv-x="446" 
 />
    <glyph glyph-name="zeta" unicode="&#x3b6;" horiz-adv-x="441" 
 />
    <glyph glyph-name="eta" unicode="&#x3b7;" 
 />
    <glyph glyph-name="theta" unicode="&#x3b8;" 
 />
    <glyph glyph-name="iota" unicode="&#x3b9;" horiz-adv-x="222" 
 />
    <glyph glyph-name="kappa" unicode="&#x3ba;" horiz-adv-x="500" 
 />
    <glyph glyph-name="lambda" unicode="&#x3bb;" horiz-adv-x="500" 
 />
    <glyph glyph-name="mu" unicode="&#x3bc;" horiz-adv-x="576" 
 />
    <glyph glyph-name="nu" unicode="&#x3bd;" horiz-adv-x="500" 
 />
    <glyph glyph-name="xi" unicode="&#x3be;" horiz-adv-x="448" 
 />
    <glyph glyph-name="omicron" unicode="&#x3bf;" 
 />
    <glyph glyph-name="pi" unicode="&#x3c0;" horiz-adv-x="690" 
 />
    <glyph glyph-name="rho" unicode="&#x3c1;" horiz-adv-x="569" 
 />
    <glyph glyph-name="sigma1" unicode="&#x3c2;" horiz-adv-x="482" 
 />
    <glyph glyph-name="sigma" unicode="&#x3c3;" horiz-adv-x="617" 
 />
    <glyph glyph-name="tau" unicode="&#x3c4;" horiz-adv-x="395" 
 />
    <glyph glyph-name="upsilon" unicode="&#x3c5;" horiz-adv-x="547" 
 />
    <glyph glyph-name="phi" unicode="&#x3c6;" horiz-adv-x="648" 
 />
    <glyph glyph-name="chi" unicode="&#x3c7;" horiz-adv-x="525" 
 />
    <glyph glyph-name="psi" unicode="&#x3c8;" horiz-adv-x="713" 
 />
    <glyph glyph-name="omega" unicode="&#x3c9;" horiz-adv-x="781" 
 />
    <glyph glyph-name="iotadieresis" unicode="&#x3ca;" horiz-adv-x="222" 
 />
    <glyph glyph-name="upsilondieresis" unicode="&#x3cb;" horiz-adv-x="547" 
 />
    <glyph glyph-name="omicrontonos" unicode="&#x3cc;" 
 />
    <glyph glyph-name="upsilontonos" unicode="&#x3cd;" horiz-adv-x="547" 
 />
    <glyph glyph-name="omegatonos" unicode="&#x3ce;" horiz-adv-x="781" 
 />
    <glyph glyph-name="afii10023" unicode="&#x401;" horiz-adv-x="667" 
 />
    <glyph glyph-name="afii10051" unicode="&#x402;" horiz-adv-x="865" 
 />
    <glyph glyph-name="afii10052" unicode="&#x403;" horiz-adv-x="542" 
 />
    <glyph glyph-name="afii10053" unicode="&#x404;" horiz-adv-x="719" 
 />
    <glyph glyph-name="afii10054" unicode="&#x405;" horiz-adv-x="667" 
 />
    <glyph glyph-name="afii10055" unicode="&#x406;" horiz-adv-x="278" 
 />
    <glyph glyph-name="afii10056" unicode="&#x407;" horiz-adv-x="278" 
 />
    <glyph glyph-name="afii10057" unicode="&#x408;" horiz-adv-x="500" 
 />
    <glyph glyph-name="afii10058" unicode="&#x409;" horiz-adv-x="1057" 
 />
    <glyph glyph-name="afii10059" unicode="&#x40a;" horiz-adv-x="1010" 
 />
    <glyph glyph-name="afii10060" unicode="&#x40b;" horiz-adv-x="854" 
 />
    <glyph glyph-name="afii10061" unicode="&#x40c;" horiz-adv-x="583" 
 />
    <glyph glyph-name="afii10062" unicode="&#x40e;" horiz-adv-x="635" 
 />
    <glyph glyph-name="afii10145" unicode="&#x40f;" horiz-adv-x="719" 
 />
    <glyph glyph-name="afii10017" unicode="&#x410;" horiz-adv-x="667" 
 />
    <glyph glyph-name="afii10018" unicode="&#x411;" horiz-adv-x="656" 
 />
    <glyph glyph-name="afii10019" unicode="&#x412;" horiz-adv-x="667" 
 />
    <glyph glyph-name="afii10020" unicode="&#x413;" horiz-adv-x="542" 
 />
    <glyph glyph-name="afii10021" unicode="&#x414;" horiz-adv-x="677" 
 />
    <glyph glyph-name="afii10022" unicode="&#x415;" horiz-adv-x="667" 
 />
    <glyph glyph-name="afii10024" unicode="&#x416;" horiz-adv-x="923" 
 />
    <glyph glyph-name="afii10025" unicode="&#x417;" horiz-adv-x="604" 
 />
    <glyph glyph-name="afii10026" unicode="&#x418;" horiz-adv-x="719" 
 />
    <glyph glyph-name="afii10027" unicode="&#x419;" horiz-adv-x="719" 
 />
    <glyph glyph-name="afii10028" unicode="&#x41a;" horiz-adv-x="583" 
 />
    <glyph glyph-name="afii10029" unicode="&#x41b;" horiz-adv-x="656" 
 />
    <glyph glyph-name="afii10030" unicode="&#x41c;" horiz-adv-x="833" 
 />
    <glyph glyph-name="afii10031" unicode="&#x41d;" horiz-adv-x="722" 
 />
    <glyph glyph-name="afii10032" unicode="&#x41e;" horiz-adv-x="778" 
 />
    <glyph glyph-name="afii10033" unicode="&#x41f;" horiz-adv-x="719" 
 />
    <glyph glyph-name="afii10034" unicode="&#x420;" horiz-adv-x="667" 
 />
    <glyph glyph-name="afii10035" unicode="&#x421;" horiz-adv-x="722" 
 />
    <glyph glyph-name="afii10036" unicode="&#x422;" horiz-adv-x="611" 
 />
    <glyph glyph-name="afii10037" unicode="&#x423;" horiz-adv-x="635" 
 />
    <glyph glyph-name="afii10038" unicode="&#x424;" horiz-adv-x="760" 
 />
    <glyph glyph-name="afii10039" unicode="&#x425;" horiz-adv-x="667" 
 />
    <glyph glyph-name="afii10040" unicode="&#x426;" horiz-adv-x="740" 
 />
    <glyph glyph-name="afii10041" unicode="&#x427;" horiz-adv-x="667" 
 />
    <glyph glyph-name="afii10042" unicode="&#x428;" horiz-adv-x="917" 
 />
    <glyph glyph-name="afii10043" unicode="&#x429;" horiz-adv-x="937" 
 />
    <glyph glyph-name="afii10044" unicode="&#x42a;" horiz-adv-x="792" 
 />
    <glyph glyph-name="afii10045" unicode="&#x42b;" horiz-adv-x="885" 
 />
    <glyph glyph-name="afii10046" unicode="&#x42c;" horiz-adv-x="656" 
 />
    <glyph glyph-name="afii10047" unicode="&#x42d;" horiz-adv-x="719" 
 />
    <glyph glyph-name="afii10048" unicode="&#x42e;" horiz-adv-x="1010" 
 />
    <glyph glyph-name="afii10049" unicode="&#x42f;" horiz-adv-x="722" 
 />
    <glyph glyph-name="afii10065" unicode="&#x430;" 
 />
    <glyph glyph-name="afii10066" unicode="&#x431;" horiz-adv-x="573" 
 />
    <glyph glyph-name="afii10067" unicode="&#x432;" horiz-adv-x="531" 
 />
    <glyph glyph-name="afii10068" unicode="&#x433;" horiz-adv-x="365" 
 />
    <glyph glyph-name="afii10069" unicode="&#x434;" horiz-adv-x="583" 
 />
    <glyph glyph-name="afii10070" unicode="&#x435;" 
 />
    <glyph glyph-name="afii10072" unicode="&#x436;" horiz-adv-x="669" 
 />
    <glyph glyph-name="afii10073" unicode="&#x437;" horiz-adv-x="458" 
 />
    <glyph glyph-name="afii10074" unicode="&#x438;" horiz-adv-x="559" 
 />
    <glyph glyph-name="afii10075" unicode="&#x439;" horiz-adv-x="559" 
 />
    <glyph glyph-name="afii10076" unicode="&#x43a;" horiz-adv-x="437" 
 />
    <glyph glyph-name="afii10077" unicode="&#x43b;" horiz-adv-x="583" 
 />
    <glyph glyph-name="afii10078" unicode="&#x43c;" horiz-adv-x="687" 
 />
    <glyph glyph-name="afii10079" unicode="&#x43d;" horiz-adv-x="552" 
 />
    <glyph glyph-name="afii10080" unicode="&#x43e;" 
 />
    <glyph glyph-name="afii10081" unicode="&#x43f;" horiz-adv-x="542" 
 />
    <glyph glyph-name="afii10082" unicode="&#x440;" 
 />
    <glyph glyph-name="afii10083" unicode="&#x441;" horiz-adv-x="500" 
 />
    <glyph glyph-name="afii10084" unicode="&#x442;" horiz-adv-x="458" 
 />
    <glyph glyph-name="afii10085" unicode="&#x443;" horiz-adv-x="500" 
 />
    <glyph glyph-name="afii10086" unicode="&#x444;" horiz-adv-x="823" 
 />
    <glyph glyph-name="afii10087" unicode="&#x445;" horiz-adv-x="500" 
 />
    <glyph glyph-name="afii10088" unicode="&#x446;" horiz-adv-x="573" 
 />
    <glyph glyph-name="afii10089" unicode="&#x447;" horiz-adv-x="521" 
 />
    <glyph glyph-name="afii10090" unicode="&#x448;" horiz-adv-x="802" 
 />
    <glyph glyph-name="afii10091" unicode="&#x449;" horiz-adv-x="823" 
 />
    <glyph glyph-name="afii10092" unicode="&#x44a;" horiz-adv-x="625" 
 />
    <glyph glyph-name="afii10093" unicode="&#x44b;" horiz-adv-x="719" 
 />
    <glyph glyph-name="afii10094" unicode="&#x44c;" horiz-adv-x="521" 
 />
    <glyph glyph-name="afii10095" unicode="&#x44d;" horiz-adv-x="510" 
 />
    <glyph glyph-name="afii10096" unicode="&#x44e;" horiz-adv-x="750" 
 />
    <glyph glyph-name="afii10097" unicode="&#x44f;" horiz-adv-x="542" 
 />
    <glyph glyph-name="afii10071" unicode="&#x451;" 
 />
    <glyph glyph-name="afii10099" unicode="&#x452;" 
 />
    <glyph glyph-name="afii10100" unicode="&#x453;" horiz-adv-x="365" 
 />
    <glyph glyph-name="afii10101" unicode="&#x454;" horiz-adv-x="510" 
 />
    <glyph glyph-name="afii10102" unicode="&#x455;" horiz-adv-x="500" 
 />
    <glyph glyph-name="afii10103" unicode="&#x456;" horiz-adv-x="222" 
 />
    <glyph glyph-name="afii10104" unicode="&#x457;" horiz-adv-x="278" 
 />
    <glyph glyph-name="afii10105" unicode="&#x458;" horiz-adv-x="222" 
 />
    <glyph glyph-name="afii10106" unicode="&#x459;" horiz-adv-x="906" 
 />
    <glyph glyph-name="afii10107" unicode="&#x45a;" horiz-adv-x="812" 
 />
    <glyph glyph-name="afii10108" unicode="&#x45b;" 
 />
    <glyph glyph-name="afii10109" unicode="&#x45c;" horiz-adv-x="437" 
 />
    <glyph glyph-name="afii10110" unicode="&#x45e;" horiz-adv-x="500" 
 />
    <glyph glyph-name="afii10193" unicode="&#x45f;" horiz-adv-x="552" 
 />
    <glyph glyph-name="afii10050" unicode="&#x490;" horiz-adv-x="489" 
 />
    <glyph glyph-name="afii10098" unicode="&#x491;" horiz-adv-x="411" 
 />
    <glyph glyph-name="Wgrave" unicode="&#x1e80;" horiz-adv-x="944" 
 />
    <glyph glyph-name="wgrave" unicode="&#x1e81;" horiz-adv-x="722" 
 />
    <glyph glyph-name="Wacute" unicode="&#x1e82;" horiz-adv-x="944" 
 />
    <glyph glyph-name="wacute" unicode="&#x1e83;" horiz-adv-x="722" 
 />
    <glyph glyph-name="Wdieresis" unicode="&#x1e84;" horiz-adv-x="944" 
 />
    <glyph glyph-name="wdieresis" unicode="&#x1e85;" horiz-adv-x="722" 
 />
    <glyph glyph-name="Ygrave" unicode="&#x1ef2;" horiz-adv-x="667" 
 />
    <glyph glyph-name="ygrave" unicode="&#x1ef3;" horiz-adv-x="500" 
 />
    <glyph glyph-name="endash" unicode="&#x2013;" 
 />
    <glyph glyph-name="emdash" unicode="&#x2014;" horiz-adv-x="1000" 
 />
    <glyph glyph-name="afii00208" unicode="&#x2015;" horiz-adv-x="1000" 
 />
    <glyph glyph-name="underscoredbl" unicode="&#x2017;" horiz-adv-x="552" 
 />
    <glyph glyph-name="quoteleft" unicode="&#x2018;" horiz-adv-x="222" 
 />
    <glyph glyph-name="quoteright" unicode="&#x2019;" horiz-adv-x="222" 
 />
    <glyph glyph-name="quotesinglbase" unicode="&#x201a;" horiz-adv-x="222" 
 />
    <glyph glyph-name="quotereversed" unicode="&#x201b;" horiz-adv-x="222" 
 />
    <glyph glyph-name="quotedblleft" unicode="&#x201c;" horiz-adv-x="333" 
 />
    <glyph glyph-name="quotedblright" unicode="&#x201d;" horiz-adv-x="333" 
 />
    <glyph glyph-name="quotedblbase" unicode="&#x201e;" horiz-adv-x="333" 
 />
    <glyph glyph-name="dagger" unicode="&#x2020;" 
 />
    <glyph glyph-name="daggerdbl" unicode="&#x2021;" 
 />
    <glyph glyph-name="bullet" unicode="&#x2022;" horiz-adv-x="350" 
 />
    <glyph glyph-name="ellipsis" unicode="&#x2026;" horiz-adv-x="1000" 
 />
    <glyph glyph-name="perthousand" unicode="&#x2030;" horiz-adv-x="1000" 
 />
    <glyph glyph-name="minute" unicode="&#x2032;" horiz-adv-x="187" 
 />
    <glyph glyph-name="second" unicode="&#x2033;" horiz-adv-x="354" 
 />
    <glyph glyph-name="guilsinglleft" unicode="&#x2039;" horiz-adv-x="333" 
 />
    <glyph glyph-name="guilsinglright" unicode="&#x203a;" horiz-adv-x="333" 
 />
    <glyph glyph-name="exclamdbl" unicode="&#x203c;" horiz-adv-x="500" 
 />
    <glyph glyph-name="radicalex" unicode="&#x203e;" horiz-adv-x="333" 
 />
    <glyph glyph-name="fraction" unicode="&#x2044;" horiz-adv-x="167" 
 />
    <glyph glyph-name="fraction" unicode="&#x2215;" horiz-adv-x="167" 
 />
    <glyph glyph-name="nsuperior" unicode="&#x207f;" horiz-adv-x="365" 
 />
    <glyph glyph-name="franc" unicode="&#x20a3;" 
 />
    <glyph glyph-name="afii08941" unicode="&#x20a4;" 
 />
    <glyph glyph-name="peseta" unicode="&#x20a7;" horiz-adv-x="1094" 
 />
    <glyph glyph-name="Euro" unicode="&#x20ac;" 
 />
    <glyph glyph-name="afii61248" unicode="&#x2105;" horiz-adv-x="885" 
 />
    <glyph glyph-name="afii61289" unicode="&#x2113;" horiz-adv-x="323" 
 />
    <glyph glyph-name="afii61352" unicode="&#x2116;" horiz-adv-x="1073" 
 />
    <glyph glyph-name="trademark" unicode="&#x2122;" horiz-adv-x="1000" 
 />
    <glyph glyph-name="Ohm" unicode="&#x2126;" horiz-adv-x="768" 
 />
    <glyph glyph-name="estimated" unicode="&#x212e;" horiz-adv-x="600" 
 />
    <glyph glyph-name="oneeighth" unicode="&#x215b;" horiz-adv-x="834" 
 />
    <glyph glyph-name="threeeighths" unicode="&#x215c;" horiz-adv-x="834" 
 />
    <glyph glyph-name="fiveeighths" unicode="&#x215d;" horiz-adv-x="834" 
 />
    <glyph glyph-name="seveneighths" unicode="&#x215e;" horiz-adv-x="834" 
 />
    <glyph glyph-name="arrowleft" unicode="&#x2190;" horiz-adv-x="1000" 
 />
    <glyph glyph-name="arrowup" unicode="&#x2191;" horiz-adv-x="500" 
 />
    <glyph glyph-name="arrowright" unicode="&#x2192;" horiz-adv-x="1000" 
 />
    <glyph glyph-name="arrowdown" unicode="&#x2193;" horiz-adv-x="500" 
 />
    <glyph glyph-name="arrowboth" unicode="&#x2194;" horiz-adv-x="1000" 
 />
    <glyph glyph-name="arrowupdn" unicode="&#x2195;" horiz-adv-x="500" 
 />
    <glyph glyph-name="arrowupdnbse" unicode="&#x21a8;" horiz-adv-x="500" 
 />
    <glyph glyph-name="partialdiff" unicode="&#x2202;" horiz-adv-x="494" 
 />
    <glyph glyph-name="Delta" unicode="&#x2206;" horiz-adv-x="612" 
 />
    <glyph glyph-name="product" unicode="&#x220f;" horiz-adv-x="823" 
 />
    <glyph glyph-name="summation" unicode="&#x2211;" horiz-adv-x="713" 
 />
    <glyph glyph-name="minus" unicode="&#x2212;" horiz-adv-x="584" 
 />
    <glyph glyph-name="radical" unicode="&#x221a;" horiz-adv-x="549" 
 />
    <glyph glyph-name="infinity" unicode="&#x221e;" horiz-adv-x="713" 
 />
    <glyph glyph-name="orthogonal" unicode="&#x221f;" horiz-adv-x="979" 
 />
    <glyph glyph-name="intersection" unicode="&#x2229;" horiz-adv-x="719" 
 />
    <glyph glyph-name="integral" unicode="&#x222b;" horiz-adv-x="274" 
 />
    <glyph glyph-name="approxequal" unicode="&#x2248;" horiz-adv-x="549" 
 />
    <glyph glyph-name="notequal" unicode="&#x2260;" horiz-adv-x="549" 
 />
    <glyph glyph-name="equivalence" unicode="&#x2261;" horiz-adv-x="583" 
 />
    <glyph glyph-name="lessequal" unicode="&#x2264;" horiz-adv-x="549" 
 />
    <glyph glyph-name="greaterequal" unicode="&#x2265;" horiz-adv-x="549" 
 />
    <glyph glyph-name="house" unicode="&#x2302;" horiz-adv-x="604" 
 />
    <glyph glyph-name="revlogicalnot" unicode="&#x2310;" horiz-adv-x="584" 
 />
    <glyph glyph-name="integraltp" unicode="&#x2320;" horiz-adv-x="604" 
 />
    <glyph glyph-name="integralbt" unicode="&#x2321;" horiz-adv-x="604" 
 />
    <glyph glyph-name="SF100000" unicode="&#x2500;" horiz-adv-x="708" 
 />
    <glyph glyph-name="SF110000" unicode="&#x2502;" horiz-adv-x="625" 
 />
    <glyph glyph-name="SF010000" unicode="&#x250c;" horiz-adv-x="708" 
 />
    <glyph glyph-name="SF030000" unicode="&#x2510;" horiz-adv-x="708" 
 />
    <glyph glyph-name="SF020000" unicode="&#x2514;" horiz-adv-x="708" 
 />
    <glyph glyph-name="SF040000" unicode="&#x2518;" horiz-adv-x="708" 
 />
    <glyph glyph-name="SF080000" unicode="&#x251c;" horiz-adv-x="708" 
 />
    <glyph glyph-name="SF090000" unicode="&#x2524;" horiz-adv-x="708" 
 />
    <glyph glyph-name="SF060000" unicode="&#x252c;" horiz-adv-x="708" 
 />
    <glyph glyph-name="SF070000" unicode="&#x2534;" horiz-adv-x="708" 
 />
    <glyph glyph-name="SF050000" unicode="&#x253c;" horiz-adv-x="708" 
 />
    <glyph glyph-name="SF430000" unicode="&#x2550;" horiz-adv-x="708" 
 />
    <glyph glyph-name="SF240000" unicode="&#x2551;" horiz-adv-x="708" 
 />
    <glyph glyph-name="SF510000" unicode="&#x2552;" horiz-adv-x="708" 
 />
    <glyph glyph-name="SF520000" unicode="&#x2553;" horiz-adv-x="708" 
 />
    <glyph glyph-name="SF390000" unicode="&#x2554;" horiz-adv-x="708" 
 />
    <glyph glyph-name="SF220000" unicode="&#x2555;" horiz-adv-x="708" 
 />
    <glyph glyph-name="SF210000" unicode="&#x2556;" horiz-adv-x="708" 
 />
    <glyph glyph-name="SF250000" unicode="&#x2557;" horiz-adv-x="708" 
 />
    <glyph glyph-name="SF500000" unicode="&#x2558;" horiz-adv-x="708" 
 />
    <glyph glyph-name="SF490000" unicode="&#x2559;" horiz-adv-x="708" 
 />
    <glyph glyph-name="SF380000" unicode="&#x255a;" horiz-adv-x="708" 
 />
    <glyph glyph-name="SF280000" unicode="&#x255b;" horiz-adv-x="708" 
 />
    <glyph glyph-name="SF270000" unicode="&#x255c;" horiz-adv-x="708" 
 />
    <glyph glyph-name="SF260000" unicode="&#x255d;" horiz-adv-x="708" 
 />
    <glyph glyph-name="SF360000" unicode="&#x255e;" horiz-adv-x="708" 
 />
    <glyph glyph-name="SF370000" unicode="&#x255f;" horiz-adv-x="708" 
 />
    <glyph glyph-name="SF420000" unicode="&#x2560;" horiz-adv-x="708" 
 />
    <glyph glyph-name="SF190000" unicode="&#x2561;" horiz-adv-x="708" 
 />
    <glyph glyph-name="SF200000" unicode="&#x2562;" horiz-adv-x="708" 
 />
    <glyph glyph-name="SF230000" unicode="&#x2563;" horiz-adv-x="708" 
 />
    <glyph glyph-name="SF470000" unicode="&#x2564;" horiz-adv-x="708" 
 />
    <glyph glyph-name="SF480000" unicode="&#x2565;" horiz-adv-x="708" 
 />
    <glyph glyph-name="SF410000" unicode="&#x2566;" horiz-adv-x="708" 
 />
    <glyph glyph-name="SF450000" unicode="&#x2567;" horiz-adv-x="708" 
 />
    <glyph glyph-name="SF460000" unicode="&#x2568;" horiz-adv-x="708" 
 />
    <glyph glyph-name="SF400000" unicode="&#x2569;" horiz-adv-x="708" 
 />
    <glyph glyph-name="SF540000" unicode="&#x256a;" horiz-adv-x="708" 
 />
    <glyph glyph-name="SF530000" unicode="&#x256b;" horiz-adv-x="708" 
 />
    <glyph glyph-name="SF440000" unicode="&#x256c;" horiz-adv-x="708" 
 />
    <glyph glyph-name="upblock" unicode="&#x2580;" horiz-adv-x="708" 
 />
    <glyph glyph-name="dnblock" unicode="&#x2584;" horiz-adv-x="708" 
 />
    <glyph glyph-name="block" unicode="&#x2588;" horiz-adv-x="708" 
 />
    <glyph glyph-name="lfblock" unicode="&#x258c;" horiz-adv-x="708" 
 />
    <glyph glyph-name="rtblock" unicode="&#x2590;" horiz-adv-x="708" 
 />
    <glyph glyph-name="ltshade" unicode="&#x2591;" horiz-adv-x="708" 
 />
    <glyph glyph-name="shade" unicode="&#x2592;" horiz-adv-x="708" 
 />
    <glyph glyph-name="dkshade" unicode="&#x2593;" horiz-adv-x="729" 
 />
    <glyph glyph-name="filledbox" unicode="&#x25a0;" horiz-adv-x="604" 
 />
    <glyph glyph-name="H22073" unicode="&#x25a1;" horiz-adv-x="604" 
 />
    <glyph glyph-name="H18543" unicode="&#x25aa;" horiz-adv-x="354" 
 />
    <glyph glyph-name="H18551" unicode="&#x25ab;" horiz-adv-x="354" 
 />
    <glyph glyph-name="filledrect" unicode="&#x25ac;" horiz-adv-x="1000" 
 />
    <glyph glyph-name="triagup" unicode="&#x25b2;" horiz-adv-x="990" 
 />
    <glyph glyph-name="triagrt" unicode="&#x25ba;" horiz-adv-x="990" 
 />
    <glyph glyph-name="triagdn" unicode="&#x25bc;" horiz-adv-x="990" 
 />
    <glyph glyph-name="triaglf" unicode="&#x25c4;" horiz-adv-x="990" 
 />
    <glyph glyph-name="lozenge" unicode="&#x25ca;" horiz-adv-x="494" 
 />
    <glyph glyph-name="circle" unicode="&#x25cb;" horiz-adv-x="604" 
 />
    <glyph glyph-name="H18533" unicode="&#x25cf;" horiz-adv-x="604" 
 />
    <glyph glyph-name="invbullet" unicode="&#x25d8;" horiz-adv-x="604" 
 />
    <glyph glyph-name="invcircle" unicode="&#x25d9;" horiz-adv-x="604" 
 />
    <glyph glyph-name="openbullet" unicode="&#x25e6;" horiz-adv-x="354" 
 />
    <glyph glyph-name="smileface" unicode="&#x263a;" horiz-adv-x="1021" 
 />
    <glyph glyph-name="invsmileface" unicode="&#x263b;" horiz-adv-x="1052" 
 />
    <glyph glyph-name="sun" unicode="&#x263c;" horiz-adv-x="917" 
 />
    <glyph glyph-name="female" unicode="&#x2640;" horiz-adv-x="750" 
 />
    <glyph glyph-name="male" unicode="&#x2642;" horiz-adv-x="750" 
 />
    <glyph glyph-name="spade" unicode="&#x2660;" horiz-adv-x="531" 
 />
    <glyph glyph-name="club" unicode="&#x2663;" horiz-adv-x="656" 
 />
    <glyph glyph-name="heart" unicode="&#x2665;" horiz-adv-x="594" 
 />
    <glyph glyph-name="diamond" unicode="&#x2666;" horiz-adv-x="510" 
 />
    <glyph glyph-name="musicalnote" unicode="&#x266a;" horiz-adv-x="500" 
 />
    <glyph glyph-name="musicalnotedbl" unicode="&#x266b;" horiz-adv-x="750" 
 />
    <glyph glyph-name="fi" unicode="&#xf001;" horiz-adv-x="500" 
 />
    <glyph glyph-name="fi" unicode="&#xfb01;" horiz-adv-x="500" 
 />
    <glyph glyph-name="fl" unicode="&#xf002;" horiz-adv-x="500" 
 />
    <glyph glyph-name="fl" unicode="&#xfb02;" horiz-adv-x="500" 
 />
    <glyph glyph-name="commaaccent" unicode="&#xf004;" horiz-adv-x="333" 
 />
    <glyph glyph-name="undercommaaccent" unicode="&#xf005;" horiz-adv-x="333" 
 />
    <glyph glyph-name="pi1" horiz-adv-x="549" 
 />
    <glyph glyph-name="periodcentered" horiz-adv-x="333" 
 />
  </font>
</defs>
</svg>
