<?xml version="1.0" standalone="no"?>
<!DOCTYPE svg PUBLIC "-//W3C//DTD SVG 1.1//EN" "http://www.w3.org/Graphics/SVG/1.1/DTD/svg11.dtd" >
<svg xmlns="http://www.w3.org/2000/svg" xmlns:xlink="http://www.w3.org/1999/xlink" version="1.1">
<metadata>
Created by FontForge 20170812 at Sun May  8 09:48:39 2016
 By www-data
Taxicab Bold by Keith Bates    (c) 2016   www.k-type.com    A full display face inspired by the soft, rounded capitals and numerals used for medallion numbers on yellow taxis in New York and the lettering on pressed metal vehicle license plates.
</metadata>
<defs>
<font id="Taxicab-Bold" horiz-adv-x="500" >
  <font-face 
    font-family="Taxicab"
    font-weight="700"
    font-stretch="normal"
    units-per-em="1000"
    panose-1="0 0 0 0 0 0 0 0 0 0"
    ascent="800"
    descent="-200"
    x-height="580"
    cap-height="720"
    bbox="-99.878 -279.043 1328 1129.76"
    underline-thickness="50"
    underline-position="-150"
    unicode-range="U+0009-FB02"
  />
<missing-glyph horiz-adv-x="1000" 
 />
    <glyph glyph-name=".notdef" horiz-adv-x="1000" 
 />
    <glyph glyph-name=".null" horiz-adv-x="0" 
 />
    <glyph glyph-name="nonmarkingreturn" unicode="&#xd;" horiz-adv-x="1000" 
 />
    <glyph glyph-name="NULL" horiz-adv-x="0" 
 />
    <glyph glyph-name="NULL" horiz-adv-x="0" 
 />
    <glyph glyph-name="HT" unicode="&#x9;" horiz-adv-x="1000" 
 />
    <glyph glyph-name="LF" unicode="&#xa;" horiz-adv-x="1000" 
 />
    <glyph glyph-name="DLE" horiz-adv-x="1000" 
 />
    <glyph glyph-name="DC1" horiz-adv-x="1000" 
 />
    <glyph glyph-name="DC2" horiz-adv-x="1000" 
 />
    <glyph glyph-name="DC3" horiz-adv-x="1000" 
 />
    <glyph glyph-name="DC4" horiz-adv-x="1000" 
 />
    <glyph glyph-name="RS" horiz-adv-x="1000" 
 />
    <glyph glyph-name="US" horiz-adv-x="1000" 
 />
    <glyph glyph-name="space" unicode=" " horiz-adv-x="220" 
 />
    <glyph glyph-name="exclam" unicode="!" horiz-adv-x="258" 
d="M208 604q0 -42 -3 -87.5t-8 -106.5q-2 -18 -5 -41.5t-6.5 -47t-6.5 -43t-5 -28.5q-4 -17 -10.5 -29t-23.5 -12h-17q-22 0 -28.5 12t-9.5 28q-4 20 -10.5 57t-12.5 104q-7 66 -9.5 112t-2.5 82v60q0 10 1 20t6 18t14 13t26 5h63q31 0 39.5 -14.5t8.5 -42.5v-59zM204 40
q0 -40 -40 -40h-70q-40 0 -40 40v60q0 40 40 40h70q40 0 40 -40v-60z" />
    <glyph glyph-name="quotedbl" unicode="&#x22;" horiz-adv-x="395" 
d="M364 724l-26 -168q-4 -22 -11 -35.5t-24 -13.5h-18q-17 0 -24 13.5t-10 35.5l-27 170q-3 15 5 24t19 9h92q13 0 19.5 -10.5t4.5 -24.5zM171 724l-26 -168q-4 -22 -11 -35.5t-24 -13.5h-18q-17 0 -24 13.5t-10 35.5l-27 170q-3 15 5 24t19 9h92q13 0 19.5 -10.5t4.5 -24.5
z" />
    <glyph glyph-name="numbersign" unicode="#" horiz-adv-x="706" 
d="M674 470l-5 -23q-1 -5 -3.5 -11.5t-7.5 -12.5t-13.5 -10.5t-21.5 -4.5h-84l-28 -103h59q28 0 39.5 -15.5t6.5 -35.5q-1 -3 -2 -9.5t-2 -9.5q-6 -21 -17.5 -33.5t-31.5 -12.5h-85l-42 -148q-7 -23 -19.5 -32.5t-29.5 -9.5h-37q-25 0 -30.5 18t5.5 53q2 9 8 28.5t11 39.5
q6 24 14 51h-104l-42 -148q-6 -23 -18.5 -32.5t-30.5 -9.5h-36q-18 0 -26 6.5t-9.5 16.5t1.5 23t7 25q2 9 8 28.5t12 39.5q7 24 14 51h-59q-29 0 -39 17t-5 40q1 3 2 7.5t0 4.5q4 20 19 33.5t30 13.5h83l30 103h-60q-29 0 -38 16t-6 40q1 8 5 17q5 18 16 30t30 12h85l44 157
q7 23 17.5 31.5t27.5 8.5h42q33 0 34.5 -14.5t-8.5 -51.5q-3 -9 -9 -30t-12 -44q-7 -26 -16 -57h105l43 157q6 24 17 32t28 8h41q16 0 24 -4t10.5 -12t0 -19t-6.5 -26q-3 -9 -9 -31.5t-13 -45.5q-8 -27 -16 -59h59q23 0 37 -11.5t7 -41.5zM430 418h-125l-33 -123h125z" />
    <glyph glyph-name="dollar" unicode="$" horiz-adv-x="570" 
d="M510 150q0 -151 -149 -150h-24v-45v-4q0 -32 -32 -32h-41q-32 0 -32 32v49h-117q-40 0 -40 40v60q0 40 40 40h210q35 0 35 40v34q0 17 -9 29t-33 21l-132 50q-37 14 -61.5 30.5t-38.5 38.5t-20 50t-6 65v72q0 150 150 150h22v48q0 32 32 32h41q32 0 32 -32v-4v-44h23
q150 0 150 -150v-30q0 -40 -40 -40h-65q-40 0 -40 40v5q0 40 -40 40h-75q-40 0 -40 -40v-45q0 -23 9.5 -37.5t36.5 -25.5l130 -50q63 -24 93.5 -65t30.5 -111v-61z" />
    <glyph glyph-name="percent" unicode="%" horiz-adv-x="1008" 
d="M958 108q0 -108 -108 -108h-104q-108 0 -108 108v248q0 108 108 108h104q108 0 108 -108v-248zM756 684l-392 -662q-6 -11 -16.5 -16.5t-27.5 -5.5h-42q-21 0 -27.5 10t4.5 29l386 650q11 19 20.5 25t26.5 6h42q23 0 28.5 -11t-2.5 -25zM370 364q0 -108 -108 -108h-104
q-108 0 -108 108v248q0 108 108 108h104q108 0 108 -108v-248zM850 121v221q0 29 -28 29h-47q-29 0 -29 -28v-222q0 -28 29 -28h47q28 0 28 28zM262 377v221q0 29 -28 29h-47q-29 0 -29 -28v-222q0 -28 29 -28h47q28 0 28 28z" />
    <glyph glyph-name="ampersand" unicode="&#x26;" horiz-adv-x="554" 
d="M544 30q0 -15 -14 -22.5t-27 -7.5h-52q-25 0 -34 7.5t-20 24.5q-17 -14 -40 -23t-49 -9h-113q-150 0 -150 150v95q0 71 74 121l37 25l-36 55q-34 53 -34 101v25q0 75 41 111.5t108 36.5h93q72 0 106.5 -36.5t34.5 -111.5v-37q0 -23 -2 -40t-9 -31.5t-20.5 -28
t-35.5 -28.5l-72 -49l94 -143l19 16q16 13 30.5 10t25.5 -20l32 -46q11 -16 9 -30.5t-19 -25.5l-20 -13l17 -25q11 -16 18.5 -27.5t7.5 -23.5zM338 540v10q0 40 -39 40h-32q-42 0 -42 -40v-11q0 -14 3 -22.5t14 -25.5l21 -34l54 36q15 10 18 22t3 25zM322 144l-99 150
l-18 -12q-10 -7 -14 -17t-4 -21v-74q0 -40 40 -40h55q11 0 21.5 3.5t18.5 10.5z" />
    <glyph glyph-name="quotesingle" unicode="'" horiz-adv-x="202" 
d="M171 724l-26 -168q-4 -22 -11 -35.5t-24 -13.5h-18q-17 0 -24 13.5t-10 35.5l-27 170q-3 15 5 24t19 9h92q13 0 19.5 -10.5t4.5 -24.5z" />
    <glyph glyph-name="parenleft" unicode="(" horiz-adv-x="350" 
d="M328 818q-65 -98 -90.5 -208.5t-25.5 -241.5q0 -125 26 -235.5t89 -210.5q5 -9 1 -16t-17 -7h-56q-24 0 -43 23q-44 53 -73 108t-46.5 111.5t-25 114t-7.5 116.5q0 56 9 115t27.5 116.5t47 111t66.5 99.5q19 23 46 23h57q11 0 15.5 -6t-0.5 -13z" />
    <glyph glyph-name="parenright" unicode=")" horiz-adv-x="350" 
d="M290 372q0 -117 -33 -230.5t-119 -219.5q-20 -23 -43 -23h-56q-13 0 -17 7t1 16q63 100 89 210.5t26 235.5q0 131 -26 241.5t-90 208.5q-5 7 -0.5 13t15.5 6h57q27 0 46 -23q38 -46 66.5 -99.5t47 -111t27.5 -116.5t9 -115z" />
    <glyph glyph-name="asterisk" unicode="*" horiz-adv-x="438" 
d="M396 472l-34 -58q-5 -8 -13 -9.5t-17 5.5l-77 63l15 -97q2 -11 -2.5 -18t-14.5 -7h-67q-8 0 -14 6.5t-4 17.5l16 98l-78 -63q-8 -7 -16.5 -5.5t-13.5 8.5l-34 59q-5 8 -0.5 16t14.5 12l92 35l-93 35q-11 5 -14 12.5t2 15.5l33 58q5 8 14 8.5t18 -6.5l76 -61l-16 98
q-2 11 4 17.5t14 6.5h67q10 0 14.5 -7.5t2.5 -18.5l-15 -95l75 60q9 7 18 6.5t14 -8.5l33 -58q5 -8 2 -16t-14 -12l-92 -35l91 -35q10 -4 14.5 -12t-0.5 -16z" />
    <glyph glyph-name="plus" unicode="+" horiz-adv-x="629" 
d="M569 281q0 -19 -14.5 -32t-35.5 -13h-129v-152q0 -19 -15 -32t-35 -13h-50q-21 0 -35.5 13t-14.5 32v152h-130q-21 0 -35.5 13t-14.5 32v44q0 19 14.5 32t35.5 13h130v152q0 19 14.5 32t35.5 13h50q20 0 35 -13t15 -32v-152h129q21 0 35.5 -13t14.5 -32v-44z" />
    <glyph glyph-name="comma" unicode="," horiz-adv-x="250" 
d="M190 59q0 -36 -12 -54l-60 -95q-19 -31 -50 -11t-12 50l34 51h-10q-40 0 -40 40v60q0 40 40 40h70q40 0 40 -40v-41z" />
    <glyph glyph-name="hyphen" unicode="-" horiz-adv-x="280" 
d="M260 270q0 -40 -40 -40h-160q-40 0 -40 40v60q0 40 40 40h160q40 0 40 -40v-60z" />
    <glyph glyph-name="period" unicode="." horiz-adv-x="250" 
d="M190 40q0 -40 -40 -40h-70q-40 0 -40 40v60q0 40 40 40h70q40 0 40 -40v-60z" />
    <glyph glyph-name="slash" unicode="/" horiz-adv-x="375" 
d="M353 784l-231 -857q-4 -16 -13 -21.5t-26 -5.5h-34q-38 0 -27 39l226 850q5 18 13.5 24.5t29.5 6.5h32q39 0 30 -36z" />
    <glyph glyph-name="zero" unicode="0" horiz-adv-x="570" 
d="M510 150q0 -150 -150 -150h-150q-150 0 -150 150v420q0 150 150 150h150q150 0 150 -150v-420zM360 175v370q0 40 -40 40h-70q-40 0 -40 -40v-370q0 -40 40 -40h70q40 0 40 40z" />
    <glyph glyph-name="one" unicode="1" horiz-adv-x="439" 
d="M359 40q0 -40 -40 -40h-70q-40 0 -40 40v461l-57 -57q-14 -14 -28.5 -13.5t-27.5 13.5l-43 42q-27 28 0 57l164 164q13 13 34 13h68q40 0 40 -40v-640z" />
    <glyph glyph-name="two" unicode="2" horiz-adv-x="570" 
d="M510 40q0 -40 -40 -40h-370q-40 0 -40 40v136q0 75 28 117.5t97 69.5l137 53q38 15 38 54v75q0 40 -40 40h-75q-40 0 -40 -40v-5q0 -40 -40 -40h-65q-40 0 -40 40v30q0 150 150 150h150q150 0 150 -150v-93q0 -75 -26 -116.5t-90 -66.5l-147 -56q-23 -8 -30 -21t-7 -33
v-44h260q40 0 40 -40v-60z" />
    <glyph glyph-name="three" unicode="3" horiz-adv-x="570" 
d="M510 150q0 -150 -150 -150h-260q-40 0 -40 40v60q0 40 40 40h220q40 0 40 40v80q0 40 -40 40h-170q-40 0 -40 40v60q0 40 40 40h170q40 0 40 40v59q0 19 -11 29.5t-29 10.5l-220 1q-19 0 -29.5 11t-10.5 29v60q0 40 40 40h260q150 0 150 -150v-59q0 -60 -26 -92t-64 -43
v-2q38 -11 64 -43t26 -92v-89z" />
    <glyph glyph-name="four" unicode="4" horiz-adv-x="570" 
d="M520 180q0 -40 -40 -40h-27v-100q0 -40 -40 -40h-65q-40 0 -40 40v100h-218q-40 0 -40 40v54q0 19 11 38l255 435q13 13 34 13h63q40 0 40 -40v-405h27q40 0 40 -40v-55zM308 472l-111 -197h111v197z" />
    <glyph glyph-name="five" unicode="5" horiz-adv-x="569" 
d="M509 150q0 -150 -150 -150h-250q-40 0 -40 40v60q0 40 40 40h200q50 0 50 50v70q0 50 -50 50h-211q-20 0 -30.5 13t-6.5 38l48 319q3 15 12 27.5t28 12.5h305q40 0 40 -40v-60q0 -40 -40 -40h-224l-20 -130h149q150 0 150 -150v-150z" />
    <glyph glyph-name="six" unicode="6" horiz-adv-x="570" 
d="M510 150q0 -150 -150 -150h-150q-150 0 -150 150v139q0 26 1.5 45t5.5 34t11 28.5t17 28.5l180 262q11 17 23.5 25t35.5 8h93q19 0 24.5 -12.5t-5.5 -27.5l-175 -240h89q150 0 150 -150v-140zM360 175v71q0 20 -8.5 37t-29.5 17h-112v-125q0 -40 40 -40h70q40 0 40 40z
" />
    <glyph glyph-name="seven" unicode="7" horiz-adv-x="530" 
d="M490 640q0 -19 -4 -35t-10 -29l-254 -540q-5 -11 -10 -18t-11 -11t-13.5 -5.5t-19.5 -1.5h-83q-20 0 -25 11.5t3 28.5l263 540h-246q-40 0 -40 40v60q0 40 40 40h370q40 0 40 -40v-40z" />
    <glyph glyph-name="eight" unicode="8" horiz-adv-x="580" 
d="M520 150q0 -150 -150 -150h-160q-150 0 -150 150v90q0 37 6.5 62.5t18 41.5t27.5 24t35 12v2q-17 4 -31.5 12t-26 23t-18 38t-6.5 57v58q0 150 150 150h150q150 0 150 -150v-58q0 -33 -6.5 -56.5t-17.5 -38.5t-26 -23t-32 -12v-2q19 -4 35 -12.5t27.5 -24.5t18 -41
t6.5 -62v-90zM365 480v64q0 19 -10.5 30t-29.5 11h-70q-20 0 -30 -11t-10 -30v-64q0 -40 40 -40h70q40 0 40 40zM370 175v95q0 40 -40 40h-80q-40 0 -40 -40v-95q0 -40 40 -40h80q40 0 40 40z" />
    <glyph glyph-name="nine" unicode="9" horiz-adv-x="570" 
d="M510 40q0 -40 -40 -40h-70q-20 -1 -30 9.5t-10 30.5v230h-150q-150 0 -150 150v150q0 150 150 150h150q150 0 150 -150v-530zM360 410v135q0 40 -40 40h-70q-40 0 -40 -40v-95q0 -40 40 -40h110z" />
    <glyph glyph-name="colon" unicode=":" horiz-adv-x="270" 
d="M210 340q0 -40 -40 -40h-70q-40 0 -40 40v60q0 40 40 40h70q40 0 40 -40v-60zM210 40q0 -40 -40 -40h-70q-40 0 -40 40v60q0 40 40 40h70q40 0 40 -40v-60z" />
    <glyph glyph-name="semicolon" unicode=";" horiz-adv-x="270" 
d="M210 340q0 -40 -40 -40h-70q-40 0 -40 40v60q0 40 40 40h70q40 0 40 -40v-60zM210 59q0 -36 -12 -54l-60 -95q-19 -31 -50 -11t-12 50l34 51h-10q-40 0 -40 40v60q0 40 40 40h70q40 0 40 -40v-41z" />
    <glyph glyph-name="less" unicode="&#x3c;" horiz-adv-x="604" 
d="M544 80q0 -32 -20 -40.5t-57 8.5l-367 174q-40 20 -40 60v43q0 22 12.5 35t29.5 24l367 173q40 20 57.5 10t17.5 -40v-46q0 -26 -10.5 -37t-31.5 -21l-264 -120l257 -118q22 -10 35.5 -26t13.5 -36v-43z" />
    <glyph glyph-name="equal" unicode="=" horiz-adv-x="639" 
d="M579 397q0 -23 -15.5 -38.5t-38.5 -15.5h-411q-23 0 -38.5 15.5t-15.5 38.5v43q0 23 15.5 38.5t38.5 15.5h411q23 0 38.5 -15.5t15.5 -38.5v-43zM579 163q0 -23 -15.5 -38.5t-38.5 -15.5h-411q-23 0 -38.5 15.5t-15.5 38.5v43q0 23 15.5 38.5t38.5 15.5h411
q23 0 38.5 -15.5t15.5 -38.5v-43z" />
    <glyph glyph-name="greater" unicode="&#x3e;" horiz-adv-x="604" 
d="M544 325v-43q0 -40 -40 -60l-367 -174q-37 -17 -57 -8.5t-20 40.5v43q0 20 13.5 36t35.5 26l257 118l-264 120q-21 10 -31.5 21t-10.5 37v46q0 30 17.5 40t57.5 -10l367 -173q17 -11 29.5 -24t12.5 -35z" />
    <glyph glyph-name="question" unicode="?" horiz-adv-x="545" 
d="M485 517q0 -36 -5 -63.5t-17 -48.5t-32 -36.5t-50 -27.5l-51 -20q-22 -8 -30.5 -20.5t-8.5 -35.5v-5v-10q0 -20 -10 -30.5t-30 -9.5h-67q-40 0 -40 40v27q0 33 6 58t18.5 43.5t32.5 32t49 24.5l53 21q37 14 37 54v35q0 40 -40 40h-60q-40 0 -40 -40v-5q0 -40 -40 -40h-60
q-40 0 -40 40v30q0 150 150 150h125q150 0 150 -150v-53zM294 40q0 -40 -40 -40h-70q-40 0 -40 40v60q0 40 40 40h70q40 0 40 -40v-60z" />
    <glyph glyph-name="at" unicode="@" horiz-adv-x="1046" 
d="M978 297q-4 -21 -10 -44t-13.5 -45.5t-15.5 -43t-17 -35.5q-31 -55 -80.5 -92t-115.5 -37h-13q-26 0 -51 9t-41 31h-2q-17 -23 -41.5 -31.5t-72.5 -8.5h-107q-135 0 -111 135l54 310q24 135 159 135h226q17 0 24.5 -9.5t4.5 -26.5l-65 -375q-3 -32 9.5 -46t46.5 -14
q20 0 35.5 8t28 20.5t22 28.5t17.5 33q10 21 17 48t12 50q14 80 -1 150.5t-53.5 123t-98 83t-134.5 30.5t-145.5 -30.5t-127.5 -83t-96.5 -123t-53.5 -150.5t-0.5 -150t51 -122.5t97.5 -83t139 -30.5q42 0 78 8t68 21q27 10 37 -12l15 -32q6 -12 1 -22t-17 -15
q-42 -20 -92 -32.5t-107 -12.5q-96 0 -172.5 39t-126.5 106.5t-69.5 157t-1.5 190.5q18 102 68.5 189t122.5 150.5t159.5 99t179.5 35.5q93 0 171 -37.5t130.5 -103t74.5 -154t4 -189.5zM610 462h-95q-35 0 -43 -37l-47 -271q-6 -36 29 -36h59q36 0 42 35z" />
    <glyph glyph-name="A" unicode="A" horiz-adv-x="571" 
d="M538 49q6 -22 -2 -35.5t-28 -13.5h-82q-20 0 -28.5 9.5t-13.5 30.5l-24 100h-150l-23 -100q-5 -21 -13.5 -30.5t-28.5 -9.5h-82q-20 0 -28 13.5t-2 35.5l174 631q5 19 12.5 29.5t27.5 10.5h77q20 0 27.5 -10.5t12.5 -29.5zM329 275l-44 184l-43 -184h87z" />
    <glyph glyph-name="B" unicode="B" horiz-adv-x="571" 
d="M511 150q0 -150 -150 -150h-261q-40 0 -40 40v640q0 40 40 40h261q150 0 150 -150v-48q0 -34 -7.5 -58t-20 -40.5t-29 -26t-35.5 -15.5v-2q19 -6 35.5 -15.5t29 -26t20 -40.5t7.5 -58v-90zM361 480v64q0 19 -10.5 30t-29.5 11h-111v-145h111q40 0 40 40zM361 175v95
q0 40 -40 40h-111v-175h111q40 0 40 40z" />
    <glyph glyph-name="C" unicode="C" horiz-adv-x="560" 
d="M510 540q0 -40 -40 -40h-65q-40 0 -40 40v5q0 40 -40 40h-75q-40 0 -40 -40v-365q0 -40 40 -40h205q40 0 40 -40v-60q0 -20 -10 -30.5t-30 -9.5h-245q-150 0 -150 150v420q0 150 150 150h150q150 0 150 -150v-30z" />
    <glyph glyph-name="D" unicode="D" horiz-adv-x="571" 
d="M511 150q0 -150 -150 -150h-261q-40 0 -40 40v640q0 40 40 40h261q150 0 150 -150v-420zM361 175v369q0 19 -10.5 30t-29.5 11h-111v-450h111q40 0 40 40z" />
    <glyph glyph-name="E" unicode="E" horiz-adv-x="555" 
d="M510 40q0 -40 -40 -40h-370q-40 0 -40 41v639q0 40 40 40h370q40 0 40 -40v-60q0 -18 -10.5 -29t-29.5 -11l-260 -1v-139h210q40 0 40 -40v-60q0 -40 -40 -40h-210v-160h260q40 0 40 -40v-60z" />
    <glyph glyph-name="F" unicode="F" horiz-adv-x="550" 
d="M510 620q0 -18 -10.5 -29t-29.5 -11l-260 -1v-139h210q40 0 40 -40v-60q0 -40 -40 -40h-210v-261q0 -39 -40 -39h-70q-40 0 -40 41v639q0 40 40 40h370q40 0 40 -40v-60z" />
    <glyph glyph-name="G" unicode="G" horiz-adv-x="570" 
d="M510 40q0 -40 -40 -40h-43q-24 0 -34 10t-12 25l-3 1q-9 -17 -26.5 -26.5t-44.5 -9.5h-97q-74 -1 -112 37t-38 113v147v126v147q0 148 150 150h245q40 0 40 -40v-60q0 -40 -40 -40h-205q-40 0 -40 -40v-365q0 -40 40 -40h75q40 0 40 40v90h-35q-18 0 -29 10t-11 30v60
q0 40 40 40h140q40 0 40 -40v-325z" />
    <glyph glyph-name="H" unicode="H" horiz-adv-x="570" 
d="M510 40q0 -40 -40 -40h-70q-40 0 -40 40v260h-150v-260q0 -40 -40 -40h-70q-40 0 -40 40v640q0 40 40 40h70q40 0 40 -40v-240h150v240q0 40 40 40h70q40 0 40 -40v-640z" />
    <glyph glyph-name="I" unicode="I" horiz-adv-x="290" 
d="M220 40q0 -40 -40 -40h-70q-40 0 -40 40v640q0 40 40 40h70q40 0 40 -40v-640z" />
    <glyph glyph-name="J" unicode="J" horiz-adv-x="540" 
d="M480 150q0 -150 -150 -150h-150q-150 0 -150 150v30q0 40 40 40h65q18 0 26 -6.5t10.5 -15.5t3.5 -20.5t3.5 -20.5t10.5 -15.5t26 -6.5h75q40 0 40 39v506q0 40 40 40h70q40 0 40 -40v-530z" />
    <glyph glyph-name="K" unicode="K" horiz-adv-x="575" 
d="M545 22q0 -11 -8 -16.5t-18 -5.5h-92q-24 0 -35 10t-23 30l-159 262v-262q0 -40 -40 -40h-70q-40 0 -40 40v640q0 40 40 40h70q40 0 40 -40v-242l159 242q12 19 23.5 29.5t34.5 10.5h92q11 0 18.5 -5t7.5 -16q0 -12 -6 -19l-209 -308l209 -332q2 -4 4 -8.5t2 -9.5z" />
    <glyph glyph-name="L" unicode="L" horiz-adv-x="530" 
d="M495 40q0 -40 -40 -40h-355q-40 0 -40 41v639q0 40 40 40h70q40 0 40 -40v-540h245q40 0 40 -40v-60z" />
    <glyph glyph-name="M" unicode="M" horiz-adv-x="720" 
d="M660 40q0 -40 -40 -40h-70q-40 0 -40 40v369l-125 -252q-8 -17 -24.5 -17t-24.5 17l-126 252v-369q0 -40 -40 -40h-70q-40 0 -40 40v640q0 40 40 40h70q12 0 22 -5.5t15 -15.5l154 -306l152 306q5 10 15 15.5t22 5.5h70q40 0 40 -40v-640z" />
    <glyph glyph-name="N" unicode="N" horiz-adv-x="570" 
d="M510 40q0 -40 -40 -40h-70q-28 0 -36 19l-154 355v-334q0 -40 -40 -40h-70q-40 0 -40 40v640q0 40 40 40h70q28 0 36 -20l154 -353v333q0 40 40 40h70q40 0 40 -40v-640z" />
    <glyph glyph-name="O" unicode="O" horiz-adv-x="570" 
d="M510 150q0 -150 -150 -150h-150q-150 0 -150 150v420q0 150 150 150h150q150 0 150 -150v-420zM360 175v370q0 40 -40 40h-70q-40 0 -40 -40v-370q0 -40 40 -40h70q40 0 40 40z" />
    <glyph glyph-name="P" unicode="P" horiz-adv-x="566" 
d="M521 450q0 -150 -150 -150h-161v-260q0 -40 -40 -40h-70q-40 0 -40 40v640q0 40 40 40h271q150 0 150 -150v-120zM371 475v69q0 19 -10.5 30t-29.5 11h-121v-150h121q40 0 40 40z" />
    <glyph glyph-name="Q" unicode="Q" horiz-adv-x="570" 
d="M560 40q0 -20 -10 -30.5t-30 -9.5h-65q-26 0 -39 9.5t-18 26.5l-2 1q-11 -17 -32 -27t-53 -10h-101q-150 0 -150 150v420q0 150 150 150h150q145 0 145 -150v-353q0 -40 -9 -68q0 -13 20 -13h4q40 0 40 -40v-56zM360 175v370q0 40 -40 40h-70q-40 0 -40 -40v-370
q0 -40 40 -40h70q40 0 40 40z" />
    <glyph glyph-name="R" unicode="R" horiz-adv-x="570" 
d="M555 22q0 -11 -8 -16.5t-18 -5.5h-82q-24 0 -35 10t-23 30l-163 260h-16v-260q0 -40 -40 -40h-70q-40 0 -40 40v640q0 40 40 40h261q150 0 150 -150v-120q0 -140 -130 -149l168 -261q6 -8 6 -18zM361 475v69q0 19 -10.5 30t-29.5 11h-111v-150h111q40 0 40 40z" />
    <glyph glyph-name="S" unicode="S" horiz-adv-x="570" 
d="M510 150q0 -151 -149 -150h-246q-40 0 -40 40v60q0 40 40 40h210q35 0 35 40v34q0 17 -9 29t-33 21l-132 50q-37 14 -61.5 30.5t-38.5 38.5t-20 50t-6 65v72q0 150 150 150h150q150 0 150 -150v-30q0 -40 -40 -40h-65q-40 0 -40 40v5q0 40 -40 40h-75q-40 0 -40 -40v-45
q0 -23 9.5 -37.5t36.5 -25.5l130 -50q63 -24 93.5 -65t30.5 -111v-61z" />
    <glyph glyph-name="T" unicode="T" horiz-adv-x="530" 
d="M500 620q0 -40 -40 -40h-120v-540q0 -40 -40 -40h-70q-40 0 -40 40v540h-120q-40 0 -40 40v60q0 40 40 40h390q40 0 40 -40v-60z" />
    <glyph glyph-name="U" unicode="U" horiz-adv-x="570" 
d="M510 150q0 -150 -150 -150h-150q-150 0 -150 150v530q0 40 40 40h70q40 0 40 -40v-505q0 -40 40 -40h70q40 0 40 40v505q0 40 40 40h70q40 0 40 -40v-530z" />
    <glyph glyph-name="V" unicode="V" horiz-adv-x="571" 
d="M538 671l-174 -631q-5 -19 -12.5 -29.5t-27.5 -10.5h-7h-63h-7q-20 0 -27.5 10.5t-12.5 29.5l-174 631q-6 22 2 35.5t28 13.5h82q20 0 28.5 -9.5t13.5 -30.5l98 -419l99 419q5 21 13.5 30.5t28.5 9.5h82q20 0 28 -13.5t2 -35.5z" />
    <glyph glyph-name="W" unicode="W" horiz-adv-x="810" 
d="M778 671l-152 -631q-5 -19 -12.5 -29.5t-27.5 -10.5h-64q-20 0 -28 10.5t-12 29.5l-77 343l-77 -343q-4 -19 -12 -29.5t-28 -10.5h-64q-20 0 -27.5 10.5t-12.5 29.5l-152 631q-5 22 2.5 35.5t28.5 13.5h85q19 0 28 -9t14 -31l69 -361l75 361q5 22 14 31t28 9h58
q19 0 28 -9t14 -31l75 -361l69 361q5 22 14 31t28 9h85q21 0 28.5 -13.5t2.5 -35.5z" />
    <glyph glyph-name="X" unicode="X" horiz-adv-x="570" 
d="M540 22q0 -11 -8 -16.5t-18 -5.5h-82q-24 0 -35.5 10t-22.5 30l-89 177l-89 -177q-11 -20 -22.5 -30t-35.5 -10h-82q-10 0 -18 5.5t-8 16.5q0 5 2 9t4 9l170 324l-170 316q-2 5 -4 9.5t-2 9.5q0 11 7.5 16t18.5 5h82q23 0 35.5 -10t22.5 -30l89 -177l89 177
q10 20 22.5 30t35.5 10h82q11 0 18.5 -5t7.5 -16q0 -5 -2 -9.5t-4 -9.5l-171 -316l171 -324q2 -5 4 -9t2 -9z" />
    <glyph glyph-name="Y" unicode="Y" horiz-adv-x="570" 
d="M540 699q0 -5 -2 -9.5t-4 -9.5l-174 -382v-258q0 -40 -40 -40h-70q-40 0 -40 40v258l-174 382q-2 5 -4 9.5t-2 9.5q0 11 7.5 16t18.5 5h78q23 0 36.5 -10t21.5 -30l93 -225l93 225q8 20 21.5 30t36.5 10h78q11 0 18.5 -5t7.5 -16z" />
    <glyph glyph-name="Z" unicode="Z" horiz-adv-x="570" 
d="M510 40q0 -40 -40 -40h-370q-40 0 -40 40v50q0 26 12 46l261 444h-233q-40 0 -40 40v60q0 40 40 40h370q40 0 40 -40v-50q0 -24 -13 -47l-260 -443h233q40 0 40 -40v-60z" />
    <glyph glyph-name="bracketleft" unicode="[" horiz-adv-x="306" 
d="M286 -95q0 -40 -40 -40h-136q-20 0 -35 16t-15 36v904q0 20 15 35t35 15h136q40 0 40 -40v-28q0 -40 -40 -40h-56v-790h56q20 0 30 -7.5t10 -27.5v-33z" />
    <glyph glyph-name="backslash" unicode="\" horiz-adv-x="375" 
d="M353 -61q10 -39 -27 -39h-34q-17 0 -26 5.5t-13 21.5l-231 857q-9 36 30 36h32q21 0 29.5 -6.5t13.5 -24.5z" />
    <glyph glyph-name="bracketright" unicode="]" horiz-adv-x="306" 
d="M246 -83q0 -20 -14.5 -36t-34.5 -16h-137q-40 0 -40 40v33q0 20 10 27.5t30 7.5h56v790h-56q-40 0 -40 40v28q0 40 40 40h136q20 0 35 -15t15 -35v-904z" />
    <glyph glyph-name="asciicircum" unicode="^" horiz-adv-x="635" 
d="M565 505q5 -7 8 -18t1.5 -21.5t-9.5 -18.5t-25 -8h-55q-20 0 -33.5 11t-27.5 31l-105 144l-104 -146q-14 -20 -27 -30t-30 -10h-56q-6 0 -16 3.5t-17 11t-8.5 18.5t9.5 26l167 226q14 19 29.5 28t28.5 9h52q11 0 24 -8t28 -28z" />
    <glyph glyph-name="underscore" unicode="_" horiz-adv-x="534" 
d="M544 -132q0 -8 -7.5 -15.5t-15.5 -7.5h-508q-8 0 -15.5 7.5t-7.5 15.5v37q0 8 7.5 15.5t15.5 7.5h508q8 0 15.5 -7.5t7.5 -15.5v-37z" />
    <glyph glyph-name="grave" unicode="`" horiz-adv-x="577" 
d="M224 642l-12 -11q-11 -11 -24 -6.5t-29 16.5l-121 93q-11 8 -13 19t6 19l61 58q7 7 17.5 5.5t18.5 -12.5l88 -128q11 -17 15 -29.5t-7 -23.5z" />
    <glyph glyph-name="a" unicode="a" 
d="M450 35q0 -35 -36 -35h-49q-33 0 -38 35l-2 1q-11 -20 -28.5 -28t-44.5 -8h-68q-134 -1 -134 136v62q0 68 33.5 100.5t101.5 33.5h94q36 0 36 36v59q0 36 -36 36h-52q-36 0 -36 -36v-2q-2 -36 -36 -36h-59q-36 0 -36 36v20q0 135 135 135h120q69 0 102 -33t33 -102v-410z
M315 153v68h-94q-17 -1 -26.5 -10t-9.5 -26v-31q0 -17 8 -26.5t23 -9.5h63q36 0 36 35z" />
    <glyph glyph-name="b" unicode="b" 
d="M450 135q0 -135 -135 -135h-67q-27 0 -44.5 8t-28.5 28l-2 -1q-5 -35 -38 -35h-50q-35 0 -35 35v690q0 35 35 35h65q35 0 35 -35v-167l2 -1q26 23 71 23h57q135 0 135 -135v-310zM316 154v271q0 37 -36 37h-59q-36 0 -36 -36v-273q0 -35 36 -35h59q36 0 36 36z" />
    <glyph glyph-name="c" unicode="c" horiz-adv-x="490" 
d="M450 425q0 -36 -36 -36h-58q-36 0 -36 36l-1 2q0 36 -35 36h-63q-36 0 -36 -36v-271q0 -36 36 -36h180q36 0 36 -36v-48q0 -36 -36 -36h-215q-135 0 -135 135l-1 310q0 135 135 135h130q135 0 135 -135v-20z" />
    <glyph glyph-name="d" unicode="d" 
d="M450 35q0 -35 -35 -35h-50q-33 0 -38 35l-2 1q-11 -20 -28.5 -28t-44.5 -8h-67q-135 0 -135 135v310q0 135 135 135h57q45 0 71 -23l2 1v167q0 35 35 35h65q35 0 35 -35v-690zM315 153v273q0 36 -36 36h-58q-37 0 -37 -37v-271q0 -36 37 -36h58q36 0 36 35z" />
    <glyph glyph-name="e" unicode="e" 
d="M450 283q0 -35 -35 -35h-230v-96q0 -17 9.5 -26.5t26.5 -9.5h53q35 0 35 36l1 2q0 17 9.5 26.5t26.5 9.5h58q36 0 36 -36v-19q0 -135 -135 -135h-120q-135 0 -135 135v310q0 134 135 135h130q135 0 135 -136v-161zM315 359v69q0 17 -10 26.5t-25 9.5h-60q-35 0 -35 -35
v-70h130z" />
    <glyph glyph-name="f" unicode="f" horiz-adv-x="305" 
d="M295 676q0 -36 -36 -36h-29q-35 0 -35 -36v-34h55q35 0 35 -35v-50q0 -35 -35 -35h-55v-415q0 -35 -35 -35h-65q-35 0 -35 35v415h-4q-36 0 -36 36v48q0 17 9.5 26.5t26.5 9.5h4v55q0 135 136 135h63q36 0 36 -36v-48z" />
    <glyph glyph-name="g" unicode="g" 
d="M450 -45q0 -69 -33 -102t-102 -33h-120q-135 0 -135 135v20q0 36 36 36h59q17 0 26 -9.5t10 -26.5v-3q0 -36 36 -36h52q17 0 26.5 9.5t9.5 26.5v96h-130q-135 0 -135 134v242q0 136 134 136h68q27 0 44.5 -8t28.5 -28l2 1q5 35 38 35h49q36 -2 36 -35v-590zM315 427
q0 35 -36 35h-63q-15 0 -23 -9.5t-8 -26.5v-209q0 -17 9.5 -26.5t26.5 -9.5h94v246z" />
    <glyph glyph-name="h" unicode="h" 
d="M450 35q0 -35 -35 -35h-65q-35 0 -35 35v392q0 35 -35 35h-60q-35 0 -35 -35v-392q0 -35 -35 -35h-65q-35 0 -35 35v690q0 35 35 35h65q35 0 35 -35v-167l2 -1q26 23 71 23h57q135 0 135 -135v-410z" />
    <glyph glyph-name="i" unicode="i" horiz-adv-x="245" 
d="M190 665q0 -35 -35 -35h-65q-35 0 -35 35v60q0 35 35 35h65q35 0 35 -35v-60zM190 35q0 -35 -35 -35h-65q-35 0 -35 35v510q0 35 35 35h65q35 0 35 -35v-510z" />
    <glyph glyph-name="j" unicode="j" horiz-adv-x="245" 
d="M190 665q0 -35 -35 -35h-65q-35 0 -35 35v60q0 35 35 35h65q35 0 35 -35v-60zM190 -45q0 -135 -136 -135h-63q-36 0 -36 36v48q0 36 36 36h29q35 0 35 36v569q0 35 35 35h65q35 0 35 -35v-590z" />
    <glyph glyph-name="k" unicode="k" horiz-adv-x="510" 
d="M480 19q0 -10 -7 -14.5t-16 -4.5h-88q-21 0 -31 9.5t-21 26.5l-132 197v-198q0 -35 -35 -35h-65q-35 0 -35 35v690q0 35 35 35h65q35 0 35 -35v-370l132 189q11 17 21 26.5t31 9.5h88q9 0 16 -4t7 -15q0 -9 -5 -17l-181 -248l181 -260q5 -8 5 -17z" />
    <glyph glyph-name="l" unicode="l" horiz-adv-x="245" 
d="M190 35q0 -35 -35 -35h-65q-35 0 -35 35v690q0 35 35 35h65q35 0 35 -35v-690z" />
    <glyph glyph-name="m" unicode="m" horiz-adv-x="740" 
d="M690 35q0 -35 -35 -35h-65q-35 0 -35 35v392q0 35 -35 35h-48q-35 0 -35 -35v-392q0 -35 -35 -35h-64q-35 0 -35 35v392q0 35 -35 35h-48q-35 0 -35 -35v-392q0 -35 -35 -35h-65q-35 0 -35 35v510q0 35 35 35h65q35 0 35 -35v-3l2 -1q23 39 78 39h48q41 0 62.5 -12
t36.5 -39h2q15 27 38 39t55 12h48q135 0 135 -135v-410z" />
    <glyph glyph-name="n" unicode="n" 
d="M450 35q0 -35 -35 -35h-65q-35 0 -35 35v392q0 35 -35 35h-60q-35 0 -35 -35v-392q0 -35 -35 -35h-65q-35 0 -35 35v510q0 35 35 35h65q35 0 35 -35v-3l2 -1q23 39 78 39h50q135 0 135 -135v-410z" />
    <glyph glyph-name="o" unicode="o" 
d="M450 135q0 -135 -135 -135h-130q-135 0 -135 135v310q0 135 135 135h130q135 0 135 -135v-310zM316 152v275q0 37 -36 37h-59q-36 0 -36 -36v-277q0 -35 36 -35h59q36 0 36 36z" />
    <glyph glyph-name="p" unicode="p" 
d="M450 135q0 -135 -135 -135h-57q-45 0 -71 23l-2 -1v-167q0 -35 -35 -35h-65q-35 0 -35 35v690q0 35 35 35h50q33 0 38 -35l2 -1q11 20 28.5 28t44.5 8h67q135 0 135 -135v-310zM316 155v271q0 36 -36 36h-59q-36 0 -36 -36v-273q0 -35 36 -35h59q36 0 36 37z" />
    <glyph glyph-name="q" unicode="q" 
d="M450 -145q0 -35 -35 -35h-65q-35 0 -35 35v167l-2 1q-26 -23 -71 -23h-57q-135 0 -135 135v310q0 135 135 135h67q27 0 44.5 -8t28.5 -28l2 1q5 35 38 35h50q35 0 35 -35v-690zM315 153v273q0 36 -36 36h-58q-37 0 -37 -36v-271q0 -37 37 -37h58q36 0 36 35z" />
    <glyph glyph-name="r" unicode="r" horiz-adv-x="370" 
d="M360 495q0 -35 -35 -35h-105q-35 0 -35 -35v-390q0 -35 -35 -35h-65q-35 0 -35 35v510q0 35 35 35h65q35 0 35 -35v-3l2 -1q23 39 78 39h60q35 0 35 -35v-50z" />
    <glyph glyph-name="s" unicode="s" horiz-adv-x="495" 
d="M445 135q0 -135 -135 -135h-216q-36 0 -36 36v48q0 36 36 36h185q15 0 23.5 9.5t8.5 26.5v11q0 16 -8 25.5t-31 17.5l-107 41q-34 13 -57 27t-37 32.5t-20 42t-6 54.5v38q0 135 135 135h130q69 0 102 -31t33 -99v-25q0 -36 -36 -36h-58q-36 0 -36 36l-1 2q0 36 -35 36
h-63q-17 0 -26.5 -11.5t-9.5 -29.5v-22q0 -17 9.5 -29t26.5 -18l105 -40q36 -14 59.5 -29t38 -34t20.5 -43t6 -55v-17z" />
    <glyph glyph-name="t" unicode="t" horiz-adv-x="325" 
d="M300 36q0 -36 -36 -36h-63q-136 0 -136 135v315h-4q-17 0 -26.5 9.5t-9.5 26.5v48q0 36 36 36h4v100q0 35 35 35h65q35 0 35 -35v-100h55q35 0 35 -35v-50q0 -35 -35 -35h-55v-294q0 -36 35 -36h29q36 0 36 -36v-48z" />
    <glyph glyph-name="u" unicode="u" 
d="M450 35q0 -35 -35 -35h-65q-35 0 -35 35v3l-2 1q-23 -39 -78 -39h-50q-135 0 -135 135v410q0 35 35 35h65q35 0 35 -35v-392q0 -35 36 -35h59q35 0 35 35v392q0 35 35 35h65q35 0 35 -35v-510z" />
    <glyph glyph-name="v" unicode="v" horiz-adv-x="480" 
d="M455 553q0 -7 -2 -17l-142 -500q-5 -15 -11.5 -25.5t-24.5 -10.5h-69q-18 0 -24.5 10.5t-11.5 25.5l-143 500q-2 10 -2 16q0 14 8 21t22 7h74q19 0 26 -9.5t11 -26.5l74 -309l74 309q4 17 11 26.5t27 9.5h73q14 0 22 -7t8 -20z" />
    <glyph glyph-name="w" unicode="w" horiz-adv-x="700" 
d="M673 536l-124 -500q-5 -17 -11.5 -26.5t-24.5 -9.5h-58q-18 0 -25 9.5t-11 26.5l-69 299l-69 -299q-4 -17 -11 -26.5t-25 -9.5h-58q-18 0 -25 9.5t-11 26.5l-124 500q-5 20 2 32t25 12h72q17 0 25 -8t13 -28l55 -267l67 267q5 19 13 27.5t25 8.5h51q17 0 25 -8.5
t13 -27.5l68 -267l55 267q4 20 12.5 28t25.5 8h71q19 0 26 -12t2 -32z" />
    <glyph glyph-name="x" unicode="x" horiz-adv-x="480" 
d="M455 20q0 -10 -7 -15t-16 -5h-72q-21 0 -32 9t-20 27l-68 135l-68 -135q-9 -18 -19.5 -27t-32.5 -9h-72q-9 0 -16 4.5t-7 15.5q0 5 1.5 8.5t3.5 7.5l141 254l-141 254q-2 4 -3.5 8t-1.5 9q0 11 7 15t16 4h72q22 0 32.5 -9t19.5 -27l68 -135l68 135q9 18 20 27t32 9h72
q9 0 16 -4t7 -15q0 -9 -5 -17l-140 -254l140 -254q5 -8 5 -16z" />
    <glyph glyph-name="y" unicode="y" horiz-adv-x="480" 
d="M455 553q0 -7 -2 -17l-166 -581q-9 -33 -19 -58.5t-24.5 -42.5t-36.5 -25.5t-56 -8.5h-63q-36 0 -36 36v48q0 36 36 36h41q42 0 50 37l4 18l-156 541q-2 10 -2 16q0 14 8 21t22 7h74q19 0 26 -9.5t11 -26.5l74 -309l74 309q4 17 11 26.5t27 9.5h73q14 0 22 -7t8 -20z" />
    <glyph glyph-name="z" unicode="z" 
d="M450 35q0 -35 -35 -35h-329q-36 0 -36 36v38q0 14 4 25t12 22l232 339h-212q-36 0 -36 36v48q0 17 9.5 26.5t26.5 9.5h329q35 0 35 -35v-40q0 -14 -3 -23.5t-16 -28.5l-227 -333h211q35 0 35 -35v-50z" />
    <glyph glyph-name="braceleft" unicode="{" horiz-adv-x="370" 
d="M350 835q0 -11 -6.5 -15t-11.5 -6q-42 -9 -59 -50q-3 -9 -6 -27t-5 -40.5t-2.5 -48t-0.5 -49.5q0 -42 -5 -79.5t-20 -67.5t-41 -52t-68 -32v-2q40 -12 66 -30.5t41 -45t20.5 -60t5.5 -74.5q0 -24 1 -49t2.5 -47.5t4 -41t5.5 -28.5q10 -32 27.5 -47.5t34.5 -20.5
q6 -1 10.5 -5.5t4.5 -12.5v-23q0 -9 -5.5 -12t-11.5 -3q-37 0 -61.5 3.5t-41 10t-28 15t-22.5 18.5t-20.5 26.5t-16.5 37.5t-11 44.5t-4 48.5v68q0 20 1 17q-1 32 -5 57.5t-13 46.5q-9 23 -28 44.5t-48 32.5q-5 2 -9 6t-4 11v26q0 9 2.5 12.5t10.5 6.5q49 19 71 58
q25 44 25 115v83q0 51 11 93.5t25 61.5q10 13 24 24.5t34 20t47.5 13t65.5 4.5q14 0 14 -21v-15z" />
    <glyph glyph-name="bar" unicode="|" horiz-adv-x="313" 
d="M213 -54q0 -19 -9.5 -32.5t-30.5 -13.5h-33q-21 0 -30.5 13.5t-9.5 32.5v825q0 19 9.5 32.5t30.5 13.5h33q21 0 30.5 -13.5t9.5 -32.5v-825z" />
    <glyph glyph-name="braceright" unicode="}" horiz-adv-x="370" 
d="M350 353q0 -7 -4 -11t-9 -6q-28 -11 -47 -32.5t-29 -44.5q-9 -21 -13 -46.5t-5 -57.5q1 3 1 -17v-68q0 -50 -14.5 -93.5t-37.5 -63.5q-11 -10 -22.5 -18.5t-28 -15t-41 -10t-61.5 -3.5q-6 0 -11 3t-5 12v23q0 8 4.5 12.5t10.5 5.5q17 5 34 20.5t27 47.5q3 10 5.5 28.5
t4 41t2.5 47.5t1 49q0 41 5.5 74.5t20.5 60t40.5 45t66.5 30.5v2q-42 10 -68 32t-41 52t-20 67.5t-5 79.5q0 24 -0.5 49.5t-2.5 48t-4.5 40.5t-6.5 27q-17 41 -59 50q-4 2 -11 6t-7 15v15q0 21 14 21q38 0 65.5 -4.5t47.5 -13t33.5 -20t24.5 -24.5q15 -19 25.5 -61.5
t10.5 -93.5v-83q0 -71 25 -115q22 -39 71 -58q8 -3 10.5 -6.5t2.5 -12.5v-26z" />
    <glyph glyph-name="asciitilde" unicode="~" horiz-adv-x="633" 
d="M573 396q0 -7 -1.5 -27.5t-11.5 -35.5q-14 -20 -42 -36q-15 -8 -34.5 -11.5t-46.5 -3.5q-23 0 -57 7t-69 24q-32 17 -63.5 25.5t-48.5 8.5q-31 0 -49 -7.5t-41 -26.5q-9 -6 -17.5 -7.5t-15.5 0.5t-11.5 7t-4.5 11v53q0 14 13 33q8 11 17 19.5t24 16.5q30 15 83 15
q23 0 61.5 -9.5t76.5 -28.5t60 -23t38 -4q32 0 52.5 9.5t37.5 24.5q5 6 13.5 8.5t16.5 2t14 -6t6 -15.5v-23z" />
    <glyph glyph-name="DEL" horiz-adv-x="1000" 
 />
    <glyph glyph-name="uni00A0" unicode="&#xa0;" horiz-adv-x="220" 
 />
    <glyph glyph-name="exclamdown" unicode="&#xa1;" horiz-adv-x="258" 
d="M204 620q0 -40 -40 -40h-70q-40 0 -40 40v60q0 40 40 40h70q40 0 40 -40v-60zM208 56q0 -10 -1 -20t-5.5 -18t-14 -13t-26.5 -5h-62q-31 0 -40 14.5t-9 42.5v60q0 42 3 87t8 106q2 18 5 41.5t6.5 46.5t6.5 43t5 29q4 17 10.5 29t23.5 12h17q22 0 28.5 -12t9.5 -28
q5 -20 11 -57t12 -104q7 -66 9.5 -112t2.5 -82v-60z" />
    <glyph glyph-name="cent" unicode="&#xa2;" 
d="M450 425q0 -36 -36 -36h-58q-36 0 -36 36l-1 2q0 36 -35 36h-63q-36 0 -36 -36v-271q0 -36 36 -36h180q36 0 36 -36v-48q0 -36 -36 -36h-97v-48q0 -32 -32 -32h-37q-32 0 -32 32v48h-17q-69 0 -102 33t-33 102l-1 310q0 69 33 102t102 33h18v48q0 32 32 32h37
q32 0 32 -32v-48h11q135 0 135 -135v-20z" />
    <glyph glyph-name="sterling" unicode="&#xa3;" horiz-adv-x="580" 
d="M520 40q0 -40 -40 -40h-380q-40 0 -40 40v60q0 40 40 40v160h-8q-32 0 -32 32v46q0 32 32 32h8v160q0 150 150 150h120q150 0 150 -150v-30q0 -40 -40 -40h-67q-27 0 -32 14t-5 31q0 15 -5.5 27.5t-31.5 12.5h-49q-40 0 -40 -40v-135h78q32 0 32 -32v-46q0 -32 -32 -32
h-78v-160h230q40 0 40 -40v-60z" />
    <glyph glyph-name="currency" unicode="&#xa4;" horiz-adv-x="636" 
d="M562 134l-24 -24q-13 -13 -28.5 -13.5t-29.5 13.5l-64 64q-22 -13 -47 -20.5t-51 -7.5t-51 7.5t-47 20.5l-65 -64q-14 -14 -28.5 -14t-28.5 14q-4 4 -8 7.5t-9 8.5q-4 4 -8 8.5t-7 9.5q-6 11 -5.5 23t13.5 25l64 64q-13 22 -20.5 47t-7.5 51t7 51t20 48l-64 63
q-27 29 0 58l25 24q28 28 57 0l64 -64q23 14 48 21.5t52 7.5q26 0 50.5 -7.5t46.5 -20.5l64 64q29 27 58 0l24 -25q28 -29 0 -57l-64 -64q28 -47 28 -99q0 -53 -28 -98l64 -64q29 -29 0 -58zM418 354q0 43 -29 72t-72 29q-21 0 -39 -8t-31.5 -22t-21 -32t-7.5 -39t7.5 -39.5
t21 -32t32 -21t39.5 -7.5t39 7.5t31.5 21t21.5 32t8 39.5z" />
    <glyph glyph-name="yen" unicode="&#xa5;" horiz-adv-x="570" 
d="M540 699q0 -5 -2 -9.5t-4 -9.5l-96 -211h20q32 0 32 -32v-36q0 -32 -32 -32h-65l-32 -70h97q32 0 32 -32v-36q0 -32 -32 -32h-98v-159q0 -40 -40 -40h-70q-40 0 -40 40v159h-98q-32 0 -32 32v36q0 32 32 32h98l-32 70h-66q-32 0 -32 32v36q0 32 32 32h20l-96 211
q-2 5 -4 9.5t-2 9.5q0 11 7.5 16t18.5 5h78q23 0 36.5 -10t21.5 -30l93 -225l93 225q8 20 21.5 30t36.5 10h78q11 0 18.5 -5t7.5 -16z" />
    <glyph glyph-name="brokenbar" unicode="&#xa6;" horiz-adv-x="313" 
d="M213 441q0 -19 -9.5 -32.5t-30.5 -13.5h-33q-21 0 -30.5 13.5t-9.5 32.5v330q0 19 9.5 32.5t30.5 13.5h33q21 0 30.5 -13.5t9.5 -32.5v-330zM213 -54q0 -19 -9.5 -32.5t-30.5 -13.5h-33q-21 0 -30.5 13.5t-9.5 32.5v320q0 19 9.5 32.5t30.5 13.5h33q21 0 30.5 -13.5
t9.5 -32.5v-320z" />
    <glyph glyph-name="section" unicode="&#xa7;" 
d="M450 38q0 -135 -135 -135h-216q-36 0 -36 36v48q0 36 36 36h185q15 0 23.5 9.5t8.5 26.5v11q0 16 -8 25.5t-31 17.5l-107 41q-67 25 -93.5 59.5t-26.5 96.5v38q0 26 11.5 52t32.5 38q-23 17 -33.5 45.5t-10.5 63.5v38q0 135 135 135h130q69 0 102 -31t33 -99v-25
q0 -36 -36 -36h-58q-36 0 -36 36l-1 2q0 36 -35 36h-63q-17 0 -26.5 -11.5t-9.5 -29.5v-22q0 -17 9.5 -29t26.5 -18l105 -40q36 -14 60 -31q32 -23 48 -54t16 -76v-17q0 -37 -12.5 -62.5t-35.5 -42.5q27 -20 37.5 -49t10.5 -66v-17zM316 266v41q0 16 -9 25.5t-25 15.5l-13 5
l-48 18q-8 3 -15 0t-11.5 -10.5t-7 -17t-2.5 -18.5v-22q0 -17 9.5 -29t26.5 -18l55 -21h1q14 -5 26.5 4.5t12.5 26.5z" />
    <glyph glyph-name="dieresis" unicode="&#xa8;" horiz-adv-x="652" 
d="M362 660q0 -36 -35 -36h-62q-35 0 -35 36v52q0 36 35 36h62q35 0 35 -36v-52zM155 660q0 -36 -35 -36h-62q-35 0 -35 36v52q0 36 35 36h62q35 0 35 -36v-52z" />
    <glyph glyph-name="copyright" unicode="&#xa9;" horiz-adv-x="848" 
d="M788 360q0 -75 -28.5 -141.5t-78 -116t-116 -78t-141.5 -28.5t-141.5 28.5t-116 78t-78 116t-28.5 141.5t28.5 141.5t78 116t116 78t141.5 28.5t141.5 -28.5t116 -78t78 -116t28.5 -141.5zM733 360q0 64 -24.5 121.5t-66.5 101t-98 69.5t-120 26t-120 -26t-98 -69.5
t-66.5 -101t-24.5 -121.5q0 -63 24 -120.5t66 -101t98.5 -69.5t120.5 -26t120.5 26t98.5 69.5t66 101t24 120.5zM575 466q0 -28 -29 -28h-46q-29 0 -29 28v2q0 29 -28 29h-50q-28 0 -28 -29v-216q0 -28 28 -28h143q29 0 29 -29v-38q0 -29 -29 -29h-171q-108 0 -108 108v246
q0 108 107 108h104q107 0 107 -108v-16z" />
    <glyph glyph-name="ordfeminine" unicode="&#xaa;" horiz-adv-x="348" 
d="M308 359q0 -28 -28 -28h-32q-20 0 -27 18q-14 -18 -46 -18h-44q-91 0 -91 94v40q0 91 92 93h61q18 0 18 19v38q0 19 -18 19h-34q-19 0 -19 -19v-1q0 -28 -28 -28h-37q-29 0 -29 28v13q0 93 92 93h78q92 0 92 -93v-268zM211 436v40l-56 -1q-18 0 -18 -18v-20q0 -19 15 -19
h41q18 0 18 18z" />
    <glyph glyph-name="guillemotleft" unicode="&#xab;" horiz-adv-x="606" 
d="M556 121q0 -15 -13 -22.5t-25 -7.5h-41q-18 0 -32 9.5t-25 23.5l-119 158q-5 6 -8 13.5t-3 15.5q0 16 12 31l115 152q14 19 26 28t35 9h38q15 0 25 -8t10 -26q0 -14 -10 -27t-18 -24l-102 -135l125 -167q4 -5 7 -10.5t3 -12.5zM316 121q0 -15 -13 -22.5t-25 -7.5h-41
q-18 0 -32 9.5t-25 23.5l-119 158q-5 6 -8 13.5t-3 15.5q0 16 12 31l115 152q14 19 26 28t35 9h38q15 0 25 -8t10 -26q0 -14 -10 -27t-18 -24l-102 -135l125 -167q4 -5 7 -10.5t3 -12.5z" />
    <glyph glyph-name="logicalnot" unicode="&#xac;" horiz-adv-x="685" 
d="M625 161q0 -19 -10.5 -30t-30.5 -11h-47q-17 0 -27.5 12.5t-10.5 28.5v199h-388q-18 0 -34.5 10.5t-16.5 30.5v37q0 23 14.5 33t36.5 10h470q19 0 31.5 -10.5t12.5 -30.5v-279z" />
    <glyph glyph-name="registered" unicode="&#xae;" horiz-adv-x="848" 
d="M788 360q0 -75 -28.5 -141.5t-78 -116t-116 -78t-141.5 -28.5t-141.5 28.5t-116 78t-78 116t-28.5 141.5t28.5 141.5t78 116t116 78t141.5 28.5t141.5 -28.5t116 -78t78 -116t28.5 -141.5zM733 360q0 64 -24.5 121.5t-66.5 101t-98 69.5t-120 26t-120 -26t-98 -69.5
t-66.5 -101t-24.5 -121.5q0 -63 24 -120.5t66 -101t98.5 -69.5t120.5 -26t120.5 26t98.5 69.5t66 101t24 120.5zM588 141q0 -7 -5 -10.5t-11 -3.5h-53q-15 0 -22 6.5t-15 19.5l-105 167h-10v-167q0 -26 -26 -26h-45q-25 0 -25 26v410q0 26 25 26h173q96 0 96 -96v-77
q0 -88 -88 -96l107 -167q4 -5 4 -12zM469 432v44q0 26 -26 26h-76v-96h76q26 0 26 26z" />
    <glyph glyph-name="macron" unicode="&#xaf;" horiz-adv-x="486" 
d="M399 663q0 -32 -32 -32h-266q-32 0 -32 32v36q0 32 32 32h266q32 0 32 -32v-36z" />
    <glyph glyph-name="degree" unicode="&#xb0;" horiz-adv-x="382" 
d="M332 525q0 -46 -26 -71.5t-72 -25.5h-87q-45 0 -71 25.5t-26 71.5v98q0 45 26 71t71 26h87q46 0 72 -26t26 -71v-98zM245 551v46q0 37 -37 37h-35q-37 0 -37 -37v-46q0 -37 37 -37h35q37 0 37 37z" />
    <glyph glyph-name="plusminus" unicode="&#xb1;" horiz-adv-x="629" 
d="M569 434q0 -19 -14.5 -32t-35.5 -13h-129v-152q0 -19 -15 -32t-35 -13h-50q-21 0 -35.5 13t-14.5 32v152h-130q-21 0 -35.5 13t-14.5 32v44q0 19 14.5 32t35.5 13h130v152q0 19 14.5 32t35.5 13h50q20 0 35 -13t15 -32v-152h129q21 0 35.5 -13t14.5 -32v-44zM569 54
q0 -23 -15.5 -38.5t-38.5 -15.5h-401q-23 0 -38.5 15.5t-15.5 38.5v43q0 23 15.5 38.5t38.5 15.5h401q23 0 38.5 -15.5t15.5 -38.5v-43z" />
    <glyph glyph-name="twosuperior" unicode="&#xb2;" horiz-adv-x="397" 
d="M347 274q0 -30 -29 -30l-239 1q-29 0 -29 29v88q0 51 18.5 79t64.5 46l88 35q23 9 23 32v49q0 23 -23 23h-48q-23 0 -23 -23v-3q0 -29 -29 -29h-42q-29 0 -29 29v19q0 101 100 101h97q100 0 100 -101v-60q0 -51 -17 -78t-60 -44l-95 -37q-14 -5 -18 -12.5t-4 -19.5v-26
h165q29 0 29 -29v-39z" />
    <glyph glyph-name="threesuperior" unicode="&#xb3;" horiz-adv-x="397" 
d="M347 346q0 -101 -100 -101h-168q-29 0 -29 29v39q0 29 29 29h142q23 0 23 23v52q0 23 -23 23h-110q-29 0 -29 29v39q0 14 7.5 22t21.5 8h110q23 0 23 23v38q0 23 -23 23l-142 1q-14 0 -21.5 8t-7.5 21v39q0 29 29 29h168q100 0 100 -101v-38q0 -38 -15.5 -59t-38.5 -30
q23 -8 38.5 -29t15.5 -59v-58z" />
    <glyph glyph-name="acute" unicode="&#xb4;" horiz-adv-x="577" 
d="M235 772q9 -8 7 -19t-13 -19l-121 -93q-16 -12 -29.5 -16.5t-24.5 6.5l-11 11q-11 11 -7 23.5t15 29.5l88 128q8 11 18 12.5t18 -5.5z" />
    <glyph glyph-name="mu" unicode="&#xb5;" 
d="M450 35q0 -35 -35 -35h-65q-35 0 -35 35v1l-2 1q-10 -16 -23 -26.5t-40 -10.5q-28 0 -41 10.5t-22 26.5l-2 -1v-181q0 -35 -35 -35h-65q-35 0 -35 35v690q0 35 35 35h65q35 0 35 -35v-392q0 -35 35 -35h60q35 0 35 35v392q0 35 35 35h65q35 0 35 -35v-510z" />
    <glyph glyph-name="paragraph" unicode="&#xb6;" horiz-adv-x="626" 
d="M566 651q0 -33 -33 -33h-43v-786q0 -32 -32 -32h-23q-32 0 -32 32v786h-83v-786q0 -32 -32 -32h-23q-32 0 -32 32v464q-81 0 -127 49.5t-46 152.5q0 202 198 202h275q33 0 33 -33v-16z" />
    <glyph glyph-name="periodcentered" unicode="&#xb7;" horiz-adv-x="270" 
d="M210 340q0 -40 -40 -40h-70q-40 0 -40 40v60q0 40 40 40h70q40 0 40 -40v-60z" />
    <glyph glyph-name="cedilla" unicode="&#xb8;" horiz-adv-x="709" 
d="M362 -123l-1 -40q-1 -38 -27.5 -51.5t-64.5 -13.5h-22.5h-14.5h-11.5h-11.5q-17 1 -24.5 8.5t-7.5 15.5v20q0 6 5 15t23 10l36 1q14 0 21 6.5t7 17.5v7q0 11 -4.5 17t-17.5 8l-25 2q-14 2 -20 16t-6 37l1 60q0 10 6 14.5t23 4.5h32q26 0 24 -19v-47q0 -19 15 -22l24 -4
q42 -8 41 -63z" />
    <glyph glyph-name="onesuperior" unicode="&#xb9;" horiz-adv-x="361" 
d="M261 274q0 -29 -29 -29h-45q-28 0 -28 29v293l-32 -32q-10 -10 -20.5 -9.5t-19.5 9.5l-28 28q-20 20 0 41l106 107q9 9 24 9h43q29 0 29 -29v-417z" />
    <glyph glyph-name="ordmasculine" unicode="&#xba;" horiz-adv-x="348" 
d="M308 424q0 -93 -92 -93h-84q-92 0 -92 93v203q0 93 92 93h84q92 0 92 -93v-203zM211 435v180q0 19 -18 19l-38 1q-18 0 -18 -19v-181q0 -18 18 -18h38q18 0 18 18z" />
    <glyph glyph-name="guillemotright" unicode="&#xbb;" horiz-adv-x="606" 
d="M556 311q0 -8 -3 -15.5t-8 -13.5l-119 -158q-11 -14 -25.5 -23.5t-32.5 -9.5h-40q-13 0 -25.5 7.5t-12.5 22.5q0 7 3 12.5t7 10.5l124 167l-101 135q-8 11 -18.5 24t-10.5 27q0 18 10 26t26 8h37q24 0 35.5 -9t25.5 -28l116 -152q5 -7 8.5 -15t3.5 -16zM316 311
q0 -8 -3 -15.5t-8 -13.5l-119 -158q-11 -14 -25.5 -23.5t-32.5 -9.5h-40q-13 0 -25.5 7.5t-12.5 22.5q0 7 3 12.5t7 10.5l124 167l-101 135q-8 11 -18.5 24t-10.5 27q0 18 10 26t26 8h37q24 0 35.5 -9t25.5 -28l116 -152q5 -7 8.5 -15t3.5 -16z" />
    <glyph glyph-name="onequarter" unicode="&#xbc;" horiz-adv-x="878" 
d="M828 120q0 -29 -29 -29h-14v-62q0 -29 -29 -29h-42q-29 0 -29 29v62h-138q-29 0 -29 29v36q0 12 7 26l166 284q10 9 24 9h41q29 0 29 -29v-261h14q29 0 29 -29v-36zM705 684l-392 -662q-6 -11 -16.5 -16.5t-27.5 -5.5h-42q-21 0 -27 10t5 29l385 650q11 19 21 25t27 6h42
q22 0 28 -11t-3 -25zM261 274q0 -29 -29 -29h-45q-28 0 -28 29v293l-32 -32q-10 -10 -20.5 -9.5t-19.5 9.5l-28 28q-20 20 0 41l106 107q9 9 24 9h43q29 0 29 -29v-417zM685 185v114l-64 -114h64z" />
    <glyph glyph-name="onehalf" unicode="&#xbd;" horiz-adv-x="956" 
d="M906 29q0 -29 -29 -29h-239q-29 0 -29 29v89q0 50 18.5 78.5t64.5 45.5l88 35q23 9 23 32v49q0 23 -23 23h-49q-22 0 -22 -23v-3q0 -29 -29 -29h-42q-29 0 -29 29v20q0 100 100 100h97q100 0 100 -100v-61q0 -50 -17 -77.5t-60 -44.5l-95 -37q-14 -5 -18 -12t-4 -20v-26
h165q29 0 29 -29v-39zM705 684l-392 -662q-6 -11 -16.5 -16.5t-27.5 -5.5h-42q-21 0 -27 10t5 29l385 650q11 19 21 25t27 6h42q22 0 28 -11t-3 -25zM261 274q0 -29 -29 -29h-45q-28 0 -28 29v293l-32 -32q-10 -10 -20.5 -9.5t-19.5 9.5l-28 28q-20 20 0 41l106 107
q9 9 24 9h43q29 0 29 -29v-417z" />
    <glyph glyph-name="threequarters" unicode="&#xbe;" horiz-adv-x="937" 
d="M887 120q0 -29 -28 -29h-15v-62q0 -29 -29 -29h-42q-28 0 -28 29l-1 62h-138q-29 0 -29 29v36q0 13 8 26l165 284q10 9 25 9h40q29 0 29 -29v-261h15q28 0 28 -29v-36zM765 684l-392 -662q-6 -11 -16.5 -16.5t-27.5 -5.5h-42q-21 0 -27.5 10t4.5 29l386 650
q11 19 20.5 25t26.5 6h42q23 0 28.5 -11t-2.5 -25zM347 346q0 -101 -100 -101h-168q-29 0 -29 29v39q0 29 29 29h142q23 0 23 23v52q0 23 -23 23h-110q-29 0 -29 29v39q0 14 7.5 22t21.5 8h110q23 0 23 23v38q0 23 -23 23l-142 1q-14 0 -21.5 8t-7.5 21v39q0 29 29 29h168
q100 0 100 -101v-38q0 -38 -15.5 -59t-38.5 -30q23 -8 38.5 -29t15.5 -59v-58zM745 185v114l-65 -114h65z" />
    <glyph glyph-name="questiondown" unicode="&#xbf;" horiz-adv-x="545" 
d="M401 620q0 -40 -40 -40h-70q-40 0 -40 40v60q0 40 40 40h70q40 0 40 -40v-60zM485 150q0 -150 -150 -150h-125q-150 0 -150 150v53q0 36 5 63.5t17 48.5t32 36.5t50 27.5l51 20q22 8 30.5 20.5t8.5 35.5v5v10q0 20 10 30.5t30 9.5h67q40 0 40 -40v-27q0 -33 -6 -58
t-18.5 -43.5t-33 -32t-48.5 -24.5l-53 -21q-37 -14 -37 -54v-35q0 -40 40 -40h60q40 0 40 40v5q0 40 40 40h60q40 0 40 -40v-30z" />
    <glyph glyph-name="Agrave" unicode="&#xc0;" horiz-adv-x="571" 
d="M373 783l-12 -11q-11 -11 -24 -6.5t-29 16.5l-121 93q-11 8 -13 19t6 19l61 57q7 8 17.5 6.5t18.5 -12.5l88 -128q11 -17 15 -29.5t-7 -23.5zM538 49q6 -22 -2 -35.5t-28 -13.5h-82q-20 0 -28.5 9.5t-13.5 30.5l-24 100h-150l-23 -100q-5 -21 -13.5 -30.5t-28.5 -9.5h-82
q-20 0 -28 13.5t-2 35.5l174 631q5 19 12.5 29.5t27.5 10.5h77q20 0 27.5 -10.5t12.5 -29.5zM329 275l-44 184l-43 -184h87z" />
    <glyph glyph-name="Aacute" unicode="&#xc1;" horiz-adv-x="571" 
d="M414 914q8 -8 6 -19t-13 -19l-121 -93q-16 -12 -29 -17t-24 6l-12 11q-11 11 -7 24t15 30l88 127q8 11 18.5 12.5t17.5 -5.5zM538 49q6 -22 -2 -35.5t-28 -13.5h-82q-20 0 -28.5 9.5t-13.5 30.5l-24 100h-150l-23 -100q-5 -21 -13.5 -30.5t-28.5 -9.5h-82q-20 0 -28 13.5
t-2 35.5l174 631q5 19 12.5 29.5t27.5 10.5h77q20 0 27.5 -10.5t12.5 -29.5zM329 275l-44 184l-43 -184h87z" />
    <glyph glyph-name="Acircumflex" unicode="&#xc2;" horiz-adv-x="571" 
d="M441 795l-15 -15q-17 -17 -32 -13t-37 22l-72 59l-76 -62q-6 -5 -13 -10t-15 -8t-17 -1t-18 11l-14 13q-18 18 -12.5 36t21.5 30l85 67q14 11 28 17t32 6q17 0 32.5 -7.5t30.5 -18.5l80 -64q17 -13 21.5 -30.5t-9.5 -31.5zM538 49q6 -22 -2 -35.5t-28 -13.5h-82
q-20 0 -28.5 9.5t-13.5 30.5l-24 100h-150l-23 -100q-5 -21 -13.5 -30.5t-28.5 -9.5h-82q-20 0 -28 13.5t-2 35.5l174 631q5 19 12.5 29.5t27.5 10.5h77q20 0 27.5 -10.5t12.5 -29.5zM329 275l-44 184l-43 -184h87z" />
    <glyph glyph-name="Atilde" unicode="&#xc3;" horiz-adv-x="571" 
d="M440 860q0 -6 -1 -23t-7 -30q-8 -18 -24 -29q-17 -13 -48 -13q-14 0 -34 6t-40 20q-19 14 -37.5 21t-27.5 7q-19 0 -29.5 -6.5t-24.5 -21.5q-10 -11 -19 -6.5t-9 15.5v44q0 13 7 28q9 18 24 29q17 13 49 13q14 0 36.5 -8t44.5 -24q23 -16 35.5 -19t22.5 -3q19 0 31 8
t22 20q6 10 17.5 9t11.5 -18v-19zM538 49q6 -22 -2 -35.5t-28 -13.5h-82q-20 0 -28.5 9.5t-13.5 30.5l-24 100h-150l-23 -100q-5 -21 -13.5 -30.5t-28.5 -9.5h-82q-20 0 -28 13.5t-2 35.5l174 631q5 19 12.5 29.5t27.5 10.5h77q20 0 27.5 -10.5t12.5 -29.5zM329 275l-44 184
l-43 -184h87z" />
    <glyph glyph-name="Adieresis" unicode="&#xc4;" horiz-adv-x="571" 
d="M455 800q0 -35 -35 -35h-62q-35 0 -35 35v53q0 35 35 35h62q35 0 35 -35v-53zM248 800q0 -35 -35 -35h-62q-35 0 -35 35v53q0 35 35 35h62q35 0 35 -35v-53zM538 49q6 -22 -2 -35.5t-28 -13.5h-82q-20 0 -28.5 9.5t-13.5 30.5l-24 100h-150l-23 -100q-5 -21 -13.5 -30.5
t-28.5 -9.5h-82q-20 0 -28 13.5t-2 35.5l174 631q5 19 12.5 29.5t27.5 10.5h77q20 0 27.5 -10.5t12.5 -29.5zM329 275l-44 184l-43 -184h87z" />
    <glyph glyph-name="Aring" unicode="&#xc5;" horiz-adv-x="571" 
d="M396 840q0 -35 -20 -55t-55 -20h-75q-35 0 -55.5 20t-20.5 55v75q0 35 20.5 55.5t55.5 20.5h75q35 0 55 -20.5t20 -55.5v-75zM538 49q6 -22 -2 -35.5t-28 -13.5h-82q-20 0 -28.5 9.5t-13.5 30.5l-24 100h-150l-23 -100q-5 -21 -13.5 -30.5t-28.5 -9.5h-82q-20 0 -28 13.5
t-2 35.5l174 631q5 19 12.5 29.5t27.5 10.5h77q20 0 27.5 -10.5t12.5 -29.5zM329 860v35q0 29 -28 29h-35q-29 0 -29 -29v-35q0 -28 29 -28h35q28 0 28 28zM329 275l-44 184l-43 -184h87z" />
    <glyph glyph-name="AE" unicode="&#xc6;" horiz-adv-x="874" 
d="M829 40q0 -40 -40 -40h-370q-40 0 -40 41v99h-158l-50 -100q-11 -21 -22 -30.5t-31 -9.5h-82q-20 0 -24.5 13.5t7.5 35.5l343 631q11 19 21 29.5t30 10.5h376q40 0 40 -40v-60q0 -18 -10.5 -29t-29.5 -11l-264 -1h-1v-139h215q40 0 40 -40v-60q0 -40 -40 -40h-215v-160
h265q40 0 40 -40v-60zM379 275v181l-90 -181h90z" />
    <glyph glyph-name="Ccedilla" unicode="&#xc7;" horiz-adv-x="560" 
d="M510 540q0 -40 -40 -40h-65q-40 0 -40 40v5q0 40 -40 40h-75q-40 0 -40 -40v-365q0 -40 40 -40h205q40 0 40 -40v-60q0 -20 -10 -30.5t-30 -9.5h-133v-34q0 -19 15 -22l24 -4q42 -8 41 -63l-1 -40q-1 -38 -27.5 -51.5t-64.5 -13.5h-22.5h-14.5h-11.5h-11.5
q-17 1 -24.5 8.5t-7.5 15.5v20q0 6 5 15t23 10l36 1q14 0 21 6.5t7 17.5v7q0 11 -4.5 17t-17.5 8l-25 2q-14 2 -20 16t-6 37l1 47h-27q-150 0 -150 150v420q0 150 150 150h150q150 0 150 -150v-30z" />
    <glyph glyph-name="Egrave" unicode="&#xc8;" horiz-adv-x="555" 
d="M358 783l-12 -11q-11 -11 -24 -6t-29 17l-121 93q-11 8 -13 19t6 19l61 57q7 7 17.5 5.5t18.5 -12.5l88 -127q11 -17 15 -30t-7 -24zM510 40q0 -40 -40 -40h-370q-40 0 -40 41v639q0 40 40 40h370q40 0 40 -40v-60q0 -18 -10.5 -29t-29.5 -11l-260 -1v-139h210
q40 0 40 -40v-60q0 -40 -40 -40h-210v-160h260q40 0 40 -40v-60z" />
    <glyph glyph-name="Eacute" unicode="&#xc9;" horiz-adv-x="555" 
d="M404 914q8 -8 6 -19t-13 -19l-121 -93q-16 -12 -29 -17t-24 6l-12 11q-11 11 -7 24t15 30l88 127q8 11 18.5 12.5t18.5 -5.5zM510 40q0 -40 -40 -40h-370q-40 0 -40 41v639q0 40 40 40h370q40 0 40 -40v-60q0 -18 -10.5 -29t-29.5 -11l-260 -1v-139h210q40 0 40 -40v-60
q0 -40 -40 -40h-210v-160h260q40 0 40 -40v-60z" />
    <glyph glyph-name="Ecircumflex" unicode="&#xca;" horiz-adv-x="555" 
d="M445 794l-15 -15q-17 -17 -32 -13t-38 22l-71 59l-76 -62q-6 -5 -13 -10t-15.5 -8t-17.5 -1t-18 11l-13 13q-18 18 -12.5 36t20.5 30l85 67q14 11 28.5 17t31.5 6q18 0 33.5 -7.5t29.5 -18.5l80 -64q17 -13 22 -30.5t-9 -31.5zM510 40q0 -40 -40 -40h-370q-40 0 -40 41
v639q0 40 40 40h370q40 0 40 -40v-60q0 -18 -10.5 -29t-29.5 -11l-260 -1v-139h210q40 0 40 -40v-60q0 -40 -40 -40h-210v-160h260q40 0 40 -40v-60z" />
    <glyph glyph-name="Edieresis" unicode="&#xcb;" horiz-adv-x="555" 
d="M451 800q0 -35 -36 -35h-61q-36 0 -36 35v53q0 35 36 35h61q36 0 36 -35v-53zM244 800q0 -35 -35 -35h-62q-35 0 -35 35v53q0 35 35 35h62q35 0 35 -35v-53zM510 40q0 -40 -40 -40h-370q-40 0 -40 41v639q0 40 40 40h370q40 0 40 -40v-60q0 -18 -10.5 -29t-29.5 -11
l-260 -1v-139h210q40 0 40 -40v-60q0 -40 -40 -40h-210v-160h260q40 0 40 -40v-60z" />
    <glyph glyph-name="Igrave" unicode="&#xcc;" horiz-adv-x="290" 
d="M233 783l-11 -11q-11 -11 -24.5 -6t-29.5 17l-121 93q-11 8 -13 19t7 19l60 57q8 7 18 5.5t18 -12.5l88 -127q11 -17 15 -30t-7 -24zM220 40q0 -40 -40 -40h-70q-40 0 -40 40v640q0 40 40 40h70q40 0 40 -40v-640z" />
    <glyph glyph-name="Iacute" unicode="&#xcd;" horiz-adv-x="290" 
d="M260 913q8 -8 6.5 -19t-12.5 -19l-122 -93q-15 -12 -28.5 -17t-24.5 6l-12 11q-11 11 -6.5 24t15.5 30l87 127q8 11 18.5 12.5t18.5 -5.5zM220 40q0 -40 -40 -40h-70q-40 0 -40 40v640q0 40 40 40h70q40 0 40 -40v-640z" />
    <glyph glyph-name="Icircumflex" unicode="&#xce;" horiz-adv-x="290" 
d="M303 794l-16 -15q-17 -17 -31.5 -13t-37.5 22l-71 59l-77 -62q-6 -5 -13 -10t-15 -8t-17 -1t-18 11l-13 13q-18 18 -13 36t21 30l85 67q14 11 28.5 17t31.5 6q18 0 33 -7.5t30 -18.5l80 -64q17 -13 21.5 -30.5t-8.5 -31.5zM220 40q0 -40 -40 -40h-70q-40 0 -40 40v640
q0 40 40 40h70q40 0 40 -40v-640z" />
    <glyph glyph-name="Idieresis" unicode="&#xcf;" horiz-adv-x="290" 
d="M316 795q0 -35 -35 -35h-62q-35 0 -35 35v53q0 35 35 35h62q35 0 35 -35v-53zM110 795q0 -35 -36 -35h-61q-36 0 -36 35v53q0 35 36 35h61q36 0 36 -35v-53zM220 40q0 -40 -40 -40h-70q-40 0 -40 40v640q0 40 40 40h70q40 0 40 -40v-640z" />
    <glyph glyph-name="Eth" unicode="&#xd0;" horiz-adv-x="571" 
d="M511 150q0 -150 -150 -150h-261q-40 0 -40 40v278q-30 1 -30 32v36q0 30 30 32v262q0 40 40 40h261q150 0 150 -150v-420zM361 175v369q0 19 -10.5 30t-29.5 11h-111v-167h38q32 0 32 -32v-36q0 -32 -32 -32h-38v-183h111q40 0 40 40z" />
    <glyph glyph-name="Ntilde" unicode="&#xd1;" horiz-adv-x="570" 
d="M445 861q0 -6 -1 -23.5t-7 -29.5q-5 -9 -10 -16t-14 -14q-9 -6 -20 -9.5t-28 -3.5q-14 0 -34 6t-40 20q-19 14 -37.5 21t-28.5 7q-18 0 -28.5 -6.5t-24.5 -21.5q-10 -11 -19.5 -6.5t-9.5 15.5v44q0 10 8 28q9 18 24 30q19 13 49 13q14 0 36.5 -8t44.5 -24
q23 -16 35.5 -19t22.5 -3q19 0 31 7.5t22 19.5q6 10 17.5 9.5t11.5 -17.5v-19zM510 40q0 -40 -40 -40h-70q-28 0 -36 19l-154 355v-334q0 -40 -40 -40h-70q-40 0 -40 40v640q0 40 40 40h70q28 0 36 -20l154 -353v333q0 40 40 40h70q40 0 40 -40v-640z" />
    <glyph glyph-name="Ograve" unicode="&#xd2;" horiz-adv-x="570" 
d="M358 783l-12 -11q-11 -11 -24.5 -6t-28.5 17l-122 93q-11 8 -12.5 19t6.5 19l60 57q8 7 18.5 5.5t18.5 -12.5l87 -127q11 -17 15.5 -30t-6.5 -24zM510 150q0 -150 -150 -150h-150q-150 0 -150 150v420q0 150 150 150h150q150 0 150 -150v-420zM360 175v370q0 40 -40 40
h-70q-40 0 -40 -40v-370q0 -40 40 -40h70q40 0 40 40z" />
    <glyph glyph-name="Oacute" unicode="&#xd3;" horiz-adv-x="570" 
d="M398 914q8 -8 6.5 -19t-12.5 -19l-122 -93q-16 -12 -29 -16.5t-24 6.5l-12 11q-11 11 -7 23.5t15 29.5l88 128q8 11 18.5 12.5t18.5 -6.5zM510 150q0 -150 -150 -150h-150q-150 0 -150 150v420q0 150 150 150h150q150 0 150 -150v-420zM360 175v370q0 40 -40 40h-70
q-40 0 -40 -40v-370q0 -40 40 -40h70q40 0 40 40z" />
    <glyph glyph-name="Ocircumflex" unicode="&#xd4;" horiz-adv-x="570" 
d="M444 794l-15 -15q-17 -17 -32 -13t-37 22l-72 59l-76 -62q-6 -5 -13 -10t-15.5 -8t-17.5 -1t-18 11l-13 13q-18 18 -12.5 36t20.5 30l85 67q14 11 28.5 17t31.5 6q18 0 33.5 -7.5t29.5 -18.5l81 -64q16 -13 21 -30.5t-9 -31.5zM510 150q0 -150 -150 -150h-150
q-150 0 -150 150v420q0 150 150 150h150q150 0 150 -150v-420zM360 175v370q0 40 -40 40h-70q-40 0 -40 -40v-370q0 -40 40 -40h70q40 0 40 40z" />
    <glyph glyph-name="Otilde" unicode="&#xd5;" horiz-adv-x="570" 
d="M440 860q0 -6 -1 -23.5t-7 -29.5q-5 -9 -10 -16t-14 -14q-9 -6 -20.5 -9.5t-27.5 -3.5q-14 0 -34 6t-40 20q-19 14 -37.5 21t-28.5 7q-18 0 -28.5 -6.5t-24.5 -21.5q-10 -11 -19.5 -6.5t-9.5 15.5v44q0 10 8 28q5 9 10 16t14 14q19 13 49 13q14 0 36 -8t45 -24
q22 -16 35 -19t23 -3q18 0 30.5 7.5t22.5 19.5q6 10 17.5 9.5t11.5 -17.5v-19zM510 150q0 -150 -150 -150h-150q-150 0 -150 150v420q0 150 150 150h150q150 0 150 -150v-420zM360 175v370q0 40 -40 40h-70q-40 0 -40 -40v-370q0 -40 40 -40h70q40 0 40 40z" />
    <glyph glyph-name="Odieresis" unicode="&#xd6;" horiz-adv-x="570" 
d="M453 800q0 -35 -35 -35h-62q-35 0 -35 35v53q0 35 35 35h62q35 0 35 -35v-53zM246 800q0 -35 -35 -35h-62q-35 0 -35 35v53q0 35 35 35h62q35 0 35 -35v-53zM510 150q0 -150 -150 -150h-150q-150 0 -150 150v420q0 150 150 150h150q150 0 150 -150v-420zM360 175v370
q0 40 -40 40h-70q-40 0 -40 -40v-370q0 -40 40 -40h70q40 0 40 40z" />
    <glyph glyph-name="multiply" unicode="&#xd7;" horiz-adv-x="586" 
d="M515 184q11 -11 10.5 -29t-14.5 -32l-38 -38q-14 -14 -32 -14.5t-29 10.5l-119 118l-119 -118q-11 -11 -29 -10.5t-32 14.5l-38 38q-14 14 -14.5 32t10.5 29l118 119l-118 119q-11 11 -10.5 29t14.5 32l38 38q14 14 32 15t29 -10l119 -119l119 119q11 11 29 10t32 -15
l38 -38q14 -14 14.5 -32t-10.5 -29l-118 -119z" />
    <glyph glyph-name="Oslash" unicode="&#xd8;" horiz-adv-x="570" 
d="M510 150q0 -150 -150 -150h-135l-11 -40q-5 -16 -11 -19t-23 -3h-14q-20 0 -24.5 7t0.5 27l9 35q-91 25 -91 143v420q0 150 150 150h131l10 36q5 18 11 22t27 4h12q20 0 26 -7t1 -24l-10 -38q92 -26 92 -143v-420zM305 585h-55q-40 0 -40 -40v-317zM360 175v325l-99 -365
h59q40 0 40 40z" />
    <glyph glyph-name="Ugrave" unicode="&#xd9;" horiz-adv-x="689" 
d="M366 783l-11 -11q-11 -11 -24.5 -6t-29.5 17l-121 93q-11 8 -13 19t7 19l60 57q8 7 18 5.5t18 -12.5l88 -127q11 -17 15 -30t-7 -24zM510 150q0 -150 -150 -150h-150q-150 0 -150 150v530q0 40 40 40h70q40 0 40 -40v-505q0 -40 40 -40h70q40 0 40 40v505q0 40 40 40h70
q40 0 40 -40v-530z" />
    <glyph glyph-name="Uacute" unicode="&#xda;" horiz-adv-x="570" 
d="M393 914q8 -8 6.5 -19t-12.5 -19l-122 -93q-16 -12 -29 -17t-24 6l-12 11q-11 11 -7 24t15 30l88 127q8 11 18.5 12.5t18.5 -5.5zM510 150q0 -150 -150 -150h-150q-150 0 -150 150v530q0 40 40 40h70q40 0 40 -40v-505q0 -40 40 -40h70q40 0 40 40v505q0 40 40 40h70
q40 0 40 -40v-530z" />
    <glyph glyph-name="Ucircumflex" unicode="&#xdb;" horiz-adv-x="570" 
d="M442 795l-15 -15q-17 -17 -32 -13t-37 22l-72 59l-76 -62q-6 -5 -13 -10t-15.5 -8t-17.5 -1t-18 11l-13 13q-18 18 -12.5 36t20.5 30l85 67q14 11 28.5 17t31.5 6q18 0 33.5 -7.5t29.5 -18.5l81 -64q16 -13 21 -30.5t-9 -31.5zM510 150q0 -150 -150 -150h-150
q-150 0 -150 150v530q0 40 40 40h70q40 0 40 -40v-505q0 -40 40 -40h70q40 0 40 40v505q0 40 40 40h70q40 0 40 -40v-530z" />
    <glyph glyph-name="Udieresis" unicode="&#xdc;" horiz-adv-x="570" 
d="M455 800q0 -35 -35 -35h-62q-35 0 -35 35v53q0 35 35 35h62q35 0 35 -35v-53zM248 800q0 -35 -35 -35h-62q-35 0 -35 35v53q0 35 35 35h62q35 0 35 -35v-53zM510 150q0 -150 -150 -150h-150q-150 0 -150 150v530q0 40 40 40h70q40 0 40 -40v-505q0 -40 40 -40h70
q40 0 40 40v505q0 40 40 40h70q40 0 40 -40v-530z" />
    <glyph glyph-name="Yacute" unicode="&#xdd;" horiz-adv-x="570" 
d="M395 913q8 -8 6.5 -19t-12.5 -19l-122 -93q-15 -12 -28.5 -17t-24.5 6l-12 11q-11 11 -6.5 24t15.5 30l87 127q8 11 18.5 12.5t18.5 -5.5zM540 699q0 -5 -2 -9.5t-4 -9.5l-174 -382v-258q0 -40 -40 -40h-70q-40 0 -40 40v258l-174 382q-2 5 -4 9.5t-2 9.5q0 11 7.5 16
t18.5 5h78q23 0 36.5 -10t21.5 -30l93 -225l93 225q8 20 21.5 30t36.5 10h78q11 0 18.5 -5t7.5 -16z" />
    <glyph glyph-name="Thorn" unicode="&#xde;" horiz-adv-x="571" 
d="M521 320q0 -150 -150 -150h-161v-90q0 -13 0.5 -27t-2.5 -26t-11.5 -19.5t-26.5 -7.5h-70q-40 0 -40 40v680q0 40 40 40h70q40 0 40 -40v-130h161q150 0 150 -150v-120zM371 345v69q0 19 -10.5 30t-29.5 11h-121v-150h121q40 0 40 40z" />
    <glyph glyph-name="germandbls" unicode="&#xdf;" 
d="M450 135q0 -136 -135 -135h-55q-36 0 -36 35v46q0 22 10.5 28.5t24.5 6.5h21q36 0 36 36v135q0 37 -36 37h-21q-35 0 -35 35v46q0 21 10 28t24 7h20q38 0 38 36v131q0 37 -36 37h-59q-36 0 -36 -36v-573q0 -19 -7.5 -27t-27.5 -8h-65q-35 0 -35 35v590q0 135 135 135h130
q135 0 135 -135v-162q0 -28 -10 -47.5t-36 -29.5q26 -9 36 -28t10 -49v-174z" />
    <glyph glyph-name="agrave" unicode="&#xe0;" 
d="M341 642l-12 -11q-11 -11 -24 -6.5t-29 16.5l-121 93q-11 8 -13 19t6 19l61 58q7 7 17.5 5.5t18.5 -12.5l88 -128q11 -17 15 -29.5t-7 -23.5zM450 35q0 -35 -36 -35h-49q-33 0 -38 35l-2 1q-11 -20 -28.5 -28t-44.5 -8h-68q-134 -1 -134 136v62q0 68 33.5 100.5
t101.5 33.5h94q36 0 36 36v59q0 36 -36 36h-52q-36 0 -36 -36v-2q-2 -36 -36 -36h-59q-36 0 -36 36v20q0 135 135 135h120q69 0 102 -33t33 -102v-410zM315 153v68h-94q-17 -1 -26.5 -10t-9.5 -26v-31q0 -17 8 -26.5t23 -9.5h63q36 0 36 35z" />
    <glyph glyph-name="aacute" unicode="&#xe1;" 
d="M391 772q8 -8 6 -19t-13 -19l-121 -93q-16 -12 -29 -16.5t-24 6.5l-12 11q-11 11 -7 23.5t15 29.5l88 128q8 11 18.5 12.5t17.5 -5.5zM450 35q0 -35 -36 -35h-49q-33 0 -38 35l-2 1q-11 -20 -28.5 -28t-44.5 -8h-68q-134 -1 -134 136v62q0 68 33.5 100.5t101.5 33.5h94
q36 0 36 36v59q0 36 -36 36h-52q-36 0 -36 -36v-2q-2 -36 -36 -36h-59q-36 0 -36 36v20q0 135 135 135h120q69 0 102 -33t33 -102v-410zM315 153v68h-94q-17 -1 -26.5 -10t-9.5 -26v-31q0 -17 8 -26.5t23 -9.5h63q36 0 36 35z" />
    <glyph glyph-name="acircumflex" unicode="&#xe2;" 
d="M405 653l-15 -16q-17 -17 -32 -12.5t-37 22.5l-72 58l-76 -61q-6 -5 -13 -10.5t-15.5 -8t-17 -1t-17.5 10.5l-14 14q-18 18 -12.5 35.5t20.5 30.5l85 66q14 11 28.5 17.5t31.5 6.5q18 0 33.5 -8t29.5 -19l81 -63q16 -13 21 -31t-9 -31zM450 35q0 -35 -36 -35h-49
q-33 0 -38 35l-2 1q-11 -20 -28.5 -28t-44.5 -8h-68q-134 -1 -134 136v62q0 68 33.5 100.5t101.5 33.5h94q36 0 36 36v59q0 36 -36 36h-52q-36 0 -36 -36v-2q-2 -36 -36 -36h-59q-36 0 -36 36v20q0 135 135 135h120q69 0 102 -33t33 -102v-410zM315 153v68h-94
q-17 -1 -26.5 -10t-9.5 -26v-31q0 -17 8 -26.5t23 -9.5h63q36 0 36 35z" />
    <glyph glyph-name="atilde" unicode="&#xe3;" 
d="M411 719q0 -6 -0.5 -23t-6.5 -30q-5 -9 -10.5 -16t-14.5 -13q-16 -13 -48 -13q-13 0 -33.5 6t-40.5 20q-19 14 -37 21t-28 7q-19 0 -29.5 -6.5t-24.5 -21.5q-10 -11 -19 -6.5t-9 15.5v44q0 13 7 28q9 18 25 29q16 13 49 13q14 0 36 -8t45 -24q22 -16 35 -19t22 -3
q19 0 31 8t22 20q6 10 17.5 9.5t11.5 -17.5v-20zM450 35q0 -35 -36 -35h-49q-33 0 -38 35l-2 1q-11 -20 -28.5 -28t-44.5 -8h-68q-134 -1 -134 136v62q0 68 33.5 100.5t101.5 33.5h94q36 0 36 36v59q0 36 -36 36h-52q-36 0 -36 -36v-2q-2 -36 -36 -36h-59q-36 0 -36 36v20
q0 135 135 135h120q69 0 102 -33t33 -102v-410zM315 153v68h-94q-17 -1 -26.5 -10t-9.5 -26v-31q0 -17 8 -26.5t23 -9.5h63q36 0 36 35z" />
    <glyph glyph-name="adieresis" unicode="&#xe4;" 
d="M427 660q0 -36 -36 -36h-61q-36 0 -36 36v52q0 36 36 36h61q36 0 36 -36v-52zM220 660q0 -36 -35 -36h-62q-35 0 -35 36v52q0 36 35 36h62q35 0 35 -36v-52zM450 35q0 -35 -36 -35h-49q-33 0 -38 35l-2 1q-11 -20 -28.5 -28t-44.5 -8h-68q-134 -1 -134 136v62
q0 68 33.5 100.5t101.5 33.5h94q36 0 36 36v59q0 36 -36 36h-52q-36 0 -36 -36v-2q-2 -36 -36 -36h-59q-36 0 -36 36v20q0 135 135 135h120q69 0 102 -33t33 -102v-410zM315 153v68h-94q-17 -1 -26.5 -10t-9.5 -26v-31q0 -17 8 -26.5t23 -9.5h63q36 0 36 35z" />
    <glyph glyph-name="aring" unicode="&#xe5;" 
d="M367 705q0 -35 -20.5 -55t-55.5 -20h-75q-35 0 -55 20t-20 55v75q0 35 20 55.5t55 20.5h75q35 0 55.5 -20.5t20.5 -55.5v-75zM450 35q0 -35 -36 -35h-49q-33 0 -38 35l-2 1q-11 -20 -28.5 -28t-44.5 -8h-68q-134 -1 -134 136v62q0 68 33.5 100.5t101.5 33.5h94
q36 0 36 36v59q0 36 -36 36h-52q-36 0 -36 -36v-2q-2 -36 -36 -36h-59q-36 0 -36 36v20q0 135 135 135h120q69 0 102 -33t33 -102v-410zM300 725v35q0 29 -29 29h-35q-28 0 -28 -29v-35q0 -28 28 -28h35q29 0 29 28zM315 153v68h-94q-17 -1 -26.5 -10t-9.5 -26v-31
q0 -17 8 -26.5t23 -9.5h63q36 0 36 35z" />
    <glyph glyph-name="ae" unicode="&#xe6;" horiz-adv-x="755" 
d="M705 283q0 -35 -35 -35h-230v-97q0 -35 36 -35h53q35 0 35 36l1 2q0 17 9.5 26.5t26.5 9.5h58q36 0 36 -36v-19q0 -135 -135 -135h-100q-31 0 -56.5 11.5t-36.5 29.5h-2q-24 -41 -83 -41h-98q-134 -1 -134 136v62q0 68 33.5 100.5t101.5 33.5h94q36 0 36 35v1v59
q0 36 -36 36h-52q-36 0 -36 -36v-2q-2 -36 -36 -36h-59q-36 0 -36 36v20q0 135 135 135h110q19 0 40.5 -8t32.5 -22q11 14 32 21.5t40 8.5h120q135 0 135 -136v-161zM570 359v69q0 17 -10 26.5t-25 9.5h-60q-35 0 -35 -34v-1v-70h130zM315 152v1v68h-94q-17 -1 -26.5 -10
t-9.5 -26v-31q0 -17 8 -26.5t23 -9.5h63q36 0 36 34z" />
    <glyph glyph-name="ccedilla" unicode="&#xe7;" horiz-adv-x="490" 
d="M450 425q0 -36 -36 -36h-58q-36 0 -36 36l-1 2q0 36 -35 36h-63q-36 0 -36 -36v-271q0 -36 36 -36h180q36 0 36 -36v-48q0 -36 -36 -36h-109v-34q0 -19 15 -22l24 -4q42 -8 41 -63l-1 -40q-1 -38 -27.5 -51.5t-64.5 -13.5h-22.5h-14.5h-11.5h-11.5q-17 1 -24.5 8.5
t-7.5 15.5v20q0 6 5 15t23 10l36 1q14 0 21 6.5t7 17.5v7q0 11 -4.5 17t-17.5 8l-25 2q-14 2 -20 16t-6 37l1 47h-21q-69 0 -102 33t-33 102l-1 310q0 135 135 135h130q135 0 135 -135v-20z" />
    <glyph glyph-name="egrave" unicode="&#xe8;" 
d="M332 642l-12 -11q-11 -11 -24 -6.5t-29 16.5l-121 93q-11 8 -13 19t7 19l60 58q8 7 18 5.5t18 -12.5l88 -128q11 -17 15 -29.5t-7 -23.5zM450 283q0 -35 -35 -35h-230v-96q0 -17 9.5 -26.5t26.5 -9.5h53q35 0 35 36l1 2q0 17 9.5 26.5t26.5 9.5h58q36 0 36 -36v-19
q0 -135 -135 -135h-120q-135 0 -135 135v310q0 134 135 135h130q135 0 135 -136v-161zM315 359v69q0 17 -10 26.5t-25 9.5h-60q-35 0 -35 -35v-70h130z" />
    <glyph glyph-name="eacute" unicode="&#xe9;" 
d="M381 772q8 -8 6.5 -19t-12.5 -19l-122 -93q-15 -12 -28.5 -16.5t-24.5 6.5l-11 11q-12 11 -7.5 23.5t15.5 29.5l87 128q8 11 18.5 12.5t18.5 -5.5zM450 283q0 -35 -35 -35h-230v-96q0 -17 9.5 -26.5t26.5 -9.5h53q35 0 35 36l1 2q0 17 9.5 26.5t26.5 9.5h58q36 0 36 -36
v-19q0 -135 -135 -135h-120q-135 0 -135 135v310q0 134 135 135h130q135 0 135 -136v-161zM315 359v69q0 17 -10 26.5t-25 9.5h-60q-35 0 -35 -35v-70h130z" />
    <glyph glyph-name="ecircumflex" unicode="&#xea;" 
d="M403 653l-16 -16q-17 -17 -31.5 -12.5t-37.5 22.5l-72 58l-76 -61q-6 -5 -13 -10.5t-15 -8t-17 -1t-18 10.5l-14 14q-18 18 -12.5 35.5t21.5 30.5l85 66q14 11 28.5 17.5t31.5 6.5t32.5 -8t30.5 -19l80 -63q17 -13 21.5 -31t-8.5 -31zM450 283q0 -35 -35 -35h-230v-96
q0 -17 9.5 -26.5t26.5 -9.5h53q35 0 35 36l1 2q0 17 9.5 26.5t26.5 9.5h58q36 0 36 -36v-19q0 -135 -135 -135h-120q-135 0 -135 135v310q0 134 135 135h130q135 0 135 -136v-161zM315 359v69q0 17 -10 26.5t-25 9.5h-60q-35 0 -35 -35v-70h130z" />
    <glyph glyph-name="edieresis" unicode="&#xeb;" 
d="M421 660q0 -36 -36 -36h-61q-36 0 -36 36v52q0 36 36 36h61q36 0 36 -36v-52zM214 660q0 -36 -35 -36h-62q-35 0 -35 36v52q0 36 35 36h62q35 0 35 -36v-52zM450 283q0 -35 -35 -35h-230v-96q0 -17 9.5 -26.5t26.5 -9.5h53q35 0 35 36l1 2q0 17 9.5 26.5t26.5 9.5h58
q36 0 36 -36v-19q0 -135 -135 -135h-120q-135 0 -135 135v310q0 134 135 135h130q135 0 135 -136v-161zM315 359v69q0 17 -10 26.5t-25 9.5h-60q-35 0 -35 -35v-70h130z" />
    <glyph glyph-name="igrave" unicode="&#xec;" horiz-adv-x="245" 
d="M196 642l-12 -11q-11 -11 -24 -6.5t-29 16.5l-121 93q-11 8 -13 19t6 19l61 58q7 7 17.5 5.5t18.5 -12.5l88 -128q11 -17 15 -29.5t-7 -23.5zM190 35q0 -35 -35 -35h-65q-35 0 -35 35v510q0 35 35 35h65q35 0 35 -35v-510z" />
    <glyph glyph-name="iacute" unicode="&#xed;" horiz-adv-x="245" 
d="M245 772q9 -8 7 -19t-13 -19l-121 -93q-16 -12 -29.5 -16.5t-24.5 6.5l-11 11q-11 11 -7 23.5t15 29.5l88 128q8 11 18 12.5t18 -5.5zM190 35q0 -35 -35 -35h-65q-35 0 -35 35v510q0 35 35 35h65q35 0 35 -35v-510z" />
    <glyph glyph-name="icircumflex" unicode="&#xee;" horiz-adv-x="245" 
d="M270 651l-15 -15q-15 -17 -29.5 -13t-34.5 23l-68 59l-71 -62q-6 -5 -12.5 -10.5t-14.5 -8.5t-16 -1t-17 11l-12 14q-17 18 -12 36t19 30l80 68q13 11 26.5 17t30.5 6t31 -7.5t28 -18.5l75 -64q15 -14 20 -32t-8 -32zM190 35q0 -35 -35 -35h-65q-35 0 -35 35v510
q0 35 35 35h65q35 0 35 -35v-510z" />
    <glyph glyph-name="idieresis" unicode="&#xef;" horiz-adv-x="245" 
d="M292 660q0 -36 -35 -36h-62q-35 0 -35 36v52q0 36 35 36h62q35 0 35 -36v-52zM85 660q0 -36 -35 -36h-62q-35 0 -35 36v52q0 36 35 36h62q35 0 35 -36v-52zM190 35q0 -35 -35 -35h-65q-35 0 -35 35v510q0 35 35 35h65q35 0 35 -35v-510z" />
    <glyph glyph-name="eth" unicode="&#xf0;" 
d="M450 135q0 -135 -135 -135h-130q-135 0 -135 135v310q0 69 33 102t102 33h69l-32 47l-54 -26q-14 -7 -24.5 -5.5t-18.5 15.5l-7 11q-8 14 -3 24.5t19 17.5l50 23l-21 33q-11 17 -5.5 28.5t24.5 11.5h68q18 0 30 -3.5t21 -14.5l40 19q14 6 24 4.5t17 -15.5l6 -11
q14 -29 -17 -43l-34 -16l91 -147q10 -16 16 -38t6 -50v-310zM316 152v275q0 37 -36 37h-59q-36 0 -36 -36v-277q0 -35 36 -35h59q36 0 36 36z" />
    <glyph glyph-name="ntilde" unicode="&#xf1;" 
d="M399 719q0 -6 -1 -23t-7 -30q-8 -18 -24 -29q-17 -13 -48 -13q-14 0 -34 6t-40 20q-19 14 -37.5 21t-27.5 7q-19 0 -29.5 -6.5t-24.5 -21.5q-10 -11 -19 -6.5t-9 15.5v44q0 13 7 28q9 18 24 29q17 13 49 13q14 0 36.5 -8t44.5 -24q23 -16 35.5 -19t22.5 -3q19 0 31 8
t22 20q6 10 17.5 9.5t11.5 -17.5v-20zM450 35q0 -35 -35 -35h-65q-35 0 -35 35v392q0 35 -35 35h-60q-35 0 -35 -35v-392q0 -35 -35 -35h-65q-35 0 -35 35v510q0 35 35 35h65q35 0 35 -35v-3l2 -1q23 39 78 39h50q135 0 135 -135v-410z" />
    <glyph glyph-name="ograve" unicode="&#xf2;" 
d="M336 642l-11 -11q-11 -11 -24.5 -6.5t-29.5 16.5l-121 93q-11 8 -13 19t7 19l60 58q8 7 18 5.5t18 -12.5l88 -128q11 -17 15 -29.5t-7 -23.5zM450 135q0 -135 -135 -135h-130q-135 0 -135 135v310q0 135 135 135h130q135 0 135 -135v-310zM316 152v275q0 37 -36 37h-59
q-36 0 -36 -36v-277q0 -35 36 -35h59q36 0 36 36z" />
    <glyph glyph-name="oacute" unicode="&#xf3;" 
d="M375 772q8 -8 6.5 -19t-12.5 -19l-122 -93q-16 -12 -29 -16.5t-24 6.5l-12 11q-11 11 -7 23.5t15 29.5l88 128q8 11 18.5 12.5t18.5 -5.5zM450 135q0 -135 -135 -135h-130q-135 0 -135 135v310q0 135 135 135h130q135 0 135 -135v-310zM316 152v275q0 37 -36 37h-59
q-36 0 -36 -36v-277q0 -35 36 -35h59q36 0 36 36z" />
    <glyph glyph-name="ocircumflex" unicode="&#xf4;" 
d="M404 653l-15 -16q-17 -17 -32 -12.5t-37 22.5l-72 58l-76 -61q-6 -5 -13 -10.5t-15.5 -8t-17.5 -1t-18 10.5l-13 14q-18 18 -12.5 35.5t20.5 30.5l85 66q14 11 28.5 17.5t31.5 6.5q18 0 33.5 -8t29.5 -19l81 -63q16 -13 21 -31t-9 -31zM450 135q0 -135 -135 -135h-130
q-135 0 -135 135v310q0 135 135 135h130q135 0 135 -135v-310zM316 152v275q0 37 -36 37h-59q-36 0 -36 -36v-277q0 -35 36 -35h59q36 0 36 36z" />
    <glyph glyph-name="otilde" unicode="&#xf5;" 
d="M406 719q0 -6 -1 -23t-7 -30q-5 -9 -10 -16t-14 -13q-17 -13 -48 -13q-14 0 -34 6t-40 20q-19 14 -37.5 21t-28.5 7q-18 0 -28.5 -6.5t-24.5 -21.5q-10 -11 -19.5 -6.5t-9.5 15.5v44q0 10 8 28q5 9 10 16t14 13q17 13 49 13q14 0 36 -8t45 -24q22 -16 35 -19t23 -3
q18 0 30.5 8t22.5 20q6 10 17.5 9.5t11.5 -17.5v-20zM450 135q0 -135 -135 -135h-130q-135 0 -135 135v310q0 135 135 135h130q135 0 135 -135v-310zM316 152v275q0 37 -36 37h-59q-36 0 -36 -36v-277q0 -35 36 -35h59q36 0 36 36z" />
    <glyph glyph-name="odieresis" unicode="&#xf6;" 
d="M419 660q0 -36 -35 -36h-62q-35 0 -35 36v52q0 36 35 36h62q35 0 35 -36v-52zM212 660q0 -36 -35 -36h-62q-35 0 -35 36v52q0 36 35 36h62q35 0 35 -36v-52zM450 135q0 -135 -135 -135h-130q-135 0 -135 135v310q0 135 135 135h130q135 0 135 -135v-310zM316 152v275
q0 37 -36 37h-59q-36 0 -36 -36v-277q0 -35 36 -35h59q36 0 36 36z" />
    <glyph glyph-name="divide" unicode="&#xf7;" horiz-adv-x="620" 
d="M385 487q0 -40 -40 -40h-70q-40 0 -40 40v60q0 40 40 40h70q40 0 40 -40v-60zM560 280q0 -23 -15.5 -38.5t-38.5 -15.5h-392q-23 0 -38.5 15.5t-15.5 38.5v43q0 23 15.5 38.5t38.5 15.5h392q23 0 38.5 -15.5t15.5 -38.5v-43zM385 56q0 -40 -40 -40h-70q-40 0 -40 40v60
q0 40 40 40h70q40 0 40 -40v-60z" />
    <glyph glyph-name="oslash" unicode="&#xf8;" 
d="M450 135q0 -135 -135 -135h-107l-11 -40q-5 -16 -11 -19t-21 -3h-14q-20 0 -23.5 7t1.5 27l8 33q-87 19 -87 130v310q0 69 33 102t102 33h104l10 36q5 18 11 21.5t25 3.5h12q20 0 25 -6.5t0 -23.5l-10 -36q88 -21 88 -130v-310zM259 464h-38q-36 0 -36 -36v-244zM316 152
v249l-77 -285h41q36 0 36 36z" />
    <glyph glyph-name="ugrave" unicode="&#xf9;" 
d="M345 642l-11 -11q-11 -11 -24.5 -6.5t-29.5 16.5l-121 93q-11 8 -13 19t7 19l60 58q8 7 18 5.5t18 -12.5l88 -128q11 -17 15 -29.5t-7 -23.5zM450 35q0 -35 -35 -35h-65q-35 0 -35 35v3l-2 1q-23 -39 -78 -39h-50q-135 0 -135 135v410q0 35 35 35h65q35 0 35 -35v-392
q0 -35 36 -35h59q35 0 35 35v392q0 35 35 35h65q35 0 35 -35v-510z" />
    <glyph glyph-name="uacute" unicode="&#xfa;" 
d="M383 772q8 -8 6 -19t-13 -19l-121 -93q-16 -12 -29 -16.5t-24 6.5l-12 11q-11 11 -7 23.5t15 29.5l88 128q8 11 18.5 12.5t18.5 -5.5zM450 35q0 -35 -35 -35h-65q-35 0 -35 35v3l-2 1q-23 -39 -78 -39h-50q-135 0 -135 135v410q0 35 35 35h65q35 0 35 -35v-392
q0 -35 36 -35h59q35 0 35 35v392q0 35 35 35h65q35 0 35 -35v-510z" />
    <glyph glyph-name="ucircumflex" unicode="&#xfb;" 
d="M407 653l-16 -16q-17 -17 -31.5 -12.5t-37.5 22.5l-71 58l-77 -61q-6 -5 -13 -10.5t-15 -8t-17 -1t-18 10.5l-13 14q-18 18 -12.5 35.5t20.5 30.5l85 66q14 11 28.5 17.5t31.5 6.5q18 0 33.5 -8t29.5 -19l80 -63q17 -13 22 -31t-9 -31zM450 35q0 -35 -35 -35h-65
q-35 0 -35 35v3l-2 1q-23 -39 -78 -39h-50q-135 0 -135 135v410q0 35 35 35h65q35 0 35 -35v-392q0 -35 36 -35h59q35 0 35 35v392q0 35 35 35h65q35 0 35 -35v-510z" />
    <glyph glyph-name="udieresis" unicode="&#xfc;" 
d="M422 660q0 -36 -36 -36h-61q-36 0 -36 36v52q0 36 36 36h61q36 0 36 -36v-52zM215 660q0 -36 -35 -36h-62q-35 0 -35 36v52q0 36 35 36h62q35 0 35 -36v-52zM450 35q0 -35 -35 -35h-65q-35 0 -35 35v3l-2 1q-23 -39 -78 -39h-50q-135 0 -135 135v410q0 35 35 35h65
q35 0 35 -35v-392q0 -35 36 -35h59q35 0 35 35v392q0 35 35 35h65q35 0 35 -35v-510z" />
    <glyph glyph-name="yacute" unicode="&#xfd;" horiz-adv-x="480" 
d="M345 772q9 -8 7 -19t-13 -19l-121 -93q-16 -12 -29.5 -16.5t-24.5 6.5l-11 11q-11 11 -7 23.5t15 29.5l88 128q8 11 18 12.5t18 -5.5zM455 553q0 -7 -2 -17l-166 -581q-9 -33 -19 -58.5t-24.5 -42.5t-36.5 -25.5t-56 -8.5h-63q-36 0 -36 36v48q0 36 36 36h41q42 0 50 37
l4 18l-156 541q-2 10 -2 16q0 14 8 21t22 7h74q19 0 26 -9.5t11 -26.5l74 -309l74 309q4 17 11 26.5t27 9.5h73q14 0 22 -7t8 -20z" />
    <glyph glyph-name="thorn" unicode="&#xfe;" 
d="M450 135q0 -135 -135 -135h-57q-20 0 -38 4.5t-33 18.5l-2 -1v-167q0 -35 -35 -35h-65q-35 0 -35 35v870q0 35 35 35h65q35 0 35 -35v-180l2 -1q12 21 31 28.5t42 7.5h55q135 0 135 -135v-310zM316 155v271q0 36 -36 36h-59q-36 0 -36 -36v-273q0 -35 36 -35h59
q36 0 36 37z" />
    <glyph glyph-name="ydieresis" unicode="&#xff;" horiz-adv-x="480" 
d="M406 660q0 -36 -35 -36h-62q-35 0 -35 36v52q0 36 35 36h62q35 0 35 -36v-52zM199 660q0 -36 -35 -36h-62q-35 0 -35 36v52q0 36 35 36h62q35 0 35 -36v-52zM455 553q0 -7 -2 -17l-166 -581q-9 -33 -19 -58.5t-24.5 -42.5t-36.5 -25.5t-56 -8.5h-63q-36 0 -36 36v48
q0 36 36 36h41q42 0 50 37l4 18l-156 541q-2 10 -2 16q0 14 8 21t22 7h74q19 0 26 -9.5t11 -26.5l74 -309l74 309q4 17 11 26.5t27 9.5h73q14 0 22 -7t8 -20z" />
    <glyph glyph-name="Amacron" unicode="&#x100;" horiz-adv-x="571" 
d="M451 805q0 -33 -32 -33h-266q-32 0 -32 33v35q0 32 32 32h266q32 0 32 -32v-35zM538 49q6 -22 -2 -35.5t-28 -13.5h-82q-20 0 -28.5 9.5t-13.5 30.5l-24 100h-150l-23 -100q-5 -21 -13.5 -30.5t-28.5 -9.5h-82q-20 0 -28 13.5t-2 35.5l174 631q5 19 12.5 29.5t27.5 10.5
h77q20 0 27.5 -10.5t12.5 -29.5zM329 275l-44 184l-43 -184h87z" />
    <glyph glyph-name="amacron" unicode="&#x101;" 
d="M421 663q0 -32 -32 -32h-266q-32 0 -32 32v36q0 32 32 32h266q32 0 32 -32v-36zM450 35q0 -35 -36 -35h-49q-33 0 -38 35l-2 1q-11 -20 -28.5 -28t-44.5 -8h-68q-134 -1 -134 136v62q0 68 33.5 100.5t101.5 33.5h94q36 0 36 36v59q0 36 -36 36h-52q-36 0 -36 -36v-2
q-2 -36 -36 -36h-59q-36 0 -36 36v20q0 135 135 135h120q69 0 102 -33t33 -102v-410zM315 153v68h-94q-17 -1 -26.5 -10t-9.5 -26v-31q0 -17 8 -26.5t23 -9.5h63q36 0 36 35z" />
    <glyph glyph-name="Abreve" unicode="&#x102;" horiz-adv-x="571" 
d="M462 858q0 -18 -15.5 -35t-40 -30t-56 -21t-63.5 -8t-63.5 8t-56.5 21t-40 30t-15 35v19q0 17 7 25t25 8q16 0 33.5 -10l31.5 -18q21 -11 39 -15t41 -4t41.5 5.5t38.5 16.5q12 7 29.5 16t31.5 9q18 0 25 -8t7 -25v-19zM538 49q6 -22 -2 -35.5t-28 -13.5h-82
q-20 0 -28.5 9.5t-13.5 30.5l-24 100h-150l-23 -100q-5 -21 -13.5 -30.5t-28.5 -9.5h-82q-20 0 -28 13.5t-2 35.5l174 631q5 19 12.5 29.5t27.5 10.5h77q20 0 27.5 -10.5t12.5 -29.5zM329 275l-44 184l-43 -184h87z" />
    <glyph glyph-name="abreve" unicode="&#x103;" 
d="M435 718q0 -18 -15.5 -35t-40.5 -30t-56.5 -21t-63.5 -8t-63.5 8t-56 21t-40 30t-15.5 35v18q0 17 7.5 25.5t25.5 8.5q16 0 33 -10t31 -18q21 -11 39.5 -15t41.5 -4t41.5 5.5t38.5 16.5q12 7 29 16t31 9q18 0 25.5 -8.5t7.5 -25.5v-18zM450 35q0 -35 -36 -35h-49
q-33 0 -38 35l-2 1q-11 -20 -28.5 -28t-44.5 -8h-68q-134 -1 -134 136v62q0 68 33.5 100.5t101.5 33.5h94q36 0 36 36v59q0 36 -36 36h-52q-36 0 -36 -36v-2q-2 -36 -36 -36h-59q-36 0 -36 36v20q0 135 135 135h120q69 0 102 -33t33 -102v-410zM315 153v68h-94
q-17 -1 -26.5 -10t-9.5 -26v-31q0 -17 8 -26.5t23 -9.5h63q36 0 36 35z" />
    <glyph glyph-name="Aogonek" unicode="&#x104;" horiz-adv-x="571" 
d="M538 49q6 -22 -2 -35.5t-28 -13.5h-2q-24 -19 -38.5 -32.5t-22.5 -25.5t-10.5 -22.5t-2.5 -23.5v-11q0 -20 13 -33t30 -13q11 0 22 1.5t19 4.5q20 8 20 -14v-26q0 -7 -0.5 -13t-6.5 -11q-14 -12 -33 -18.5t-45 -6.5q-56 0 -89 31t-33 75v16q0 18 4.5 33t14.5 29t26.5 29
t40.5 32q-14 2 -20.5 11.5t-10.5 27.5l-24 100h-150l-23 -100q-5 -21 -13.5 -30.5t-28.5 -9.5h-82q-20 0 -28 13.5t-2 35.5l174 631q5 19 12.5 29.5t27.5 10.5h77q20 0 27.5 -10.5t12.5 -29.5zM329 275l-44 184l-43 -184h87z" />
    <glyph glyph-name="aogonek" unicode="&#x105;" 
d="M450 -195q0 -7 -0.5 -13t-6.5 -11q-14 -12 -33 -18.5t-45 -6.5q-56 0 -89 31t-33 75v16q0 18 4.5 34t16 31t30 31t45.5 34q-9 9 -12 27l-2 1q-11 -20 -28.5 -28t-44.5 -8h-68q-134 -1 -134 136v62q0 68 33.5 100.5t101.5 33.5h94q36 0 36 36v59q0 36 -36 36h-52
q-36 0 -36 -36v-2q-2 -36 -36 -36h-59q-36 0 -36 36v20q0 135 135 135h120q69 0 102 -33t33 -102v-410q0 -32 -30 -35q-24 -19 -38.5 -32.5t-22.5 -25.5t-10.5 -22.5t-2.5 -23.5v-11q0 -20 13 -33t30 -13q11 0 22 1.5t19 4.5q20 8 20 -14v-26zM315 153v68h-94
q-17 -1 -26.5 -10t-9.5 -26v-31q0 -17 8 -26.5t23 -9.5h63q36 0 36 35z" />
    <glyph glyph-name="Cacute" unicode="&#x106;" horiz-adv-x="560" 
d="M409 914q9 -8 7 -19t-13 -19l-121 -93q-16 -12 -29.5 -16.5t-24.5 6.5l-11 11q-11 11 -7 23.5t15 29.5l88 128q8 11 18 12.5t18 -5.5zM510 540q0 -40 -40 -40h-65q-40 0 -40 40v5q0 40 -40 40h-75q-40 0 -40 -40v-365q0 -40 40 -40h205q40 0 40 -40v-60q0 -20 -10 -30.5
t-30 -9.5h-245q-150 0 -150 150v420q0 150 150 150h150q150 0 150 -150v-30z" />
    <glyph glyph-name="cacute" unicode="&#x107;" horiz-adv-x="490" 
d="M375 772q9 -8 7 -19t-13 -19l-121 -93q-16 -12 -29.5 -16.5t-24.5 6.5l-11 11q-11 11 -7 23.5t15 29.5l88 128q8 11 18 12.5t18 -5.5zM450 425q0 -36 -36 -36h-58q-36 0 -36 36l-1 2q0 36 -35 36h-63q-36 0 -36 -36v-271q0 -36 36 -36h180q36 0 36 -36v-48q0 -36 -36 -36
h-215q-135 0 -135 135l-1 310q0 135 135 135h130q135 0 135 -135v-20z" />
    <glyph glyph-name="Ccircumflex" unicode="&#x108;" horiz-adv-x="560" 
d="M448 794l-15 -15q-17 -17 -31.5 -13t-37.5 22l-72 59l-76 -62q-6 -5 -13 -10t-15 -8t-17 -1t-18 11l-14 13q-18 18 -12.5 36t21.5 30l85 67q14 11 28 17t32 6q17 0 32.5 -7.5t30.5 -18.5l80 -64q17 -13 21.5 -30.5t-9.5 -31.5zM510 540q0 -40 -40 -40h-65q-40 0 -40 40v5
q0 40 -40 40h-75q-40 0 -40 -40v-365q0 -40 40 -40h205q40 0 40 -40v-60q0 -20 -10 -30.5t-30 -9.5h-245q-150 0 -150 150v420q0 150 150 150h150q150 0 150 -150v-30z" />
    <glyph glyph-name="ccircumflex" unicode="&#x109;" horiz-adv-x="490" 
d="M407 653l-15 -16q-17 -17 -31.5 -12.5t-37.5 22.5l-72 58l-76 -61q-6 -5 -13 -10.5t-15 -8t-17 -1t-18 10.5l-14 14q-18 18 -12.5 35.5t21.5 30.5l85 66q14 11 28 17.5t32 6.5q17 0 32.5 -8t30.5 -19l80 -63q17 -13 21.5 -31t-9.5 -31zM450 425q0 -36 -36 -36h-58
q-36 0 -36 36l-1 2q0 36 -35 36h-63q-36 0 -36 -36v-271q0 -36 36 -36h180q36 0 36 -36v-48q0 -36 -36 -36h-215q-135 0 -135 135l-1 310q0 135 135 135h130q135 0 135 -135v-20z" />
    <glyph glyph-name="Cdotaccent" unicode="&#x10a;" horiz-adv-x="560" 
d="M353 806q0 -36 -36 -36h-65q-36 0 -36 36v59q0 35 36 35h65q36 0 36 -35v-59zM510 540q0 -40 -40 -40h-65q-40 0 -40 40v5q0 40 -40 40h-75q-40 0 -40 -40v-365q0 -40 40 -40h205q40 0 40 -40v-60q0 -20 -10 -30.5t-30 -9.5h-245q-150 0 -150 150v420q0 150 150 150h150
q150 0 150 -150v-30z" />
    <glyph glyph-name="cdotaccent" unicode="&#x10b;" horiz-adv-x="490" 
d="M325 665q0 -36 -35 -36h-66q-35 0 -35 36v58q0 36 35 36h66q35 0 35 -36v-58zM450 425q0 -36 -36 -36h-58q-36 0 -36 36l-1 2q0 36 -35 36h-63q-36 0 -36 -36v-271q0 -36 36 -36h180q36 0 36 -36v-48q0 -36 -36 -36h-215q-135 0 -135 135l-1 310q0 135 135 135h130
q135 0 135 -135v-20z" />
    <glyph glyph-name="Ccaron" unicode="&#x10c;" horiz-adv-x="560" 
d="M444 921q18 -19 12.5 -36.5t-21.5 -29.5l-85 -67q-14 -11 -28 -17.5t-32 -6.5q-17 0 -32.5 8t-30.5 19l-80 63q-16 13 -21 31t9 32l15 15q17 17 32 13t37 -23l72 -58l76 61q6 5 13 10.5t15.5 8t17 1t17.5 -10.5zM510 540q0 -40 -40 -40h-65q-40 0 -40 40v5q0 40 -40 40
h-75q-40 0 -40 -40v-365q0 -40 40 -40h205q40 0 40 -40v-60q0 -20 -10 -30.5t-30 -9.5h-245q-150 0 -150 150v420q0 150 150 150h150q150 0 150 -150v-30z" />
    <glyph glyph-name="ccaron" unicode="&#x10d;" horiz-adv-x="490" 
d="M408 780q18 -18 12.5 -36t-21.5 -30l-85 -67q-14 -11 -28 -17t-32 -6q-17 0 -32.5 7.5t-30.5 18.5l-80 64q-17 13 -21.5 30.5t9.5 31.5l15 15q17 17 32 13t37 -22l72 -59l76 62q6 4 13 9.5t15 8.5t17 1t18 -11zM450 425q0 -36 -36 -36h-58q-36 0 -36 36l-1 2q0 36 -35 36
h-63q-36 0 -36 -36v-271q0 -36 36 -36h180q36 0 36 -36v-48q0 -36 -36 -36h-215q-135 0 -135 135l-1 310q0 135 135 135h130q135 0 135 -135v-20z" />
    <glyph glyph-name="Dcaron" unicode="&#x10e;" horiz-adv-x="571" 
d="M439 921q18 -18 12.5 -35.5t-21.5 -30.5l-85 -66q-14 -11 -28 -17.5t-32 -6.5q-17 0 -32.5 8t-30.5 19l-80 63q-16 13 -21 31t9 31l15 16q17 17 32 12.5t37 -22.5l72 -58l76 61q6 5 13 10.5t15.5 8t17 1t17.5 -10.5zM511 150q0 -150 -150 -150h-261q-40 0 -40 40v640
q0 40 40 40h261q150 0 150 -150v-420zM361 175v369q0 19 -10.5 30t-29.5 11h-111v-450h111q40 0 40 40z" />
    <glyph glyph-name="dcaron" unicode="&#x10f;" horiz-adv-x="655" 
d="M645 687q0 -32 -11 -49l-54 -85q-17 -28 -44 -11l-1 1q-28 17 -10 45l30 46h-9q-36 0 -36 36v54q0 36 36 36h63q36 0 36 -36v-37zM450 35q0 -35 -35 -35h-50q-33 0 -38 35l-2 1q-11 -20 -28.5 -28t-44.5 -8h-67q-135 0 -135 135v310q0 135 135 135h57q45 0 71 -23l2 1
v167q0 35 35 35h65q35 0 35 -35v-690zM315 153v273q0 36 -36 36h-58q-37 0 -37 -37v-271q0 -36 37 -36h58q36 0 36 35z" />
    <glyph glyph-name="Dcroat" unicode="&#x110;" horiz-adv-x="571" 
d="M511 150q0 -150 -150 -150h-261q-40 0 -40 40v278q-30 1 -30 32v36q0 30 30 32v262q0 40 40 40h261q150 0 150 -150v-420zM361 175v369q0 19 -10.5 30t-29.5 11h-111v-167h38q32 0 32 -32v-36q0 -32 -32 -32h-38v-183h111q40 0 40 40z" />
    <glyph glyph-name="dcroat" unicode="&#x111;" 
d="M480 663q0 -31 -30 -32v-596q0 -35 -35 -35h-50q-33 0 -38 35l-2 1q-11 -20 -28.5 -28t-44.5 -8h-67q-135 0 -135 135v310q0 135 135 135h57q45 0 71 -23l2 1v73h-133q-32 0 -32 32v36q0 32 32 32h133q3 29 35 29h65q32 0 35 -29q30 -2 30 -32v-36zM315 153v273
q0 36 -36 36h-58q-37 0 -37 -37v-271q0 -36 37 -36h58q36 0 36 35z" />
    <glyph glyph-name="Emacron" unicode="&#x112;" horiz-adv-x="555" 
d="M451 806q0 -33 -32 -33h-266q-32 0 -32 33v35q0 32 32 32h266q32 0 32 -32v-35zM510 40q0 -40 -40 -40h-370q-40 0 -40 41v639q0 40 40 40h370q40 0 40 -40v-60q0 -18 -10.5 -29t-29.5 -11l-260 -1v-139h210q40 0 40 -40v-60q0 -40 -40 -40h-210v-160h260q40 0 40 -40
v-60z" />
    <glyph glyph-name="emacron" unicode="&#x113;" 
d="M419 664q0 -32 -32 -32h-266q-32 0 -32 32v36q0 32 32 32h266q32 0 32 -32v-36zM450 283q0 -35 -35 -35h-230v-96q0 -17 9.5 -26.5t26.5 -9.5h53q35 0 35 36l1 2q0 17 9.5 26.5t26.5 9.5h58q36 0 36 -36v-19q0 -135 -135 -135h-120q-135 0 -135 135v310q0 134 135 135
h130q135 0 135 -136v-161zM315 359v69q0 17 -10 26.5t-25 9.5h-60q-35 0 -35 -35v-70h130z" />
    <glyph glyph-name="Ebreve" unicode="&#x114;" horiz-adv-x="555" 
d="M464 858q0 -18 -15.5 -35t-40 -29.5t-56 -20.5t-63.5 -8t-63.5 8t-56.5 20.5t-40 29.5t-15 35v19q0 34 32 34q16 0 33.5 -10.5t31.5 -17.5q21 -11 39.5 -15t41.5 -4t41 5.5t38 16.5q13 6 30 15.5t31 9.5q18 0 25 -8.5t7 -25.5v-19zM510 40q0 -40 -40 -40h-370
q-40 0 -40 41v639q0 40 40 40h370q40 0 40 -40v-60q0 -18 -10.5 -29t-29.5 -11l-260 -1v-139h210q40 0 40 -40v-60q0 -40 -40 -40h-210v-160h260q40 0 40 -40v-60z" />
    <glyph glyph-name="ebreve" unicode="&#x115;" 
d="M427 718q0 -18 -15.5 -35t-40.5 -30t-56.5 -21t-63.5 -8t-63.5 8t-56 21t-40 30t-15.5 35v18q0 17 7.5 25.5t25.5 8.5q16 0 33 -10t31 -18q21 -11 39.5 -15t41.5 -4t41.5 5.5t38.5 16.5q12 7 29 16t31 9q18 0 25.5 -8.5t7.5 -25.5v-18zM450 283q0 -35 -35 -35h-230v-96
q0 -17 9.5 -26.5t26.5 -9.5h53q35 0 35 36l1 2q0 17 9.5 26.5t26.5 9.5h58q36 0 36 -36v-19q0 -135 -135 -135h-120q-135 0 -135 135v310q0 134 135 135h130q135 0 135 -136v-161zM315 359v69q0 17 -10 26.5t-25 9.5h-60q-35 0 -35 -35v-70h130z" />
    <glyph glyph-name="Edotaccent" unicode="&#x116;" horiz-adv-x="555" 
d="M350 805q0 -35 -35 -35h-66q-35 0 -35 35v59q0 35 35 35h66q35 0 35 -35v-59zM510 40q0 -40 -40 -40h-370q-40 0 -40 41v639q0 40 40 40h370q40 0 40 -40v-60q0 -18 -10.5 -29t-29.5 -11l-260 -1v-139h210q40 0 40 -40v-60q0 -40 -40 -40h-210v-160h260q40 0 40 -40v-60z
" />
    <glyph glyph-name="edotaccent" unicode="&#x117;" 
d="M318 664q0 -36 -35 -36h-66q-35 0 -35 36v58q0 36 35 36h66q35 0 35 -36v-58zM450 283q0 -35 -35 -35h-230v-96q0 -17 9.5 -26.5t26.5 -9.5h53q35 0 35 36l1 2q0 17 9.5 26.5t26.5 9.5h58q36 0 36 -36v-19q0 -135 -135 -135h-120q-135 0 -135 135v310q0 134 135 135h130
q135 0 135 -136v-161zM315 359v69q0 17 -10 26.5t-25 9.5h-60q-35 0 -35 -35v-70h130z" />
    <glyph glyph-name="Eogonek" unicode="&#x118;" horiz-adv-x="555" 
d="M510 40q0 -38 -38 -40q-24 -19 -38.5 -32.5t-22.5 -25.5t-10.5 -22.5t-2.5 -23.5v-11q0 -20 13 -33t30 -13q11 0 22 1.5t19 4.5q20 8 20 -14v-26q0 -7 -0.5 -13t-6.5 -11q-14 -12 -33 -18.5t-45 -6.5q-56 0 -89 31t-33 75v16q0 17 4 32t14 29.5t26.5 29t40.5 31.5h-280
q-40 0 -40 41v639q0 40 40 40h370q40 0 40 -40v-60q0 -18 -10.5 -29t-29.5 -11l-260 -1v-139h210q40 0 40 -40v-60q0 -40 -40 -40h-210v-160h260q40 0 40 -40v-60z" />
    <glyph glyph-name="eogonek" unicode="&#x119;" 
d="M450 283q0 -35 -35 -35h-230v-96q0 -17 9.5 -26.5t26.5 -9.5h53q35 0 35 36l1 2q0 17 9.5 26.5t26.5 9.5h58q36 0 36 -36v-19q0 -96 -68 -124q-28 -22 -45.5 -37.5t-27 -28.5t-12.5 -24.5t-3 -24.5v-11q0 -20 13 -33t30 -13q11 0 22 1.5t19 4.5q20 8 20 -14v-26
q0 -7 -0.5 -13t-6.5 -11q-14 -12 -33 -18.5t-45 -6.5q-56 0 -89 31t-33 75v16q0 17 4 32t14 29.5t26 29t40 31.5h-80q-69 0 -102 33t-33 102v310q0 134 135 135h130q135 0 135 -136v-161zM315 359v69q0 17 -10 26.5t-25 9.5h-60q-35 0 -35 -35v-70h130z" />
    <glyph glyph-name="Ecaron" unicode="&#x11a;" horiz-adv-x="555" 
d="M437 921q18 -18 12.5 -35.5t-21.5 -30.5l-85 -66q-14 -11 -28 -17.5t-32 -6.5q-17 0 -32.5 8t-30.5 19l-80 63q-16 13 -21 31t9 31l15 16q17 17 32 12.5t37 -22.5l72 -58l76 61q6 5 13 10.5t15.5 8t17 1t17.5 -10.5zM510 40q0 -40 -40 -40h-370q-40 0 -40 41v639
q0 40 40 40h370q40 0 40 -40v-60q0 -18 -10.5 -29t-29.5 -11l-260 -1v-139h210q40 0 40 -40v-60q0 -40 -40 -40h-210v-160h260q40 0 40 -40v-60z" />
    <glyph glyph-name="ecaron" unicode="&#x11b;" 
d="M405 780q18 -18 12.5 -36t-21.5 -30l-85 -67q-14 -11 -28 -17t-32 -6q-17 0 -32.5 7.5t-30.5 18.5l-80 64q-17 13 -21.5 30.5t9.5 31.5l15 15q17 17 32 13t37 -22l72 -59l76 62q6 4 13 9.5t15 8.5t17 1t18 -11zM450 283q0 -35 -35 -35h-230v-96q0 -17 9.5 -26.5
t26.5 -9.5h53q35 0 35 36l1 2q0 17 9.5 26.5t26.5 9.5h58q36 0 36 -36v-19q0 -135 -135 -135h-120q-135 0 -135 135v310q0 134 135 135h130q135 0 135 -136v-161zM315 359v69q0 17 -10 26.5t-25 9.5h-60q-35 0 -35 -35v-70h130z" />
    <glyph glyph-name="Gcircumflex" unicode="&#x11c;" horiz-adv-x="570" 
d="M444 794l-16 -15q-17 -17 -31.5 -12.5t-37.5 22.5l-71 58l-77 -61q-6 -5 -13 -10.5t-15 -8t-17 -1t-18 10.5l-13 14q-18 18 -13 35.5t21 29.5l85 67q14 11 28.5 17.5t31.5 6.5q18 0 33.5 -8t29.5 -19l80 -63q17 -13 21.5 -31t-8.5 -32zM510 40q0 -40 -40 -40h-43
q-24 0 -34 10t-12 25l-3 1q-9 -17 -26.5 -26.5t-44.5 -9.5h-97q-74 -1 -112 37t-38 113v147v126v147q0 148 150 150h245q40 0 40 -40v-60q0 -40 -40 -40h-205q-40 0 -40 -40v-365q0 -40 40 -40h75q40 0 40 40v90h-35q-18 0 -29 10t-11 30v60q0 40 40 40h140q40 0 40 -40
v-325z" />
    <glyph glyph-name="gcircumflex" unicode="&#x11d;" 
d="M411 653l-15 -16q-17 -17 -31.5 -12.5t-37.5 22.5l-72 58l-76 -61q-6 -5 -13 -10.5t-15 -8t-17 -1t-18 10.5l-14 14q-18 18 -12.5 35.5t21.5 30.5l85 66q14 11 28 17.5t32 6.5q17 0 32.5 -8t30.5 -19l80 -63q17 -13 21.5 -31t-9.5 -31zM450 -45q0 -69 -33 -102t-102 -33
h-120q-135 0 -135 135v20q0 36 36 36h59q17 0 26 -9.5t10 -26.5v-3q0 -36 36 -36h52q17 0 26.5 9.5t9.5 26.5v96h-130q-135 0 -135 134v242q0 136 134 136h68q27 0 44.5 -8t28.5 -28l2 1q5 35 38 35h49q36 -2 36 -35v-590zM315 427q0 35 -36 35h-63q-15 0 -23 -9.5t-8 -26.5
v-209q0 -17 9.5 -26.5t26.5 -9.5h94v246z" />
    <glyph glyph-name="Gbreve" unicode="&#x11e;" horiz-adv-x="570" 
d="M461 858q0 -18 -15.5 -35t-40 -29.5t-56 -20.5t-63.5 -8t-63.5 8t-56.5 20.5t-40 29.5t-15 35v19q0 34 32 34q16 0 33.5 -10.5t31.5 -17.5q21 -11 39.5 -15t41.5 -4t41 5.5t38 16.5q13 6 30 15.5t31 9.5q18 0 25 -8.5t7 -25.5v-19zM510 40q0 -40 -40 -40h-43
q-24 0 -34 10t-12 25l-3 1q-9 -17 -26.5 -26.5t-44.5 -9.5h-97q-74 -1 -112 37t-38 113v147v126v147q0 148 150 150h245q40 0 40 -40v-60q0 -40 -40 -40h-205q-40 0 -40 -40v-365q0 -40 40 -40h75q40 0 40 40v90h-35q-18 0 -29 10t-11 30v60q0 40 40 40h140q40 0 40 -40
v-325z" />
    <glyph glyph-name="gbreve" unicode="&#x11f;" 
d="M428 718q0 -18 -15.5 -35t-40.5 -30t-56.5 -21t-63.5 -8t-63.5 8t-56 21t-40 30t-15.5 35v18q0 17 7.5 25.5t25.5 8.5q16 0 33 -10t31 -18q21 -11 39.5 -15t41.5 -4t41.5 5.5t38.5 16.5q12 7 29 16t31 9q18 0 25.5 -8.5t7.5 -25.5v-18zM450 -45q0 -69 -33 -102t-102 -33
h-120q-135 0 -135 135v20q0 36 36 36h59q17 0 26 -9.5t10 -26.5v-3q0 -36 36 -36h52q17 0 26.5 9.5t9.5 26.5v96h-130q-135 0 -135 134v242q0 136 134 136h68q27 0 44.5 -8t28.5 -28l2 1q5 35 38 35h49q36 -2 36 -35v-590zM315 427q0 35 -36 35h-63q-15 0 -23 -9.5t-8 -26.5
v-209q0 -17 9.5 -26.5t26.5 -9.5h94v246z" />
    <glyph glyph-name="Gdotaccent" unicode="&#x120;" horiz-adv-x="570" 
d="M351 806q0 -35 -35 -35h-66q-35 0 -35 35v59q0 35 35 35h66q35 0 35 -35v-59zM510 40q0 -40 -40 -40h-43q-24 0 -34 10t-12 25l-3 1q-9 -17 -26.5 -26.5t-44.5 -9.5h-97q-74 -1 -112 37t-38 113v147v126v147q0 148 150 150h245q40 0 40 -40v-60q0 -40 -40 -40h-205
q-40 0 -40 -40v-365q0 -40 40 -40h75q40 0 40 40v90h-35q-18 0 -29 10t-11 30v60q0 40 40 40h140q40 0 40 -40v-325z" />
    <glyph glyph-name="gdotaccent" unicode="&#x121;" 
d="M320 664q0 -36 -35 -36h-66q-35 0 -35 36v58q0 36 35 36h66q35 0 35 -36v-58zM450 -45q0 -69 -33 -102t-102 -33h-120q-135 0 -135 135v20q0 36 36 36h59q17 0 26 -9.5t10 -26.5v-3q0 -36 36 -36h52q17 0 26.5 9.5t9.5 26.5v96h-130q-135 0 -135 134v242q0 136 134 136
h68q27 0 44.5 -8t28.5 -28l2 1q5 35 38 35h49q36 -2 36 -35v-590zM315 427q0 35 -36 35h-63q-15 0 -23 -9.5t-8 -26.5v-209q0 -17 9.5 -26.5t26.5 -9.5h94v246z" />
    <glyph glyph-name="Gcommacedilla" unicode="&#x122;" horiz-adv-x="570" 
d="M510 40q0 -40 -40 -40h-43q-24 0 -34 10t-12 25l-3 1q-9 -17 -26.5 -26.5t-44.5 -9.5h-97q-74 -1 -112 37t-38 113v147v126v147q0 148 150 150h245q40 0 40 -40v-60q0 -40 -40 -40h-205q-40 0 -40 -40v-365q0 -40 40 -40h75q40 0 40 40v90h-35q-18 0 -29 10t-11 30v60
q0 40 40 40h140q40 0 40 -40v-325zM356 -128q0 -32 -11 -49l-54 -85q-18 -28 -45 -10h-1q-27 17 -10 45l30 46h-8q-36 0 -36 36v54q0 36 36 36h63q36 0 36 -36v-37z" />
    <glyph glyph-name="gcommacedilla" unicode="&#x123;" 
d="M318 664q0 -36 -36 -36h-63q-36 0 -36 36v37q0 32 11 49l54 85q17 28 45 11l1 -1q27 -18 10 -44l-30 -47h8q36 0 36 -36v-54zM450 -45q0 -69 -33 -102t-102 -33h-120q-135 0 -135 135v20q0 36 36 36h59q17 0 26 -9.5t10 -26.5v-3q0 -36 36 -36h52q17 0 26.5 9.5t9.5 26.5
v96h-130q-135 0 -135 134v242q0 136 134 136h68q27 0 44.5 -8t28.5 -28l2 1q5 35 38 35h49q36 -2 36 -35v-590zM315 427q0 35 -36 35h-63q-15 0 -23 -9.5t-8 -26.5v-209q0 -17 9.5 -26.5t26.5 -9.5h94v246z" />
    <glyph glyph-name="Hcircumflex" unicode="&#x124;" horiz-adv-x="570" 
d="M445 793l-15 -16q-17 -17 -32 -12.5t-37 22.5l-72 58l-76 -61q-6 -5 -13 -10.5t-15.5 -8t-17.5 -1t-18 10.5l-13 14q-18 18 -12.5 35.5t20.5 30.5l85 66q14 11 28.5 17.5t31.5 6.5q18 0 33.5 -8t29.5 -19l81 -63q16 -13 21 -31t-9 -31zM510 40q0 -40 -40 -40h-70
q-40 0 -40 40v260h-150v-260q0 -40 -40 -40h-70q-40 0 -40 40v640q0 40 40 40h70q40 0 40 -40v-240h150v240q0 40 40 40h70q40 0 40 -40v-640z" />
    <glyph glyph-name="hcircumflex" unicode="&#x125;" 
d="M404 845l-15 -16q-17 -17 -32 -12.5t-37 22.5l-72 58l-76 -61q-6 -5 -13 -10.5t-15.5 -8t-17.5 -1t-18 10.5l-13 14q-18 18 -12.5 35.5t20.5 30.5l85 66q14 11 28.5 17.5t31.5 6.5q18 0 33.5 -8t29.5 -19l81 -63q16 -13 21 -31t-9 -31zM450 35q0 -35 -35 -35h-65
q-35 0 -35 35v392q0 35 -35 35h-60q-35 0 -35 -35v-392q0 -35 -35 -35h-65q-35 0 -35 35v690q0 35 35 35h65q35 0 35 -35v-167l2 -1q26 23 71 23h57q135 0 135 -135v-410z" />
    <glyph glyph-name="Hbar" unicode="&#x126;" horiz-adv-x="570" 
d="M540 543q0 -31 -30 -32v-471q0 -40 -40 -40h-70q-40 0 -40 40v260h-150v-260q0 -40 -40 -40h-70q-40 0 -40 40v471q-30 1 -30 32v36q0 30 30 32v69q0 40 40 40h70q40 0 40 -40v-69h150v69q0 40 40 40h70q40 0 40 -40v-69q30 -2 30 -32v-36zM360 440v71h-150v-71h150z" />
    <glyph glyph-name="hbar" unicode="&#x127;" 
d="M450 35q0 -35 -35 -35h-65q-35 0 -35 35v392q0 35 -35 35h-60q-35 0 -35 -35v-392q0 -35 -35 -35h-65q-35 0 -35 35v596q-30 1 -30 32v36q0 30 30 32q3 29 35 29h65q32 0 35 -29h133q32 0 32 -32v-36q0 -32 -32 -32h-133v-73l2 -1q26 23 71 23h57q135 0 135 -135v-410z
" />
    <glyph glyph-name="Itilde" unicode="&#x128;" horiz-adv-x="290" 
d="M296 860q0 -6 -1 -23.5t-7 -29.5q-7 -17 -24 -30q-9 -6 -20 -9.5t-28 -3.5q-14 0 -34 6t-40 20q-19 14 -37.5 21t-28.5 7q-18 0 -28.5 -6.5t-24.5 -21.5q-10 -11 -19.5 -6.5t-9.5 15.5v44q0 10 8 28q9 18 24 30q19 13 49 13q14 0 36.5 -8t44.5 -24q23 -16 35.5 -19
t22.5 -3q19 0 31 7.5t22 19.5q6 10 17.5 9.5t11.5 -17.5v-19zM220 40q0 -40 -40 -40h-70q-40 0 -40 40v640q0 40 40 40h70q40 0 40 -40v-640z" />
    <glyph glyph-name="itilde" unicode="&#x129;" horiz-adv-x="245" 
d="M273 719q0 -6 -1 -23t-7 -30q-5 -9 -10 -16t-14 -13q-17 -13 -48 -13q-14 0 -34 6t-40 20q-19 14 -37.5 21t-28.5 7q-18 0 -28.5 -6.5t-24.5 -21.5q-10 -11 -19.5 -6.5t-9.5 15.5v44q0 10 8 28q9 18 24 29q17 13 49 13q14 0 36.5 -8t44.5 -24q23 -16 35.5 -19t22.5 -3
q19 0 31 8t22 20q6 10 17.5 9.5t11.5 -17.5v-20zM190 35q0 -35 -35 -35h-65q-35 0 -35 35v510q0 35 35 35h65q35 0 35 -35v-510z" />
    <glyph glyph-name="Imacron" unicode="&#x12a;" horiz-adv-x="290" 
d="M310 805q0 -33 -32 -33h-266q-32 0 -32 33v35q0 32 32 32h266q32 0 32 -32v-35zM220 40q0 -40 -40 -40h-70q-40 0 -40 40v640q0 40 40 40h70q40 0 40 -40v-640z" />
    <glyph glyph-name="imacron" unicode="&#x12b;" horiz-adv-x="245" 
d="M287 663q0 -32 -32 -32h-266q-32 0 -32 32v36q0 32 32 32h266q32 0 32 -32v-36zM190 35q0 -35 -35 -35h-65q-35 0 -35 35v510q0 35 35 35h65q35 0 35 -35v-510z" />
    <glyph glyph-name="Ibreve" unicode="&#x12c;" horiz-adv-x="290" 
d="M320 859q0 -18 -15.5 -35t-40 -29.5t-56 -20.5t-63.5 -8t-63.5 8t-56.5 20.5t-40 29.5t-15 35v19q0 34 32 34q16 0 33.5 -10.5t31.5 -17.5q21 -11 39.5 -15t41.5 -4t41 5.5t38 16.5q13 6 30 15.5t31 9.5q18 0 25 -8.5t7 -25.5v-19zM220 40q0 -40 -40 -40h-70
q-40 0 -40 40v640q0 40 40 40h70q40 0 40 -40v-640z" />
    <glyph glyph-name="ibreve" unicode="&#x12d;" horiz-adv-x="245" 
d="M298 718q0 -18 -15.5 -35t-40.5 -30t-56.5 -21t-63.5 -8t-63.5 8t-56 21t-40 30t-15.5 35v18q0 17 7.5 25.5t25.5 8.5q16 0 33 -10t31 -18q21 -11 39.5 -15t41.5 -4t41.5 5.5t38.5 16.5q12 7 29 16t31 9q18 0 25.5 -8.5t7.5 -25.5v-18zM190 35q0 -35 -35 -35h-65
q-35 0 -35 35v510q0 35 35 35h65q35 0 35 -35v-510z" />
    <glyph glyph-name="Iogonek" unicode="&#x12e;" horiz-adv-x="290" 
d="M222 -195q0 -7 -0.5 -13t-6.5 -11q-14 -12 -33 -18.5t-45 -6.5q-56 0 -89 31t-33 75v16q0 17 4.5 32t14.5 29.5t26.5 29.5t40.5 32q-31 5 -31 39v640q0 40 40 40h70q40 0 40 -40v-640q0 -32 -26 -38q-24 -19 -39 -33t-23 -26t-11 -23t-3 -24v-11q0 -20 13 -33t30 -13
q11 0 22 1.5t19 4.5q20 8 20 -14v-26z" />
    <glyph glyph-name="iogonek" unicode="&#x12f;" horiz-adv-x="245" 
d="M190 665q0 -35 -35 -35h-65q-35 0 -35 35v60q0 35 35 35h65q35 0 35 -35v-60zM191 -195q0 -7 -0.5 -13t-6.5 -11q-14 -12 -33 -18.5t-45 -6.5q-56 0 -89 31t-33 75v16q0 35 19 62.5t70 62.5q-18 7 -18 32v510q0 35 35 35h65q35 0 35 -35v-510q0 -32 -29 -35
q-24 -19 -38.5 -32.5t-22.5 -25.5t-10.5 -22.5t-2.5 -23.5v-11q0 -20 13 -33t30 -13q11 0 22 1.5t19 4.5q20 8 20 -14v-26z" />
    <glyph glyph-name="Idotaccent" unicode="&#x130;" horiz-adv-x="340" 
d="M214 805q0 -35 -36 -35h-65q-36 0 -36 35v59q0 36 36 36h65q36 0 36 -36v-59zM220 40q0 -40 -40 -40h-70q-40 0 -40 40v640q0 40 40 40h70q40 0 40 -40v-640z" />
    <glyph glyph-name="dotlessi" unicode="&#x131;" horiz-adv-x="245" 
d="M190 35q0 -35 -35 -35h-65q-35 0 -35 35v510q0 35 35 35h65q35 0 35 -35v-510z" />
    <glyph glyph-name="IJ" unicode="&#x132;" horiz-adv-x="810" 
d="M750 150q0 -150 -150 -150h-150q-150 0 -150 150v30q0 40 40 40h65q18 0 26 -6.5t10.5 -15.5t3.5 -20.5t3.5 -20.5t10.5 -15.5t26 -6.5h75q40 0 40 39v506q0 40 40 40h70q40 0 40 -40v-530zM220 40q0 -40 -40 -40h-70q-40 0 -40 40v640q0 40 40 40h70q40 0 40 -40v-640z
" />
    <glyph glyph-name="ij" unicode="&#x133;" horiz-adv-x="480" 
d="M425 665q0 -35 -35 -35h-65q-35 0 -35 35v60q0 35 35 35h65q35 0 35 -35v-60zM190 665q0 -35 -35 -35h-65q-35 0 -35 35v60q0 35 35 35h65q35 0 35 -35v-60zM425 -45q0 -135 -136 -135h-63q-36 0 -36 36v48q0 36 36 36h29q35 0 35 36v569q0 35 35 35h65q35 0 35 -35v-590
zM190 35q0 -35 -35 -35h-65q-35 0 -35 35v510q0 35 35 35h65q35 0 35 -35v-510z" />
    <glyph glyph-name="Jcircumflex" unicode="&#x134;" horiz-adv-x="540" 
d="M558 794l-16 -15q-17 -17 -31.5 -13t-37.5 22l-72 59l-76 -62q-6 -5 -13 -10t-15 -8t-17 -1t-18 11l-14 13q-18 18 -12.5 36t21.5 30l85 67q14 11 28.5 17t31.5 6t32.5 -7.5t30.5 -18.5l80 -64q17 -13 21.5 -30.5t-8.5 -31.5zM480 150q0 -150 -150 -150h-150
q-150 0 -150 150v30q0 40 40 40h65q18 0 26 -6.5t10.5 -15.5t3.5 -20.5t3.5 -20.5t10.5 -15.5t26 -6.5h75q40 0 40 39v506q0 40 40 40h70q40 0 40 -40v-530z" />
    <glyph glyph-name="jcircumflex" unicode="&#x135;" horiz-adv-x="245" 
d="M277 653l-15 -16q-17 -17 -31.5 -12.5t-37.5 22.5l-72 58l-76 -61q-6 -5 -13 -10.5t-15 -8t-17 -1t-18 10.5l-14 14q-18 18 -12.5 35.5t21.5 30.5l85 66q14 11 28 17.5t32 6.5q17 0 32.5 -8t30.5 -19l80 -63q17 -13 21.5 -31t-9.5 -31zM190 -45q0 -135 -136 -135h-63
q-36 0 -36 36v48q0 36 36 36h29q35 0 35 36v569q0 35 35 35h65q35 0 35 -35v-590z" />
    <glyph glyph-name="Kcommacedilla" unicode="&#x136;" horiz-adv-x="575" 
d="M358 -128q0 -32 -11 -49l-54 -85q-18 -28 -45 -10h-1q-13 8 -16 19.5t6 25.5l30 46h-8q-36 0 -36 36v54q0 36 36 36h63q36 0 36 -36v-37zM545 22q0 -11 -8 -16.5t-18 -5.5h-92q-24 0 -35 10t-23 30l-159 262v-262q0 -40 -40 -40h-70q-40 0 -40 40v640q0 40 40 40h70
q40 0 40 -40v-242l159 242q12 19 23.5 29.5t34.5 10.5h92q11 0 18.5 -5t7.5 -16q0 -12 -6 -19l-209 -308l209 -332q2 -4 4 -8.5t2 -9.5z" />
    <glyph glyph-name="kcommacedilla" unicode="&#x137;" horiz-adv-x="510" 
d="M328 -128q0 -32 -11 -49l-54 -85q-18 -28 -45 -10h-1q-13 8 -16 19.5t6 25.5l30 46h-8q-36 0 -36 36v54q0 36 36 36h63q36 0 36 -36v-37zM480 19q0 -10 -7 -14.5t-16 -4.5h-88q-21 0 -31 9.5t-21 26.5l-132 197v-198q0 -35 -35 -35h-65q-35 0 -35 35v690q0 35 35 35h65
q35 0 35 -35v-370l132 189q11 17 21 26.5t31 9.5h88q9 0 16 -4t7 -15q0 -9 -5 -17l-181 -248l181 -260q5 -8 5 -17z" />
    <glyph glyph-name="kgreenlandic" unicode="&#x138;" horiz-adv-x="510" 
d="M480 19q0 -10 -7 -14.5t-16 -4.5h-88q-21 0 -31 9.5t-21 26.5l-132 197v-198q0 -35 -35 -35h-65q-35 0 -35 35v510q0 35 35 35h65q35 0 35 -35v-190l132 189q11 17 21 26.5t31 9.5h88q9 0 16 -4t7 -15q0 -9 -5 -17l-181 -248l181 -260q5 -8 5 -17z" />
    <glyph glyph-name="Lacute" unicode="&#x139;" horiz-adv-x="530" 
d="M346 969q9 -8 7 -19t-13 -19l-121 -93q-16 -12 -29.5 -16.5t-24.5 6.5l-11 11q-11 11 -7 23.5t15 29.5l88 128q8 11 18 12.5t18 -5.5zM495 40q0 -40 -40 -40h-355q-40 0 -40 41v639q0 40 40 40h70q40 0 40 -40v-540h245q40 0 40 -40v-60z" />
    <glyph glyph-name="lacute" unicode="&#x13a;" horiz-adv-x="245" 
d="M241 949q9 -8 7 -19t-13 -19l-121 -93q-16 -12 -29.5 -16.5t-24.5 6.5l-11 11q-11 11 -7 23.5t15 29.5l88 128q8 11 18 12.5t18 -5.5zM190 35q0 -35 -35 -35h-65q-35 0 -35 35v690q0 35 35 35h65q35 0 35 -35v-690z" />
    <glyph glyph-name="Lcommacedilla" unicode="&#x13b;" horiz-adv-x="530" 
d="M495 40q0 -40 -40 -40h-355q-40 0 -40 41v639q0 40 40 40h70q40 0 40 -40v-540h245q40 0 40 -40v-60zM351 -128q0 -32 -11 -49l-54 -85q-18 -28 -45 -10h-1q-13 8 -16 19.5t6 25.5l30 46h-8q-36 0 -36 36v54q0 36 36 36h63q36 0 36 -36v-37z" />
    <glyph glyph-name="lcommacedilla" unicode="&#x13c;" horiz-adv-x="250" 
d="M195 35q0 -35 -35 -35h-65q-35 0 -35 35v690q0 35 35 35h65q35 0 35 -35v-690zM191 -128q0 -32 -11 -49l-54 -85q-18 -28 -45 -10h-1q-27 17 -10 45l30 46h-8q-36 0 -36 36v54q0 36 36 36h63q36 0 36 -36v-37z" />
    <glyph glyph-name="Lcaron" unicode="&#x13d;" horiz-adv-x="530" 
d="M404 647q0 -32 -11 -49l-54 -85q-17 -28 -44 -11l-1 1q-29 18 -10 44l30 47h-9q-36 0 -36 36v54q0 36 36 36h63q36 0 36 -36v-37zM495 40q0 -40 -40 -40h-355q-40 0 -40 41v639q0 40 40 40h70q40 0 40 -40v-540h245q40 0 40 -40v-60z" />
    <glyph glyph-name="lcaron" unicode="&#x13e;" horiz-adv-x="391" 
d="M381 687q0 -32 -11 -49l-54 -85q-17 -28 -45 -10h-1q-27 17 -10 45l30 46h-8q-36 0 -36 36v54q0 36 36 36h63q36 0 36 -36v-37zM190 35q0 -35 -35 -35h-65q-35 0 -35 35v690q0 35 35 35h65q35 0 35 -35v-690z" />
    <glyph glyph-name="Ldot" unicode="&#x13f;" horiz-adv-x="530" 
d="M422 340q0 -35 -35 -35h-66q-35 0 -35 35v59q0 35 35 35h66q35 0 35 -35v-59zM495 40q0 -40 -40 -40h-355q-40 0 -40 41v639q0 40 40 40h70q40 0 40 -40v-540h245q40 0 40 -40v-60z" />
    <glyph glyph-name="ldot" unicode="&#x140;" horiz-adv-x="389" 
d="M378 340q0 -35 -35 -35h-66q-35 0 -35 35v59q0 35 35 35h66q35 0 35 -35v-59zM190 35q0 -35 -35 -35h-65q-35 0 -35 35v690q0 35 35 35h65q35 0 35 -35v-690z" />
    <glyph glyph-name="Lslash" unicode="&#x141;" horiz-adv-x="535" 
d="M500 40q0 -40 -40 -40h-355q-40 0 -40 41v242l-8 -3q-15 -5 -23.5 1t-8.5 21v46q0 15 8.5 21t23.5 11l8 3v297q0 40 40 40h70q40 0 40 -40v-244l68 24q32 11 32 -22v-46q0 -15 -8.5 -21t-23.5 -11l-68 -24v-196h245q40 0 40 -40v-60z" />
    <glyph glyph-name="lslash" unicode="&#x142;" horiz-adv-x="255" 
d="M240 387q0 -16 -8.5 -21.5t-23.5 -10.5l-13 -5v-315q0 -35 -35 -35h-65q-35 0 -35 35v268l-13 -5q-14 -5 -23 1t-9 21v46q0 15 9 21t23 11l13 5v322q0 35 35 35h65q35 0 35 -35v-275l13 5q14 5 23 -1t9 -21v-46z" />
    <glyph glyph-name="Nacute" unicode="&#x143;" horiz-adv-x="570" 
d="M404 913q8 -8 6.5 -19t-12.5 -19l-122 -93q-15 -12 -28.5 -16.5t-24.5 6.5l-12 11q-11 11 -7 24t15 29l88 128q8 11 18.5 12.5t18.5 -5.5zM510 40q0 -40 -40 -40h-70q-28 0 -36 19l-154 355v-334q0 -40 -40 -40h-70q-40 0 -40 40v640q0 40 40 40h70q28 0 36 -20l154 -353
v333q0 40 40 40h70q40 0 40 -40v-640z" />
    <glyph glyph-name="nacute" unicode="&#x144;" 
d="M375 772q9 -8 7 -19t-13 -19l-121 -93q-16 -12 -29.5 -16.5t-24.5 6.5l-11 11q-11 11 -7 23.5t15 29.5l88 128q8 11 18 12.5t18 -5.5zM450 35q0 -35 -35 -35h-65q-35 0 -35 35v392q0 35 -35 35h-60q-35 0 -35 -35v-392q0 -35 -35 -35h-65q-35 0 -35 35v510q0 35 35 35h65
q35 0 35 -35v-3l2 -1q23 39 78 39h50q135 0 135 -135v-410z" />
    <glyph glyph-name="Ncommacedilla" unicode="&#x145;" horiz-adv-x="570" 
d="M510 40q0 -40 -40 -40h-70q-28 0 -36 19l-154 355v-334q0 -40 -40 -40h-70q-40 0 -40 40v640q0 40 40 40h70q28 0 36 -20l154 -353v333q0 40 40 40h70q40 0 40 -40v-640zM353 -128q0 -32 -11 -49l-54 -85q-18 -28 -45 -10h-1q-27 17 -10 45l30 46h-8q-36 0 -36 36v54
q0 36 36 36h63q36 0 36 -36v-37z" />
    <glyph glyph-name="ncommacedilla" unicode="&#x146;" 
d="M450 35q0 -35 -35 -35h-65q-35 0 -35 35v392q0 35 -35 35h-60q-35 0 -35 -35v-392q0 -35 -35 -35h-65q-35 0 -35 35v510q0 35 35 35h65q35 0 35 -35v-3l2 -1q23 39 78 39h50q135 0 135 -135v-410zM319 -128q0 -32 -11 -49l-54 -85q-18 -28 -45 -10h-1q-27 17 -10 45
l30 46h-8q-36 0 -36 36v54q0 36 36 36h63q36 0 36 -36v-37z" />
    <glyph glyph-name="Ncaron" unicode="&#x147;" horiz-adv-x="570" 
d="M438 921q18 -18 12.5 -36t-21.5 -30l-85 -66q-14 -11 -28 -17.5t-32 -6.5q-17 0 -32.5 7.5t-30.5 19.5l-80 63q-16 13 -21 30.5t9 31.5l15 16q17 17 32 12.5t37 -22.5l72 -59l76 62q6 4 13 9.5t15 8.5t17 1t18 -11zM510 40q0 -40 -40 -40h-70q-28 0 -36 19l-154 355v-334
q0 -40 -40 -40h-70q-40 0 -40 40v640q0 40 40 40h70q28 0 36 -20l154 -353v333q0 40 40 40h70q40 0 40 -40v-640z" />
    <glyph glyph-name="ncaron" unicode="&#x148;" 
d="M409 780q18 -18 12.5 -36t-21.5 -30l-85 -67q-14 -11 -28 -17t-32 -6q-17 0 -32.5 7.5t-30.5 18.5l-80 64q-17 13 -21.5 30.5t9.5 31.5l15 15q17 17 32 13t37 -22l72 -59l76 62q6 4 13 9.5t15 8.5t17 1t18 -11zM450 35q0 -35 -35 -35h-65q-35 0 -35 35v392q0 35 -35 35
h-60q-35 0 -35 -35v-392q0 -35 -35 -35h-65q-35 0 -35 35v510q0 35 35 35h65q35 0 35 -35v-3l2 -1q23 39 78 39h50q135 0 135 -135v-410z" />
    <glyph glyph-name="napostrophe" unicode="&#x149;" horiz-adv-x="609" 
d="M135 646q0 -31 -11 -48l-54 -86q-17 -28 -44 -10h-1q-27 18 -11 45l31 46h-9q-36 0 -36 36v54q0 36 36 36h63q36 0 36 -36v-37zM559 35q0 -35 -35 -35h-65q-35 0 -35 35v392q0 35 -35 35h-60q-35 0 -35 -35v-392q0 -35 -35 -35h-65q-35 0 -35 35v510q0 35 35 35h65
q35 0 35 -35v-3l2 -1q23 39 78 39h50q135 0 135 -135v-410z" />
    <glyph glyph-name="Eng" unicode="&#x14a;" horiz-adv-x="570" 
d="M510 36v-113q0 -26 -11 -48t-29.5 -39t-43 -26.5t-52.5 -9.5q-26 0 -50.5 9.5t-43.5 26t-30.5 38.5t-11.5 48v3q1 37 22 37h59q8 0 15 -5.5t7 -16.5v-4q0 -12 4 -19t9.5 -11t10.5 -5.5t8 -1.5q4 0 9.5 1.5t10.5 5.5t9 11.5t4 20.5l1 62h-7q-28 0 -36 19l-154 355v-334
q0 -40 -40 -40h-70q-40 0 -40 40v640q0 40 40 40h70q28 0 36 -20l154 -353v333q0 40 40 40h70q40 0 40 -40v-640v-4z" />
    <glyph glyph-name="eng" unicode="&#x14b;" 
d="M450 36v-113q0 -26 -11 -48t-29.5 -39t-43 -26.5t-52.5 -9.5q-26 0 -50.5 9.5t-43.5 26t-30.5 38.5t-11.5 48v3q1 37 22 37h59q8 0 15 -5.5t7 -16.5v-4q0 -12 4 -19t9.5 -11t10.5 -5.5t8 -1.5q4 0 9.5 1.5t10.5 5.5t9 11.5t4 20.5l1 62q-32 2 -32 35v392q0 35 -35 35h-60
q-35 0 -35 -35v-392q0 -35 -35 -35h-65q-35 0 -35 35v510q0 35 35 35h65q35 0 35 -35v-3l2 -1q23 39 78 39h50q135 0 135 -135v-409z" />
    <glyph glyph-name="Omacron" unicode="&#x14c;" horiz-adv-x="570" 
d="M451 805q0 -33 -32 -33h-266q-32 0 -32 33v35q0 32 32 32h266q32 0 32 -32v-35zM510 150q0 -150 -150 -150h-150q-150 0 -150 150v420q0 150 150 150h150q150 0 150 -150v-420zM360 175v370q0 40 -40 40h-70q-40 0 -40 -40v-370q0 -40 40 -40h70q40 0 40 40z" />
    <glyph glyph-name="omacron" unicode="&#x14d;" 
d="M413 663q0 -32 -32 -32h-266q-32 0 -32 32v36q0 32 32 32h266q32 0 32 -32v-36zM450 135q0 -135 -135 -135h-130q-135 0 -135 135v310q0 135 135 135h130q135 0 135 -135v-310zM316 152v275q0 37 -36 37h-59q-36 0 -36 -36v-277q0 -35 36 -35h59q36 0 36 36z" />
    <glyph glyph-name="Obreve" unicode="&#x14e;" horiz-adv-x="570" 
d="M458 858q0 -18 -15.5 -35t-40 -29.5t-56 -20.5t-63.5 -8t-63.5 8t-56.5 20.5t-40 29.5t-15 35v19q0 34 32 34q16 0 33.5 -10.5t31.5 -17.5q21 -11 39.5 -15t41.5 -4t41 5.5t38 16.5q13 6 30 15.5t31 9.5q18 0 25 -8.5t7 -25.5v-19zM510 150q0 -150 -150 -150h-150
q-150 0 -150 150v420q0 150 150 150h150q150 0 150 -150v-420zM360 175v370q0 40 -40 40h-70q-40 0 -40 -40v-370q0 -40 40 -40h70q40 0 40 40z" />
    <glyph glyph-name="obreve" unicode="&#x14f;" 
d="M426 718q0 -18 -15.5 -35t-40.5 -30t-56.5 -21t-63.5 -8t-63.5 8t-56 21t-40 30t-15.5 35v18q0 17 7.5 25.5t25.5 8.5q16 0 33 -10t31 -18q21 -11 39.5 -15t41.5 -4t41.5 5.5t38.5 16.5q12 7 29 16t31 9q18 0 25.5 -8.5t7.5 -25.5v-18zM450 135q0 -135 -135 -135h-130
q-135 0 -135 135v310q0 135 135 135h130q135 0 135 -135v-310zM316 152v275q0 37 -36 37h-59q-36 0 -36 -36v-277q0 -35 36 -35h59q36 0 36 36z" />
    <glyph glyph-name="Ohungarumlaut" unicode="&#x150;" horiz-adv-x="570" 
d="M487 889l-79 -101q-11 -14 -22 -20.5t-23 1.5l-12 8q-12 8 -11.5 20t8.5 28l60 116q6 11 14.5 14t16.5 -2l47 -29q9 -5 9 -15t-8 -20zM337 889l-79 -101q-11 -14 -22 -20.5t-23 1.5l-12 8q-12 8 -11.5 20t8.5 28l60 116q6 11 14.5 14t16.5 -2l47 -29q9 -5 9 -15t-8 -20z
M510 150q0 -150 -150 -150h-150q-150 0 -150 150v420q0 150 150 150h150q150 0 150 -150v-420zM360 175v370q0 40 -40 40h-70q-40 0 -40 -40v-370q0 -40 40 -40h70q40 0 40 40z" />
    <glyph glyph-name="ohungarumlaut" unicode="&#x151;" 
d="M428 747l-79 -101q-11 -14 -22 -20.5t-23 1.5l-12 8q-12 8 -11.5 20t8.5 28l60 116q6 11 14.5 14t16.5 -2l47 -29q9 -5 9 -15t-8 -20zM278 747l-79 -101q-11 -14 -22 -20.5t-23 1.5l-12 8q-12 8 -11.5 20t8.5 28l60 116q6 11 14.5 14t16.5 -2l47 -29q9 -5 9 -15t-8 -20z
M450 135q0 -135 -135 -135h-130q-135 0 -135 135v310q0 135 135 135h130q135 0 135 -135v-310zM316 152v275q0 37 -36 37h-59q-36 0 -36 -36v-277q0 -35 36 -35h59q36 0 36 36z" />
    <glyph glyph-name="OE" unicode="&#x152;" horiz-adv-x="825" 
d="M780 40q0 -40 -40 -40h-310q-17 0 -24.5 4t-14.5 9q-6 -5 -15 -9t-26 -4h-140q-150 0 -150 150v420q0 150 150 150h140q17 0 25 -4t16 -9q5 5 11.5 9t17.5 4h320q40 0 40 -40v-60q0 -18 -10.5 -29t-29.5 -11l-240 -1v-139h190q40 0 40 -40v-60q0 -40 -40 -40h-190v-160
h240q40 0 40 -40v-60zM360 175v370q0 40 -40 40h-70q-40 0 -40 -40v-370q0 -40 40 -40h70q40 0 40 40z" />
    <glyph glyph-name="oe" unicode="&#x153;" horiz-adv-x="765" 
d="M715 283q0 -35 -35 -35h-232v-96q0 -17 9.5 -26.5t26.5 -9.5h55q35 0 35 36l1 2q0 17 9.5 26.5t26.5 9.5h58q36 0 36 -36v-19q0 -135 -135 -135h-120q-21 0 -37 5.5t-30 16.5q-27 -22 -68 -22h-130q-135 0 -135 135v310q0 135 135 135h130q21 0 38.5 -6.5t29.5 -15.5
q24 20 67 22h130q135 0 135 -136v-161zM580 359v69q0 17 -10 26.5t-25 9.5h-62q-35 0 -35 -35v-70h132zM316 152v275q0 37 -36 37h-59q-36 0 -36 -36v-277q0 -35 36 -35h59q36 0 36 36z" />
    <glyph glyph-name="Racute" unicode="&#x154;" horiz-adv-x="570" 
d="M404 913q9 -8 7 -19t-13 -19l-121 -93q-16 -12 -29.5 -16.5t-24.5 6.5l-11 11q-11 11 -7 23.5t15 29.5l88 128q8 11 18 12.5t18 -5.5zM555 22q0 -11 -8 -16.5t-18 -5.5h-82q-24 0 -35 10t-23 30l-163 260h-16v-260q0 -40 -40 -40h-70q-40 0 -40 40v640q0 40 40 40h261
q150 0 150 -150v-120q0 -140 -130 -149l168 -261q6 -8 6 -18zM361 475v69q0 19 -10.5 30t-29.5 11h-111v-150h111q40 0 40 40z" />
    <glyph glyph-name="racute" unicode="&#x155;" horiz-adv-x="370" 
d="M313 772q9 -8 7 -19t-13 -19l-121 -93q-16 -12 -29.5 -16.5t-24.5 6.5l-11 11q-11 11 -7 23.5t15 29.5l88 128q8 11 18 12.5t18 -5.5zM360 495q0 -35 -35 -35h-105q-35 0 -35 -35v-390q0 -35 -35 -35h-65q-35 0 -35 35v510q0 35 35 35h65q35 0 35 -35v-3l2 -1
q23 39 78 39h60q35 0 35 -35v-50z" />
    <glyph glyph-name="Rcommacedilla" unicode="&#x156;" horiz-adv-x="570" 
d="M555 22q0 -11 -8 -16.5t-18 -5.5h-82q-24 0 -35 10t-23 30l-163 260h-16v-260q0 -40 -40 -40h-70q-40 0 -40 40v640q0 40 40 40h261q150 0 150 -150v-120q0 -140 -130 -149l168 -261q6 -8 6 -18zM358 -128q0 -32 -11 -49l-54 -85q-18 -28 -45 -10h-1q-27 17 -10 45l30 46
h-8q-36 0 -36 36v54q0 36 36 36h63q36 0 36 -36v-37zM361 475v69q0 19 -10.5 30t-29.5 11h-111v-150h111q40 0 40 40z" />
    <glyph glyph-name="rcommacedilla" unicode="&#x157;" horiz-adv-x="370" 
d="M360 495q0 -35 -35 -35h-105q-35 0 -35 -35v-390q0 -35 -35 -35h-65q-35 0 -35 35v510q0 35 35 35h65q35 0 35 -35v-3l2 -1q23 39 78 39h60q35 0 35 -35v-50zM258 -128q0 -32 -11 -49l-54 -85q-18 -28 -45 -10h-1q-27 17 -10 45l30 46h-8q-36 0 -36 36v54q0 36 36 36h63
q36 0 36 -36v-37z" />
    <glyph glyph-name="Rcaron" unicode="&#x158;" horiz-adv-x="570" 
d="M438 921q18 -18 12.5 -35.5t-21.5 -30.5l-85 -66q-14 -11 -28 -17.5t-32 -6.5q-17 0 -32.5 8t-30.5 19l-80 63q-16 13 -21 31t9 31l15 16q17 17 32 12.5t37 -22.5l72 -58l76 61q6 5 13 10.5t15.5 8t17 1t17.5 -10.5zM555 22q0 -11 -8 -16.5t-18 -5.5h-82q-24 0 -35 10
t-23 30l-163 260h-16v-260q0 -40 -40 -40h-70q-40 0 -40 40v640q0 40 40 40h261q150 0 150 -150v-120q0 -140 -130 -149l168 -261q6 -8 6 -18zM361 475v69q0 19 -10.5 30t-29.5 11h-111v-150h111q40 0 40 40z" />
    <glyph glyph-name="rcaron" unicode="&#x159;" horiz-adv-x="370" 
d="M364 780q18 -18 12.5 -36t-21.5 -30l-85 -67q-14 -11 -28 -17t-32 -6q-17 0 -32.5 7.5t-30.5 18.5l-80 64q-17 13 -21.5 30.5t9.5 31.5l15 15q17 17 32 13t37 -22l72 -59l76 62q6 4 13 9.5t15 8.5t17 1t18 -11zM360 495q0 -35 -35 -35h-105q-35 0 -35 -35v-390
q0 -35 -35 -35h-65q-35 0 -35 35v510q0 35 35 35h65q35 0 35 -35v-3l2 -1q23 39 78 39h60q35 0 35 -35v-50z" />
    <glyph glyph-name="Sacute" unicode="&#x15a;" horiz-adv-x="570" 
d="M405 913q8 -8 6 -19t-13 -19l-121 -93q-16 -12 -29 -17t-24 6l-12 11q-11 11 -7 24t15 30l88 127q8 11 18.5 12.5t17.5 -5.5zM510 150q0 -151 -149 -150h-246q-40 0 -40 40v60q0 40 40 40h210q35 0 35 40v34q0 17 -9 29t-33 21l-132 50q-37 14 -61.5 30.5t-38.5 38.5
t-20 50t-6 65v72q0 150 150 150h150q150 0 150 -150v-30q0 -40 -40 -40h-65q-40 0 -40 40v5q0 40 -40 40h-75q-40 0 -40 -40v-45q0 -23 9.5 -37.5t36.5 -25.5l130 -50q63 -24 93.5 -65t30.5 -111v-61z" />
    <glyph glyph-name="sacute" unicode="&#x15b;" horiz-adv-x="495" 
d="M370 772q9 -8 7 -19t-13 -19l-121 -93q-16 -12 -29.5 -16.5t-24.5 6.5l-11 11q-11 11 -7 23.5t15 29.5l88 128q8 11 18 12.5t18 -5.5zM445 135q0 -135 -135 -135h-216q-36 0 -36 36v48q0 36 36 36h185q15 0 23.5 9.5t8.5 26.5v11q0 16 -8 25.5t-31 17.5l-107 41
q-34 13 -57 27t-37 32.5t-20 42t-6 54.5v38q0 135 135 135h130q69 0 102 -31t33 -99v-25q0 -36 -36 -36h-58q-36 0 -36 36l-1 2q0 36 -35 36h-63q-17 0 -26.5 -11.5t-9.5 -29.5v-22q0 -17 9.5 -29t26.5 -18l105 -40q36 -14 59.5 -29t38 -34t20.5 -43t6 -55v-17z" />
    <glyph glyph-name="Scircumflex" unicode="&#x15c;" horiz-adv-x="570" 
d="M443 795l-15 -16q-17 -17 -32 -12.5t-37 22.5l-72 58l-76 -61q-6 -5 -13 -10.5t-15.5 -8t-17.5 -1t-18 10.5l-13 14q-18 18 -12.5 35.5t20.5 30.5l85 66q14 11 28.5 17.5t31.5 6.5q18 0 33.5 -8t29.5 -19l81 -63q16 -13 21 -31t-9 -31zM510 150q0 -151 -149 -150h-246
q-40 0 -40 40v60q0 40 40 40h210q35 0 35 40v34q0 17 -9 29t-33 21l-132 50q-37 14 -61.5 30.5t-38.5 38.5t-20 50t-6 65v72q0 150 150 150h150q150 0 150 -150v-30q0 -40 -40 -40h-65q-40 0 -40 40v5q0 40 -40 40h-75q-40 0 -40 -40v-45q0 -23 9.5 -37.5t36.5 -25.5
l130 -50q63 -24 93.5 -65t30.5 -111v-61z" />
    <glyph glyph-name="scircumflex" unicode="&#x15d;" horiz-adv-x="495" 
d="M411 653l-15 -16q-17 -17 -31.5 -12.5t-37.5 22.5l-72 58l-76 -61q-6 -5 -13 -10.5t-15 -8t-17 -1t-18 10.5l-14 14q-18 18 -12.5 35.5t21.5 30.5l85 66q14 11 28 17.5t32 6.5q17 0 32.5 -8t30.5 -19l80 -63q17 -13 21.5 -31t-9.5 -31zM445 135q0 -135 -135 -135h-216
q-36 0 -36 36v48q0 36 36 36h185q15 0 23.5 9.5t8.5 26.5v11q0 16 -8 25.5t-31 17.5l-107 41q-34 13 -57 27t-37 32.5t-20 42t-6 54.5v38q0 135 135 135h130q69 0 102 -31t33 -99v-25q0 -36 -36 -36h-58q-36 0 -36 36l-1 2q0 36 -35 36h-63q-17 0 -26.5 -11.5t-9.5 -29.5
v-22q0 -17 9.5 -29t26.5 -18l105 -40q36 -14 59.5 -29t38 -34t20.5 -43t6 -55v-17z" />
    <glyph glyph-name="Scedilla" unicode="&#x15e;" horiz-adv-x="570" 
d="M510 150q0 -151 -149 -150h-55v-34q0 -19 15 -22l24 -4q42 -8 41 -63l-1 -40q-1 -38 -27.5 -51.5t-64.5 -13.5h-22.5h-14.5h-11.5h-11.5q-17 1 -24.5 8.5t-7.5 15.5v20q0 6 5 15t23 10l36 1q14 0 21 6.5t7 17.5v7q0 11 -4.5 17t-17.5 8l-25 2q-14 2 -20 16t-6 37l1 47
h-106q-40 0 -40 40v60q0 40 40 40h210q35 0 35 40v34q0 17 -9 29t-33 21l-132 50q-37 14 -61.5 30.5t-38.5 38.5t-20 50t-6 65v72q0 150 150 150h150q150 0 150 -150v-30q0 -40 -40 -40h-65q-40 0 -40 40v5q0 40 -40 40h-75q-40 0 -40 -40v-45q0 -23 9.5 -37.5t36.5 -25.5
l130 -50q63 -24 93.5 -65t30.5 -111v-61z" />
    <glyph glyph-name="scedilla" unicode="&#x15f;" horiz-adv-x="495" 
d="M445 135q0 -135 -135 -135h-43v-34q0 -19 15 -22l24 -4q42 -8 41 -63l-1 -40q-1 -38 -27.5 -51.5t-64.5 -13.5h-22.5h-14.5h-11.5h-11.5q-17 1 -24.5 8.5t-7.5 15.5v20q0 6 5 15t23 10l36 1q14 0 21 6.5t7 17.5v7q0 11 -4.5 17t-17.5 8l-25 2q-14 2 -20 16t-6 37l1 47
h-88q-36 0 -36 36v48q0 36 36 36h185q15 0 23.5 9.5t8.5 26.5v11q0 16 -8 25.5t-31 17.5l-107 41q-34 13 -57 27t-37 32.5t-20 42t-6 54.5v38q0 135 135 135h130q69 0 102 -31t33 -99v-25q0 -36 -36 -36h-58q-36 0 -36 36l-1 2q0 36 -35 36h-63q-17 0 -26.5 -11.5
t-9.5 -29.5v-22q0 -17 9.5 -29t26.5 -18l105 -40q36 -14 59.5 -29t38 -34t20.5 -43t6 -55v-17z" />
    <glyph glyph-name="Scaron" unicode="&#x160;" horiz-adv-x="570" 
d="M438 920q18 -18 12.5 -36t-20.5 -30l-85 -67q-14 -11 -28.5 -17t-31.5 -6q-18 0 -33.5 7.5t-29.5 18.5l-81 63q-16 13 -21 31t9 32l15 15q17 17 32 13t37 -22l72 -59l76 62q6 4 13 9.5t15.5 8.5t17.5 1t18 -11zM510 150q0 -151 -149 -150h-246q-40 0 -40 40v60
q0 40 40 40h210q35 0 35 40v34q0 17 -9 29t-33 21l-132 50q-37 14 -61.5 30.5t-38.5 38.5t-20 50t-6 65v72q0 150 150 150h150q150 0 150 -150v-30q0 -40 -40 -40h-65q-40 0 -40 40v5q0 40 -40 40h-75q-40 0 -40 -40v-45q0 -23 9.5 -37.5t36.5 -25.5l130 -50
q63 -24 93.5 -65t30.5 -111v-61z" />
    <glyph glyph-name="scaron" unicode="&#x161;" horiz-adv-x="495" 
d="M400 780q18 -18 12.5 -36t-21.5 -30l-85 -67q-14 -11 -28 -17t-32 -6q-17 0 -32.5 7.5t-30.5 18.5l-80 64q-17 13 -21.5 30.5t9.5 31.5l15 15q17 17 32 13t37 -22l72 -59l76 62q6 4 13 9.5t15 8.5t17 1t18 -11zM445 135q0 -135 -135 -135h-216q-36 0 -36 36v48
q0 36 36 36h185q15 0 23.5 9.5t8.5 26.5v11q0 16 -8 25.5t-31 17.5l-107 41q-34 13 -57 27t-37 32.5t-20 42t-6 54.5v38q0 135 135 135h130q69 0 102 -31t33 -99v-25q0 -36 -36 -36h-58q-36 0 -36 36l-1 2q0 36 -35 36h-63q-17 0 -26.5 -11.5t-9.5 -29.5v-22q0 -17 9.5 -29
t26.5 -18l105 -40q36 -14 59.5 -29t38 -34t20.5 -43t6 -55v-17z" />
    <glyph glyph-name="Tcedilla" unicode="&#x162;" horiz-adv-x="530" 
d="M500 620q0 -40 -40 -40h-120v-540q0 -40 -40 -40h-4v-34q0 -19 15 -22l24 -4q42 -8 41 -63l-1 -40q-1 -38 -27.5 -51.5t-64.5 -13.5h-22.5h-14.5h-11.5h-11.5q-17 1 -24.5 8.5t-7.5 15.5v20q0 6 5 15t23 10l36 1q14 0 21 6.5t7 17.5v7q0 11 -4.5 17t-17.5 8l-25 2
q-14 2 -20 16t-6 37l1 50q-21 9 -21 37v540h-120q-40 0 -40 40v60q0 40 40 40h390q40 0 40 -40v-60z" />
    <glyph glyph-name="tcedilla" unicode="&#x163;" horiz-adv-x="325" 
d="M300 36q0 -36 -36 -36h-63h-13v-34q0 -19 15 -22l24 -4q42 -8 41 -63l-1 -40q-1 -38 -27.5 -51.5t-64.5 -13.5h-22.5h-14.5h-11.5h-11.5q-17 1 -24.5 8.5t-7.5 15.5v20q0 6 5 15t23 10l36 1q14 0 21 6.5t7 17.5v7q0 11 -4.5 17t-17.5 8l-25 2q-14 2 -20 16t-6 37l1 60
q0 7 4 13q-42 33 -42 109v315h-4q-17 0 -26.5 9.5t-9.5 26.5v48q0 36 36 36h4v100q0 35 35 35h65q35 0 35 -35v-100h55q35 0 35 -35v-50q0 -35 -35 -35h-55v-294q0 -36 35 -36h29q36 0 36 -36v-48z" />
    <glyph glyph-name="Tcaron" unicode="&#x164;" horiz-adv-x="530" 
d="M420 920q18 -18 12.5 -35.5t-21.5 -30.5l-85 -66q-14 -11 -28 -17.5t-32 -6.5q-17 0 -32.5 8t-30.5 19l-80 63q-16 13 -21 31t9 31l15 16q17 17 32 12.5t37 -22.5l72 -58l76 61q6 5 13 10.5t15.5 8t17 1t17.5 -10.5zM500 620q0 -40 -40 -40h-120v-540q0 -40 -40 -40h-70
q-40 0 -40 40v540h-120q-40 0 -40 40v60q0 40 40 40h390q40 0 40 -40v-60z" />
    <glyph glyph-name="tcaron" unicode="&#x165;" horiz-adv-x="422" 
d="M407 787q0 -31 -11 -48l-54 -86q-17 -26 -44 -10h-1q-28 19 -10 45l30 46h-9q-36 0 -36 36v54q0 36 36 36h63q36 0 36 -36v-37zM305 36q0 -36 -36 -36h-63q-136 0 -136 135v315h-4q-17 0 -26.5 9.5t-9.5 26.5v48q0 36 36 36h4v100q0 35 35 35h65q35 0 35 -35v-100h55
q35 0 35 -35v-50q0 -35 -35 -35h-55v-294q0 -36 35 -36h29q36 0 36 -36v-48z" />
    <glyph glyph-name="Tbar" unicode="&#x166;" horiz-adv-x="530" 
d="M500 620q0 -40 -40 -40h-120v-89h108q32 0 32 -32v-44q0 -32 -32 -32h-108v-343q0 -40 -40 -40h-70q-40 0 -40 40v343h-108q-32 0 -32 32v44q0 32 32 32h108v89h-120q-40 0 -40 40v60q0 40 40 40h390q40 0 40 -40v-60z" />
    <glyph glyph-name="tbar" unicode="&#x167;" horiz-adv-x="329" 
d="M304 36q0 -36 -36 -36h-63q-136 0 -136 135v130h-12q-32 0 -32 32v42q0 32 32 32h12v79h-4q-17 0 -26.5 9.5t-9.5 26.5v48q0 36 36 36h4v100q0 35 35 35h65q35 0 35 -35v-100h55q35 0 35 -35v-50q0 -35 -35 -35h-55v-79h52q32 0 32 -32v-42q0 -32 -32 -32h-52v-109
q0 -36 35 -36h29q36 0 36 -36v-48z" />
    <glyph glyph-name="Utilde" unicode="&#x168;" horiz-adv-x="570" 
d="M435 860q0 -6 -1 -23.5t-7 -29.5q-7 -17 -24 -30q-9 -6 -20 -9.5t-28 -3.5q-14 0 -34 6t-40 20q-19 14 -37.5 21t-28.5 7q-18 0 -28.5 -6.5t-24.5 -21.5q-10 -11 -19.5 -6.5t-9.5 15.5v44q0 10 8 28q9 18 24 30q19 13 49 13q14 0 36.5 -8t44.5 -24q23 -16 35.5 -19
t22.5 -3q19 0 31 7.5t22 19.5q6 10 17.5 9.5t11.5 -17.5v-19zM510 150q0 -150 -150 -150h-150q-150 0 -150 150v530q0 40 40 40h70q40 0 40 -40v-505q0 -40 40 -40h70q40 0 40 40v505q0 40 40 40h70q40 0 40 -40v-530z" />
    <glyph glyph-name="utilde" unicode="&#x169;" 
d="M401 719q0 -6 -1 -23t-7 -30q-5 -9 -10 -16t-14 -13q-17 -13 -48 -13q-14 0 -34 6t-40 20q-19 14 -37.5 21t-28.5 7q-18 0 -28.5 -6.5t-24.5 -21.5q-10 -11 -19.5 -6.5t-9.5 15.5v44q0 10 8 28q9 18 24 29q17 13 49 13q14 0 36.5 -8t44.5 -24q23 -16 35.5 -19t22.5 -3
q19 0 31 8t22 20q6 10 17.5 9.5t11.5 -17.5v-20zM450 35q0 -35 -35 -35h-65q-35 0 -35 35v3l-2 1q-23 -39 -78 -39h-50q-135 0 -135 135v410q0 35 35 35h65q35 0 35 -35v-392q0 -35 36 -35h59q35 0 35 35v392q0 35 35 35h65q35 0 35 -35v-510z" />
    <glyph glyph-name="Umacron" unicode="&#x16a;" horiz-adv-x="570" 
d="M453 805q0 -33 -32 -33h-266q-32 0 -32 33v35q0 32 32 32h266q32 0 32 -32v-35zM510 150q0 -150 -150 -150h-150q-150 0 -150 150v530q0 40 40 40h70q40 0 40 -40v-505q0 -40 40 -40h70q40 0 40 40v505q0 40 40 40h70q40 0 40 -40v-530z" />
    <glyph glyph-name="umacron" unicode="&#x16b;" 
d="M421 663q0 -32 -32 -32h-266q-32 0 -32 32v36q0 32 32 32h266q32 0 32 -32v-36zM450 35q0 -35 -35 -35h-65q-35 0 -35 35v3l-2 1q-23 -39 -78 -39h-50q-135 0 -135 135v410q0 35 35 35h65q35 0 35 -35v-392q0 -35 36 -35h59q35 0 35 35v392q0 35 35 35h65q35 0 35 -35
v-510z" />
    <glyph glyph-name="Ubreve" unicode="&#x16c;" horiz-adv-x="570" 
d="M459 859q0 -18 -15.5 -35t-40 -29.5t-56 -20.5t-63.5 -8t-63.5 8t-56.5 20.5t-40 29.5t-15 35v19q0 34 32 34q16 0 33.5 -10.5t31.5 -17.5q21 -11 39.5 -15t41.5 -4t41 5.5t38 16.5q13 6 30 15.5t31 9.5q18 0 25 -8.5t7 -25.5v-19zM510 150q0 -150 -150 -150h-150
q-150 0 -150 150v530q0 40 40 40h70q40 0 40 -40v-505q0 -40 40 -40h70q40 0 40 40v505q0 40 40 40h70q40 0 40 -40v-530z" />
    <glyph glyph-name="ubreve" unicode="&#x16d;" 
d="M424 718q0 -18 -15.5 -35t-40.5 -30t-56.5 -21t-63.5 -8t-63.5 8t-56 21t-40 30t-15.5 35v18q0 17 7.5 25.5t25.5 8.5q16 0 33 -10t31 -18q21 -11 39.5 -15t41.5 -4t41.5 5.5t38.5 16.5q12 7 29 16t31 9q18 0 25.5 -8.5t7.5 -25.5v-18zM450 35q0 -35 -35 -35h-65
q-35 0 -35 35v3l-2 1q-23 -39 -78 -39h-50q-135 0 -135 135v410q0 35 35 35h65q35 0 35 -35v-392q0 -35 36 -35h59q35 0 35 35v392q0 35 35 35h65q35 0 35 -35v-510z" />
    <glyph glyph-name="Uring" unicode="&#x16e;" horiz-adv-x="570" 
d="M399 840q0 -35 -20 -55t-55 -20h-75q-35 0 -55 20t-20 55v76q0 35 20 55t55 20h75q35 0 55 -20t20 -55v-76zM510 150q0 -150 -150 -150h-150q-150 0 -150 150v530q0 40 40 40h70q40 0 40 -40v-505q0 -40 40 -40h70q40 0 40 40v505q0 40 40 40h70q40 0 40 -40v-530z
M333 860v35q0 29 -29 29h-35q-29 0 -29 -29v-35q0 -28 29 -28h35q29 0 29 28z" />
    <glyph glyph-name="uring" unicode="&#x16f;" 
d="M362 708q0 -35 -20 -55t-55 -20h-76q-35 0 -55 20t-20 55v76q0 35 20 55t55 20h76q35 0 55 -20t20 -55v-76zM450 35q0 -35 -35 -35h-65q-35 0 -35 35v3l-2 1q-23 -39 -78 -39h-50q-135 0 -135 135v410q0 35 35 35h65q35 0 35 -35v-392q0 -35 36 -35h59q35 0 35 35v392
q0 35 35 35h65q35 0 35 -35v-510zM295 728v36q0 28 -28 28h-36q-28 0 -28 -28v-36q0 -28 28 -28h36q28 0 28 28z" />
    <glyph glyph-name="Uhungarumlaut" unicode="&#x170;" horiz-adv-x="570" 
d="M482 890l-79 -102q-11 -14 -22.5 -20t-22.5 2l-13 7q-12 8 -11 20.5t9 28.5l60 116q5 11 14 14t17 -2l47 -29q8 -6 8.5 -16t-7.5 -19zM332 890l-79 -102q-11 -14 -22.5 -20t-22.5 2l-13 7q-12 8 -11 20.5t9 28.5l60 116q5 11 14 14t17 -2l47 -29q8 -6 8.5 -16t-7.5 -19z
M510 150q0 -150 -150 -150h-150q-150 0 -150 150v530q0 40 40 40h70q40 0 40 -40v-505q0 -40 40 -40h70q40 0 40 40v505q0 40 40 40h70q40 0 40 -40v-530z" />
    <glyph glyph-name="uhungarumlaut" unicode="&#x171;" 
d="M434 747l-79 -101q-11 -14 -22 -20.5t-23 1.5l-12 8q-12 8 -11.5 20t8.5 28l60 116q6 11 14.5 14t16.5 -2l47 -29q9 -5 9 -15t-8 -20zM284 747l-79 -101q-11 -14 -22 -20.5t-23 1.5l-12 8q-12 8 -11.5 20t8.5 28l60 116q6 11 14.5 14t16.5 -2l47 -29q9 -5 9 -15t-8 -20z
M450 35q0 -35 -35 -35h-65q-35 0 -35 35v3l-2 1q-23 -39 -78 -39h-50q-135 0 -135 135v410q0 35 35 35h65q35 0 35 -35v-392q0 -35 36 -35h59q35 0 35 35v392q0 35 35 35h65q35 0 35 -35v-510z" />
    <glyph glyph-name="Uogonek" unicode="&#x172;" horiz-adv-x="570" 
d="M510 150q0 -150 -150 -150h-8q-24 -19 -38.5 -32.5t-22.5 -25.5t-10.5 -22.5t-2.5 -23.5v-11q0 -20 13 -33t30 -13q11 0 22 1.5t19 4.5q20 8 20 -14v-26q0 -7 -0.5 -13t-6.5 -11q-14 -12 -33 -18.5t-45 -6.5q-56 0 -89 31t-33 75v16q0 17 4 32t14 29.5t26.5 29t40.5 31.5
h-50q-150 0 -150 150v530q0 40 40 40h70q40 0 40 -40v-505q0 -40 40 -40h70q40 0 40 40v505q0 40 40 40h70q40 0 40 -40v-530z" />
    <glyph glyph-name="uogonek" unicode="&#x173;" 
d="M450 35q0 -32 -31 -35q-24 -19 -38.5 -32.5t-22.5 -25.5t-10.5 -22.5t-2.5 -23.5v-11q0 -20 13 -33t30 -13q11 0 22 1.5t19 4.5q20 8 20 -14v-26q0 -7 -0.5 -13t-6.5 -11q-14 -12 -33 -18.5t-45 -6.5q-56 0 -89 31t-33 75v16q0 35 19.5 63t70.5 63q-17 8 -17 31v3l-2 1
q-23 -39 -78 -39h-50q-135 0 -135 135v410q0 35 35 35h65q35 0 35 -35v-392q0 -35 36 -35h59q35 0 35 35v392q0 35 35 35h65q35 0 35 -35v-510z" />
    <glyph glyph-name="Wcircumflex" unicode="&#x174;" horiz-adv-x="810" 
d="M563 794l-15 -16q-17 -17 -32 -12.5t-37 22.5l-72 58l-76 -61q-6 -5 -13 -10.5t-15.5 -8t-17.5 -1t-18 10.5l-13 14q-18 18 -12.5 35.5t20.5 30.5l85 66q14 11 28.5 17.5t31.5 6.5q18 0 33.5 -8t29.5 -19l81 -63q16 -13 21 -31t-9 -31zM778 671l-152 -631
q-5 -19 -12.5 -29.5t-27.5 -10.5h-64q-20 0 -28 10.5t-12 29.5l-77 343l-77 -343q-4 -19 -12 -29.5t-28 -10.5h-64q-20 0 -27.5 10.5t-12.5 29.5l-152 631q-5 22 2.5 35.5t28.5 13.5h85q19 0 28 -9t14 -31l69 -361l75 361q5 22 14 31t28 9h58q19 0 28 -9t14 -31l75 -361
l69 361q5 22 14 31t28 9h85q21 0 28.5 -13.5t2.5 -35.5z" />
    <glyph glyph-name="wcircumflex" unicode="&#x175;" horiz-adv-x="700" 
d="M510 653l-15 -16q-17 -17 -31.5 -12.5t-37.5 22.5l-72 58l-76 -61q-6 -5 -13 -10.5t-15 -8t-17 -1t-18 10.5l-14 14q-18 18 -12.5 35.5t21.5 30.5l85 66q14 11 28 17.5t32 6.5q17 0 32.5 -8t30.5 -19l80 -63q17 -13 21.5 -31t-9.5 -31zM673 536l-124 -500
q-5 -17 -11.5 -26.5t-24.5 -9.5h-58q-18 0 -25 9.5t-11 26.5l-69 299l-69 -299q-4 -17 -11 -26.5t-25 -9.5h-58q-18 0 -25 9.5t-11 26.5l-124 500q-5 20 2 32t25 12h72q17 0 25 -8t13 -28l55 -267l67 267q5 19 13 27.5t25 8.5h51q17 0 25 -8.5t13 -27.5l68 -267l55 267
q4 20 12.5 28t25.5 8h71q19 0 26 -12t2 -32z" />
    <glyph glyph-name="Ycircumflex" unicode="&#x176;" horiz-adv-x="570" 
d="M441 794l-15 -16q-17 -17 -32 -12.5t-37 22.5l-72 58l-76 -61q-6 -5 -13 -10.5t-15.5 -8t-17.5 -1t-18 10.5l-13 14q-18 18 -12.5 35.5t20.5 30.5l85 66q14 11 28.5 17.5t31.5 6.5q18 0 33.5 -8t29.5 -19l81 -63q16 -13 21 -31t-9 -31zM540 699q0 -5 -2 -9.5t-4 -9.5
l-174 -382v-258q0 -40 -40 -40h-70q-40 0 -40 40v258l-174 382q-2 5 -4 9.5t-2 9.5q0 11 7.5 16t18.5 5h78q23 0 36.5 -10t21.5 -30l93 -225l93 225q8 20 21.5 30t36.5 10h78q11 0 18.5 -5t7.5 -16z" />
    <glyph glyph-name="ycircumflex" unicode="&#x177;" horiz-adv-x="480" 
d="M388 653l-15 -16q-17 -17 -31.5 -12.5t-37.5 22.5l-72 58l-76 -61q-6 -5 -13 -10.5t-15 -8t-17 -1t-18 10.5l-14 14q-18 18 -12.5 35.5t21.5 30.5l85 66q14 11 28 17.5t32 6.5q17 0 32.5 -8t30.5 -19l80 -63q17 -13 21.5 -31t-9.5 -31zM455 553q0 -7 -2 -17l-166 -581
q-9 -33 -19 -58.5t-24.5 -42.5t-36.5 -25.5t-56 -8.5h-63q-36 0 -36 36v48q0 36 36 36h41q42 0 50 37l4 18l-156 541q-2 10 -2 16q0 14 8 21t22 7h74q19 0 26 -9.5t11 -26.5l74 -309l74 309q4 17 11 26.5t27 9.5h73q14 0 22 -7t8 -20z" />
    <glyph glyph-name="Ydieresis" unicode="&#x178;" horiz-adv-x="570" 
d="M452 800q0 -35 -36 -35h-61q-36 0 -36 35v53q0 35 36 35h61q36 0 36 -35v-53zM245 800q0 -35 -36 -35h-61q-36 0 -36 35v53q0 35 36 35h61q36 0 36 -35v-53zM540 699q0 -5 -2 -9.5t-4 -9.5l-174 -382v-258q0 -40 -40 -40h-70q-40 0 -40 40v258l-174 382q-2 5 -4 9.5
t-2 9.5q0 11 7.5 16t18.5 5h78q23 0 36.5 -10t21.5 -30l93 -225l93 225q8 20 21.5 30t36.5 10h78q11 0 18.5 -5t7.5 -16z" />
    <glyph glyph-name="Zacute" unicode="&#x179;" horiz-adv-x="570" 
d="M407 913q9 -8 7 -19t-13 -19l-121 -93q-16 -12 -29.5 -16.5t-24.5 6.5l-11 11q-11 11 -7 23.5t15 29.5l88 128q8 11 18 12.5t18 -5.5zM510 40q0 -40 -40 -40h-370q-40 0 -40 40v50q0 26 12 46l261 444h-233q-40 0 -40 40v60q0 40 40 40h370q40 0 40 -40v-50
q0 -24 -13 -47l-260 -443h233q40 0 40 -40v-60z" />
    <glyph glyph-name="zacute" unicode="&#x17a;" 
d="M376 772q9 -8 7 -19t-13 -19l-121 -93q-16 -12 -29.5 -16.5t-24.5 6.5l-11 11q-11 11 -7 23.5t15 29.5l88 128q8 11 18 12.5t18 -5.5zM450 35q0 -35 -35 -35h-329q-36 0 -36 36v38q0 14 4 25t12 22l232 339h-212q-36 0 -36 36v48q0 17 9.5 26.5t26.5 9.5h329q35 0 35 -35
v-40q0 -14 -3 -23.5t-16 -28.5l-227 -333h211q35 0 35 -35v-50z" />
    <glyph glyph-name="Zdotaccent" unicode="&#x17b;" horiz-adv-x="570" 
d="M351 800q0 -35 -35 -35h-66q-35 0 -35 35v59q0 35 35 35h66q35 0 35 -35v-59zM510 40q0 -40 -40 -40h-370q-40 0 -40 40v50q0 26 12 46l261 444h-233q-40 0 -40 40v60q0 40 40 40h370q40 0 40 -40v-50q0 -24 -13 -47l-260 -443h233q40 0 40 -40v-60z" />
    <glyph glyph-name="zdotaccent" unicode="&#x17c;" 
d="M328 665q0 -36 -35 -36h-66q-35 0 -35 36v58q0 36 35 36h66q35 0 35 -36v-58zM450 35q0 -35 -35 -35h-329q-36 0 -36 36v38q0 14 4 25t12 22l232 339h-212q-36 0 -36 36v48q0 17 9.5 26.5t26.5 9.5h329q35 0 35 -35v-40q0 -14 -3 -23.5t-16 -28.5l-227 -333h211
q35 0 35 -35v-50z" />
    <glyph glyph-name="Zcaron" unicode="&#x17d;" horiz-adv-x="570" 
d="M439 921q18 -19 12.5 -36.5t-20.5 -29.5l-85 -67q-14 -11 -28.5 -17.5t-31.5 -6.5q-18 0 -33.5 8t-29.5 19l-81 63q-16 13 -21 31t9 32l15 15q17 17 32 13t37 -23l72 -58l76 61q6 5 13 10.5t15.5 8t17.5 1t18 -10.5zM510 40q0 -40 -40 -40h-370q-40 0 -40 40v50
q0 26 12 46l261 444h-233q-40 0 -40 40v60q0 40 40 40h370q40 0 40 -40v-50q0 -24 -13 -47l-260 -443h233q40 0 40 -40v-60z" />
    <glyph glyph-name="zcaron" unicode="&#x17e;" 
d="M401 780q18 -18 12.5 -36t-21.5 -30l-85 -67q-14 -11 -28 -17t-32 -6q-17 0 -32.5 7.5t-30.5 18.5l-80 64q-17 13 -21.5 30.5t9.5 31.5l15 15q17 17 32 13t37 -22l72 -59l76 62q6 4 13 9.5t15 8.5t17 1t18 -11zM450 35q0 -35 -35 -35h-329q-36 0 -36 36v38q0 14 4 25
t12 22l232 339h-212q-36 0 -36 36v48q0 17 9.5 26.5t26.5 9.5h329q35 0 35 -35v-40q0 -14 -3 -23.5t-16 -28.5l-227 -333h211q35 0 35 -35v-50z" />
    <glyph glyph-name="longs" unicode="&#x17f;" horiz-adv-x="295" 
d="M295 676q0 -36 -36 -36h-29q-35 0 -35 -36v-570q0 -34 -35 -34h-65q-35 0 -35 35v415h-4q-36 0 -36 36v48q0 17 9.5 26.5t26.5 9.5h4v55q0 135 136 135h63q36 0 36 -36v-48z" />
    <glyph glyph-name="florin" unicode="&#x192;" horiz-adv-x="410" 
d="M389 724l-9 -48q-6 -36 -42 -36h-29q-35 0 -41 -36l-6 -34h54q36 0 30 -35l-9 -50q-6 -35 -42 -35h-54l-88 -495q-24 -135 -159 -135h-64q-35 0 -29 36l8 48q6 36 43 36h29q35 0 41 36l84 474h-4q-36 0 -30 36l8 48q8 36 43 36h4l9 55q24 135 160 135h63q36 0 30 -36z
" />
    <glyph glyph-name="Aringacute" unicode="&#x1fa;" horiz-adv-x="571" 
d="M419 1066q9 -8 7 -19t-13 -19l-121 -93q-16 -12 -29.5 -16.5t-24.5 6.5l-11 11q-11 11 -7 23.5t15 29.5l88 128q8 11 18 12.5t18 -5.5zM538 49q6 -22 -2 -35.5t-28 -13.5h-82q-20 0 -28.5 9.5t-13.5 30.5l-24 100h-150l-23 -100q-5 -21 -13.5 -30.5t-28.5 -9.5h-82
q-20 0 -28 13.5t-2 35.5l170 617q-31 19 -31 63v76q0 35 20 55t55 20h76q35 0 55 -20t20 -55v-76q0 -44 -31 -63zM331 749v36q0 28 -28 28h-36q-28 0 -28 -28v-36q0 -28 28 -28h36q28 0 28 28zM329 275l-44 184l-43 -184h87z" />
    <glyph glyph-name="aringacute" unicode="&#x1fb;" 
d="M377 1045q9 -8 7 -19t-13 -19l-121 -93q-16 -12 -29.5 -16.5t-24.5 6.5l-11 11q-11 11 -7 24t15 29l88 128q8 11 18 12.5t18 -5.5zM367 705q0 -35 -20.5 -55t-55.5 -20h-75q-35 0 -55 20t-20 55v75q0 35 20 55.5t55 20.5h75q35 0 55.5 -20.5t20.5 -55.5v-75zM450 35
q0 -35 -36 -35h-49q-33 0 -38 35l-2 1q-11 -20 -28.5 -28t-44.5 -8h-68q-134 -1 -134 136v62q0 68 33.5 100.5t101.5 33.5h94q36 0 36 36v59q0 36 -36 36h-52q-36 0 -36 -36v-2q-2 -36 -36 -36h-59q-36 0 -36 36v20q0 135 135 135h120q69 0 102 -33t33 -102v-410zM300 725
v35q0 29 -29 29h-35q-28 0 -28 -29v-35q0 -28 28 -28h35q29 0 29 28zM315 153v68h-94q-17 -1 -26.5 -10t-9.5 -26v-31q0 -17 8 -26.5t23 -9.5h63q36 0 36 35z" />
    <glyph glyph-name="AEacute" unicode="&#x1fc;" horiz-adv-x="874" 
d="M622 913q8 -8 6 -19t-13 -19l-121 -93q-16 -12 -29 -16.5t-24 6.5l-12 11q-11 11 -7 23.5t15 29.5l88 128q8 11 18.5 12.5t17.5 -6.5zM829 40q0 -40 -40 -40h-370q-40 0 -40 41v99h-158l-50 -100q-11 -21 -22 -30.5t-31 -9.5h-82q-20 0 -24.5 13.5t7.5 35.5l343 631
q11 19 21 29.5t30 10.5h376q40 0 40 -40v-60q0 -18 -10.5 -29t-29.5 -11l-264 -1h-1v-139h215q40 0 40 -40v-60q0 -40 -40 -40h-215v-160h265q40 0 40 -40v-60zM379 275v181l-90 -181h90z" />
    <glyph glyph-name="aeacute" unicode="&#x1fd;" horiz-adv-x="755" 
d="M535 772q9 -8 7 -19t-13 -19l-121 -93q-16 -12 -29.5 -16.5t-24.5 6.5l-11 11q-11 11 -7 23.5t15 29.5l88 128q8 11 18 12.5t18 -5.5zM705 283q0 -35 -35 -35h-230v-97q0 -35 36 -35h53q35 0 35 36l1 2q0 17 9.5 26.5t26.5 9.5h58q36 0 36 -36v-19q0 -135 -135 -135h-100
q-31 0 -56.5 11.5t-36.5 29.5h-2q-24 -41 -83 -41h-98q-134 -1 -134 136v62q0 68 33.5 100.5t101.5 33.5h94q36 0 36 35v1v59q0 36 -36 36h-52q-36 0 -36 -36v-2q-2 -36 -36 -36h-59q-36 0 -36 36v20q0 135 135 135h110q19 0 40.5 -8t32.5 -22q11 14 32 21.5t40 8.5h120
q135 0 135 -136v-161zM570 359v69q0 17 -10 26.5t-25 9.5h-60q-35 0 -35 -34v-1v-70h130zM315 152v1v68h-94q-17 -1 -26.5 -10t-9.5 -26v-31q0 -17 8 -26.5t23 -9.5h63q36 0 36 34z" />
    <glyph glyph-name="Oslashacute" unicode="&#x1fe;" horiz-adv-x="570" 
d="M411 914q9 -8 7 -19t-13 -19l-121 -93q-16 -12 -29.5 -16.5t-24.5 6.5l-11 11q-11 11 -7 23.5t15 29.5l88 128q8 11 18 12.5t18 -5.5zM510 150q0 -150 -150 -150h-135l-11 -40q-5 -16 -11 -19t-23 -3h-14q-20 0 -24.5 7t0.5 27l9 35q-91 25 -91 143v420q0 150 150 150
h131l10 36q5 18 11 22t27 4h12q20 0 26 -7t1 -24l-10 -38q92 -26 92 -143v-420zM305 585h-55q-40 0 -40 -40v-317zM360 175v325l-99 -365h59q40 0 40 40z" />
    <glyph glyph-name="oslashacute" unicode="&#x1ff;" 
d="M370 772q9 -8 7 -19t-13 -19l-121 -93q-16 -12 -29.5 -16.5t-24.5 6.5l-11 11q-11 11 -7 23.5t15 29.5l88 128q8 11 18 12.5t18 -5.5zM450 135q0 -135 -135 -135h-107l-11 -40q-5 -16 -11 -19t-21 -3h-14q-20 0 -23.5 7t1.5 27l8 33q-87 19 -87 130v310q0 69 33 102
t102 33h104l10 36q5 18 11 21.5t25 3.5h12q20 0 25 -6.5t0 -23.5l-10 -36q88 -21 88 -130v-310zM259 464h-38q-36 0 -36 -36v-244zM316 152v249l-77 -285h41q36 0 36 36z" />
    <glyph glyph-name="Scommacedilla" unicode="&#x218;" horiz-adv-x="570" 
d="M510 150q0 -151 -149 -150h-246q-40 0 -40 40v60q0 40 40 40h210q35 0 35 40v34q0 17 -9 29t-33 21l-132 50q-37 14 -61.5 30.5t-38.5 38.5t-20 50t-6 65v72q0 150 150 150h150q150 0 150 -150v-30q0 -40 -40 -40h-65q-40 0 -40 40v5q0 40 -40 40h-75q-40 0 -40 -40v-45
q0 -23 9.5 -37.5t36.5 -25.5l130 -50q63 -24 93.5 -65t30.5 -111v-61zM352 -128q0 -32 -11 -49l-54 -85q-18 -28 -45 -10h-1q-27 17 -10 45l30 46h-8q-36 0 -36 36v54q0 36 36 36h63q36 0 36 -36v-37z" />
    <glyph glyph-name="scommacedilla" unicode="&#x219;" horiz-adv-x="495" 
d="M445 135q0 -135 -135 -135h-216q-36 0 -36 36v48q0 36 36 36h185q15 0 23.5 9.5t8.5 26.5v11q0 16 -8 25.5t-31 17.5l-107 41q-34 13 -57 27t-37 32.5t-20 42t-6 54.5v38q0 135 135 135h130q69 0 102 -31t33 -99v-25q0 -36 -36 -36h-58q-36 0 -36 36l-1 2q0 36 -35 36
h-63q-17 0 -26.5 -11.5t-9.5 -29.5v-22q0 -17 9.5 -29t26.5 -18l105 -40q36 -14 59.5 -29t38 -34t20.5 -43t6 -55v-17zM328 -128q0 -32 -11 -49l-54 -85q-18 -28 -45 -10h-1q-27 17 -10 45l30 46h-8q-36 0 -36 36v54q0 36 36 36h63q36 0 36 -36v-37z" />
    <glyph glyph-name="Tcommacedilla" unicode="&#x21a;" horiz-adv-x="530" 
d="M500 620q0 -40 -40 -40h-120v-540q0 -40 -40 -40h-70q-40 0 -40 40v540h-120q-40 0 -40 40v60q0 40 40 40h390q40 0 40 -40v-60zM334 -128q0 -32 -11 -49l-54 -85q-18 -28 -45 -10h-1q-27 17 -10 45l30 46h-8q-36 0 -36 36v54q0 36 36 36h63q36 0 36 -36v-37z" />
    <glyph glyph-name="tcommacedilla" unicode="&#x21b;" horiz-adv-x="325" 
d="M300 36q0 -36 -36 -36h-63q-136 0 -136 135v315h-4q-17 0 -26.5 9.5t-9.5 26.5v48q0 36 36 36h4v100q0 35 35 35h65q35 0 35 -35v-100h55q35 0 35 -35v-50q0 -35 -35 -35h-55v-294q0 -36 35 -36h29q36 0 36 -36v-48zM238 -128q0 -32 -11 -49l-54 -85q-18 -28 -45 -10h-1
q-27 17 -10 45l30 46h-8q-36 0 -36 36v54q0 36 36 36h63q36 0 36 -36v-37z" />
    <glyph glyph-name="circumflex" unicode="&#x2c6;" horiz-adv-x="491" 
d="M367 653l-15 -16q-17 -17 -31.5 -12.5t-37.5 22.5l-72 58l-76 -61q-6 -5 -13 -10.5t-15 -8t-17 -1t-18 10.5l-14 14q-18 18 -12.5 35.5t21.5 30.5l85 66q14 11 28 17.5t32 6.5q17 0 32.5 -8t30.5 -19l80 -63q17 -13 21.5 -31t-9.5 -31z" />
    <glyph glyph-name="caron" unicode="&#x2c7;" horiz-adv-x="491" 
d="M364 780q18 -18 12.5 -36t-21.5 -30l-85 -67q-14 -11 -28 -17t-32 -6q-17 0 -32.5 7.5t-30.5 18.5l-80 64q-17 13 -21.5 30.5t9.5 31.5l15 15q17 17 32 13t37 -22l72 -59l76 62q6 4 13 9.5t15 8.5t17 1t18 -11z" />
    <glyph glyph-name="breve" unicode="&#x2d8;" horiz-adv-x="487" 
d="M392 718q0 -18 -15.5 -35t-40.5 -30t-56.5 -21t-63.5 -8t-63.5 8t-56 21t-40 30t-15.5 35v18q0 17 7.5 25.5t25.5 8.5q16 0 33 -10t31 -18q21 -11 39.5 -15t41.5 -4t41.5 5.5t38.5 16.5q12 7 29 16t31 9q18 0 25.5 -8.5t7.5 -25.5v-18z" />
    <glyph glyph-name="dotaccent" unicode="&#x2d9;" horiz-adv-x="568" 
d="M341 670q0 -36 -35 -36h-66q-35 0 -35 36v58q0 36 35 36h66q35 0 35 -36v-58z" />
    <glyph glyph-name="ring" unicode="&#x2da;" horiz-adv-x="592" 
d="M293 708q0 -35 -20 -55t-55 -20h-76q-35 0 -55 20t-20 55v76q0 35 20 55t55 20h76q35 0 55 -20t20 -55v-76zM226 728v36q0 28 -28 28h-36q-28 0 -28 -28v-36q0 -28 28 -28h36q28 0 28 28z" />
    <glyph glyph-name="ogonek" unicode="&#x2db;" horiz-adv-x="312" 
d="M286 -195q0 -7 -0.5 -13t-6.5 -11q-14 -12 -33 -18.5t-45 -6.5q-56 0 -89 31t-33 75v16q0 19 5 35t16.5 31.5t31 31.5t48.5 35h90q-28 -22 -45.5 -37.5t-27 -28.5t-12.5 -24.5t-3 -24.5v-11q0 -20 13 -33t30 -13q11 0 22 1.5t19 4.5q20 8 20 -14v-26z" />
    <glyph glyph-name="tilde" unicode="&#x2dc;" horiz-adv-x="643" 
d="M334 719q0 -6 -1 -23t-7 -30q-5 -9 -10 -16t-14 -13q-17 -13 -48 -13q-14 0 -34 6t-40 20q-19 14 -37.5 21t-28.5 7q-18 0 -28.5 -6.5t-24.5 -21.5q-10 -11 -19.5 -6.5t-9.5 15.5v44q0 10 8 28q9 18 24 29q17 13 49 13q14 0 36.5 -8t44.5 -24q23 -16 35.5 -19t22.5 -3
q19 0 31 8t22 20q6 10 17.5 9.5t11.5 -17.5v-20z" />
    <glyph glyph-name="hungarumlaut" unicode="&#x2dd;" horiz-adv-x="486" 
d="M358 747l-79 -101q-11 -14 -22 -20.5t-23 1.5l-12 8q-12 8 -11.5 20t8.5 28l60 116q6 11 14.5 14t16.5 -2l47 -29q9 -5 9 -15t-8 -20zM208 747l-79 -101q-11 -14 -22 -20.5t-23 1.5l-12 8q-12 8 -11.5 20t8.5 28l60 116q6 11 14.5 14t16.5 -2l47 -29q9 -5 9 -15t-8 -20z
" />
    <glyph glyph-name="commabelow" unicode="&#x326;" horiz-adv-x="760" 
d="M408 -128q0 -32 -11 -49l-54 -85q-18 -28 -45 -10h-1q-27 17 -10 45l30 46h-8q-36 0 -36 36v54q0 36 36 36h63q36 0 36 -36v-37z" />
    <glyph glyph-name="pi" unicode="&#x3c0;" horiz-adv-x="520" 
d="M480 490q0 -20 -10 -30.5t-30 -9.5h-5v-410q0 -40 -40 -40h-50q-40 0 -40 40v410h-90v-410q0 -40 -40 -40h-50q-40 0 -40 40v410h-5q-40 0 -40 40v50q0 40 40 40h360q40 0 40 -40v-50z" />
    <glyph glyph-name="Bdotaccent" unicode="&#x1e02;" horiz-adv-x="571" 
d="M351 805q0 -35 -36 -35h-65q-36 0 -36 35v59q0 35 36 35h65q36 0 36 -35v-59zM511 150q0 -150 -150 -150h-261q-40 0 -40 40v640q0 40 40 40h261q150 0 150 -150v-48q0 -34 -7.5 -58t-20 -40.5t-29 -26t-35.5 -15.5v-2q19 -6 35.5 -15.5t29 -26t20 -40.5t7.5 -58v-90z
M361 480v64q0 19 -10.5 30t-29.5 11h-111v-145h111q40 0 40 40zM361 175v95q0 40 -40 40h-111v-175h111q40 0 40 40z" />
    <glyph glyph-name="bdotaccent" unicode="&#x1e03;" 
d="M374 666q0 -36 -35 -36h-66q-35 0 -35 36v58q0 36 35 36h66q35 0 35 -36v-58zM450 135q0 -135 -135 -135h-67q-27 0 -44.5 8t-28.5 28l-2 -1q-5 -35 -38 -35h-50q-35 0 -35 35v690q0 35 35 35h65q35 0 35 -35v-167l2 -1q26 23 71 23h57q135 0 135 -135v-310zM316 154v271
q0 37 -36 37h-59q-36 0 -36 -36v-273q0 -35 36 -35h59q36 0 36 36z" />
    <glyph glyph-name="Ddotaccent" unicode="&#x1e0a;" horiz-adv-x="571" 
d="M350 805q0 -35 -35 -35h-66q-35 0 -35 35v59q0 36 35 36h66q35 0 35 -36v-59zM511 150q0 -150 -150 -150h-261q-40 0 -40 40v640q0 40 40 40h261q150 0 150 -150v-420zM361 175v369q0 19 -10.5 30t-29.5 11h-111v-450h111q40 0 40 40z" />
    <glyph glyph-name="ddotaccent" unicode="&#x1e0b;" 
d="M262 666q0 -36 -35 -36h-66q-35 0 -35 36v58q0 36 35 36h66q35 0 35 -36v-58zM450 35q0 -35 -35 -35h-50q-33 0 -38 35l-2 1q-11 -20 -28.5 -28t-44.5 -8h-67q-135 0 -135 135v310q0 135 135 135h57q45 0 71 -23l2 1v167q0 35 35 35h65q35 0 35 -35v-690zM315 153v273
q0 36 -36 36h-58q-37 0 -37 -37v-271q0 -36 37 -36h58q36 0 36 35z" />
    <glyph glyph-name="Fdotaccent" unicode="&#x1e1e;" horiz-adv-x="550" 
d="M351 805q0 -35 -35 -35h-66q-35 0 -35 35v59q0 35 35 35h66q35 0 35 -35v-59zM510 620q0 -18 -10.5 -29t-29.5 -11l-260 -1v-139h210q40 0 40 -40v-60q0 -40 -40 -40h-210v-261q0 -39 -40 -39h-70q-40 0 -40 41v639q0 40 40 40h370q40 0 40 -40v-60z" />
    <glyph glyph-name="fdotaccent" unicode="&#x1e1f;" horiz-adv-x="305" 
d="M244 835q0 -35 -35 -35h-66q-35 0 -35 35v59q0 35 35 35h66q35 0 35 -35v-59zM295 676q0 -36 -36 -36h-29q-35 0 -35 -36v-34h55q35 0 35 -35v-50q0 -35 -35 -35h-55v-415q0 -35 -35 -35h-65q-35 0 -35 35v415h-4q-36 0 -36 36v48q0 17 9.5 26.5t26.5 9.5h4v55
q0 135 136 135h63q36 0 36 -36v-48z" />
    <glyph glyph-name="Mdotaccent" unicode="&#x1e40;" horiz-adv-x="720" 
d="M431 806q0 -35 -35 -35h-66q-35 0 -35 35v59q0 35 35 35h66q35 0 35 -35v-59zM660 40q0 -40 -40 -40h-70q-40 0 -40 40v369l-125 -252q-8 -17 -24.5 -17t-24.5 17l-126 252v-369q0 -40 -40 -40h-70q-40 0 -40 40v640q0 40 40 40h70q12 0 22 -5.5t15 -15.5l154 -306
l152 306q5 10 15 15.5t22 5.5h70q40 0 40 -40v-640z" />
    <glyph glyph-name="mdotaccent" unicode="&#x1e41;" horiz-adv-x="740" 
d="M439 665q0 -36 -35 -36h-66q-35 0 -35 36v58q0 36 35 36h66q35 0 35 -36v-58zM690 35q0 -35 -35 -35h-65q-35 0 -35 35v392q0 35 -35 35h-48q-35 0 -35 -35v-392q0 -35 -35 -35h-64q-35 0 -35 35v392q0 35 -35 35h-48q-35 0 -35 -35v-392q0 -35 -35 -35h-65q-35 0 -35 35
v510q0 35 35 35h65q35 0 35 -35v-3l2 -1q23 39 78 39h48q41 0 62.5 -12t36.5 -39h2q15 27 38 39t55 12h48q135 0 135 -135v-410z" />
    <glyph glyph-name="Pdotaccent" unicode="&#x1e56;" horiz-adv-x="566" 
d="M351 805q0 -35 -35 -35h-66q-35 0 -35 35v59q0 35 35 35h66q35 0 35 -35v-59zM521 450q0 -150 -150 -150h-161v-260q0 -40 -40 -40h-70q-40 0 -40 40v640q0 40 40 40h271q150 0 150 -150v-120zM371 475v69q0 19 -10.5 30t-29.5 11h-121v-150h121q40 0 40 40z" />
    <glyph glyph-name="pdotaccent" unicode="&#x1e57;" 
d="M319 665q0 -36 -35 -36h-66q-35 0 -35 36v58q0 36 35 36h66q35 0 35 -36v-58zM450 135q0 -135 -135 -135h-57q-45 0 -71 23l-2 -1v-167q0 -35 -35 -35h-65q-35 0 -35 35v690q0 35 35 35h50q33 0 38 -35l2 -1q11 20 28.5 28t44.5 8h67q135 0 135 -135v-310zM316 155v271
q0 36 -36 36h-59q-36 0 -36 -36v-273q0 -35 36 -35h59q36 0 36 37z" />
    <glyph glyph-name="Sdotaccent" unicode="&#x1e60;" horiz-adv-x="570" 
d="M351 805q0 -35 -35 -35h-66q-35 0 -35 35v59q0 35 35 35h66q35 0 35 -35v-59zM510 150q0 -151 -149 -150h-246q-40 0 -40 40v60q0 40 40 40h210q35 0 35 40v34q0 17 -9 29t-33 21l-132 50q-37 14 -61.5 30.5t-38.5 38.5t-20 50t-6 65v72q0 150 150 150h150
q150 0 150 -150v-30q0 -40 -40 -40h-65q-40 0 -40 40v5q0 40 -40 40h-75q-40 0 -40 -40v-45q0 -23 9.5 -37.5t36.5 -25.5l130 -50q63 -24 93.5 -65t30.5 -111v-61z" />
    <glyph glyph-name="sdotaccent" unicode="&#x1e61;" horiz-adv-x="495" 
d="M320 664q0 -36 -35 -36h-66q-35 0 -35 36v58q0 36 35 36h66q35 0 35 -36v-58zM445 135q0 -135 -135 -135h-216q-36 0 -36 36v48q0 36 36 36h185q15 0 23.5 9.5t8.5 26.5v11q0 16 -8 25.5t-31 17.5l-107 41q-34 13 -57 27t-37 32.5t-20 42t-6 54.5v38q0 135 135 135h130
q69 0 102 -31t33 -99v-25q0 -36 -36 -36h-58q-36 0 -36 36l-1 2q0 36 -35 36h-63q-17 0 -26.5 -11.5t-9.5 -29.5v-22q0 -17 9.5 -29t26.5 -18l105 -40q36 -14 59.5 -29t38 -34t20.5 -43t6 -55v-17z" />
    <glyph glyph-name="Tdotaccent" unicode="&#x1e6a;" horiz-adv-x="530" 
d="M351 805q0 -35 -35 -35h-66q-35 0 -35 35v59q0 35 35 35h66q35 0 35 -35v-59zM500 620q0 -40 -40 -40h-120v-540q0 -40 -40 -40h-70q-40 0 -40 40v540h-120q-40 0 -40 40v60q0 40 40 40h390q40 0 40 -40v-60z" />
    <glyph glyph-name="tdotaccent" unicode="&#x1e6b;" horiz-adv-x="325" 
d="M201 806q0 -36 -35 -36h-66q-35 0 -35 36v58q0 36 35 36h66q35 0 35 -36v-58zM300 36q0 -36 -36 -36h-63q-136 0 -136 135v315h-4q-17 0 -26.5 9.5t-9.5 26.5v48q0 36 36 36h4v100q0 35 35 35h65q35 0 35 -35v-100h55q35 0 35 -35v-50q0 -35 -35 -35h-55v-294
q0 -36 35 -36h29q36 0 36 -36v-48z" />
    <glyph glyph-name="Wgrave" unicode="&#x1e80;" horiz-adv-x="810" 
d="M483 784l-12 -12q-11 -11 -24 -6t-29 17l-121 93q-11 8 -13 19t6 19l61 57q7 8 17.5 6.5t18.5 -13.5l88 -127q11 -17 15 -29.5t-7 -23.5zM778 671l-152 -631q-5 -19 -12.5 -29.5t-27.5 -10.5h-64q-20 0 -28 10.5t-12 29.5l-77 343l-77 -343q-4 -19 -12 -29.5t-28 -10.5
h-64q-20 0 -27.5 10.5t-12.5 29.5l-152 631q-5 22 2.5 35.5t28.5 13.5h85q19 0 28 -9t14 -31l69 -361l75 361q5 22 14 31t28 9h58q19 0 28 -9t14 -31l75 -361l69 361q5 22 14 31t28 9h85q21 0 28.5 -13.5t2.5 -35.5z" />
    <glyph glyph-name="wgrave" unicode="&#x1e81;" horiz-adv-x="700" 
d="M417 642l-12 -11q-11 -11 -24 -6.5t-29 16.5l-121 93q-11 8 -13 19t6 19l61 58q7 7 17.5 5.5t18.5 -12.5l88 -128q11 -17 15 -29.5t-7 -23.5zM673 536l-124 -500q-5 -17 -11.5 -26.5t-24.5 -9.5h-58q-18 0 -25 9.5t-11 26.5l-69 299l-69 -299q-4 -17 -11 -26.5t-25 -9.5
h-58q-18 0 -25 9.5t-11 26.5l-124 500q-5 20 2 32t25 12h72q17 0 25 -8t13 -28l55 -267l67 267q5 19 13 27.5t25 8.5h51q17 0 25 -8.5t13 -27.5l68 -267l55 267q4 20 12.5 28t25.5 8h71q19 0 26 -12t2 -32z" />
    <glyph glyph-name="Wacute" unicode="&#x1e82;" horiz-adv-x="810" 
d="M526 913q9 -8 7 -19t-13 -19l-121 -93q-16 -12 -29.5 -17t-24.5 6l-11 12q-11 11 -7 23.5t15 29.5l88 128q8 11 18 12.5t18 -6.5zM778 671l-152 -631q-5 -19 -12.5 -29.5t-27.5 -10.5h-64q-20 0 -28 10.5t-12 29.5l-77 343l-77 -343q-4 -19 -12 -29.5t-28 -10.5h-64
q-20 0 -27.5 10.5t-12.5 29.5l-152 631q-5 22 2.5 35.5t28.5 13.5h85q19 0 28 -9t14 -31l69 -361l75 361q5 22 14 31t28 9h58q19 0 28 -9t14 -31l75 -361l69 361q5 22 14 31t28 9h85q21 0 28.5 -13.5t2.5 -35.5z" />
    <glyph glyph-name="wacute" unicode="&#x1e83;" horiz-adv-x="700" 
d="M470 772q9 -8 7 -19t-13 -19l-121 -93q-16 -12 -29.5 -16.5t-24.5 6.5l-11 11q-11 11 -7 23.5t15 29.5l88 128q8 11 18 12.5t18 -5.5zM673 536l-124 -500q-5 -17 -11.5 -26.5t-24.5 -9.5h-58q-18 0 -25 9.5t-11 26.5l-69 299l-69 -299q-4 -17 -11 -26.5t-25 -9.5h-58
q-18 0 -25 9.5t-11 26.5l-124 500q-5 20 2 32t25 12h72q17 0 25 -8t13 -28l55 -267l67 267q5 19 13 27.5t25 8.5h51q17 0 25 -8.5t13 -27.5l68 -267l55 267q4 20 12.5 28t25.5 8h71q19 0 26 -12t2 -32z" />
    <glyph glyph-name="Wdieresis" unicode="&#x1e84;" horiz-adv-x="810" 
d="M578 801q0 -36 -36 -36h-61q-36 0 -36 36v53q0 35 36 35h61q36 0 36 -35v-53zM371 801q0 -36 -35 -36h-62q-35 0 -35 36v53q0 35 35 35h62q35 0 35 -35v-53zM778 671l-152 -631q-5 -19 -12.5 -29.5t-27.5 -10.5h-64q-20 0 -28 10.5t-12 29.5l-77 343l-77 -343
q-4 -19 -12 -29.5t-28 -10.5h-64q-20 0 -27.5 10.5t-12.5 29.5l-152 631q-5 22 2.5 35.5t28.5 13.5h85q19 0 28 -9t14 -31l69 -361l75 361q5 22 14 31t28 9h58q19 0 28 -9t14 -31l75 -361l69 361q5 22 14 31t28 9h85q21 0 28.5 -13.5t2.5 -35.5z" />
    <glyph glyph-name="wdieresis" unicode="&#x1e85;" horiz-adv-x="700" 
d="M519 660q0 -36 -35 -36h-62q-35 0 -35 36v52q0 36 35 36h62q35 0 35 -36v-52zM312 660q0 -36 -35 -36h-62q-35 0 -35 36v52q0 36 35 36h62q35 0 35 -36v-52zM673 536l-124 -500q-5 -17 -11.5 -26.5t-24.5 -9.5h-58q-18 0 -25 9.5t-11 26.5l-69 299l-69 -299
q-4 -17 -11 -26.5t-25 -9.5h-58q-18 0 -25 9.5t-11 26.5l-124 500q-5 20 2 32t25 12h72q17 0 25 -8t13 -28l55 -267l67 267q5 19 13 27.5t25 8.5h51q17 0 25 -8.5t13 -27.5l68 -267l55 267q4 20 12.5 28t25.5 8h71q19 0 26 -12t2 -32z" />
    <glyph glyph-name="Ygrave" unicode="&#x1ef2;" horiz-adv-x="570" 
d="M364 783l-12 -12q-11 -11 -24 -6t-29 17l-121 93q-11 8 -13 19t6 19l61 57q7 8 17.5 6.5t18.5 -13.5l88 -127q11 -17 15 -29.5t-7 -23.5zM540 699q0 -5 -2 -9.5t-4 -9.5l-174 -382v-258q0 -40 -40 -40h-70q-40 0 -40 40v258l-174 382q-2 5 -4 9.5t-2 9.5q0 11 7.5 16
t18.5 5h78q23 0 36.5 -10t21.5 -30l93 -225l93 225q8 20 21.5 30t36.5 10h78q11 0 18.5 -5t7.5 -16z" />
    <glyph glyph-name="ygrave" unicode="&#x1ef3;" horiz-adv-x="480" 
d="M319 642l-12 -11q-11 -11 -24 -6.5t-29 16.5l-121 93q-11 8 -13 19t6 19l61 58q7 7 17.5 5.5t18.5 -12.5l88 -128q11 -17 15 -29.5t-7 -23.5zM455 553q0 -7 -2 -17l-166 -581q-9 -33 -19 -58.5t-24.5 -42.5t-36.5 -25.5t-56 -8.5h-63q-36 0 -36 36v48q0 36 36 36h41
q42 0 50 37l4 18l-156 541q-2 10 -2 16q0 14 8 21t22 7h74q19 0 26 -9.5t11 -26.5l74 -309l74 309q4 17 11 26.5t27 9.5h73q14 0 22 -7t8 -20z" />
    <glyph glyph-name="endash" unicode="&#x2013;" horiz-adv-x="440" 
d="M420 270q0 -40 -40 -40h-320q-40 0 -40 40v60q0 40 40 40h320q40 0 40 -40v-60z" />
    <glyph glyph-name="emdash" unicode="&#x2014;" horiz-adv-x="680" 
d="M660 270q0 -40 -40 -40h-560q-40 0 -40 40v60q0 40 40 40h560q40 0 40 -40v-60z" />
    <glyph glyph-name="quoteleft" unicode="&#x2018;" horiz-adv-x="270" 
d="M210 519q0 -40 -40 -40h-70q-40 0 -40 40v41q0 34 12 54l60 95q19 31 50 11v-1q32 -19 12 -49l-34 -51h10q40 0 40 -40v-60z" />
    <glyph glyph-name="quoteright" unicode="&#x2019;" horiz-adv-x="270" 
d="M210 639q0 -36 -12 -54l-60 -95q-19 -31 -50 -11t-12 50l34 51h-10q-40 0 -40 40v60q0 40 40 40h70q40 0 40 -40v-41z" />
    <glyph glyph-name="quotesinglbase" unicode="&#x201a;" horiz-adv-x="270" 
d="M210 59q0 -36 -12 -54l-60 -95q-19 -31 -50 -11t-12 50l34 51h-10q-40 0 -40 40v60q0 40 40 40h70q40 0 40 -40v-41z" />
    <glyph glyph-name="quotedblleft" unicode="&#x201c;" horiz-adv-x="470" 
d="M410 519q0 -40 -40 -40h-70q-40 0 -40 40v41q0 34 12 54l60 95q19 31 50 11v-1q32 -19 12 -49l-34 -51h10q40 0 40 -40v-60zM210 519q0 -40 -40 -40h-70q-40 0 -40 40v41q0 34 12 54l60 95q19 31 50 11v-1q32 -19 12 -49l-34 -51h10q40 0 40 -40v-60z" />
    <glyph glyph-name="quotedblright" unicode="&#x201d;" horiz-adv-x="470" 
d="M410 646q0 -36 -12 -54l-60 -95q-19 -31 -50 -11t-12 50l34 51h-10q-40 0 -40 40v60q0 40 40 40h70q40 0 40 -40v-41zM210 646q0 -36 -12 -54l-60 -95q-19 -31 -50 -11t-12 50l34 51h-10q-40 0 -40 40v60q0 40 40 40h70q40 0 40 -40v-41z" />
    <glyph glyph-name="quotedblbase" unicode="&#x201e;" horiz-adv-x="470" 
d="M410 59q0 -36 -12 -54l-60 -95q-19 -31 -50 -11t-12 50l34 51h-10q-40 0 -40 40v60q0 40 40 40h70q40 0 40 -40v-41zM210 59q0 -36 -12 -54l-60 -95q-19 -31 -50 -11t-12 50l34 51h-10q-40 0 -40 40v60q0 40 40 40h70q40 0 40 -40v-41z" />
    <glyph glyph-name="dagger" unicode="&#x2020;" horiz-adv-x="611" 
d="M561 416q0 -18 -8.5 -28.5t-21 -16.5t-26.5 -8t-24 -1l-124 12l16 -498q1 -39 -15 -62.5t-44 -23.5h-37q-18 0 -31 7.5t-20.5 19.5t-10.5 27t-3 30l17 500l-128 -12q-13 -1 -27.5 1t-26.5 8t-19.5 17.5t-7.5 29.5v27q0 23 14 36t47 13l147 -14l-6 65q-2 22 -4 43.5
t-3 42.5l-1 7v3q-1 28 11.5 47t43.5 19h49q16 0 27 -6.5t17 -17t8 -22.5t1 -22l-14 -159q6 1 22.5 3t37.5 4t43 4t40 3q29 2 45 -9.5t16 -37.5v-31z" />
    <glyph glyph-name="daggerdbl" unicode="&#x2021;" horiz-adv-x="614" 
d="M564 416q0 -32 -16.5 -45t-52.5 -10q-35 2 -64 5q-25 2 -46.5 3.5t-26.5 2.5v-247q5 0 21 2t37 4t43 3.5t40 1.5q27 0 44.5 -17t17.5 -36v-22q0 -23 -15.5 -37.5t-42.5 -14.5q-18 0 -41 1t-44 2t-38 2.5t-23 1.5l14 -156q1 -11 -1 -23t-8 -22.5t-17 -17.5t-27 -7h-38h-11
q-31 0 -43.5 20t-11.5 48v3l1 6q1 22 3 43.5t4 42.5l6 63q-5 -1 -27 -1.5t-47 -2.5q-29 -2 -65 -3q-37 -2 -53 8t-16 43v21q0 36 18.5 45.5t44.5 7.5l149 -9v249l-139 -12q-13 -1 -25.5 1t-22.5 8t-16 17.5t-6 29.5v21q0 31 20 44.5t53 9.5q34 -3 62 -6q24 -2 46 -4t27 -3
l-6 65q-2 22 -4 43.5t-3 42.5l-1 7v3q-1 28 11.5 48t43.5 20h25h7h17q32 0 43 -23.5t11 -58.5t-6.5 -76t-9.5 -77l131 19q28 4 51 -10t23 -45v-22z" />
    <glyph glyph-name="bullet" unicode="&#x2022;" horiz-adv-x="340" 
d="M240 322q0 -64 -64 -64h-112q-64 0 -64 64v96q0 64 64 64h112q64 0 64 -64v-96z" />
    <glyph glyph-name="ellipsis" unicode="&#x2026;" horiz-adv-x="790" 
d="M730 40q0 -40 -40 -40h-70q-40 0 -40 40v60q0 40 40 40h70q40 0 40 -40v-60zM470 40q0 -40 -40 -40h-70q-40 0 -40 40v60q0 40 40 40h70q40 0 40 -40v-60zM210 40q0 -40 -40 -40h-70q-40 0 -40 40v60q0 40 40 40h70q40 0 40 -40v-60z" />
    <glyph glyph-name="perthousand" unicode="&#x2030;" horiz-adv-x="1378" 
d="M1328 108q0 -108 -108 -108h-104q-108 0 -108 108v248q0 108 108 108h104q108 0 108 -108v-248zM958 108q0 -108 -108 -108h-104q-108 0 -108 108v248q0 108 108 108h104q108 0 108 -108v-248zM756 684l-392 -662q-6 -11 -16.5 -16.5t-27.5 -5.5h-42q-21 0 -27.5 10
t4.5 29l386 650q11 19 20.5 25t26.5 6h42q23 0 28.5 -11t-2.5 -25zM370 364q0 -108 -108 -108h-104q-108 0 -108 108v248q0 108 108 108h104q108 0 108 -108v-248zM1220 121v221q0 29 -28 29h-47q-29 0 -29 -28v-222q0 -28 29 -28h47q28 0 28 28zM850 121v221q0 29 -28 29
h-47q-29 0 -29 -28v-222q0 -28 29 -28h47q28 0 28 28zM262 377v221q0 29 -28 29h-47q-29 0 -29 -28v-222q0 -28 29 -28h47q28 0 28 28z" />
    <glyph glyph-name="guilsinglleft" unicode="&#x2039;" horiz-adv-x="366" 
d="M316 121q0 -15 -13 -22.5t-25 -7.5h-41q-18 0 -32 9.5t-25 23.5l-119 158q-5 6 -8 13.5t-3 15.5q0 16 12 31l115 152q14 19 26 28t35 9h38q15 0 25 -8t10 -26q0 -14 -10 -27t-18 -24l-102 -135l125 -167q4 -5 7 -10.5t3 -12.5z" />
    <glyph glyph-name="guilsinglright" unicode="&#x203a;" horiz-adv-x="366" 
d="M316 311q0 -8 -3 -15.5t-8 -13.5l-119 -158q-11 -14 -25.5 -23.5t-32.5 -9.5h-40q-13 0 -25.5 7.5t-12.5 22.5q0 7 3 12.5t7 10.5l124 167l-101 135q-8 11 -18.5 24t-10.5 27q0 18 10 26t26 8h37q24 0 35.5 -9t25.5 -28l116 -152q5 -7 8.5 -15t3.5 -16z" />
    <glyph glyph-name="fraction" unicode="&#x2044;" horiz-adv-x="1008" 
d="M756 684l-392 -662q-6 -11 -16.5 -16.5t-27.5 -5.5h-42q-21 0 -27.5 10t4.5 29l386 650q11 19 20.5 25t26.5 6h42q23 0 28.5 -11t-2.5 -25z" />
    <glyph glyph-name="tironianet" unicode="&#x204a;" horiz-adv-x="480" 
d="M430 525q0 -28 -14 -72l-129 -386q-14 -39 -25.5 -53t-31.5 -14h-42q-21 0 -31.5 13t-0.5 42l137 405h-207q-36 0 -36 36v48q0 17 9.5 26.5t26.5 9.5h309q35 0 35 -35v-20z" />
    <glyph glyph-name="Euro" unicode="&#x20ac;" horiz-adv-x="564" 
d="M504 540q0 -40 -40 -40h-65q-40 0 -40 40v5q0 40 -40 40h-60q-40 0 -40 -40v-86h94q32 0 32 -32v-36q0 -32 -32 -32h-94v-50h94q32 0 32 -32v-36q0 -32 -32 -32h-94v-29q0 -40 40 -40h190q40 0 40 -40v-60q0 -20 -10 -30.5t-30 -9.5h-230q-150 0 -150 150v59h-7
q-32 0 -32 32v36q0 32 32 32h7v50h-7q-32 0 -32 32v36q0 32 32 32h7v111q0 150 150 150h135q150 0 150 -150v-30z" />
    <glyph glyph-name="indianrupeesign" unicode="&#x20b9;" horiz-adv-x="602" 
d="M552 493q0 -32 -32 -32h-27v-11q0 -140 -130 -149l168 -261q6 -8 6 -18q0 -11 -7.5 -16.5t-18.5 -5.5h-82q-23 0 -34.5 10t-23.5 30l-163 260h-116q-32 0 -32 32v36q0 32 32 32h100h111q40 0 40 40v21h-251q-32 0 -32 32v35q0 32 32 32h251v20q0 18 -10 29.5t-28 11.5
h-213q-32 0 -32 32v36q0 32 32 32h428q32 0 32 -32v-36q0 -32 -32 -32h-32q5 -25 5 -51v-10h27q32 0 32 -32v-35z" />
    <glyph glyph-name="rublesign" unicode="&#x20bd;" horiz-adv-x="581" 
d="M521 455q0 -150 -150 -150h-161v-66h160q32 0 32 -32v-65q0 -32 -32 -32h-160v-70q0 -40 -40 -40h-70q-40 0 -40 40v70h-8q-32 0 -32 32v65q0 32 32 32h8v66h-8q-32 0 -32 32v65q0 32 32 32h8v246q0 40 40 40h271q150 0 150 -150v-115zM371 475v69q0 19 -10.5 30
t-29.5 11h-121v-150h121q40 0 40 40z" />
    <glyph glyph-name="careof" unicode="&#x2105;" horiz-adv-x="1013" 
d="M963 108q0 -108 -108 -108h-104q-108 0 -108 108v248q0 108 108 108h104q108 0 108 -108v-248zM761 684l-392 -662q-6 -11 -16.5 -16.5t-27.5 -5.5h-42q-21 0 -27.5 10t4.5 29l386 650q11 19 20.5 25t26.5 6h42q23 0 28.5 -11t-2.5 -25zM370 596q0 -29 -29 -29h-47
q-28 0 -28 29v2q-2 29 -29 29h-50q-29 0 -29 -30v-216q0 -29 29 -29h144q29 0 29 -29v-38q0 -29 -29 -29h-173q-107 0 -108 108v248q0 108 108 108h104q108 0 108 -108v-16zM850 121v221q0 29 -28 29h-47q-29 0 -29 -28v-222q0 -28 29 -28h47q28 0 28 28z" />
    <glyph glyph-name="numero" unicode="&#x2116;" horiz-adv-x="940" 
d="M880 382q0 -111 -110 -111h-100q-110 0 -110 111v227q0 110 110 110h100q110 0 110 -110v-227zM863 150q0 -32 -32 -32h-222q-32 0 -32 32v36q0 32 32 32h222q32 0 32 -32v-36zM480 40q0 -40 -40 -40h-60q-28 0 -36 19l-144 350v-329q0 -40 -40 -40h-60q-40 0 -40 40v640
q0 40 40 40h60q29 0 36 -20l144 -348v328q0 40 40 40h60q40 0 40 -40v-640zM766 398v194q0 24 -23 24h-45q-24 0 -24 -23v-195q0 -23 24 -23h45q23 0 23 23z" />
    <glyph glyph-name="uni2117" unicode="&#x2117;" horiz-adv-x="848" 
d="M788 360q0 -75 -28.5 -141.5t-78 -116t-116 -78t-141.5 -28.5t-141.5 28.5t-116 78t-78 116t-28.5 141.5t28.5 141.5t78 116t116 78t141.5 28.5t141.5 -28.5t116 -78t78 -116t28.5 -141.5zM733 360q0 64 -24.5 121.5t-66.5 101t-98 69.5t-120 26t-120 -26t-98 -69.5
t-66.5 -101t-24.5 -121.5q0 -63 24 -120.5t66 -101t98.5 -69.5t120.5 -26t120.5 26t98.5 69.5t66 101t24 120.5zM588 406q0 -96 -96 -96h-118v-157q0 -26 -26 -26h-45q-25 0 -25 26v410q0 26 25 26h189q96 0 96 -96v-87zM492 422v54q0 26 -26 26h-92v-106h92q26 0 26 26z
" />
    <glyph glyph-name="trademark" unicode="&#x2122;" horiz-adv-x="645" 
d="M605 380q0 -20 -20 -20h-35q-20 0 -20 20v184l-62 -125q-5 -9 -12.5 -9t-12.5 9l-63 125v-184q0 -20 -20 -20h-35q-20 0 -20 20v320q0 20 20 20h35q13 0 18 -10l77 -154l77 154q5 10 18 10h35q20 0 20 -20v-320zM275 670q0 -20 -20 -20h-60v-270q0 -20 -20 -20h-35
q-20 0 -20 20v270h-60q-20 0 -20 20v30q0 20 20 20h195q20 0 20 -20v-30z" />
    <glyph glyph-name="Omega" unicode="&#x2126;" horiz-adv-x="611" 
d="M556 78v-43q0 -35 -36 -35h-149q-36 0 -36 36v58q0 17 6.5 23.5t21.5 11.5q29 11 40.5 36t11.5 54v295q0 70 -70 70h-80q-70 0 -70 -70v-293q0 -25 5.5 -40.5t14.5 -25.5t19 -15.5t19 -10.5q8 -4 13.5 -8t7.5 -11q2 -6 2.5 -17t0.5 -17v-41q0 -35 -36 -35h-149
q-36 0 -36 36v58q0 17 8 25t20 10.5t26 1.5t26 -1v3q-27 12 -43 33t-24.5 47t-11 53.5t-2.5 53.5v220q0 37 14 70t38.5 57.5t57 38.5t70.5 14h140q37 0 70 -14t57.5 -38.5t38.5 -57.5t14 -70v-220q0 -26 -2.5 -53.5t-11 -53t-24.5 -46.5t-42 -33v-4h9h33.5t22 -4t12.5 -15
t4 -33z" />
    <glyph glyph-name="onethird" unicode="&#x2153;" horiz-adv-x="987" 
d="M937 101q0 -101 -100 -101h-168q-29 0 -29 29v39q0 29 29 29h142q23 0 23 23v52q0 24 -23 24h-110q-29 0 -29 29v39q0 29 29 29h110q23 0 23 23v38q0 22 -23 24h-142q-14 0 -21.5 8t-7.5 21v39q0 29 29 29h168q100 0 100 -100v-39q0 -38 -15.5 -59t-38.5 -30
q23 -8 38.5 -29t15.5 -59v-58zM705 684l-392 -662q-6 -11 -16.5 -16.5t-27.5 -5.5h-42q-21 0 -27 10t5 29l385 650q11 19 21 25t27 6h42q22 0 28 -11t-3 -25zM261 274q0 -29 -29 -29h-45q-28 0 -28 29v293l-32 -32q-10 -10 -20.5 -9.5t-19.5 9.5l-28 28q-20 20 0 41l106 107
q9 9 24 9h43q29 0 29 -29v-417z" />
    <glyph glyph-name="twothirds" unicode="&#x2154;" horiz-adv-x="1064" 
d="M1014 101q0 -101 -100 -101h-168q-29 0 -29 29v39q0 29 29 29h142q23 0 23 23v52q0 24 -23 24h-110q-29 0 -29 29v39q0 29 29 29h110q23 0 23 23v38q0 22 -23 24h-142q-14 0 -21.5 8t-7.5 21v39q0 29 29 29h168q100 0 100 -100v-39q0 -38 -15.5 -59t-38.5 -30
q23 -8 38.5 -29t15.5 -59v-58zM782 684l-392 -662q-6 -11 -16.5 -16.5t-27.5 -5.5h-42q-21 0 -27 10t5 29l385 650q11 19 21 25t27 6h42q22 0 28 -11t-3 -25zM347 274q0 -30 -29 -30l-239 1q-29 0 -29 29v88q0 51 18.5 79t64.5 46l88 35q23 9 23 32v49q0 23 -23 23h-48
q-23 0 -23 -23v-3q0 -29 -29 -29h-42q-29 0 -29 29v19q0 101 100 101h97q100 0 100 -101v-60q0 -51 -17 -78t-60 -44l-95 -37q-14 -5 -18 -12.5t-4 -19.5v-26h165q29 0 29 -29v-39z" />
    <glyph glyph-name="partialdiff" unicode="&#x2202;" 
d="M450 135q0 -135 -135 -135h-130q-135 0 -135 135v310q0 69 33 102t102 33h54l-102 140q-11 16 -5.5 28t24.5 12h79q23 0 35.5 -8t23.5 -25l134 -194q22 -33 22 -88v-310zM316 152v275q0 37 -36 37h-59q-36 0 -36 -36v-277q0 -35 36 -35h59q36 0 36 36z" />
    <glyph glyph-name="Delta" unicode="&#x2206;" horiz-adv-x="713" 
d="M659 67q4 -11 4 -22.5t-5.5 -21.5t-17.5 -16.5t-32 -6.5h-499q-15 0 -27.5 5t-20.5 14t-10.5 21t3.5 27l244 616q6 17 19.5 30t36.5 13q24 0 36.5 -14.5t18.5 -28.5zM498 122l-144 352l-138 -352h282z" />
    <glyph glyph-name="product" unicode="&#x220f;" horiz-adv-x="620" 
d="M560 620q0 -40 -40 -40h-10v-720q0 -40 -40 -40h-65q-40 0 -40 40v720h-110v-720q0 -40 -40 -40h-65q-40 0 -40 40v720h-10q-40 0 -40 40v60q0 40 40 40h420q40 0 40 -40v-60z" />
    <glyph glyph-name="summation" unicode="&#x2211;" horiz-adv-x="570" 
d="M510 -140q0 -40 -40 -40h-374q-15 0 -25.5 8t-10.5 24q0 10 4 17l176 391l4 10l-4 10l-176 391q-3 7 -3 15q0 15 10.5 24.5t24.5 9.5h374q40 0 40 -40v-60q0 -40 -40 -40h-222l133 -296q2 -4 3 -6.5t1 -7.5t-1 -7.5t-3 -6.5l-133 -296h222q40 0 40 -40v-60z" />
    <glyph glyph-name="minus" unicode="&#x2212;" horiz-adv-x="629" 
d="M569 280q0 -23 -15.5 -38.5t-38.5 -15.5h-401q-23 0 -38.5 15.5t-15.5 38.5v43q0 23 15.5 38.5t38.5 15.5h401q23 0 38.5 -15.5t15.5 -38.5v-43z" />
    <glyph glyph-name="radical" unicode="&#x221a;" horiz-adv-x="633" 
d="M669 810l-279 -827q-6 -17 -18 -33.5t-31 -16.5h-54q-18 0 -27.5 13t-16.5 33l-131 381h-56q-25 -1 -40.5 14t-15.5 38v19q0 23 18 38.5t41 15.5h90q18 0 36.5 -9t24.5 -29l105 -328l232 714q5 15 14 25.5t27 10.5h49q16 0 24 -6t11 -15t1.5 -19t-4.5 -19z" />
    <glyph glyph-name="infinity" unicode="&#x221e;" horiz-adv-x="668" 
d="M608 317q0 -76 -31 -108.5t-90 -32.5q-31 0 -59 13t-49 30q-25 19 -46 44q-21 -25 -45 -44q-21 -17 -48 -30t-58 -13q-59 0 -90.5 32.5t-31.5 108.5t31 109.5t92 33.5q29 0 57 -13.5t49 -30.5q25 -19 46 -44q21 25 46 44q21 17 49 30.5t58 13.5q61 0 90.5 -34t29.5 -109z
M520 316q0 11 -0.5 22t-4 20t-10 14.5t-18.5 5.5q-23 0 -51.5 -18.5t-47.5 -40.5q8 -11 19.5 -22t24 -20t25 -14.5t23.5 -5.5q23 0 31.5 18t8.5 41zM280 319q-18 23 -44.5 41t-54.5 18q-12 0 -18.5 -5.5t-10 -14.5t-4 -20t-0.5 -22q0 -23 8.5 -41t31.5 -18q12 0 24.5 5.5
t25 14.5t23.5 20t19 22z" />
    <glyph glyph-name="integral" unicode="&#x222b;" horiz-adv-x="313" 
d="M343 786q0 -17 -11 -30t-34 -12h-14h-3h-14q-12 0 -20 -11t-12.5 -27.5t-6.5 -36.5t-2.5 -38t-0.5 -31.5v-17.5l1 -487q0 -60 -5.5 -102t-17.5 -67q-42 -86 -148 -86h-40q-23 0 -34 13t-11 31v33q0 18 12.5 30t29.5 14q13 0 23.5 -1t19 1t15.5 8.5t13 20.5q4 8 6.5 36
t2.5 81v470q0 66 3 111.5t11 67.5q35 110 145 113l27 1l21 -1q22 -1 33 -14t11 -27v-42z" />
    <glyph glyph-name="approxequal" unicode="&#x2248;" horiz-adv-x="586" 
d="M515 184q11 -11 10.5 -29t-14.5 -32l-38 -38q-14 -14 -32 -14.5t-29 10.5l-119 118l-119 -118q-11 -11 -29 -10.5t-32 14.5l-38 38q-14 14 -14.5 32t10.5 29l118 119l-118 119q-11 11 -10.5 29t14.5 32l38 38q14 14 32 15t29 -10l119 -119l119 119q11 11 29 10t32 -15
l38 -38q14 -14 14.5 -32t-10.5 -29l-118 -119z" />
    <glyph glyph-name="notequal" unicode="&#x2260;" horiz-adv-x="639" 
d="M579 163q0 -23 -15.5 -38.5t-38.5 -15.5h-274l-40 -67q-9 -17 -34 -17h-32q-35 0 -18 30l32 54h-45q-23 0 -38.5 15.5t-15.5 38.5v43q0 23 15.5 38.5t38.5 15.5h134l49 83h-183q-23 0 -38.5 15.5t-15.5 38.5v43q0 23 15.5 38.5t38.5 15.5h273l36 62q8 14 16 18.5t21 4.5
h32q17 0 21.5 -8.5t-1.5 -19.5l-34 -57h47q23 0 38.5 -15.5t15.5 -38.5v-43q0 -23 -15.5 -38.5t-38.5 -15.5h-136l-49 -83h185q23 0 38.5 -15.5t15.5 -38.5v-43z" />
    <glyph glyph-name="lessequal" unicode="&#x2264;" horiz-adv-x="604" 
d="M544 234q0 -32 -20 -40.5t-57 8.5l-367 174q-40 20 -40 60v43q0 22 12.5 35t29.5 24l367 173q40 20 57.5 10t17.5 -40v-46q0 -26 -10.5 -37t-31.5 -21l-264 -120l257 -118q22 -10 35.5 -26t13.5 -36v-43zM544 54q0 -23 -15.5 -38.5t-38.5 -15.5h-376q-23 0 -38.5 15.5
t-15.5 38.5v43q0 23 15.5 38.5t38.5 15.5h376q23 0 38.5 -15.5t15.5 -38.5v-43z" />
    <glyph glyph-name="greaterequal" unicode="&#x2265;" horiz-adv-x="604" 
d="M544 479v-43q0 -40 -40 -60l-367 -174q-37 -17 -57 -8.5t-20 40.5v43q0 20 13.5 36t35.5 26l257 118l-264 120q-21 10 -31.5 21t-10.5 37v46q0 30 17.5 40t57.5 -10l367 -173q17 -11 29.5 -24t12.5 -35zM544 54q0 -23 -15.5 -38.5t-38.5 -15.5h-376q-23 0 -38.5 15.5
t-15.5 38.5v43q0 23 15.5 38.5t38.5 15.5h376q23 0 38.5 -15.5t15.5 -38.5v-43z" />
    <glyph glyph-name="lozenge" unicode="&#x25ca;" horiz-adv-x="623" 
d="M561 400q10 -15 11.5 -33t-12.5 -38l-211 -317q-5 -7 -14.5 -14.5t-24.5 -7.5q-16 0 -25 8t-13 14l-212 320q-12 17 -10 35t9 30l213 313q5 8 15 14.5t24 6.5t23.5 -6.5t15.5 -14.5zM449 365l-138 207l-139 -207l139 -215z" />
    <glyph glyph-name="apple" unicode="&#xf8ff;" horiz-adv-x="868" 
d="M833 0h-174l-273 401l270 398h177v-799zM332 0h-297v799h295l-271 -397z" />
    <glyph glyph-name="fi" unicode="&#xfb01;" horiz-adv-x="550" 
d="M495 665q0 -35 -35 -35h-65q-35 0 -35 35v60q0 35 35 35h65q35 0 35 -35v-60zM495 35q0 -35 -35 -35h-65q-35 0 -35 35v510q0 35 35 35h65q35 0 35 -35v-510zM295 485q0 -35 -35 -35h-65v-415q0 -35 -35 -35h-65q-35 0 -35 35v415h-4q-36 0 -36 36v48q0 17 9.5 26.5
t26.5 9.5h4v55q0 135 136 135h63q36 0 36 -36v-48q0 -36 -36 -36h-29q-35 0 -35 -36v-34h65q35 0 35 -35v-50z" />
    <glyph glyph-name="fl" unicode="&#xfb02;" horiz-adv-x="540" 
d="M485 35q0 -35 -35 -35h-65q-35 0 -35 35v605h-120q-35 0 -35 -36v-34h55q35 0 35 -35v-50q0 -35 -35 -35h-55v-415q0 -35 -35 -35h-65q-35 0 -35 35v415h-4q-36 0 -36 36v48q0 17 9.5 26.5t26.5 9.5h4v55q0 135 136 135h254q16 0 25.5 -9t9.5 -26v-690z" />
    </font>
</defs>
</svg>
