<?xml version="1.0" standalone="no"?>
<!DOCTYPE svg PUBLIC "-//W3C//DTD SVG 1.1//EN" "http://www.w3.org/Graphics/SVG/1.1/DTD/svg11.dtd" >
<svg xmlns="http://www.w3.org/2000/svg" xmlns:xlink="http://www.w3.org/1999/xlink" version="1.1">
<metadata>
Created by FontForge 20170812 at Tue Jan 14 16:33:55 2014
 By www-data
weknow (c) (weknow.deviantart.com). 2012. All Rights Reserved
</metadata>
<defs>
<font id="SpaceTruckin" horiz-adv-x="1139" >
  <font-face 
    font-family="Space Truckin"
    font-weight="400"
    font-stretch="normal"
    units-per-em="2048"
    panose-1="2 0 0 0 0 0 0 0 0 0"
    ascent="1638"
    descent="-410"
    x-height="1100"
    cap-height="1572"
    bbox="100 -319 1976 1724"
    underline-thickness="150"
    underline-position="-442"
    unicode-range="U+0020-F005"
  />
<missing-glyph horiz-adv-x="1224" 
d="M100 0v1280h1024v-1280h-1024zM132 32h960v1216h-960v-1216z" />
    <glyph glyph-name=".notdef" horiz-adv-x="1224" 
d="M100 0v1280h1024v-1280h-1024zM132 32h960v1216h-960v-1216z" />
    <glyph glyph-name=".null" horiz-adv-x="0" 
 />
    <glyph glyph-name="nonmarkingreturn" horiz-adv-x="569" 
 />
    <glyph glyph-name="space" unicode=" " horiz-adv-x="569" 
 />
    <glyph glyph-name="space" unicode="&#xa0;" horiz-adv-x="569" 
 />
    <glyph glyph-name="exclam" unicode="!" horiz-adv-x="636" 
d="M528 1572l8 -8q-72 -919 -80 -940h-272q-12 0 -28 288l-56 656l4 4h424zM304 432h20q98 0 132 -112l4 -32q0 -101 -124 -136h-32q-81 0 -124 112l-4 28q0 109 128 140z" />
    <glyph glyph-name="quotedbl" unicode="&#x22;" horiz-adv-x="816" 
d="M240 1572q96 0 140 -116v-116q0 -88 -116 -128h-40q-52 8 -52 20q47 42 48 52v8q-81 0 -120 112v32q0 112 140 136zM576 1572q136 -26 136 -136l4 -52q0 -133 -96 -164l-32 -8h-32q-52 8 -52 20v4q18 0 52 52v4q-84 0 -124 116v20q22 144 144 144z" />
    <glyph glyph-name="numbersign" unicode="#" horiz-adv-x="1132" 
d="M236 1572h244l8 -8v-308h156v308l8 8h244l8 -8v-308h120l8 -8v-304l-8 -8h-120v-152h120l8 -8v-304l-8 -8h-120v-304l-8 -8h-244l-8 8v304h-156v-304l-8 -8h-244l-8 8v304h-120l-8 8v304l8 8h120v152h-120l-8 8v304l8 8h120v308zM488 936v-152h156v152h-156z" />
    <glyph glyph-name="dollar" unicode="$" horiz-adv-x="1132" 
d="M444 1724h244l8 -8v-144h76q170 0 240 -216q20 -74 20 -156v-56l-8 -8h-268q-5 0 -20 68q-28 48 -68 48h-204q-69 0 -80 -108v-16q11 -108 80 -108h332q156 0 228 -260l8 -108v-132q0 -272 -188 -360q-18 -8 -52 -8h-96v-148l-8 -8h-244l-8 8v148h-96q-167 0 -232 264
l-8 100v64l8 8h268q8 0 8 -36q25 -80 68 -80h228q53 0 68 108v12q-15 108 -68 108h-308q-179 0 -248 200q-24 81 -24 160v152q0 252 180 348q35 12 80 12h76v144z" />
    <glyph glyph-name="percent" unicode="%" horiz-adv-x="2076" 
d="M500 1572q238 0 364 -244q24 -56 32 -152q0 -251 -264 -376q-69 -20 -124 -20h-20q-233 0 -356 244q-24 54 -32 152q0 216 216 352q99 44 184 44zM1348 1572l4 -4h4l-380 -1416h-256v4q360 1363 380 1416h248zM400 1172q0 -81 100 -96q85 0 96 104q-20 92 -92 92h-12
q-78 0 -92 -100zM1580 944q239 0 364 -244q24 -56 32 -152q0 -233 -236 -364q-85 -32 -156 -32h-12q-238 0 -360 244q-24 53 -32 152q0 229 232 360q87 36 168 36zM1480 552v-8q18 -96 96 -96q100 17 100 96v8q0 72 -88 92h-20q-88 -20 -88 -92z" />
    <glyph glyph-name="ampersand" unicode="&#x26;" horiz-adv-x="1508" 
d="M420 1572h292q164 0 232 -196q28 -68 28 -172v-136q0 -65 -16 -144q16 -33 32 -48q38 48 140 144h276v-4l-372 -392l376 -392v-4h-280l-124 124q-31 -111 -128 -180q-50 -20 -80 -20h-464q-150 0 -224 252l-8 100v164q0 148 76 256q-16 57 -16 112v200q0 220 176 324
q42 12 84 12zM440 1132q0 -97 84 -112h72q59 0 84 56l8 52v16q-11 108 -80 108h-84q-84 -13 -84 -116v-4zM380 588q0 -94 72 -116h228q68 17 68 120q-13 108 -76 108h-220q-55 0 -72 -112z" />
    <glyph glyph-name="quotesingle" unicode="'" horiz-adv-x="480" 
d="M240 1572q96 0 140 -116v-116q0 -88 -116 -128h-40q-52 8 -52 20q47 42 48 52v8q-81 0 -120 112v32q0 112 140 136z" />
    <glyph glyph-name="parenleft" unicode="(" horiz-adv-x="716" 
d="M320 1724h288l4 -4h4q-248 -428 -248 -852q0 -418 248 -868v-4h-292q-103 188 -164 424q-56 235 -56 388v32l-4 20l4 24v36q0 278 132 628q66 155 84 176z" />
    <glyph glyph-name="parenright" unicode=")" horiz-adv-x="716" 
d="M100 1720l4 4h292q149 -262 204 -640l16 -220q0 -417 -220 -868h-296l92 184q156 355 156 696q0 414 -248 844z" />
    <glyph glyph-name="asterisk" unicode="*" horiz-adv-x="940" 
d="M456 1544h28q75 0 112 -96q8 -17 8 -64v-16q57 40 108 40q106 0 128 -136q0 -77 -104 -136q104 -44 104 -140q-27 -124 -120 -124l-12 -4q-46 0 -208 100l-32 16q-191 -116 -236 -116q-132 26 -132 132q0 90 104 136q-104 56 -104 144q0 85 100 124l32 4q46 0 104 -40v12
q0 122 84 156z" />
    <glyph glyph-name="plus" unicode="+" horiz-adv-x="1132" 
d="M412 1328h304l8 -8v-300h300l8 -8v-304l-8 -8h-300v-296l-8 -8h-304l-8 8v296h-296l-8 8v304l8 8h296v300z" />
    <glyph glyph-name="comma" unicode="," horiz-adv-x="480" 
d="M240 434q96 0 140 -116v-116q0 -88 -116 -128h-40q-52 8 -52 20q47 42 48 52v8q-81 0 -120 112v32q0 112 140 136z" />
    <glyph glyph-name="hyphen" unicode="-" horiz-adv-x="1132" 
d="M108 1020h916l8 -8v-304l-8 -8h-916l-8 8v304z" />
    <glyph glyph-name="hyphen" unicode="&#xad;" horiz-adv-x="1132" 
d="M108 1020h916l8 -8v-304l-8 -8h-916l-8 8v304z" />
    <glyph glyph-name="period" unicode="." horiz-adv-x="484" 
d="M228 432h20q98 0 132 -112l4 -32q0 -101 -124 -136h-32q-81 0 -124 112l-4 28q0 109 128 140z" />
    <glyph glyph-name="slash" unicode="/" horiz-adv-x="836" 
d="M728 1572l8 -8l-380 -1412h-248l-8 8l380 1412h248z" />
    <glyph glyph-name="zero" unicode="0" horiz-adv-x="1152" 
d="M580 1572q238 0 396 -324q76 -177 76 -360v-52q0 -364 -244 -596q-111 -88 -228 -88h-8q-259 0 -416 372q-56 169 -56 336v4q0 405 260 628q105 80 220 80zM384 904v-80q0 -207 124 -328q35 -24 60 -24h8q151 0 192 328l4 60q0 267 -140 376q-30 16 -60 16
q-102 0 -164 -200q-24 -89 -24 -148z" />
    <glyph glyph-name="one" unicode="1" horiz-adv-x="660" 
d="M300 1572q170 0 240 -216q20 -74 20 -156v-1040l-8 -8h-268l-8 8v976q0 97 -76 120l-100 312l4 4h196z" />
    <glyph glyph-name="two" unicode="2" horiz-adv-x="1132" 
d="M420 1572h292q218 0 260 -328v-188q0 -226 -156 -332q-41 -24 -108 -24h-256q-55 0 -68 -104v-20q13 -104 68 -104h228q55 0 72 116h272l8 -8v-60q0 -266 -184 -360l-56 -8h-452q-168 0 -232 268q-8 36 -8 96v140q0 268 188 356q18 8 52 8h256q77 0 92 88l4 28
q0 101 -84 116h-84q-80 -11 -80 -104l-12 -12h-264l-8 8v76q0 238 176 340q42 12 84 12z" />
    <glyph glyph-name="three" unicode="3" horiz-adv-x="1132" 
d="M420 1572h292q190 0 252 -260l8 -84v-184q0 -46 -16 -124q76 -101 76 -264v-140q0 -268 -188 -356q-18 -8 -52 -8h-452q-165 0 -232 264l-8 104v60l8 8h268q7 0 16 -60q26 -56 60 -56h228q55 0 68 104v20q-13 104 -68 104h-316l-8 8v304l8 8h244q72 0 84 116
q-12 116 -84 116h-84q-55 0 -76 -72q-4 -44 -12 -44h-268l-8 8v72q0 242 176 344q43 12 84 12z" />
    <glyph glyph-name="four" unicode="4" horiz-adv-x="1132" 
d="M480 1572l8 -8l-80 -544h364v544l8 8h244l8 -8v-1404l-8 -8h-244l-8 8v540h-664l-4 4h-4l132 868h248z" />
    <glyph glyph-name="five" unicode="5" horiz-adv-x="1132" 
d="M360 1572h664l8 -8l-100 -312h-468q-69 0 -80 -112v-120h408q182 0 240 -308v-216q0 -210 -156 -324q-44 -20 -76 -20h-460q-175 0 -236 292l-4 64l280 80q20 -116 72 -116h228q54 0 72 112q0 94 -72 116h-572l-8 8v492q0 281 200 368z" />
    <glyph glyph-name="six" unicode="6" horiz-adv-x="1132" 
d="M364 1572h660l8 -8l-100 -312h-468q-80 -14 -80 -108v-124h408q176 0 236 -284l4 -68v-164q0 -238 -172 -340l-60 -12h-464q-157 0 -228 264l-8 128v636q0 318 208 388zM384 700v-112q0 -97 68 -116h228q55 0 72 112q0 94 -72 116h-296z" />
    <glyph glyph-name="seven" unicode="7" horiz-adv-x="1128" 
d="M100 1572h920l8 -8v-304q-13 -37 -600 -1108h-328v4l596 1096h-492q-23 32 -104 320z" />
    <glyph glyph-name="eight" unicode="8" horiz-adv-x="1132" 
d="M420 1572h292q207 0 260 -296l4 -120v-40q0 -146 -20 -188q76 -119 76 -244v-196q0 -203 -156 -316q-44 -20 -76 -20h-464q-152 0 -224 252q-12 58 -12 176v20q0 232 80 324q-20 57 -20 148v128q6 274 180 360q35 12 80 12zM444 1136q0 -116 92 -116h72q71 0 84 108v12
q0 98 -80 112h-88q-69 0 -80 -108v-8zM384 576q16 -104 76 -104h220q58 0 72 116q0 90 -72 112h-224q-61 0 -72 -120v-4z" />
    <glyph glyph-name="nine" unicode="9" horiz-adv-x="1132" 
d="M364 1572h408q195 0 256 -272l4 -64v-756q0 -169 -128 -288q-50 -40 -104 -40h-688l-8 8l100 312h476q62 0 72 128v100h-380q-207 0 -264 272l-8 168q0 326 164 412q41 20 100 20zM384 1132q0 -97 84 -112h284v108q-10 124 -76 124h-208q-71 0 -84 -108v-12z" />
    <glyph glyph-name="colon" unicode=":" horiz-adv-x="480" 
d="M240 1240q97 0 140 -116v-40q0 -78 -100 -120l-44 -8q-99 0 -136 120v36q32 128 140 128zM240 768q96 0 140 -116v-40q0 -88 -120 -128h-28q-86 0 -128 104l-4 32v20q0 82 112 124z" />
    <glyph glyph-name="semicolon" unicode=";" horiz-adv-x="484" 
d="M240 1240q144 -23 144 -144q0 -90 -100 -132l-44 -8q-140 27 -140 140q0 100 112 140zM244 768q94 0 136 -112l4 -52v-36q0 -128 -112 -160l-32 -4l-64 16v8q44 38 48 56q-60 0 -116 92l-8 48q23 140 140 140z" />
    <glyph glyph-name="semicolon" unicode="&#x37e;" horiz-adv-x="484" 
d="M240 1240q144 -23 144 -144q0 -90 -100 -132l-44 -8q-140 27 -140 140q0 100 112 140zM244 768q94 0 136 -112l4 -52v-36q0 -128 -112 -160l-32 -4l-64 16v8q44 38 48 56q-60 0 -116 92l-8 48q23 140 140 140z" />
    <glyph glyph-name="less" unicode="&#x3c;" horiz-adv-x="832" 
d="M476 1256h252v-8l-372 -388l376 -392v-4h-252q-380 388 -380 396v4z" />
    <glyph glyph-name="equal" unicode="=" horiz-adv-x="1131" 
d="M108 1256h916l8 -8v-304l-8 -8h-916l-8 8v304zM108 784h916l8 -8v-304l-8 -8h-916l-8 8v304z" />
    <glyph glyph-name="greater" unicode="&#x3e;" horiz-adv-x="832" 
d="M100 1256h252l380 -392v-4l-380 -396h-252v4l372 392l-372 392v4z" />
    <glyph glyph-name="question" unicode="?" horiz-adv-x="1132" 
d="M360 1572h412q169 0 240 -216q20 -76 20 -156v-128q0 -275 -192 -364l-80 -8h-52v-164l-8 -8h-268l-8 8v332q0 107 96 144q16 8 44 8h92q92 0 92 116q0 98 -72 116h-212q-55 0 -76 -72q-4 -44 -12 -44h-268l-8 8v68q0 252 180 348q35 12 80 12zM580 432q128 -31 128 -140
q0 -97 -116 -140h-40q-128 28 -128 148q0 91 116 132h40z" />
    <glyph glyph-name="at" unicode="@" horiz-adv-x="1880" 
d="M380 1520h1120q201 0 264 -152q16 -43 16 -80v-476q0 -170 -176 -232q-18 -8 -52 -8h-856q-135 0 -212 164q-12 51 -12 96v48q0 193 156 256q50 16 84 16h684l8 -8v-360h4q92 0 92 112v296q0 112 -76 112h-968q-76 0 -76 -96v-700q0 -92 112 -92h1280l8 -8v-196l-8 -8
h-1440q-160 0 -228 184l-4 36v868q0 149 176 220zM756 852q0 -58 88 -68h192q88 0 88 92v60h-296q-63 0 -72 -76v-8z" />
    <glyph glyph-name="A" unicode="A" horiz-adv-x="1148" 
d="M768 1572q12 0 76 -368q204 -1018 204 -1052h-252q-9 0 -60 292q-5 0 -20 100h-284q-69 -392 -80 -392h-252v4l276 1416h392zM572 1264l-76 -400h156l-76 400h-4z" />
    <glyph glyph-name="B" unicode="B" horiz-adv-x="1132" 
d="M108 1572h564q218 0 260 -328v-188l-8 -92q108 -122 108 -316v-124q0 -269 -184 -364l-56 -8h-684l-8 8v1404zM360 1252v-232h196q72 0 88 72l8 44q-14 116 -84 116h-208zM360 700v-228h320q54 0 68 108v12q-14 108 -68 108h-320z" />
    <glyph glyph-name="C" unicode="C" horiz-adv-x="1132" 
d="M360 1572h664l4 -4h4l-104 -316h-464q-69 0 -80 -108v-568q13 -104 68 -104h572l8 -8v-304l-8 -8h-684q-168 0 -232 268l-8 92v692q0 262 180 356q35 12 80 12z" />
    <glyph glyph-name="D" unicode="D" horiz-adv-x="1132" 
d="M108 1572h664q166 0 236 -204q24 -72 24 -156v-704q0 -253 -184 -348l-48 -8h-692l-8 8v1404zM360 1252v-780h320q55 0 68 104v564q-11 112 -76 112h-312z" />
    <glyph glyph-name="E" unicode="E" horiz-adv-x="1132" 
d="M108 1572h916l8 -8l-100 -312h-572v-232h188l8 -8v-304l-8 -8h-188v-228h664l8 -8v-304l-8 -8h-916l-8 8v1404z" />
    <glyph glyph-name="F" unicode="F" horiz-adv-x="1132" 
d="M108 1572h916l4 -4h4l-100 -316h-572v-232h192l8 -8v-304l-8 -8h-192v-540l-8 -8h-244l-8 8v1404z" />
    <glyph glyph-name="G" unicode="G" horiz-adv-x="1132" 
d="M364 1572h660l8 -8l-100 -312h-464q-84 -13 -84 -116v-532q0 -95 52 -128l20 -4h224q59 0 72 116q-15 112 -72 112h-116l-8 8v304l8 8h236q144 0 216 -228q16 -48 16 -108v-196q0 -211 -164 -320q-37 -16 -68 -16h-464q-151 0 -224 252q-12 63 -12 200v512q0 291 96 380
q61 76 168 76z" />
    <glyph glyph-name="H" unicode="H" horiz-adv-x="1132" 
d="M108 1572h244l8 -8v-544h412v544l8 8h244l8 -8v-1404l-8 -8h-244l-8 8v540h-412v-540l-8 -8h-244l-8 8v1404z" />
    <glyph glyph-name="I" unicode="I" horiz-adv-x="460" 
d="M108 1572h244l8 -8v-1404l-8 -8h-244l-8 8v1404z" />
    <glyph glyph-name="J" unicode="J" horiz-adv-x="1132" 
d="M772 1572q209 0 256 -308l4 -56v-688q0 -272 -188 -360q-18 -8 -52 -8h-452q-168 0 -232 268q-8 36 -8 96v140l8 8l276 -80q10 -112 68 -112h228q56 0 68 112v560q-11 108 -80 108h-116q-10 6 -108 316l4 4h324z" />
    <glyph glyph-name="K" unicode="K" horiz-adv-x="1132" 
d="M108 1572h244l8 -8v-544h72l280 552h312l4 -4h4l-352 -708q310 -614 348 -708h-312q-11 0 -232 456l-52 92h-72v-540l-8 -8h-244l-8 8v1404z" />
    <glyph glyph-name="L" unicode="L" horiz-adv-x="1132" 
d="M108 1572h244l8 -8v-1092h664l8 -8v-304l-8 -8h-916l-8 8v1404z" />
    <glyph glyph-name="M" unicode="M" horiz-adv-x="1844" 
d="M768 1572q12 0 44 -276l108 -724h4l144 1000h392q12 0 64 -300l220 -1116l-4 -4h-248q-15 0 -44 192q-160 797 -168 864h-8v-4l-152 -1048l-4 -4h-388q-14 0 -40 232l-120 828h-4l-208 -1060h-256v4q248 1300 276 1416h392z" />
    <glyph glyph-name="N" unicode="N" horiz-adv-x="1116" 
d="M108 1573h456q12 0 96 -520l92 -520h4v1032l8 8h244l8 -8v-1404l-8 -8h-456q-10 0 -48 240q-132 680 -140 752h-4v-984l-8 -8h-244l-8 8v1404z" />
    <glyph glyph-name="O" unicode="O" horiz-adv-x="1156" 
d="M576 1573q267 0 424 -376q56 -172 56 -336q0 -379 -236 -612q-121 -96 -228 -96h-16q-271 0 -424 392q-52 168 -52 316q0 383 244 620q120 92 232 92zM384 857q0 -280 156 -380l28 -4h20q111 0 172 248q12 70 12 120v40q0 237 -132 352q-33 20 -64 20q-128 0 -184 -280z
" />
    <glyph glyph-name="P" unicode="P" horiz-adv-x="1132" 
d="M108 1573h664q166 0 236 -204q24 -75 24 -156v-144q0 -273 -192 -360l-80 -8h-400v-540l-8 -8h-244l-8 8v1404zM360 1253v-232h296q59 0 84 56l8 52v16q-11 108 -80 108h-308z" />
    <glyph glyph-name="Q" unicode="Q" horiz-adv-x="1156" 
d="M576 1573q269 0 424 -380q56 -175 56 -332q0 -192 -76 -380q76 -102 76 -120v-200l-8 -8h-144l-76 104q-119 -104 -248 -104h-4q-265 0 -420 376q-56 168 -56 332q0 423 284 652q109 60 192 60zM384 873v-12q0 -279 144 -376q21 -12 40 -12h20q35 0 72 36v4
q-84 121 -84 136v208l8 8h140q7 0 40 -60h4l4 20v12q0 324 -156 408l-44 8q-106 0 -168 -220q-20 -75 -20 -160z" />
    <glyph glyph-name="R" unicode="R" horiz-adv-x="1132" 
d="M108 1573h660q174 0 244 -216q20 -77 20 -168v-104q0 -291 -192 -376v-4q188 -535 188 -552h-312q-14 0 -72 232l-92 316h-192v-540l-8 -8h-244l-8 8v1404zM360 1253v-232h304q71 0 84 104v12q-11 116 -76 116h-312z" />
    <glyph glyph-name="S" unicode="S" horiz-adv-x="1132" 
d="M420 1573h292q218 0 260 -328v-100l-8 -8h-268q-8 0 -8 36q-24 80 -80 80h-84q-84 -13 -84 -116q12 -116 84 -116h272q156 0 228 -260l8 -108v-132q0 -273 -188 -360q-18 -8 -52 -8h-452q-165 0 -232 264l-8 100v64l8 8h268q8 0 8 -36q25 -80 68 -80h228q56 0 68 112v8
q-15 108 -68 108h-252q-175 0 -244 200q-24 76 -24 144v176q0 238 176 340q42 12 84 12z" />
    <glyph glyph-name="T" unicode="T" horiz-adv-x="1132" 
d="M108 1573h916l8 -8v-304l-8 -8h-328v-1092l-8 -8h-244l-8 8v1092h-328l-8 8v304z" />
    <glyph glyph-name="U" unicode="U" horiz-adv-x="1111" 
d="M108 1573h268l8 -8v-984q14 -108 68 -108h200q51 0 72 76l4 40v976l8 8h268l8 -8v-1004q0 -347 -216 -408h-456q-168 0 -232 272l-8 100v1040z" />
    <glyph glyph-name="V" unicode="V" horiz-adv-x="1152" 
d="M352 1573q12 0 112 -548l108 -556h8q188 994 216 1104h248l8 -8l-276 -1408l-4 -4h-388q-15 0 -44 192l-240 1224l4 4h248z" />
    <glyph glyph-name="W" unicode="W" horiz-adv-x="1844" 
d="M100 1573h252q10 0 80 -396l132 -668h4q149 1064 156 1064h388q16 0 32 -172l132 -888h4l204 1056l4 4h248l4 -4h4q-252 -1301 -280 -1416h-392q-9 0 -48 308q-68 433 -100 692h-4l-148 -1000h-392q-12 0 -76 368q-204 1017 -204 1052z" />
    <glyph glyph-name="X" unicode="X" horiz-adv-x="1148" 
d="M100 1573h252q8 0 152 -456l32 -104h76l180 560h256v-4l-224 -708l224 -708h-252q-8 0 -152 456l-32 104h-76q-173 -560 -184 -560h-244l-8 8l224 700z" />
    <glyph glyph-name="Y" unicode="Y" horiz-adv-x="1108" 
d="M108 1573h268l8 -8v-428q13 -104 68 -104h204q72 14 72 136v396l8 8h264l8 -8v-512q0 -221 -168 -324q-37 -16 -68 -16h-88v-552l-8 -8h-244l-8 8v552h-88q-154 0 -228 256l-8 100v496z" />
    <glyph glyph-name="Z" unicode="Z" horiz-adv-x="1128" 
d="M1020 1573l8 -8v-312l-548 -776v-4h196q54 0 76 116l272 76l4 -4v-180q0 -169 -128 -288q-50 -40 -104 -40h-688l-8 8v312l552 780h-448q-9 0 -104 312v4l4 4h916z" />
    <glyph glyph-name="bracketleft" unicode="[" horiz-adv-x="792" 
d="M220 1724h464l8 -8v-264l-8 -8h-304v-1164h304l8 -8v-268l-8 -7h-412q-134 0 -164 95l-8 32v1476q0 75 96 116z" />
    <glyph glyph-name="backslash" unicode="\" horiz-adv-x="840" 
d="M352 1572q14 0 52 -172l336 -1244l-4 -4h-248q-14 0 -56 188l-332 1228l4 4h248z" />
    <glyph glyph-name="bracketright" unicode="]" horiz-adv-x="792" 
d="M108 1724h456q83 0 124 -108l4 -32v-1456q0 -86 -112 -128l-56 -3h-416l-8 7v268l8 8h304v1164h-304l-8 8v264z" />
    <glyph glyph-name="asciicircum" unicode="^" horiz-adv-x="796" 
d="M392 1568h12l292 -380v-252h-4q-292 367 -292 376h-4q-7 -19 -292 -376h-4v252z" />
    <glyph glyph-name="underscore" unicode="_" horiz-adv-x="1132" 
d="M108 280h916l8 -8v-303l-8 -8h-916l-8 8v303z" />
    <glyph glyph-name="grave" unicode="`" horiz-adv-x="904" 
d="M100 1572h404q112 -132 300 -384l-148 -252h-8q-548 625 -548 632v4z" />
    <glyph glyph-name="a" unicode="a" horiz-adv-x="1132" 
d="M360 1100h416q179 0 244 -164q12 -32 12 -68v-708l-8 -8h-692q-155 0 -224 180l-8 100v20q0 200 152 264q47 16 96 16h328q64 0 76 80q0 58 -76 72h-220q-56 0 -76 -76h-272l-8 8v4q0 197 148 260q44 20 112 20zM384 444v-4q0 -76 92 -76h176q100 0 100 100v52h-304
q-50 0 -64 -72z" />
    <glyph glyph-name="b" unicode="b" horiz-adv-x="1152" 
d="M108 1572h264l8 -8v-464h416q190 0 252 -184l4 -44v-500q0 -128 -152 -204q-33 -16 -88 -16h-704l-8 8v1404zM380 884v-520h292q100 0 100 92v340q-7 88 -72 88h-320z" />
    <glyph glyph-name="c" unicode="c" horiz-adv-x="1132" 
d="M356 1100h672q-65 -157 -104 -216h-472q-65 0 -72 -88v-340q0 -92 100 -92h544l8 -8v-196l-8 -8h-684q-185 0 -240 204v516q0 149 176 220z" />
    <glyph glyph-name="d" unicode="d" horiz-adv-x="1152" 
d="M780 1572h264l8 -8v-1404l-8 -8h-712q-132 0 -208 136q-24 45 -24 96v472q0 167 168 232q36 12 88 12h416v464zM380 772v-304q0 -104 100 -104h292v520h-316q-76 0 -76 -112z" />
    <glyph glyph-name="e" unicode="e" horiz-adv-x="1132" 
d="M356 1100h416q191 0 252 -184l8 -100v-16q0 -210 -168 -272q-55 -12 -132 -12h-280q-60 0 -72 -76q0 -66 88 -76h180q96 6 96 60l4 16l4 4h272q8 0 8 -12q0 -200 -152 -264q-43 -16 -80 -16h-468q-158 0 -224 176q-8 18 -8 52v496q0 139 172 216zM380 788v-56h292
q76 12 76 76q-13 76 -72 76h-224q-72 0 -72 -96z" />
    <glyph glyph-name="f" unicode="f" horiz-adv-x="1132" 
d="M356 1572h668l4 -4h4q-97 -207 -108 -212h-468q-72 -13 -72 -64v-384q0 -72 96 -72h260l8 -8v-196l-8 -8h-356v-464l-8 -8h-268l-8 8v1176q0 143 148 216q42 20 108 20z" />
    <glyph glyph-name="g" unicode="g" horiz-adv-x="1132" 
d="M360 1100h664l8 -8v-1167q0 -164 -164 -232q-32 -12 -68 -12h-468q-163 0 -228 192l-4 56v87l4 4v4l280 -55q0 -76 96 -76h172q96 0 96 72v187h-416q-163 0 -228 192l-4 56v444q0 183 172 244q30 12 88 12zM384 812v-376q0 -72 96 -72h268v520h-292q-72 -11 -72 -72z" />
    <glyph glyph-name="h" unicode="h" horiz-adv-x="1108" 
d="M108 1572h268l8 -8v-464h368q191 0 252 -184l4 -44v-712l-8 -8h-264l-8 8v636q-7 88 -72 88h-200q-72 -9 -72 -72v-652l-8 -8h-268l-8 8v1404z" />
    <glyph glyph-name="i" unicode="i" horiz-adv-x="484" 
d="M244 1572q96 0 140 -116v-36q0 -87 -112 -128l-32 -4q-97 0 -136 116v44q0 76 108 120zM108 1100h268l8 -8v-932l-8 -8h-268l-8 8v932z" />
    <glyph glyph-name="j" unicode="j" horiz-adv-x="1132" 
d="M788 1572q144 -24 144 -140q-22 -144 -144 -144q-115 0 -140 144q27 140 140 140zM776 1100q179 0 244 -164q12 -32 12 -68v-959q0 -149 -172 -220l-60 -8h-468q-155 0 -224 180l-8 100v55l4 4v4q273 -48 280 -59q0 -62 88 -72h180q100 0 100 100v795q0 96 -76 96h-124
q-24 35 -104 212l4 4h324z" />
    <glyph glyph-name="k" unicode="k" horiz-adv-x="1152" 
d="M108 1572h264l8 -8v-832h80q247 344 276 368h308l8 -8l-352 -464l348 -468v-8h-316l-276 364h-76v-356l-8 -8h-264l-8 8v1404z" />
    <glyph glyph-name="l" unicode="l" horiz-adv-x="656" 
d="M108 1572h264l8 -8v-1088q0 -89 52 -108q44 0 44 -44q80 -152 80 -172h-224q-158 0 -224 176l-8 56v1180z" />
    <glyph glyph-name="m" unicode="m" horiz-adv-x="1736" 
d="M108 1100h640q80 0 116 -24q45 24 120 24h392q187 0 248 -172q12 -29 12 -80v-688l-8 -8h-268l-8 8v652q-11 72 -72 72h-200q-59 0 -72 -76v-648l-8 -8h-268l-8 8v660q0 51 -72 64h-200q-65 0 -72 -88v-636l-8 -8h-264l-8 8v932z" />
    <glyph glyph-name="n" unicode="n" horiz-adv-x="1112" 
d="M360 1100h392q191 0 252 -184l8 -112v-644l-8 -8h-268l-8 8v648q-13 76 -72 76h-200q-72 -9 -72 -72v-652l-8 -8h-268l-8 8v692q0 188 200 244z" />
    <glyph glyph-name="o" unicode="o" horiz-adv-x="1152" 
d="M580 1100q274 0 432 -276q40 -103 40 -180v-36q0 -259 -276 -416q-107 -40 -188 -40h-28q-235 0 -392 232q-68 111 -68 244q0 279 284 432q108 40 196 40zM384 644v-40q0 -137 120 -220q30 -16 76 -20q119 0 180 172l12 92q0 176 -144 248l-48 8q-131 0 -184 -168
q-12 -38 -12 -72z" />
    <glyph glyph-name="p" unicode="p" horiz-adv-x="1156" 
d="M108 1100h692q181 0 244 -168q12 -32 12 -68v-468q0 -164 -164 -232q-32 -12 -68 -12h-440v-463l-8 -8h-268l-8 8v1403zM384 884v-520h292q96 0 96 72v384q0 51 -72 64h-316z" />
    <glyph glyph-name="q" unicode="q" horiz-adv-x="1156" 
d="M360 1100h688l8 -8v-1403l-8 -8h-268l-8 8v463h-440q-137 0 -212 148q-20 41 -20 124v396q0 197 148 260q44 20 112 20zM384 440q0 -76 92 -76h296v520h-316q-72 -10 -72 -80v-364z" />
    <glyph glyph-name="r" unicode="r" horiz-adv-x="1128" 
d="M356 1100h672q-59 -145 -104 -216h-472q-72 0 -72 -96v-628l-8 -8h-264l-8 8v716q0 139 172 216z" />
    <glyph glyph-name="s" unicode="s" horiz-adv-x="1132" 
d="M420 1100h296q192 0 252 -184l8 -92v-8l-8 -8h-268q-9 0 -12 28q-26 48 -68 48h-104q-72 -11 -72 -72v-8q0 -59 76 -72h268q173 0 236 -176q8 -18 8 -52v-124q0 -159 -188 -224l-52 -4h-460q-164 0 -228 196l-4 92l4 4h272q7 0 20 -48q29 -32 88 -32h168q100 0 100 80
q-14 72 -72 72h-216q-190 0 -244 88q-60 63 -60 164v80q0 199 208 248z" />
    <glyph glyph-name="t" unicode="t" horiz-adv-x="1132" 
d="M108 1572h268l8 -8v-464h356l8 -8v-200l-8 -8h-284q-72 -11 -72 -76v-368q0 -76 92 -76h452q7 0 104 -208l-4 -4h-696q-138 0 -212 148q-20 41 -20 124v1140z" />
    <glyph glyph-name="u" unicode="u" horiz-adv-x="1112" 
d="M108 1100h268l8 -8v-652q0 -76 92 -76h160q92 0 92 76v652l8 8h268l8 -8v-692q0 -170 -172 -240l-60 -8h-448q-155 0 -224 180l-8 100v660z" />
    <glyph glyph-name="v" unicode="v" horiz-adv-x="1152" 
d="M352 1100q12 0 116 -384q88 -279 104 -356q8 0 124 412l100 328h248l8 -8l-276 -936l-4 -4h-392q-12 9 -92 304l-188 640l4 4h248z" />
    <glyph glyph-name="w" unicode="w" horiz-adv-x="1740" 
d="M108 1100h268l8 -8v-640q0 -88 100 -88h148q96 0 96 72v656l8 8h268l8 -8v-652q0 -76 92 -76h160q92 0 92 76v652l8 8h268l8 -8v-684q0 -177 -164 -244q-32 -12 -68 -12h-448q-39 0 -92 20q-41 -20 -88 -20h-448q-152 0 -220 172q-12 37 -12 132v636z" />
    <glyph glyph-name="x" unicode="x" horiz-adv-x="1152" 
d="M352 1100q11 0 188 -376h68q60 106 184 372l4 4h248l8 -8l-228 -464l228 -472l-4 -4h-248q-10 0 -168 336l-16 36h-72q-35 -58 -184 -372h-256l224 476l-228 468l4 4h248z" />
    <glyph glyph-name="y" unicode="y" horiz-adv-x="1132" 
d="M128 1100h268l8 -8v-652q0 -76 92 -76h160q92 0 92 76v652l8 8h268l8 -8v-1151q0 -184 -164 -248q-32 -12 -68 -12h-468q-158 0 -224 176l-8 56v107q284 -42 284 -55q0 -72 96 -72h176q92 0 92 76v183h-396q-157 0 -224 180l-8 80v680z" />
    <glyph glyph-name="z" unicode="z" horiz-adv-x="1128" 
d="M1020 1100l8 -8v-204l-548 -524h168q96 6 96 60q0 27 96 36l188 32v-120q0 -137 -168 -212l-60 -8h-692l-8 8v204l548 520h-444q-33 52 -104 212l4 4h916z" />
    <glyph glyph-name="braceleft" unicode="{" horiz-adv-x="748" 
d="M496 1724h144l8 -8q-24 -32 -140 -248l12 -240q0 -156 -132 -348l-12 -24q144 -195 144 -364l-12 -240v-4l140 -248l-4 -3h-96q-223 0 -260 103q-28 57 -28 156l12 236q0 123 -152 300q-19 29 -20 56v28q0 37 116 180q56 100 56 184l-12 224q0 186 104 236q65 24 132 24z
" />
    <glyph glyph-name="bar" unicode="|" horiz-adv-x="464" 
d="M108 1724h248l8 -8v-1712l-8 -7h-248l-8 7v1712z" />
    <glyph glyph-name="braceright" unicode="}" horiz-adv-x="748" 
d="M100 1720l4 4h148q165 0 216 -116q20 -75 20 -152l-12 -212v-8q0 -134 160 -316l12 -44v-28q0 -39 -88 -144q-84 -115 -84 -208v-16l12 -236q0 -138 -68 -196q-51 -51 -220 -51h-92l-4 3h-4l140 252l-12 244q0 160 144 364q-144 204 -144 376l12 240z" />
    <glyph glyph-name="asciitilde" unicode="~" horiz-adv-x="1152" 
d="M108 1008h268q6 0 20 -52q26 -28 44 -28l392 80h20q121 0 188 -160q12 -32 12 -60v-64l-8 -8h-264l-28 56q-23 23 -44 24q-369 -84 -404 -84q-127 0 -196 180l-8 68v40z" />
    <glyph glyph-name="exclamdown" unicode="&#xa1;" horiz-adv-x="682" 
 />
    <glyph glyph-name="cent" unicode="&#xa2;" 
 />
    <glyph glyph-name="sterling" unicode="&#xa3;" 
 />
    <glyph glyph-name="currency" unicode="&#xa4;" 
 />
    <glyph glyph-name="yen" unicode="&#xa5;" 
 />
    <glyph glyph-name="brokenbar" unicode="&#xa6;" horiz-adv-x="532" 
 />
    <glyph glyph-name="section" unicode="&#xa7;" 
 />
    <glyph glyph-name="dieresis" unicode="&#xa8;" horiz-adv-x="682" 
 />
    <glyph glyph-name="copyright" unicode="&#xa9;" horiz-adv-x="1509" 
 />
    <glyph glyph-name="ordfeminine" unicode="&#xaa;" horiz-adv-x="758" 
 />
    <glyph glyph-name="guillemotleft" unicode="&#xab;" 
 />
    <glyph glyph-name="logicalnot" unicode="&#xac;" horiz-adv-x="1196" 
 />
    <glyph glyph-name="registered" unicode="&#xae;" horiz-adv-x="1509" 
 />
    <glyph glyph-name="macron" unicode="&#xaf;" horiz-adv-x="1131" 
 />
    <glyph glyph-name="degree" unicode="&#xb0;" horiz-adv-x="819" 
 />
    <glyph glyph-name="plusminus" unicode="&#xb1;" horiz-adv-x="1124" 
 />
    <glyph glyph-name="uni00B2" unicode="&#xb2;" horiz-adv-x="682" 
 />
    <glyph glyph-name="uni00B3" unicode="&#xb3;" horiz-adv-x="682" 
 />
    <glyph glyph-name="acute" unicode="&#xb4;" horiz-adv-x="682" 
 />
    <glyph glyph-name="mu" unicode="&#xb5;" horiz-adv-x="1180" 
 />
    <glyph glyph-name="paragraph" unicode="&#xb6;" horiz-adv-x="1100" 
 />
    <glyph glyph-name="periodcentered" unicode="&#xb7;" horiz-adv-x="569" 
 />
    <glyph glyph-name="periodcentered" unicode="&#x2219;" horiz-adv-x="569" 
 />
    <glyph glyph-name="cedilla" unicode="&#xb8;" horiz-adv-x="682" 
 />
    <glyph glyph-name="uni00B9" unicode="&#xb9;" horiz-adv-x="682" 
 />
    <glyph glyph-name="ordmasculine" unicode="&#xba;" horiz-adv-x="748" 
 />
    <glyph glyph-name="guillemotright" unicode="&#xbb;" 
 />
    <glyph glyph-name="onequarter" unicode="&#xbc;" horiz-adv-x="1708" 
 />
    <glyph glyph-name="onehalf" unicode="&#xbd;" horiz-adv-x="1708" 
 />
    <glyph glyph-name="threequarters" unicode="&#xbe;" horiz-adv-x="1708" 
 />
    <glyph glyph-name="questiondown" unicode="&#xbf;" horiz-adv-x="1251" 
 />
    <glyph glyph-name="Agrave" unicode="&#xc0;" horiz-adv-x="1366" 
 />
    <glyph glyph-name="Aacute" unicode="&#xc1;" horiz-adv-x="1366" 
 />
    <glyph glyph-name="Acircumflex" unicode="&#xc2;" horiz-adv-x="1366" 
 />
    <glyph glyph-name="Atilde" unicode="&#xc3;" horiz-adv-x="1366" 
 />
    <glyph glyph-name="Adieresis" unicode="&#xc4;" horiz-adv-x="1366" 
 />
    <glyph glyph-name="Aring" unicode="&#xc5;" horiz-adv-x="1366" 
 />
    <glyph glyph-name="AE" unicode="&#xc6;" horiz-adv-x="2048" 
 />
    <glyph glyph-name="Ccedilla" unicode="&#xc7;" horiz-adv-x="1479" 
 />
    <glyph glyph-name="Egrave" unicode="&#xc8;" horiz-adv-x="1366" 
 />
    <glyph glyph-name="Eacute" unicode="&#xc9;" horiz-adv-x="1366" 
 />
    <glyph glyph-name="Ecircumflex" unicode="&#xca;" horiz-adv-x="1366" 
 />
    <glyph glyph-name="Edieresis" unicode="&#xcb;" horiz-adv-x="1366" 
 />
    <glyph glyph-name="Igrave" unicode="&#xcc;" horiz-adv-x="569" 
 />
    <glyph glyph-name="Iacute" unicode="&#xcd;" horiz-adv-x="569" 
 />
    <glyph glyph-name="Icircumflex" unicode="&#xce;" horiz-adv-x="569" 
 />
    <glyph glyph-name="Idieresis" unicode="&#xcf;" horiz-adv-x="569" 
 />
    <glyph glyph-name="Eth" unicode="&#xd0;" horiz-adv-x="1479" 
 />
    <glyph glyph-name="Ntilde" unicode="&#xd1;" horiz-adv-x="1479" 
 />
    <glyph glyph-name="Ograve" unicode="&#xd2;" horiz-adv-x="1593" 
 />
    <glyph glyph-name="Oacute" unicode="&#xd3;" horiz-adv-x="1593" 
 />
    <glyph glyph-name="Ocircumflex" unicode="&#xd4;" horiz-adv-x="1593" 
 />
    <glyph glyph-name="Otilde" unicode="&#xd5;" horiz-adv-x="1593" 
 />
    <glyph glyph-name="Odieresis" unicode="&#xd6;" horiz-adv-x="1593" 
 />
    <glyph glyph-name="multiply" unicode="&#xd7;" horiz-adv-x="1196" 
 />
    <glyph glyph-name="Oslash" unicode="&#xd8;" horiz-adv-x="1593" 
 />
    <glyph glyph-name="Ugrave" unicode="&#xd9;" horiz-adv-x="1479" 
 />
    <glyph glyph-name="Uacute" unicode="&#xda;" horiz-adv-x="1479" 
 />
    <glyph glyph-name="Ucircumflex" unicode="&#xdb;" horiz-adv-x="1479" 
 />
    <glyph glyph-name="Udieresis" unicode="&#xdc;" horiz-adv-x="1479" 
 />
    <glyph glyph-name="Yacute" unicode="&#xdd;" horiz-adv-x="1366" 
 />
    <glyph glyph-name="Thorn" unicode="&#xde;" horiz-adv-x="1366" 
 />
    <glyph glyph-name="germandbls" unicode="&#xdf;" horiz-adv-x="1251" 
 />
    <glyph glyph-name="agrave" unicode="&#xe0;" 
 />
    <glyph glyph-name="aacute" unicode="&#xe1;" 
 />
    <glyph glyph-name="acircumflex" unicode="&#xe2;" 
 />
    <glyph glyph-name="atilde" unicode="&#xe3;" 
 />
    <glyph glyph-name="adieresis" unicode="&#xe4;" 
 />
    <glyph glyph-name="aring" unicode="&#xe5;" 
 />
    <glyph glyph-name="ae" unicode="&#xe6;" horiz-adv-x="1821" 
 />
    <glyph glyph-name="ccedilla" unicode="&#xe7;" horiz-adv-x="1024" 
 />
    <glyph glyph-name="egrave" unicode="&#xe8;" 
 />
    <glyph glyph-name="eacute" unicode="&#xe9;" 
 />
    <glyph glyph-name="ecircumflex" unicode="&#xea;" 
 />
    <glyph glyph-name="edieresis" unicode="&#xeb;" 
 />
    <glyph glyph-name="igrave" unicode="&#xec;" horiz-adv-x="569" 
 />
    <glyph glyph-name="iacute" unicode="&#xed;" horiz-adv-x="569" 
 />
    <glyph glyph-name="icircumflex" unicode="&#xee;" horiz-adv-x="569" 
 />
    <glyph glyph-name="idieresis" unicode="&#xef;" horiz-adv-x="569" 
 />
    <glyph glyph-name="eth" unicode="&#xf0;" 
 />
    <glyph glyph-name="ntilde" unicode="&#xf1;" 
 />
    <glyph glyph-name="ograve" unicode="&#xf2;" 
 />
    <glyph glyph-name="oacute" unicode="&#xf3;" 
 />
    <glyph glyph-name="ocircumflex" unicode="&#xf4;" 
 />
    <glyph glyph-name="otilde" unicode="&#xf5;" 
 />
    <glyph glyph-name="odieresis" unicode="&#xf6;" 
 />
    <glyph glyph-name="divide" unicode="&#xf7;" horiz-adv-x="1124" 
 />
    <glyph glyph-name="oslash" unicode="&#xf8;" horiz-adv-x="1251" 
 />
    <glyph glyph-name="ugrave" unicode="&#xf9;" 
 />
    <glyph glyph-name="uacute" unicode="&#xfa;" 
 />
    <glyph glyph-name="ucircumflex" unicode="&#xfb;" 
 />
    <glyph glyph-name="udieresis" unicode="&#xfc;" 
 />
    <glyph glyph-name="yacute" unicode="&#xfd;" horiz-adv-x="1024" 
 />
    <glyph glyph-name="thorn" unicode="&#xfe;" 
 />
    <glyph glyph-name="ydieresis" unicode="&#xff;" horiz-adv-x="1024" 
 />
    <glyph glyph-name="Amacron" unicode="&#x100;" horiz-adv-x="1366" 
 />
    <glyph glyph-name="amacron" unicode="&#x101;" 
 />
    <glyph glyph-name="Abreve" unicode="&#x102;" horiz-adv-x="1366" 
 />
    <glyph glyph-name="abreve" unicode="&#x103;" 
 />
    <glyph glyph-name="Aogonek" unicode="&#x104;" horiz-adv-x="1366" 
 />
    <glyph glyph-name="aogonek" unicode="&#x105;" 
 />
    <glyph glyph-name="Cacute" unicode="&#x106;" horiz-adv-x="1479" 
 />
    <glyph glyph-name="cacute" unicode="&#x107;" horiz-adv-x="1024" 
 />
    <glyph glyph-name="Ccircumflex" unicode="&#x108;" horiz-adv-x="1479" 
 />
    <glyph glyph-name="ccircumflex" unicode="&#x109;" horiz-adv-x="1024" 
 />
    <glyph glyph-name="Cdotaccent" unicode="&#x10a;" horiz-adv-x="1479" 
 />
    <glyph glyph-name="cdotaccent" unicode="&#x10b;" horiz-adv-x="1024" 
 />
    <glyph glyph-name="Ccaron" unicode="&#x10c;" horiz-adv-x="1479" 
 />
    <glyph glyph-name="ccaron" unicode="&#x10d;" horiz-adv-x="1024" 
 />
    <glyph glyph-name="Dcaron" unicode="&#x10e;" horiz-adv-x="1479" 
 />
    <glyph glyph-name="dcaron" unicode="&#x10f;" horiz-adv-x="1259" 
 />
    <glyph glyph-name="Dcroat" unicode="&#x110;" horiz-adv-x="1479" 
 />
    <glyph glyph-name="dcroat" unicode="&#x111;" 
 />
    <glyph glyph-name="Emacron" unicode="&#x112;" horiz-adv-x="1366" 
 />
    <glyph glyph-name="emacron" unicode="&#x113;" 
 />
    <glyph glyph-name="Ebreve" unicode="&#x114;" horiz-adv-x="1366" 
 />
    <glyph glyph-name="ebreve" unicode="&#x115;" 
 />
    <glyph glyph-name="Edotaccent" unicode="&#x116;" horiz-adv-x="1366" 
 />
    <glyph glyph-name="edotaccent" unicode="&#x117;" 
 />
    <glyph glyph-name="Eogonek" unicode="&#x118;" horiz-adv-x="1366" 
 />
    <glyph glyph-name="eogonek" unicode="&#x119;" 
 />
    <glyph glyph-name="Ecaron" unicode="&#x11a;" horiz-adv-x="1366" 
 />
    <glyph glyph-name="ecaron" unicode="&#x11b;" 
 />
    <glyph glyph-name="Gcircumflex" unicode="&#x11c;" horiz-adv-x="1593" 
 />
    <glyph glyph-name="gcircumflex" unicode="&#x11d;" 
 />
    <glyph glyph-name="Gbreve" unicode="&#x11e;" horiz-adv-x="1593" 
 />
    <glyph glyph-name="gbreve" unicode="&#x11f;" 
 />
    <glyph glyph-name="Gdotaccent" unicode="&#x120;" horiz-adv-x="1593" 
 />
    <glyph glyph-name="gdotaccent" unicode="&#x121;" 
 />
    <glyph glyph-name="Gcommaaccent" unicode="&#x122;" horiz-adv-x="1593" 
 />
    <glyph glyph-name="gcommaaccent" unicode="&#x123;" 
 />
    <glyph glyph-name="Hcircumflex" unicode="&#x124;" horiz-adv-x="1479" 
 />
    <glyph glyph-name="hcircumflex" unicode="&#x125;" 
 />
    <glyph glyph-name="Hbar" unicode="&#x126;" horiz-adv-x="1479" 
 />
    <glyph glyph-name="hbar" unicode="&#x127;" 
 />
    <glyph glyph-name="Itilde" unicode="&#x128;" horiz-adv-x="569" 
 />
    <glyph glyph-name="itilde" unicode="&#x129;" horiz-adv-x="569" 
 />
    <glyph glyph-name="Imacron" unicode="&#x12a;" horiz-adv-x="569" 
 />
    <glyph glyph-name="imacron" unicode="&#x12b;" horiz-adv-x="569" 
 />
    <glyph glyph-name="Ibreve" unicode="&#x12c;" horiz-adv-x="569" 
 />
    <glyph glyph-name="ibreve" unicode="&#x12d;" horiz-adv-x="569" 
 />
    <glyph glyph-name="Iogonek" unicode="&#x12e;" horiz-adv-x="569" 
 />
    <glyph glyph-name="iogonek" unicode="&#x12f;" horiz-adv-x="455" 
 />
    <glyph glyph-name="Idotaccent" unicode="&#x130;" horiz-adv-x="569" 
 />
    <glyph glyph-name="dotlessi" unicode="&#x131;" horiz-adv-x="569" 
 />
    <glyph glyph-name="IJ" unicode="&#x132;" horiz-adv-x="1505" 
 />
    <glyph glyph-name="ij" unicode="&#x133;" horiz-adv-x="909" 
 />
    <glyph glyph-name="Jcircumflex" unicode="&#x134;" horiz-adv-x="1024" 
 />
    <glyph glyph-name="jcircumflex" unicode="&#x135;" horiz-adv-x="455" 
 />
    <glyph glyph-name="Kcommaaccent" unicode="&#x136;" horiz-adv-x="1366" 
 />
    <glyph glyph-name="kcommaaccent" unicode="&#x137;" horiz-adv-x="1024" 
 />
    <glyph glyph-name="kgreenlandic" unicode="&#x138;" horiz-adv-x="1024" 
 />
    <glyph glyph-name="Lacute" unicode="&#x139;" 
 />
    <glyph glyph-name="lacute" unicode="&#x13a;" horiz-adv-x="455" 
 />
    <glyph glyph-name="Lcommaaccent" unicode="&#x13b;" 
 />
    <glyph glyph-name="lcommaaccent" unicode="&#x13c;" horiz-adv-x="455" 
 />
    <glyph glyph-name="Lcaron" unicode="&#x13d;" 
 />
    <glyph glyph-name="lcaron" unicode="&#x13e;" horiz-adv-x="597" 
 />
    <glyph glyph-name="Ldot" unicode="&#x13f;" 
 />
    <glyph glyph-name="ldot" unicode="&#x140;" horiz-adv-x="684" 
 />
    <glyph glyph-name="Lslash" unicode="&#x141;" 
 />
    <glyph glyph-name="lslash" unicode="&#x142;" horiz-adv-x="455" 
 />
    <glyph glyph-name="Nacute" unicode="&#x143;" horiz-adv-x="1479" 
 />
    <glyph glyph-name="nacute" unicode="&#x144;" 
 />
    <glyph glyph-name="Ncommaaccent" unicode="&#x145;" horiz-adv-x="1479" 
 />
    <glyph glyph-name="ncommaaccent" unicode="&#x146;" 
 />
    <glyph glyph-name="Ncaron" unicode="&#x147;" horiz-adv-x="1479" 
 />
    <glyph glyph-name="ncaron" unicode="&#x148;" 
 />
    <glyph glyph-name="napostrophe" unicode="&#x149;" horiz-adv-x="1237" 
 />
    <glyph glyph-name="Eng" unicode="&#x14a;" horiz-adv-x="1481" 
 />
    <glyph glyph-name="eng" unicode="&#x14b;" 
 />
    <glyph glyph-name="Omacron" unicode="&#x14c;" horiz-adv-x="1593" 
 />
    <glyph glyph-name="omacron" unicode="&#x14d;" 
 />
    <glyph glyph-name="Obreve" unicode="&#x14e;" horiz-adv-x="1593" 
 />
    <glyph glyph-name="obreve" unicode="&#x14f;" 
 />
    <glyph glyph-name="Ohungarumlaut" unicode="&#x150;" horiz-adv-x="1593" 
 />
    <glyph glyph-name="ohungarumlaut" unicode="&#x151;" 
 />
    <glyph glyph-name="OE" unicode="&#x152;" horiz-adv-x="2048" 
 />
    <glyph glyph-name="oe" unicode="&#x153;" horiz-adv-x="1933" 
 />
    <glyph glyph-name="Racute" unicode="&#x154;" horiz-adv-x="1479" 
 />
    <glyph glyph-name="racute" unicode="&#x155;" horiz-adv-x="682" 
 />
    <glyph glyph-name="Rcommaaccent" unicode="&#x156;" horiz-adv-x="1479" 
 />
    <glyph glyph-name="rcommaaccent" unicode="&#x157;" horiz-adv-x="682" 
 />
    <glyph glyph-name="Rcaron" unicode="&#x158;" horiz-adv-x="1479" 
 />
    <glyph glyph-name="rcaron" unicode="&#x159;" horiz-adv-x="682" 
 />
    <glyph glyph-name="Sacute" unicode="&#x15a;" horiz-adv-x="1366" 
 />
    <glyph glyph-name="sacute" unicode="&#x15b;" horiz-adv-x="1024" 
 />
    <glyph glyph-name="Scircumflex" unicode="&#x15c;" horiz-adv-x="1366" 
 />
    <glyph glyph-name="scircumflex" unicode="&#x15d;" horiz-adv-x="1024" 
 />
    <glyph glyph-name="Scedilla" unicode="&#x15e;" horiz-adv-x="1366" 
 />
    <glyph glyph-name="scedilla" unicode="&#x15f;" horiz-adv-x="1024" 
 />
    <glyph glyph-name="Scaron" unicode="&#x160;" horiz-adv-x="1366" 
 />
    <glyph glyph-name="scaron" unicode="&#x161;" horiz-adv-x="1024" 
 />
    <glyph glyph-name="Tcommaaccent" unicode="&#x162;" horiz-adv-x="1251" 
 />
    <glyph glyph-name="tcommaaccent" unicode="&#x163;" horiz-adv-x="569" 
 />
    <glyph glyph-name="Tcaron" unicode="&#x164;" horiz-adv-x="1251" 
 />
    <glyph glyph-name="tcaron" unicode="&#x165;" horiz-adv-x="768" 
 />
    <glyph glyph-name="Tbar" unicode="&#x166;" horiz-adv-x="1251" 
 />
    <glyph glyph-name="tbar" unicode="&#x167;" horiz-adv-x="569" 
 />
    <glyph glyph-name="Utilde" unicode="&#x168;" horiz-adv-x="1479" 
 />
    <glyph glyph-name="utilde" unicode="&#x169;" 
 />
    <glyph glyph-name="Umacron" unicode="&#x16a;" horiz-adv-x="1479" 
 />
    <glyph glyph-name="umacron" unicode="&#x16b;" 
 />
    <glyph glyph-name="Ubreve" unicode="&#x16c;" horiz-adv-x="1479" 
 />
    <glyph glyph-name="ubreve" unicode="&#x16d;" 
 />
    <glyph glyph-name="Uring" unicode="&#x16e;" horiz-adv-x="1479" 
 />
    <glyph glyph-name="uring" unicode="&#x16f;" 
 />
    <glyph glyph-name="Uhungarumlaut" unicode="&#x170;" horiz-adv-x="1479" 
 />
    <glyph glyph-name="uhungarumlaut" unicode="&#x171;" 
 />
    <glyph glyph-name="Uogonek" unicode="&#x172;" horiz-adv-x="1479" 
 />
    <glyph glyph-name="uogonek" unicode="&#x173;" 
 />
    <glyph glyph-name="Wcircumflex" unicode="&#x174;" horiz-adv-x="1933" 
 />
    <glyph glyph-name="wcircumflex" unicode="&#x175;" horiz-adv-x="1479" 
 />
    <glyph glyph-name="Ycircumflex" unicode="&#x176;" horiz-adv-x="1366" 
 />
    <glyph glyph-name="ycircumflex" unicode="&#x177;" horiz-adv-x="1024" 
 />
    <glyph glyph-name="Ydieresis" unicode="&#x178;" horiz-adv-x="1366" 
 />
    <glyph glyph-name="Zacute" unicode="&#x179;" horiz-adv-x="1251" 
 />
    <glyph glyph-name="zacute" unicode="&#x17a;" horiz-adv-x="1024" 
 />
    <glyph glyph-name="Zdotaccent" unicode="&#x17b;" horiz-adv-x="1251" 
 />
    <glyph glyph-name="zdotaccent" unicode="&#x17c;" horiz-adv-x="1024" 
 />
    <glyph glyph-name="Zcaron" unicode="&#x17d;" horiz-adv-x="1251" 
 />
    <glyph glyph-name="zcaron" unicode="&#x17e;" horiz-adv-x="1024" 
 />
    <glyph glyph-name="longs" unicode="&#x17f;" horiz-adv-x="455" 
 />
    <glyph glyph-name="florin" unicode="&#x192;" 
 />
    <glyph glyph-name="Aringacute" unicode="&#x1fa;" horiz-adv-x="1366" 
 />
    <glyph glyph-name="aringacute" unicode="&#x1fb;" 
 />
    <glyph glyph-name="AEacute" unicode="&#x1fc;" horiz-adv-x="2048" 
 />
    <glyph glyph-name="aeacute" unicode="&#x1fd;" horiz-adv-x="1821" 
 />
    <glyph glyph-name="Oslashacute" unicode="&#x1fe;" horiz-adv-x="1593" 
 />
    <glyph glyph-name="oslashacute" unicode="&#x1ff;" horiz-adv-x="1251" 
 />
    <glyph glyph-name="circumflex" unicode="&#x2c6;" horiz-adv-x="682" 
 />
    <glyph glyph-name="caron" unicode="&#x2c7;" horiz-adv-x="682" 
 />
    <glyph glyph-name="uni02C9" unicode="&#x2c9;" horiz-adv-x="682" 
 />
    <glyph glyph-name="breve" unicode="&#x2d8;" horiz-adv-x="682" 
 />
    <glyph glyph-name="dotaccent" unicode="&#x2d9;" horiz-adv-x="682" 
 />
    <glyph glyph-name="ring" unicode="&#x2da;" horiz-adv-x="682" 
 />
    <glyph glyph-name="ogonek" unicode="&#x2db;" horiz-adv-x="682" 
 />
    <glyph glyph-name="tilde" unicode="&#x2dc;" horiz-adv-x="682" 
 />
    <glyph glyph-name="hungarumlaut" unicode="&#x2dd;" horiz-adv-x="682" 
 />
    <glyph glyph-name="tonos" unicode="&#x384;" horiz-adv-x="682" 
 />
    <glyph glyph-name="dieresistonos" unicode="&#x385;" horiz-adv-x="682" 
 />
    <glyph glyph-name="Alphatonos" unicode="&#x386;" horiz-adv-x="1367" 
 />
    <glyph glyph-name="anoteleia" unicode="&#x387;" horiz-adv-x="569" 
 />
    <glyph glyph-name="Epsilontonos" unicode="&#x388;" horiz-adv-x="1606" 
 />
    <glyph glyph-name="Etatonos" unicode="&#x389;" horiz-adv-x="1716" 
 />
    <glyph glyph-name="Iotatonos" unicode="&#x38a;" horiz-adv-x="786" 
 />
    <glyph glyph-name="Omicrontonos" unicode="&#x38c;" horiz-adv-x="1586" 
 />
    <glyph glyph-name="Upsilontonos" unicode="&#x38e;" horiz-adv-x="1752" 
 />
    <glyph glyph-name="Omegatonos" unicode="&#x38f;" horiz-adv-x="1541" 
 />
    <glyph glyph-name="iotadieresistonos" unicode="&#x390;" horiz-adv-x="455" 
 />
    <glyph glyph-name="Alpha" unicode="&#x391;" horiz-adv-x="1366" 
 />
    <glyph glyph-name="Beta" unicode="&#x392;" horiz-adv-x="1366" 
 />
    <glyph glyph-name="Gamma" unicode="&#x393;" horiz-adv-x="1128" 
 />
    <glyph glyph-name="uni0394" unicode="&#x394;" horiz-adv-x="1368" 
 />
    <glyph glyph-name="Epsilon" unicode="&#x395;" horiz-adv-x="1366" 
 />
    <glyph glyph-name="Zeta" unicode="&#x396;" horiz-adv-x="1251" 
 />
    <glyph glyph-name="Eta" unicode="&#x397;" horiz-adv-x="1479" 
 />
    <glyph glyph-name="Theta" unicode="&#x398;" horiz-adv-x="1593" 
 />
    <glyph glyph-name="Iota" unicode="&#x399;" horiz-adv-x="569" 
 />
    <glyph glyph-name="Kappa" unicode="&#x39a;" horiz-adv-x="1366" 
 />
    <glyph glyph-name="Lambda" unicode="&#x39b;" horiz-adv-x="1368" 
 />
    <glyph glyph-name="Mu" unicode="&#x39c;" horiz-adv-x="1706" 
 />
    <glyph glyph-name="Nu" unicode="&#x39d;" horiz-adv-x="1479" 
 />
    <glyph glyph-name="Xi" unicode="&#x39e;" horiz-adv-x="1331" 
 />
    <glyph glyph-name="Omicron" unicode="&#x39f;" horiz-adv-x="1593" 
 />
    <glyph glyph-name="Pi" unicode="&#x3a0;" horiz-adv-x="1479" 
 />
    <glyph glyph-name="Rho" unicode="&#x3a1;" horiz-adv-x="1366" 
 />
    <glyph glyph-name="Sigma" unicode="&#x3a3;" horiz-adv-x="1266" 
 />
    <glyph glyph-name="Tau" unicode="&#x3a4;" horiz-adv-x="1251" 
 />
    <glyph glyph-name="Upsilon" unicode="&#x3a5;" horiz-adv-x="1366" 
 />
    <glyph glyph-name="Phi" unicode="&#x3a6;" horiz-adv-x="1634" 
 />
    <glyph glyph-name="Chi" unicode="&#x3a7;" horiz-adv-x="1366" 
 />
    <glyph glyph-name="Psi" unicode="&#x3a8;" horiz-adv-x="1711" 
 />
    <glyph glyph-name="uni03A9" unicode="&#x3a9;" horiz-adv-x="1531" 
 />
    <glyph glyph-name="Iotadieresis" unicode="&#x3aa;" horiz-adv-x="569" 
 />
    <glyph glyph-name="Upsilondieresis" unicode="&#x3ab;" horiz-adv-x="1366" 
 />
    <glyph glyph-name="alphatonos" unicode="&#x3ac;" horiz-adv-x="1184" 
 />
    <glyph glyph-name="epsilontonos" unicode="&#x3ad;" horiz-adv-x="913" 
 />
    <glyph glyph-name="etatonos" unicode="&#x3ae;" 
 />
    <glyph glyph-name="iotatonos" unicode="&#x3af;" horiz-adv-x="455" 
 />
    <glyph glyph-name="upsilondieresistonos" unicode="&#x3b0;" horiz-adv-x="1120" 
 />
    <glyph glyph-name="alpha" unicode="&#x3b1;" horiz-adv-x="1184" 
 />
    <glyph glyph-name="beta" unicode="&#x3b2;" horiz-adv-x="1178" 
 />
    <glyph glyph-name="gamma" unicode="&#x3b3;" horiz-adv-x="1024" 
 />
    <glyph glyph-name="delta" unicode="&#x3b4;" horiz-adv-x="1140" 
 />
    <glyph glyph-name="epsilon" unicode="&#x3b5;" horiz-adv-x="913" 
 />
    <glyph glyph-name="zeta" unicode="&#x3b6;" horiz-adv-x="903" 
 />
    <glyph glyph-name="eta" unicode="&#x3b7;" 
 />
    <glyph glyph-name="theta" unicode="&#x3b8;" 
 />
    <glyph glyph-name="iota" unicode="&#x3b9;" horiz-adv-x="455" 
 />
    <glyph glyph-name="kappa" unicode="&#x3ba;" horiz-adv-x="1024" 
 />
    <glyph glyph-name="lambda" unicode="&#x3bb;" horiz-adv-x="1024" 
 />
    <glyph glyph-name="uni03BC" unicode="&#x3bc;" horiz-adv-x="1180" 
 />
    <glyph glyph-name="nu" unicode="&#x3bd;" horiz-adv-x="1024" 
 />
    <glyph glyph-name="xi" unicode="&#x3be;" horiz-adv-x="917" 
 />
    <glyph glyph-name="omicron" unicode="&#x3bf;" 
 />
    <glyph glyph-name="pi" unicode="&#x3c0;" horiz-adv-x="1413" 
 />
    <glyph glyph-name="rho" unicode="&#x3c1;" horiz-adv-x="1165" 
 />
    <glyph glyph-name="sigma1" unicode="&#x3c2;" horiz-adv-x="987" 
 />
    <glyph glyph-name="sigma" unicode="&#x3c3;" horiz-adv-x="1264" 
 />
    <glyph glyph-name="tau" unicode="&#x3c4;" horiz-adv-x="809" 
 />
    <glyph glyph-name="upsilon" unicode="&#x3c5;" horiz-adv-x="1120" 
 />
    <glyph glyph-name="phi" unicode="&#x3c6;" horiz-adv-x="1328" 
 />
    <glyph glyph-name="chi" unicode="&#x3c7;" horiz-adv-x="1075" 
 />
    <glyph glyph-name="psi" unicode="&#x3c8;" horiz-adv-x="1460" 
 />
    <glyph glyph-name="omega" unicode="&#x3c9;" horiz-adv-x="1599" 
 />
    <glyph glyph-name="iotadieresis" unicode="&#x3ca;" horiz-adv-x="455" 
 />
    <glyph glyph-name="upsilondieresis" unicode="&#x3cb;" horiz-adv-x="1120" 
 />
    <glyph glyph-name="omicrontonos" unicode="&#x3cc;" 
 />
    <glyph glyph-name="upsilontonos" unicode="&#x3cd;" horiz-adv-x="1120" 
 />
    <glyph glyph-name="omegatonos" unicode="&#x3ce;" horiz-adv-x="1599" 
 />
    <glyph glyph-name="afii10023" unicode="&#x401;" horiz-adv-x="1367" 
 />
    <glyph glyph-name="afii10051" unicode="&#x402;" horiz-adv-x="1771" 
 />
    <glyph glyph-name="afii10052" unicode="&#x403;" horiz-adv-x="1109" 
 />
    <glyph glyph-name="afii10053" unicode="&#x404;" horiz-adv-x="1472" 
 />
    <glyph glyph-name="afii10054" unicode="&#x405;" horiz-adv-x="1366" 
 />
    <glyph glyph-name="afii10055" unicode="&#x406;" horiz-adv-x="569" 
 />
    <glyph glyph-name="afii10056" unicode="&#x407;" horiz-adv-x="569" 
 />
    <glyph glyph-name="afii10057" unicode="&#x408;" horiz-adv-x="1024" 
 />
    <glyph glyph-name="afii10058" unicode="&#x409;" horiz-adv-x="2165" 
 />
    <glyph glyph-name="afii10059" unicode="&#x40a;" horiz-adv-x="2069" 
 />
    <glyph glyph-name="afii10060" unicode="&#x40b;" horiz-adv-x="1749" 
 />
    <glyph glyph-name="afii10061" unicode="&#x40c;" horiz-adv-x="1193" 
 />
    <glyph glyph-name="afii10062" unicode="&#x40e;" horiz-adv-x="1301" 
 />
    <glyph glyph-name="afii10145" unicode="&#x40f;" horiz-adv-x="1472" 
 />
    <glyph glyph-name="afii10017" unicode="&#x410;" horiz-adv-x="1366" 
 />
    <glyph glyph-name="afii10018" unicode="&#x411;" horiz-adv-x="1344" 
 />
    <glyph glyph-name="afii10019" unicode="&#x412;" horiz-adv-x="1366" 
 />
    <glyph glyph-name="afii10020" unicode="&#x413;" horiz-adv-x="1109" 
 />
    <glyph glyph-name="afii10021" unicode="&#x414;" horiz-adv-x="1387" 
 />
    <glyph glyph-name="afii10022" unicode="&#x415;" horiz-adv-x="1366" 
 />
    <glyph glyph-name="afii10024" unicode="&#x416;" horiz-adv-x="1891" 
 />
    <glyph glyph-name="afii10025" unicode="&#x417;" horiz-adv-x="1237" 
 />
    <glyph glyph-name="afii10026" unicode="&#x418;" horiz-adv-x="1472" 
 />
    <glyph glyph-name="afii10027" unicode="&#x419;" horiz-adv-x="1472" 
 />
    <glyph glyph-name="afii10028" unicode="&#x41a;" horiz-adv-x="1193" 
 />
    <glyph glyph-name="afii10029" unicode="&#x41b;" horiz-adv-x="1344" 
 />
    <glyph glyph-name="afii10030" unicode="&#x41c;" horiz-adv-x="1706" 
 />
    <glyph glyph-name="afii10031" unicode="&#x41d;" horiz-adv-x="1479" 
 />
    <glyph glyph-name="afii10032" unicode="&#x41e;" horiz-adv-x="1593" 
 />
    <glyph glyph-name="afii10033" unicode="&#x41f;" horiz-adv-x="1472" 
 />
    <glyph glyph-name="afii10034" unicode="&#x420;" horiz-adv-x="1366" 
 />
    <glyph glyph-name="afii10035" unicode="&#x421;" horiz-adv-x="1479" 
 />
    <glyph glyph-name="afii10036" unicode="&#x422;" horiz-adv-x="1251" 
 />
    <glyph glyph-name="afii10037" unicode="&#x423;" horiz-adv-x="1301" 
 />
    <glyph glyph-name="afii10038" unicode="&#x424;" horiz-adv-x="1557" 
 />
    <glyph glyph-name="afii10039" unicode="&#x425;" horiz-adv-x="1366" 
 />
    <glyph glyph-name="afii10040" unicode="&#x426;" horiz-adv-x="1515" 
 />
    <glyph glyph-name="afii10041" unicode="&#x427;" horiz-adv-x="1365" 
 />
    <glyph glyph-name="afii10042" unicode="&#x428;" horiz-adv-x="1877" 
 />
    <glyph glyph-name="afii10043" unicode="&#x429;" horiz-adv-x="1920" 
 />
    <glyph glyph-name="afii10044" unicode="&#x42a;" horiz-adv-x="1621" 
 />
    <glyph glyph-name="afii10045" unicode="&#x42b;" horiz-adv-x="1813" 
 />
    <glyph glyph-name="afii10046" unicode="&#x42c;" horiz-adv-x="1344" 
 />
    <glyph glyph-name="afii10047" unicode="&#x42d;" horiz-adv-x="1472" 
 />
    <glyph glyph-name="afii10048" unicode="&#x42e;" horiz-adv-x="2069" 
 />
    <glyph glyph-name="afii10049" unicode="&#x42f;" horiz-adv-x="1479" 
 />
    <glyph glyph-name="afii10065" unicode="&#x430;" 
 />
    <glyph glyph-name="afii10066" unicode="&#x431;" horiz-adv-x="1173" 
 />
    <glyph glyph-name="afii10067" unicode="&#x432;" horiz-adv-x="1088" 
 />
    <glyph glyph-name="afii10068" unicode="&#x433;" horiz-adv-x="747" 
 />
    <glyph glyph-name="afii10069" unicode="&#x434;" horiz-adv-x="1195" 
 />
    <glyph glyph-name="afii10070" unicode="&#x435;" 
 />
    <glyph glyph-name="afii10072" unicode="&#x436;" horiz-adv-x="1370" 
 />
    <glyph glyph-name="afii10073" unicode="&#x437;" horiz-adv-x="939" 
 />
    <glyph glyph-name="afii10074" unicode="&#x438;" horiz-adv-x="1144" 
 />
    <glyph glyph-name="afii10075" unicode="&#x439;" horiz-adv-x="1144" 
 />
    <glyph glyph-name="afii10076" unicode="&#x43a;" horiz-adv-x="896" 
 />
    <glyph glyph-name="afii10077" unicode="&#x43b;" horiz-adv-x="1195" 
 />
    <glyph glyph-name="afii10078" unicode="&#x43c;" horiz-adv-x="1408" 
 />
    <glyph glyph-name="afii10079" unicode="&#x43d;" horiz-adv-x="1131" 
 />
    <glyph glyph-name="afii10080" unicode="&#x43e;" 
 />
    <glyph glyph-name="afii10081" unicode="&#x43f;" horiz-adv-x="1109" 
 />
    <glyph glyph-name="afii10082" unicode="&#x440;" 
 />
    <glyph glyph-name="afii10083" unicode="&#x441;" horiz-adv-x="1024" 
 />
    <glyph glyph-name="afii10084" unicode="&#x442;" horiz-adv-x="938" 
 />
    <glyph glyph-name="afii10085" unicode="&#x443;" horiz-adv-x="1024" 
 />
    <glyph glyph-name="afii10086" unicode="&#x444;" horiz-adv-x="1685" 
 />
    <glyph glyph-name="afii10087" unicode="&#x445;" horiz-adv-x="1024" 
 />
    <glyph glyph-name="afii10088" unicode="&#x446;" horiz-adv-x="1173" 
 />
    <glyph glyph-name="afii10089" unicode="&#x447;" horiz-adv-x="1067" 
 />
    <glyph glyph-name="afii10090" unicode="&#x448;" horiz-adv-x="1643" 
 />
    <glyph glyph-name="afii10091" unicode="&#x449;" horiz-adv-x="1685" 
 />
    <glyph glyph-name="afii10092" unicode="&#x44a;" horiz-adv-x="1280" 
 />
    <glyph glyph-name="afii10093" unicode="&#x44b;" horiz-adv-x="1472" 
 />
    <glyph glyph-name="afii10094" unicode="&#x44c;" horiz-adv-x="1067" 
 />
    <glyph glyph-name="afii10095" unicode="&#x44d;" horiz-adv-x="1045" 
 />
    <glyph glyph-name="afii10096" unicode="&#x44e;" horiz-adv-x="1536" 
 />
    <glyph glyph-name="afii10097" unicode="&#x44f;" horiz-adv-x="1109" 
 />
    <glyph glyph-name="afii10071" unicode="&#x451;" 
 />
    <glyph glyph-name="afii10099" unicode="&#x452;" 
 />
    <glyph glyph-name="afii10100" unicode="&#x453;" horiz-adv-x="747" 
 />
    <glyph glyph-name="afii10101" unicode="&#x454;" horiz-adv-x="1045" 
 />
    <glyph glyph-name="afii10102" unicode="&#x455;" horiz-adv-x="1024" 
 />
    <glyph glyph-name="afii10103" unicode="&#x456;" horiz-adv-x="455" 
 />
    <glyph glyph-name="afii10104" unicode="&#x457;" horiz-adv-x="569" 
 />
    <glyph glyph-name="afii10105" unicode="&#x458;" horiz-adv-x="455" 
 />
    <glyph glyph-name="afii10106" unicode="&#x459;" horiz-adv-x="1856" 
 />
    <glyph glyph-name="afii10107" unicode="&#x45a;" horiz-adv-x="1664" 
 />
    <glyph glyph-name="afii10108" unicode="&#x45b;" 
 />
    <glyph glyph-name="afii10109" unicode="&#x45c;" horiz-adv-x="896" 
 />
    <glyph glyph-name="afii10110" unicode="&#x45e;" horiz-adv-x="1024" 
 />
    <glyph glyph-name="afii10193" unicode="&#x45f;" horiz-adv-x="1131" 
 />
    <glyph glyph-name="afii10050" unicode="&#x490;" horiz-adv-x="1001" 
 />
    <glyph glyph-name="afii10098" unicode="&#x491;" horiz-adv-x="842" 
 />
    <glyph glyph-name="Wgrave" unicode="&#x1e80;" horiz-adv-x="1933" 
 />
    <glyph glyph-name="wgrave" unicode="&#x1e81;" horiz-adv-x="1479" 
 />
    <glyph glyph-name="Wacute" unicode="&#x1e82;" horiz-adv-x="1933" 
 />
    <glyph glyph-name="wacute" unicode="&#x1e83;" horiz-adv-x="1479" 
 />
    <glyph glyph-name="Wdieresis" unicode="&#x1e84;" horiz-adv-x="1933" 
 />
    <glyph glyph-name="wdieresis" unicode="&#x1e85;" horiz-adv-x="1479" 
 />
    <glyph glyph-name="Ygrave" unicode="&#x1ef2;" horiz-adv-x="1366" 
 />
    <glyph glyph-name="ygrave" unicode="&#x1ef3;" horiz-adv-x="1024" 
 />
    <glyph glyph-name="endash" unicode="&#x2013;" 
 />
    <glyph glyph-name="emdash" unicode="&#x2014;" horiz-adv-x="2048" 
 />
    <glyph glyph-name="afii00208" unicode="&#x2015;" horiz-adv-x="2048" 
 />
    <glyph glyph-name="underscoredbl" unicode="&#x2017;" horiz-adv-x="1131" 
 />
    <glyph glyph-name="quoteleft" unicode="&#x2018;" horiz-adv-x="455" 
 />
    <glyph glyph-name="quoteright" unicode="&#x2019;" horiz-adv-x="455" 
 />
    <glyph glyph-name="quotesinglbase" unicode="&#x201a;" horiz-adv-x="455" 
 />
    <glyph glyph-name="quotereversed" unicode="&#x201b;" horiz-adv-x="455" 
 />
    <glyph glyph-name="quotedblleft" unicode="&#x201c;" horiz-adv-x="682" 
 />
    <glyph glyph-name="quotedblright" unicode="&#x201d;" horiz-adv-x="682" 
 />
    <glyph glyph-name="quotedblbase" unicode="&#x201e;" horiz-adv-x="682" 
 />
    <glyph glyph-name="dagger" unicode="&#x2020;" 
 />
    <glyph glyph-name="daggerdbl" unicode="&#x2021;" 
 />
    <glyph glyph-name="bullet" unicode="&#x2022;" horiz-adv-x="717" 
 />
    <glyph glyph-name="ellipsis" unicode="&#x2026;" horiz-adv-x="2048" 
 />
    <glyph glyph-name="perthousand" unicode="&#x2030;" horiz-adv-x="2048" 
 />
    <glyph glyph-name="minute" unicode="&#x2032;" horiz-adv-x="384" 
 />
    <glyph glyph-name="second" unicode="&#x2033;" horiz-adv-x="725" 
 />
    <glyph glyph-name="guilsinglleft" unicode="&#x2039;" horiz-adv-x="682" 
 />
    <glyph glyph-name="guilsinglright" unicode="&#x203a;" horiz-adv-x="682" 
 />
    <glyph glyph-name="exclamdbl" unicode="&#x203c;" horiz-adv-x="1024" 
 />
    <glyph glyph-name="uni203E" unicode="&#x203e;" horiz-adv-x="682" 
 />
    <glyph glyph-name="fraction" unicode="&#x2044;" horiz-adv-x="342" 
 />
    <glyph glyph-name="fraction" unicode="&#x2215;" horiz-adv-x="342" 
 />
    <glyph glyph-name="uni207F" unicode="&#x207f;" horiz-adv-x="747" 
 />
    <glyph glyph-name="franc" unicode="&#x20a3;" 
 />
    <glyph glyph-name="lira" unicode="&#x20a4;" 
 />
    <glyph glyph-name="peseta" unicode="&#x20a7;" horiz-adv-x="2240" 
 />
    <glyph glyph-name="Euro" unicode="&#x20ac;" 
 />
    <glyph glyph-name="afii61248" unicode="&#x2105;" horiz-adv-x="1813" 
 />
    <glyph glyph-name="afii61289" unicode="&#x2113;" horiz-adv-x="662" 
 />
    <glyph glyph-name="afii61352" unicode="&#x2116;" horiz-adv-x="2197" 
 />
    <glyph glyph-name="trademark" unicode="&#x2122;" horiz-adv-x="2048" 
 />
    <glyph glyph-name="Omega" unicode="&#x2126;" horiz-adv-x="1573" 
 />
    <glyph glyph-name="estimated" unicode="&#x212e;" horiz-adv-x="1229" 
 />
    <glyph glyph-name="oneeighth" unicode="&#x215b;" horiz-adv-x="1708" 
 />
    <glyph glyph-name="threeeighths" unicode="&#x215c;" horiz-adv-x="1708" 
 />
    <glyph glyph-name="fiveeighths" unicode="&#x215d;" horiz-adv-x="1708" 
 />
    <glyph glyph-name="seveneighths" unicode="&#x215e;" horiz-adv-x="1708" 
 />
    <glyph glyph-name="arrowleft" unicode="&#x2190;" horiz-adv-x="2048" 
 />
    <glyph glyph-name="arrowup" unicode="&#x2191;" horiz-adv-x="1024" 
 />
    <glyph glyph-name="arrowright" unicode="&#x2192;" horiz-adv-x="2048" 
 />
    <glyph glyph-name="arrowdown" unicode="&#x2193;" horiz-adv-x="1024" 
 />
    <glyph glyph-name="arrowboth" unicode="&#x2194;" horiz-adv-x="2048" 
 />
    <glyph glyph-name="arrowupdn" unicode="&#x2195;" horiz-adv-x="1024" 
 />
    <glyph glyph-name="arrowupdnbse" unicode="&#x21a8;" horiz-adv-x="1024" 
 />
    <glyph glyph-name="partialdiff" unicode="&#x2202;" horiz-adv-x="1012" 
 />
    <glyph glyph-name="Delta" unicode="&#x2206;" horiz-adv-x="1253" 
 />
    <glyph glyph-name="product" unicode="&#x220f;" horiz-adv-x="1686" 
 />
    <glyph glyph-name="summation" unicode="&#x2211;" horiz-adv-x="1460" 
 />
    <glyph glyph-name="minus" unicode="&#x2212;" horiz-adv-x="1196" 
 />
    <glyph glyph-name="radical" unicode="&#x221a;" horiz-adv-x="1124" 
 />
    <glyph glyph-name="infinity" unicode="&#x221e;" horiz-adv-x="1460" 
 />
    <glyph glyph-name="orthogonal" unicode="&#x221f;" horiz-adv-x="2005" 
 />
    <glyph glyph-name="intersection" unicode="&#x2229;" horiz-adv-x="1472" 
 />
    <glyph glyph-name="integral" unicode="&#x222b;" horiz-adv-x="561" 
 />
    <glyph glyph-name="approxequal" unicode="&#x2248;" horiz-adv-x="1124" 
 />
    <glyph glyph-name="notequal" unicode="&#x2260;" horiz-adv-x="1124" 
 />
    <glyph glyph-name="equivalence" unicode="&#x2261;" horiz-adv-x="1195" 
 />
    <glyph glyph-name="lessequal" unicode="&#x2264;" horiz-adv-x="1124" 
 />
    <glyph glyph-name="greaterequal" unicode="&#x2265;" horiz-adv-x="1124" 
 />
    <glyph glyph-name="house" unicode="&#x2302;" horiz-adv-x="1237" 
 />
    <glyph glyph-name="revlogicalnot" unicode="&#x2310;" horiz-adv-x="1196" 
 />
    <glyph glyph-name="integraltp" unicode="&#x2320;" horiz-adv-x="1237" 
 />
    <glyph glyph-name="integralbt" unicode="&#x2321;" horiz-adv-x="1237" 
 />
    <glyph glyph-name="SF100000" unicode="&#x2500;" horiz-adv-x="1451" 
 />
    <glyph glyph-name="SF110000" unicode="&#x2502;" horiz-adv-x="1280" 
 />
    <glyph glyph-name="SF010000" unicode="&#x250c;" horiz-adv-x="1451" 
 />
    <glyph glyph-name="SF030000" unicode="&#x2510;" horiz-adv-x="1451" 
 />
    <glyph glyph-name="SF020000" unicode="&#x2514;" horiz-adv-x="1451" 
 />
    <glyph glyph-name="SF040000" unicode="&#x2518;" horiz-adv-x="1451" 
 />
    <glyph glyph-name="SF080000" unicode="&#x251c;" horiz-adv-x="1451" 
 />
    <glyph glyph-name="SF090000" unicode="&#x2524;" horiz-adv-x="1451" 
 />
    <glyph glyph-name="SF060000" unicode="&#x252c;" horiz-adv-x="1451" 
 />
    <glyph glyph-name="SF070000" unicode="&#x2534;" horiz-adv-x="1451" 
 />
    <glyph glyph-name="SF050000" unicode="&#x253c;" horiz-adv-x="1451" 
 />
    <glyph glyph-name="SF430000" unicode="&#x2550;" horiz-adv-x="1451" 
 />
    <glyph glyph-name="SF240000" unicode="&#x2551;" horiz-adv-x="1451" 
 />
    <glyph glyph-name="SF510000" unicode="&#x2552;" horiz-adv-x="1451" 
 />
    <glyph glyph-name="SF520000" unicode="&#x2553;" horiz-adv-x="1451" 
 />
    <glyph glyph-name="SF390000" unicode="&#x2554;" horiz-adv-x="1451" 
 />
    <glyph glyph-name="SF220000" unicode="&#x2555;" horiz-adv-x="1451" 
 />
    <glyph glyph-name="SF210000" unicode="&#x2556;" horiz-adv-x="1451" 
 />
    <glyph glyph-name="SF250000" unicode="&#x2557;" horiz-adv-x="1451" 
 />
    <glyph glyph-name="SF500000" unicode="&#x2558;" horiz-adv-x="1451" 
 />
    <glyph glyph-name="SF490000" unicode="&#x2559;" horiz-adv-x="1451" 
 />
    <glyph glyph-name="SF380000" unicode="&#x255a;" horiz-adv-x="1451" 
 />
    <glyph glyph-name="SF280000" unicode="&#x255b;" horiz-adv-x="1451" 
 />
    <glyph glyph-name="SF270000" unicode="&#x255c;" horiz-adv-x="1451" 
 />
    <glyph glyph-name="SF260000" unicode="&#x255d;" horiz-adv-x="1451" 
 />
    <glyph glyph-name="SF360000" unicode="&#x255e;" horiz-adv-x="1451" 
 />
    <glyph glyph-name="SF370000" unicode="&#x255f;" horiz-adv-x="1451" 
 />
    <glyph glyph-name="SF420000" unicode="&#x2560;" horiz-adv-x="1451" 
 />
    <glyph glyph-name="SF190000" unicode="&#x2561;" horiz-adv-x="1451" 
 />
    <glyph glyph-name="SF200000" unicode="&#x2562;" horiz-adv-x="1451" 
 />
    <glyph glyph-name="SF230000" unicode="&#x2563;" horiz-adv-x="1451" 
 />
    <glyph glyph-name="SF470000" unicode="&#x2564;" horiz-adv-x="1451" 
 />
    <glyph glyph-name="SF480000" unicode="&#x2565;" horiz-adv-x="1451" 
 />
    <glyph glyph-name="SF410000" unicode="&#x2566;" horiz-adv-x="1451" 
 />
    <glyph glyph-name="SF450000" unicode="&#x2567;" horiz-adv-x="1451" 
 />
    <glyph glyph-name="SF460000" unicode="&#x2568;" horiz-adv-x="1451" 
 />
    <glyph glyph-name="SF400000" unicode="&#x2569;" horiz-adv-x="1451" 
 />
    <glyph glyph-name="SF540000" unicode="&#x256a;" horiz-adv-x="1451" 
 />
    <glyph glyph-name="SF530000" unicode="&#x256b;" horiz-adv-x="1451" 
 />
    <glyph glyph-name="SF440000" unicode="&#x256c;" horiz-adv-x="1451" 
 />
    <glyph glyph-name="upblock" unicode="&#x2580;" horiz-adv-x="1451" 
 />
    <glyph glyph-name="dnblock" unicode="&#x2584;" horiz-adv-x="1451" 
 />
    <glyph glyph-name="block" unicode="&#x2588;" horiz-adv-x="1451" 
 />
    <glyph glyph-name="lfblock" unicode="&#x258c;" horiz-adv-x="1451" 
 />
    <glyph glyph-name="rtblock" unicode="&#x2590;" horiz-adv-x="1451" 
 />
    <glyph glyph-name="ltshade" unicode="&#x2591;" horiz-adv-x="1451" 
 />
    <glyph glyph-name="shade" unicode="&#x2592;" horiz-adv-x="1451" 
 />
    <glyph glyph-name="dkshade" unicode="&#x2593;" horiz-adv-x="1493" 
 />
    <glyph glyph-name="filledbox" unicode="&#x25a0;" horiz-adv-x="1237" 
 />
    <glyph glyph-name="H22073" unicode="&#x25a1;" horiz-adv-x="1237" 
 />
    <glyph glyph-name="H18543" unicode="&#x25aa;" horiz-adv-x="726" 
 />
    <glyph glyph-name="H18551" unicode="&#x25ab;" horiz-adv-x="726" 
 />
    <glyph glyph-name="filledrect" unicode="&#x25ac;" horiz-adv-x="2048" 
 />
    <glyph glyph-name="triagup" unicode="&#x25b2;" horiz-adv-x="2027" 
 />
    <glyph glyph-name="triagrt" unicode="&#x25ba;" horiz-adv-x="2027" 
 />
    <glyph glyph-name="triagdn" unicode="&#x25bc;" horiz-adv-x="2027" 
 />
    <glyph glyph-name="triaglf" unicode="&#x25c4;" horiz-adv-x="2027" 
 />
    <glyph glyph-name="lozenge" unicode="&#x25ca;" horiz-adv-x="1012" 
 />
    <glyph glyph-name="circle" unicode="&#x25cb;" horiz-adv-x="1237" 
 />
    <glyph glyph-name="H18533" unicode="&#x25cf;" horiz-adv-x="1237" 
 />
    <glyph glyph-name="invbullet" unicode="&#x25d8;" horiz-adv-x="1237" 
 />
    <glyph glyph-name="invcircle" unicode="&#x25d9;" horiz-adv-x="1237" 
 />
    <glyph glyph-name="openbullet" unicode="&#x25e6;" horiz-adv-x="726" 
 />
    <glyph glyph-name="smileface" unicode="&#x263a;" horiz-adv-x="2091" 
 />
    <glyph glyph-name="invsmileface" unicode="&#x263b;" horiz-adv-x="2155" 
 />
    <glyph glyph-name="sun" unicode="&#x263c;" horiz-adv-x="1877" 
 />
    <glyph glyph-name="female" unicode="&#x2640;" horiz-adv-x="1536" 
 />
    <glyph glyph-name="male" unicode="&#x2642;" horiz-adv-x="1536" 
 />
    <glyph glyph-name="spade" unicode="&#x2660;" horiz-adv-x="1088" 
 />
    <glyph glyph-name="club" unicode="&#x2663;" horiz-adv-x="1344" 
 />
    <glyph glyph-name="heart" unicode="&#x2665;" horiz-adv-x="1216" 
 />
    <glyph glyph-name="diamond" unicode="&#x2666;" horiz-adv-x="1045" 
 />
    <glyph glyph-name="musicalnote" unicode="&#x266a;" horiz-adv-x="1024" 
 />
    <glyph glyph-name="musicalnotedbl" unicode="&#x266b;" horiz-adv-x="1536" 
 />
    <glyph glyph-name="uniF001" unicode="&#xf001;" horiz-adv-x="1024" 
 />
    <glyph glyph-name="uniF001" unicode="&#xfb01;" horiz-adv-x="1024" 
 />
    <glyph glyph-name="uniF002" unicode="&#xf002;" horiz-adv-x="1024" 
 />
    <glyph glyph-name="uniF002" unicode="&#xfb02;" horiz-adv-x="1024" 
 />
    <glyph glyph-name="uniF004" unicode="&#xf004;" horiz-adv-x="682" 
 />
    <glyph glyph-name="uniF005" unicode="&#xf005;" horiz-adv-x="682" 
 />
    <glyph glyph-name="glyph155" horiz-adv-x="1124" 
 />
    </font>
</defs>
</svg>
